<?xml version="1.0" encoding="UTF-8"?>
<svg width="100px" height="75px" viewBox="0 0 100 75" version="1.1" xmlns="http://www.w3.org/2000/svg" xmlns:xlink="http://www.w3.org/1999/xlink">
    <title>css copy</title>
    <defs>
        <filter id="filter-1">
            <feColorMatrix in="SourceGraphic" type="matrix" values="0 0 0 0 1.000000 0 0 0 0 1.000000 0 0 0 0 1.000000 0 0 0 1.000000 0"></feColorMatrix>
        </filter>
    </defs>
    <g id="Page-1" stroke="none" stroke-width="1" fill="none" fill-rule="evenodd">
        <g id="All-icons-Copy" transform="translate(-167.000000, -23.000000)">
            <g id="css-copy" transform="translate(167.000000, 23.000000)" filter="url(#filter-1)">
                <g id="css" fill="#000000" fill-rule="nonzero">
                    <path d="M86.0865905,43.065322 C82.5901969,43.0853352 79.5618561,43.9258867 77.0215701,45.174706 C76.0854648,43.3174875 75.145359,41.6964239 74.9893414,40.4836281 C74.8133216,39.0747037 74.5972973,38.2181417 74.8133216,36.5370387 C75.0293459,34.8559357 76.0054558,32.4703705 76.0054558,32.2742418 C75.9854535,32.0981262 75.7894315,31.2375616 73.777205,31.2175485 C71.7649785,31.1975353 70.0247826,31.6098058 69.832761,32.1341499 C69.6407394,32.6584939 69.2486953,33.8752923 68.9926664,35.1241116 C68.6406268,36.9613171 64.9682135,43.4695873 62.8799784,46.88783 C62.1959014,45.5589581 61.6118357,44.3861887 61.4918222,43.4495741 C61.3158024,42.0406497 61.0997781,41.1840877 61.3158024,39.5029847 C61.5318267,37.8218817 62.5079366,35.4363165 62.5079366,35.2441904 C62.4879343,35.0680749 62.2919122,34.2075102 60.2796857,34.1874971 C58.2674593,34.167484 56.5272634,34.5797545 56.3352418,35.1040985 C56.1392197,35.6324452 55.9231954,36.8812645 55.4951472,38.0940603 C55.0831008,39.306856 50.2025515,50.1739862 48.9304083,53.0078455 C48.2863358,54.4527936 47.7182719,55.6055499 47.310226,56.3900646 C46.8981796,57.1705768 47.2902237,56.450104 47.2502192,56.5261539 C46.8981796,57.1905899 46.7021575,57.5628341 46.7021575,57.5628341 L46.7021575,57.5828473 C46.4301269,58.0711676 46.1340936,58.5394749 45.9980783,58.5394749 C45.9020675,58.5394749 45.7060454,57.2306161 46.0380828,55.433437 C46.7621643,51.6629631 48.5183619,45.7791026 48.4983597,45.5629608 C48.4983597,45.4668977 48.8303971,44.4302176 47.3662323,43.9018709 C45.942072,43.3735242 45.4340148,44.254102 45.3140013,44.254102 C45.1979882,44.254102 45.097977,44.5663069 45.097977,44.5663069 C45.097977,44.5663069 46.6821553,37.9419605 42.0696361,37.9419605 C39.1773106,37.9419605 35.1928621,41.0880247 33.2206401,43.9619103 C31.9724996,44.6463594 29.3122002,46.0913074 26.4998836,47.6363211 C25.4237625,48.2207046 24.3116373,48.8491169 23.2555185,49.4134872 L23.0394941,49.1773322 C17.4628665,43.2254271 7.12970341,39.0026564 7.56175204,30.9893988 C7.7177696,28.0754869 8.73388397,20.3984499 27.4079858,11.0923439 C42.7017072,3.47134366 54.951086,5.56071453 57.0793255,10.2117662 C60.1076664,16.8561257 50.5345889,29.2082301 34.6367995,30.9853962 C28.5801178,31.6698452 25.3957594,29.3243063 24.5956693,28.4437285 C23.7555747,27.5271271 23.6395617,27.4871009 23.3275266,27.6632164 C22.8194694,27.935395 23.1315045,28.7559334 23.3275266,29.2482564 C23.7955793,30.4810653 25.747799,32.6664992 29.0721732,33.7632187 C31.9805005,34.7198464 39.0933011,35.2481931 47.6862683,31.9260133 C57.3153521,28.1915631 64.8361986,17.8327665 62.6279501,9.17508599 C60.379697,0.365305726 45.7700526,-2.52859302 31.9564978,2.37462408 C23.7355725,5.30854908 14.8265697,9.8795482 8.42184885,15.8794849 C0.800991077,22.9961543 -0.407144906,29.2122327 0.100912279,31.789924 C1.8771122,40.9959643 14.5545391,46.995901 19.635111,51.4308108 C19.3830826,51.5669001 19.147056,51.7029894 18.9310317,51.8230682 C16.3907458,53.0718875 6.72165748,58.1352097 4.30138507,63.4907235 C1.56507708,69.5506996 4.72943325,73.9095595 6.84167099,74.4939429 C13.3664054,76.3111352 20.0471573,73.0489949 23.6595639,67.6734679 C27.2519683,62.2979409 26.8239201,55.3213634 25.1637332,52.135273 L25.1037265,52.0191968 L27.0959507,50.8464274 C28.3840957,50.0859284 29.6562389,49.3814662 30.7683641,48.773067 C30.1442938,50.4741831 29.692243,52.4875041 29.4602168,55.4174265 C29.1881862,58.8556824 30.5923443,63.314608 32.4485532,65.0717609 C33.2686455,65.8322598 34.2447554,65.852273 34.8528238,65.852273 C37.0010656,65.852273 37.9771755,64.0751069 39.0532966,61.9417072 C40.3814461,59.3440028 41.553578,56.3340279 41.553578,56.3340279 C41.553578,56.3340279 40.0894132,64.4833748 44.0938639,64.4833748 C45.5580287,64.4833748 47.0221935,62.58613 47.6862683,61.6094892 L47.6862683,61.6295023 C47.6862683,61.6295023 47.7262728,61.5694629 47.8022813,61.4333737 C47.8822904,61.3132949 47.9622994,61.1892135 48.0383079,61.0611294 L48.0383079,61.0211032 C48.6223737,60.0044361 49.9345213,57.6789103 51.8867411,53.8283839 C54.4070247,48.8651274 56.8272972,42.6490489 56.8272972,42.6490489 C56.8272972,42.6490489 57.0633237,44.1740495 57.7834048,46.6756909 C58.211453,48.1606652 59.1515588,49.7817288 59.8716398,51.3667688 C59.2875741,52.1873071 58.9355345,52.6556144 58.9355345,52.6556144 L58.9555367,52.6756275 C58.487484,53.3000372 57.9594246,53.9644732 57.4113629,54.6289091 C55.4191387,57.0144743 53.0348703,59.7282549 52.7228352,60.5127696 C52.3507933,61.429371 52.4308023,62.1138201 53.1508834,62.6621799 C53.6789428,63.0544373 54.6150482,63.1304872 55.6111603,63.0544373 C57.4073625,62.9383611 58.6595034,62.4860643 59.2835736,62.2138858 C60.2596835,61.8616547 61.3718087,61.333308 62.4479298,60.5527959 C64.4001495,59.1078478 65.5922837,57.0545006 65.4762707,54.3167043 C65.4162639,52.8117168 64.928209,51.3267425 64.324141,49.9178181 C64.5001608,49.6656526 64.6761806,49.4094846 64.8522004,49.137306 C67.9365476,44.6223436 70.3208159,39.6590871 70.3208159,39.6590871 C70.3208159,39.6590871 70.5568425,41.1840877 71.2769236,43.6857291 C71.6489654,44.9545616 72.3890487,46.3434729 73.0531235,47.712371 C70.1607979,50.0779231 68.3445935,52.8117168 67.7205233,54.6128986 C66.5683936,57.9350784 67.4684949,59.4400658 69.1646858,59.7922969 C69.9247714,59.9483993 71.0208947,59.5961682 71.840987,59.2439371 C72.8571014,58.9117192 74.0892401,58.3433462 75.2213675,57.5027947 C77.1735873,56.0578467 79.0497984,54.0445257 78.9537876,51.3267425 C78.8937809,50.0779231 78.5617435,48.8451143 78.1136931,47.6723448 C80.57397,46.6556777 83.7583284,46.0712943 87.8027836,46.5596147 C96.4957621,47.5762818 98.2159557,53.0078455 97.8839183,55.2773346 C97.551881,57.542821 95.7356765,58.795643 95.1276081,59.1879004 C94.5235401,59.5601446 94.327518,59.6962339 94.3835243,59.9684125 C94.4635333,60.380683 94.735564,60.3606698 95.2636234,60.2806173 C95.9877049,60.1645412 99.8361381,58.4233988 99.9921556,54.2406544 C100.228182,48.8731326 95.1276081,43.0092853 86.0865905,43.065322 Z M19.0470448,65.6801601 C16.1747215,68.8262242 12.1302663,70.0190069 10.4140731,69.0023398 C8.55786416,67.9256334 9.28194566,63.2945948 12.8183437,59.952402 C14.9665855,57.9190679 17.7588998,56.0418362 19.5951065,54.8890798 C20.0071528,54.6369144 20.6312231,54.2646701 21.3713064,53.8123734 C21.4873194,53.7363235 21.5673284,53.6962972 21.5673284,53.6962972 C21.7033438,53.6162447 21.8593613,53.5201817 22.0153789,53.4241186 C23.3235261,58.1952491 22.0753856,62.3779934 19.0470448,65.6801601 Z M40.0454083,51.3947871 C39.0492961,53.8363891 36.9410589,60.112507 35.6689157,59.7602759 C34.5767927,59.4680842 33.912718,54.7169669 35.4528913,50.025889 C36.2329792,47.6603369 37.893166,44.8464907 38.8692759,43.7537737 C40.4534542,41.9966208 42.1696474,41.4082348 42.601696,42.1327101 C43.1097532,43.065322 40.6694785,49.8697866 40.0454083,51.3947871 Z M57.3713584,59.6802234 C56.9433102,59.8963652 56.5512661,60.0524676 56.3752463,59.9363915 C56.239231,59.8563389 56.5512661,59.5641472 56.5512661,59.5641472 C56.5512661,59.5641472 58.7195101,57.2386214 59.579607,56.161915 C60.0676619,55.5375053 60.6557281,54.8130299 61.2797983,53.9924916 L61.2797983,54.2286465 C61.2757979,57.0424927 58.5834948,58.9157218 57.3713584,59.6802234 Z M70.7328623,56.6302222 C70.4208272,56.3940673 70.4608317,55.6735946 71.5129501,53.4041055 C71.9249965,52.5035146 72.8611019,50.9985272 74.4812842,49.5735922 C74.6773063,50.1579757 74.7933193,50.7263486 74.7733171,51.2546952 C74.7573153,54.7730037 72.2570339,56.0818624 70.7328623,56.6302222 Z" id="Shape"></path>
                </g>
            </g>
        </g>
    </g>
</svg>