<svg width="200" height="200" xmlns="http://www.w3.org/2000/svg">
 <!-- Created with Method Draw - http://github.com/duopixel/Method-Draw/ -->

 <g>
  <title>background</title>
  <rect fill="none" id="canvas_background" height="202" width="202" y="-1" x="-1"/>
  <g display="none" overflow="visible" y="0" x="0" height="100%" width="100%" id="canvasGrid">
   <rect fill="url(#gridpattern)" stroke-width="0" y="0" x="0" height="100%" width="100%"/>
  </g>
 </g>
 <g>
  <title>Layer 1</title>
  <defs>
   <style>.cls-1{fill:#20191b;}.cls-2{fill:#1e191b;}.cls-3{fill:#1f191b;}.cls-4{fill:#211b1d;}.cls-5{fill:#201b1d;}.cls-6{fill:#1e1b1c;}.cls-7{fill:#231d1f;}.cls-8{fill:#211d1f;}.cls-9{fill:#1f1c1d;}.cls-10{fill:#211e1f;}.cls-11{fill:#1f1d1e;}.cls-12{fill:#f7f5f6;}.cls-13{fill:#1f1b1c;}.cls-14{fill:#edecec;}.cls-15{fill:#211c1d;}.cls-16{fill:#1e1c1d;}.cls-17{fill:#221e1f;}.cls-18{fill:#f2f0f1;}.cls-19{fill:#1c1819;}.cls-20{fill:#242122;}.cls-21{fill:#252525;}.cls-22{fill:#232021;}.cls-23{fill:#211f20;}.cls-24{fill:#201d1e;}.cls-25{fill:#2a2829;}.cls-26{fill:#2f2f2f;}.cls-27{fill:#241f21;}.cls-28{fill:#252122;}.cls-29{fill:#242223;}.cls-30{fill:#251f21;}.cls-31{fill:#1c1618;}.cls-32{fill:#302e2f;}.cls-33{fill:#eeecec;}.cls-34{fill:#242022;}.cls-35{fill:#1f1f1f;}.cls-36{fill:#262425;}.cls-37{fill:#313232;}.cls-38{fill:#181516;}.cls-39{fill:#222121;}.cls-40{fill:#e9e9e9;}.cls-41{fill:#464646;}.cls-42{fill:#252223;}.cls-43{fill:#2f2e2e;}.cls-44{fill:#302f2f;}.cls-45{fill:#3c3c3c;}.cls-46{fill:#272626;}.cls-47{fill:#292929;}.cls-48{fill:#2c2a2b;}.cls-49{fill:#2d282a;}.cls-50{fill:#232122;}.cls-51{fill:#393939;}.cls-52{fill:#3a3939;}.cls-53{fill:#e0e0e0;}.cls-54{fill:#1a1818;}.cls-55{fill:#1b1819;}.cls-56{fill:#dfddde;}.cls-57{fill:#0f0f0f;}.cls-58{fill:#414141;}.cls-59{fill:#353334;}.cls-60{fill:#343535;}.cls-61{fill:#eae9e9;}.cls-62{fill:#3d3d3d;}.cls-63{fill:#e7e7e7;}.cls-64{fill:#0f0b0d;}.cls-65{fill:#bdbdbd;}.cls-66{fill:#e2e2e2;}.cls-67{fill:#333232;}.cls-68{fill:#141414;}.cls-69{fill:#e9e8e8;}.cls-70{fill:#2c2829;}.cls-71{fill:#0a0708;}.cls-72{fill:#363737;}.cls-73{fill:#4a4a4a;}.cls-74{fill:#b0b0b0;}.cls-75{fill:#444;}.cls-76{fill:#373536;}.cls-77{fill:#3a393a;}.cls-78{fill:#1d191a;}.cls-79{fill:#f7f7f7;}.cls-80{fill:#323131;}.cls-81{fill:#2d2c2c;}.cls-82{fill:#eee;}.cls-83{fill:#0c090a;}.cls-84{fill:#1a1416;}.cls-85{fill:#343132;}.cls-86{fill:#090607;}.cls-87{fill:#3d3c3c;}.cls-88{fill:#121011;}.cls-89{fill:#3b3738;}.cls-90{fill:#070606;}.cls-91{fill:#c9c9c9;}.cls-92{fill:#2b2728;}.cls-93{fill:#282526;}.cls-94{fill:#2b2b2b;}.cls-95{fill:#010000;}.cls-96{fill:#110c0e;}.cls-97{fill:#e5e5e5;}.cls-98{fill:#2d2b2c;}.cls-99{fill:#dfdbdc;}.cls-100{fill:#040505;}.cls-101{fill:#ddd;}.cls-102{fill:#0e0c0c;}.cls-103{fill:#c6c6c6;}.cls-104{fill:#4e4e4e;}.cls-105{fill:#120e0f;}.cls-106{fill:#353535;}.cls-107{fill:#363636;}.cls-108{fill:#3e3e3e;}.cls-109{fill:#2e2e2e;}.cls-110{fill:#4d4c4c;}.cls-111{fill:#cdcdcd;}.cls-112{fill:#323232;}.cls-113{fill:#111;}.cls-114{fill:#aeacad;}.cls-115{fill:#c1c1c1;}.cls-116{fill:#d4d1d2;}.cls-117{fill:#a0a0a0;}.cls-118{fill:#040102;}.cls-119{fill:#110f10;}.cls-120{fill:#6e6c6d;}.cls-121{fill:#141112;}.cls-122{fill:#050505;}.cls-123{fill:#cecece;}.cls-124{fill:#e8e8e8;}.cls-125{fill:#383838;}.cls-126{fill:#b7b7b7;}.cls-127{fill:#cdcacb;}.cls-128{fill:#0d090a;}.cls-129{fill:#120b0e;}.cls-130{fill:#c5c5c5;}.cls-131{fill:#585858;}.cls-132{fill:#5a5a5a;}.cls-133{fill:#434243;}.cls-134{fill:#060606;}.cls-135{fill:#2a2828;}.cls-136{fill:#080506;}.cls-137{fill:#2b2c2c;}.cls-138{fill:#151314;}.cls-139{fill:#686868;}.cls-140{fill:#484747;}.cls-141{fill:#424242;}.cls-142{fill:#605e5f;}.cls-143{fill:#d2d2d2;}.cls-144{fill:#868686;}.cls-145{fill:#d5d1d3;}.cls-146{fill:#2d292a;}.cls-147{fill:#333;}.cls-148{fill:#0a0909;}.cls-149{fill:#b3b3b3;}.cls-150{fill:#aea8aa;}.cls-151{fill:#282426;}.cls-152{fill:#0f0d0e;}.cls-153{fill:#bcbdbc;}.cls-154{fill:#2b2829;}.cls-155{fill:#272425;}.cls-156{fill:#9a9a9a;}.cls-157{fill:#080808;}.cls-158{fill:#060002;}.cls-159{fill:#a8a8a8;}.cls-160{fill:#100d0e;}.cls-161{fill:#e3e3e3;}.cls-162{fill:#908f8f;}.cls-163{fill:#c7c4c5;}.cls-164{fill:#232323;}.cls-165{fill:#bab7b8;}.cls-166{fill:#5c5c5c;}.cls-167{fill:#3e3a3c;}.cls-168{fill:#999;}.cls-169{fill:#cacaca;}.cls-170{fill:#8c8789;}.cls-171{fill:#040303;}.cls-172{fill:#595959;}.cls-173{fill:#505151;}.cls-174{fill:#0e0e0e;}.cls-175{fill:#d0cbcd;}.cls-176{fill:#2f2d2e;}.cls-177{fill:#cecfce;}.cls-178{fill:#c4c4c4;}.cls-179{fill:#e7e2e4;}.cls-180{fill:#9b9899;}.cls-181{fill:#0f0b0c;}.cls-182{fill:#070707;}.cls-183{fill:#070405;}.cls-184{fill:#0e0c0d;}.cls-185{fill:#2c2c2c;}.cls-186{fill:#e8e4e5;}.cls-187{fill:#101010;}.cls-188{fill:#1e1e1e;}.cls-189{fill:#0c0b0b;}.cls-190{fill:#151213;}.cls-191{fill:#060405;}.cls-192{fill:#313030;}.cls-193{fill:#272727;}.cls-194{fill:#322d2e;}.cls-195{fill:#121212;}.cls-196{fill:#0a0a0a;}.cls-197{fill:#262223;}.cls-198{fill:#b9b9b9;}.cls-199{fill:#181315;}.cls-200{fill:#e0dbdd;}.cls-201{fill:#c0bbbd;}.cls-202{fill:#f4edf0;}.cls-203{fill:#fefbfc;}.cls-204{fill:#252323;}.cls-205{fill:#a6a4a5;}.cls-206{fill:#131011;}.cls-207{fill:#d6d5d5;}</style>
  </defs>
  <g stroke="null" id="svg_299">
   <path stroke="null" id="svg_31" d="m79.315339,173.890232a11.611441,11.611441 0 0 0 4.493469,7.117973a12.168154,12.168154 0 0 1 2.664269,2.863095a3.857225,3.857225 0 0 1 0.894717,2.425678a1.988261,1.988261 0 0 0 1.093543,1.988261a9.404472,9.404472 0 0 0 1.988261,1.212839a5.129712,5.129712 0 0 1 2.803447,2.7438a43.741731,43.741731 0 0 0 2.127439,3.976521a3.598752,3.598752 0 0 1 0.516948,1.550843a1.292369,1.292369 0 0 1 -1.113426,1.610491a17.09904,17.09904 0 0 1 -7.595155,-1.053778c-0.139178,-0.298239 -0.53683,-0.4573 -1.232722,-0.477183a4.81159,4.81159 0 0 1 -3.558986,-3.340278a3.161334,3.161334 0 0 1 0.238591,-2.405795c0.497065,-0.99413 0.357887,-1.212839 -0.715774,-1.232722c-2.525091,0 -2.962508,-0.576596 -3.73793,-3.380043a32.229703,32.229703 0 0 0 -6.402199,-12.327215c-0.616361,-0.715774 -1.252604,-1.431548 -1.888847,-2.127439a5.447834,5.447834 0 0 1 0.278356,-8.509755c0.954365,-0.258474 1.292369,-1.093543 1.749669,-1.8292l3.539104,-3.857225a10.338955,10.338955 0 0 0 1.014013,-1.292369c0.795304,-1.212839 0.616361,-1.749669 -0.616361,-2.425678a13.082754,13.082754 0 0 1 -5.089947,-5.308656a21.453331,21.453331 0 0 1 -2.7438,-11.114376a4.990534,4.990534 0 0 0 0,-2.167204a46.505413,46.505413 0 0 1 0.53683,-5.964782a15.071015,15.071015 0 0 0 -4.533234,5.706308c-0.298239,0 -0.338004,-0.198826 -0.377769,-0.417535a7.654803,7.654803 0 0 1 1.312252,-2.882978a12.704985,12.704985 0 0 0 -1.988261,2.882978c-0.198826,0.318122 -0.258474,0.775422 -0.715774,0.894717s-0.238591,-0.338004 -0.139178,-0.53683s0.318122,-0.775422 0.357887,-1.212839a16.10491,16.10491 0 0 0 -4.27476,8.489872c-0.198826,0 -0.298239,-0.159061 -0.477183,-0.139178l-0.318122,0.357887a29.605199,29.605199 0 0 0 -2.167204,6.441964c-0.099413,0.357887 0,0.815187 -0.4573,1.033895c-0.139178,0 -0.178943,-0.298239 -0.298239,-0.318122s0,0 0,0s0.278356,0 0.318122,0.218709a22.169105,22.169105 0 0 1 -0.735656,3.260747c-0.596478,0 -0.119296,-0.616361 -0.357887,-0.854952s0.338004,-0.497065 0,-0.894717a46.982596,46.982596 0 0 1 -3.558986,5.865369a10.756489,10.756489 0 0 1 -2.107556,2.942626l-0.676009,0.318122a3.638517,3.638517 0 0 1 -0.954365,0.497065a29.923321,29.923321 0 0 1 -8.668816,5.348421c-0.835069,0 -0.338004,-0.656126 -0.556713,-0.954365a19.107184,19.107184 0 0 1 3.220982,-2.44556l0.278356,-0.218709c-0.159061,0 -0.278356,0.178943 -0.437417,0.278356a29.22743,29.22743 0 0 1 -3.73793,1.988261a1.292369,1.292369 0 0 1 -0.934482,0.178943c-0.636243,-0.556713 -1.232722,0.178943 -1.8292,0l-3.022156,0.4573c-0.298239,0 -0.596478,0.198826 -0.815187,-0.159061s-0.338004,-0.218709 -0.556713,-0.159061s-0.715774,0.318122 -1.093543,0.119296s-0.53683,0.278356 -0.835069,0.198826a6.799851,6.799851 0 0 1 -2.2865,0l-0.357887,0c0,-0.516948 0.437417,-0.218709 0.695891,-0.238591l0.516948,0c0.377769,-0.139178 0.795304,0 1.173074,-0.139178l0.397652,0c0.198826,-0.159061 0,-0.258474 0,-0.357887a9.364707,9.364707 0 0 0 -1.670139,0a2.7438,2.7438 0 0 1 -2.326265,-1.133308a0.377769,0.377769 0 0 1 0.477183,-0.238591a2.127439,2.127439 0 0 0 2.624504,-0.854952c0.198826,-0.377769 0.676009,0.119296 0.874835,-0.278356a32.647238,32.647238 0 0 0 4.473586,-2.644386c0.119296,0 0.377769,-0.159061 0.178943,-0.397652s-0.874835,-0.139178 -1.292369,-0.278356s-0.397652,-0.556713 -0.377769,-1.093543a2.922743,2.922743 0 0 0 3.718047,0a15.906084,15.906084 0 0 0 2.882978,-2.7438l0.357887,-0.516948a7.793981,7.793981 0 0 1 1.113426,-1.769552a2.525091,2.525091 0 0 0 0.516948,-0.815187c0,-0.218709 0,-0.497065 0,-0.636243c2.226852,-2.385913 2.922743,-5.587012 4.493469,-8.310929c0,-0.119296 0.119296,-0.258474 0,-0.357887s-0.178943,0 -0.258474,0l-0.576596,0.497065c-0.238591,0 -0.318122,0 -0.278356,-0.258474c4.135582,-4.493469 8.231399,-8.967055 13.917824,-11.611441a54.697047,54.697047 0 0 0 16.641741,-11.452381c0.417535,0 0.497065,-0.357887 0.676009,-0.636243c1.45143,-2.206969 2.206969,-4.831473 4.135582,-6.760086a12.267567,12.267567 0 0 1 3.81746,-2.664269c7.495742,-3.161334 12.963459,-8.748346 18.033523,-14.852306a45.292575,45.292575 0 0 0 6.601025,-9.941303a9.205646,9.205646 0 0 0 -0.477183,-7.953042a15.011367,15.011367 0 0 1 -2.863095,5.964782a17.337632,17.337632 0 0 0 -0.238591,-7.734333a3.976521,3.976521 0 0 0 -0.576596,1.709904a41.51488,41.51488 0 0 1 0,5.447834l0,0.755539c-0.596478,-0.377769 -0.198826,-0.9146 -0.238591,-1.3719l0,-4.175347a17.47681,17.47681 0 0 0 -2.127439,4.27476a0.616361,0.616361 0 0 1 -0.397652,-0.139178a8.112103,8.112103 0 0 0 -1.8292,2.723917c-0.238591,0 -0.397652,0.258474 -0.656126,0.258474c-0.755539,0 -1.173074,0.636243 -1.650256,1.093543a2.147321,2.147321 0 0 1 -1.650256,0.815187c2.90286,-1.789434 3.022156,-4.73206 3.36016,-7.615038a0.695891,0.695891 0 0 0 0,-0.596478a0.954365,0.954365 0 0 0 -0.218709,0.178943l-1.352017,2.36603c-0.218709,0 -0.357887,0 -0.238591,-0.258474a1.391782,1.391782 0 0 1 0.238591,-1.053778c0,-0.258474 0,-0.258474 -0.218709,-0.238591a9.941303,9.941303 0 0 1 -1.988261,1.988261c-0.178943,0 -0.357887,0 -0.218709,-0.278356a3.419808,3.419808 0 0 1 0.676009,-1.272487c0.218709,0 0.119296,-0.119296 0,-0.198826c0.119296,-0.636243 0.238591,-1.272487 0.338004,-1.988261c0,-0.298239 0,-0.497065 -0.377769,-0.377769a0.278356,0.278356 0 0 1 -0.238591,-0.397652a26.304687,26.304687 0 0 0 0.874835,-6.10396c0.099413,-0.357887 0.159061,-0.755539 0.258474,-1.113426s0.397652,-0.656126 -0.198826,-0.815187c-0.198826,0 -0.159061,-0.278356 0,-0.437417l0.218709,-0.715774a13.679232,13.679232 0 0 0 -2.485326,1.590608c-0.298239,0.159061 -0.437417,0 -0.397652,-0.258474l0.4573,-0.437417a1.988261,1.988261 0 0 1 0.616361,-0.556713l0.159061,0s-0.159061,0 -0.258474,0.119296a1.511078,1.511078 0 0 1 -0.755539,0.318122a38.214367,38.214367 0 0 0 -5.169477,3.340278q-0.397652,0 -0.298239,-0.298239c0.099413,-0.397652 0.775422,-0.397652 0.656126,-0.954365c0,-0.159061 -0.298239,-0.198826 -0.377769,-0.397652l0,-0.139178a44.795509,44.795509 0 0 0 5.288773,-5.686425c0,-0.318122 0.218709,-0.596478 0.198826,-0.934482a0.99413,0.99413 0 0 1 0,-0.417535a1.252604,1.252604 0 0 1 0.437417,-0.576596a4.294643,4.294643 0 0 0 1.053778,-0.934482a20.856853,20.856853 0 0 0 4.075934,-6.203373l0.397652,-0.874835a2.982391,2.982391 0 0 0 -1.431548,1.352017a0.636243,0.636243 0 0 1 -0.397652,0.497065l-0.497065,0.417535c-0.198826,0 -0.377769,-0.318122 -0.576596,0a2.803447,2.803447 0 0 0 -0.576596,0.357887a1.033895,1.033895 0 0 1 -0.616361,0.278356l-0.178943,0c-0.338004,0 -0.477183,0.298239 -0.755539,0.357887s-0.437417,0.298239 -0.735656,0.258474s-0.656126,-0.099413 -0.974248,0c-1.173074,0.298239 -2.346147,0.596478 -3.539104,0.854952c-0.278356,0 -0.695891,0.338004 -0.835069,-0.099413s0.377769,-0.318122 0.596478,-0.4573s0.99413,-0.338004 1.391782,-0.715774c1.352017,0 1.352017,0 1.3719,-1.053778l0.497065,-0.695891c0,-0.198826 -0.139178,-0.377769 0,-0.576596c0.417535,-0.576596 1.530961,-0.338004 1.511078,-1.3719a0.159061,0.159061 0 0 1 0,-0.258474c0.417535,-0.974248 1.590608,-1.332135 1.988261,-2.326265c0,-0.139178 -0.278356,-0.198826 -0.178943,-0.417535c0.4573,-1.133308 1.650256,-1.729787 1.988261,-2.882978c0,-0.258474 0.377769,-0.4573 0.318122,-0.894717l-1.292369,0.616361c-0.258474,0 -0.497065,0 -0.576596,0.278356l-2.505208,1.630374a1.988261,1.988261 0 0 1 -1.312252,0.338004c-0.139178,-0.4573 0.357887,-0.318122 0.437417,-0.516948c-0.298239,0.278356 -0.735656,0 -1.093543,0.238591a14.713128,14.713128 0 0 1 -3.757812,0.238591a0.477183,0.477183 0 0 1 0.576596,-0.258474c0.397652,-0.139178 0.835069,0 1.212839,-0.159061a12.188037,12.188037 0 0 0 3.061921,-1.809317c0.238591,-0.4573 0.775422,-0.616361 1.093543,-0.99413a4.513351,4.513351 0 0 1 0.616361,-0.616361a1.550843,1.550843 0 0 0 0.497065,-0.516948c1.988261,-0.854952 2.604621,-2.624504 3.658399,-4.493469l-1.511078,0.974248c-0.178943,0.159061 -0.338004,0.357887 -0.616361,0.198826l-0.656126,0.238591c-0.53683,-0.119296 -0.894717,0.377769 -1.391782,0.437417a1.650256,1.650256 0 0 1 -0.417535,0.119296c-0.596478,0.218709 -1.192956,-0.159061 -1.769552,0a12.426628,12.426628 0 0 1 -2.704034,-0.07953a1.391782,1.391782 0 0 0 -1.093543,0l0,0l0,0c-0.616361,0 -1.272487,0.397652 -1.789434,-0.198826c0.9146,-0.516948 1.988261,-0.258474 2.942626,-0.676009a8.171751,8.171751 0 0 0 3.121569,-1.729787l0,0c0.318122,-0.9146 1.292369,-0.695891 1.988261,-1.113426c0.139178,-0.099413 0.4573,-0.178943 0.238591,-0.437417s-0.278356,0 -0.417535,0a10.875785,10.875785 0 0 1 -2.783565,0c0.338004,-0.596478 0.874835,-0.159061 1.312252,-0.278356s0.795304,0 1.173074,-0.178943a9.54365,9.54365 0 0 0 5.328538,-3.022156l-0.735656,0a3.976521,3.976521 0 0 0 -1.988261,0a3.519221,3.519221 0 0 1 -2.385913,-1.093543c0.099413,-0.218709 0.238591,-0.338004 0.497065,-0.238591a4.851356,4.851356 0 0 0 3.320395,-0.497065a15.448784,15.448784 0 0 1 -6.859499,-2.783565c1.173074,-0.119296 1.709904,0.596478 2.44556,0.795304a11.770502,11.770502 0 0 0 7.197503,-0.477183a32.408646,32.408646 0 0 0 4.751943,-2.246734c0.417535,-0.238591 0.636243,-0.4573 0.4573,-1.014013c-0.258474,-0.874835 -0.338004,-1.789434 -0.556713,-2.664269c0,-0.258474 -0.238591,-0.4573 0,-0.695891a0.695891,0.695891 0 0 1 0.815187,-0.119296a10.83602,10.83602 0 0 1 1.312252,0.775422a4.19523,4.19523 0 0 0 3.976521,0.974248a5.030299,5.030299 0 0 1 2.922743,-0.119296c0.695891,0.178943 1.033895,-0.139178 1.252604,-0.715774s0.437417,-1.073661 0.636243,-1.610491a3.578869,3.578869 0 0 1 0.894717,-1.491195c0.258474,-0.238591 0.497065,-0.616361 0.9146,-0.4573s0.338004,0.556713 0.377769,0.854952s0,1.153191 0,1.729787c-0.198826,0.218709 0,0.477183 -0.119296,0.715774s0.178943,0 0,0s0.218709,-0.099413 0,0c0.278356,0.695891 0.516948,1.471313 1.530961,0.9146c0.397652,-0.139178 0.198826,0.417535 0.4573,0.437417a3.658399,3.658399 0 0 0 3.141452,-1.232722a67.183323,67.183323 0 0 0 8.648933,-10.935433c0.278356,-0.417535 0.596478,-0.795304 0.9146,-1.192956c0.576596,0 0.695891,0.397652 0.477183,0.775422s-0.159061,1.192956 -0.854952,1.630374c-0.397652,0.238591 0,1.173074 0,1.769552l-4.73206,9.662946a4.930886,4.930886 0 0 0 -0.715774,1.610491l1.292369,0.119296c0.377769,0.318122 1.014013,-0.298239 1.292369,0.377769l-1.749669,0.119296c0,0.497065 0.954365,0.357887 0.9146,0.974248c0,0.139178 -0.218709,0 -0.278356,0.119296s0.198826,0 0.278356,-0.119296l0.397652,0c0.278356,0.497065 1.014013,1.073661 -0.258474,1.252604c-0.516948,0 -0.9146,-0.397652 -1.550843,-0.377769a10.995081,10.995081 0 0 0 2.684152,1.729787a2.44556,2.44556 0 0 0 1.252604,0.139178a0.338004,0.338004 0 0 1 0.278356,0l0.596478,-0.198826c0.218709,0 0.4573,-0.159061 0.497065,0.218709a3.380043,3.380043 0 0 1 -1.988261,0.715774c-0.198826,0.338004 -0.854952,-0.298239 -0.874835,0.397652c0.715774,0.596478 1.550843,0.357887 2.36603,0.258474c0,0.576596 -0.556713,0.278356 -0.656126,0.695891a99.075022,99.075022 0 0 1 10.756489,6.939029c0,0.198826 -0.198826,0.377769 -0.477183,0.298239c0.159061,0.198826 0.338004,0 0.497065,0a5.805721,5.805721 0 0 1 3.340278,3.976521a23.859126,23.859126 0 0 1 -0.178943,5.209243c-0.258474,2.266617 -1.590608,2.982391 -3.976521,3.718047c-0.636243,0 -1.272487,-0.238591 -1.988261,-0.278356s-1.212839,-0.874835 -1.292369,-1.888847a0.974248,0.974248 0 0 1 -1.411665,0.298239a3.658399,3.658399 0 0 0 -3.141452,-0.815187a16.979745,16.979745 0 0 1 -6.64079,0c-0.854952,-0.198826 -1.45143,0.596478 -2.564856,0.656126l3.837343,1.968378c6.819734,3.976521 10.478133,10.179894 12.963459,17.337632a4.553117,4.553117 0 0 0 3.240865,4.612764a34.317377,34.317377 0 0 1 3.757812,2.405795a5.18936,5.18936 0 0 1 2.505208,4.572999c0,1.272487 0.178943,2.544973 0.238591,3.81746c0,0.576596 0.159061,0.835069 0.815187,0.815187a47.280835,47.280835 0 0 0 14.673363,-2.604621a5.328538,5.328538 0 0 1 4.712177,-0.357887c-0.159061,0.974248 0.397652,1.153191 1.173074,1.053778a1.570726,1.570726 0 0 1 0.934482,0.159061l0.477183,0.258474a1.511078,1.511078 0 0 0 0.676009,0.596478l0,0c0.119296,0.556713 0,1.133308 0,1.690021c0.278356,-0.258474 0.178943,-0.894717 0.795304,-0.795304a3.320395,3.320395 0 0 1 0.99413,2.664269a35.569981,35.569981 0 0 0 0.695891,9.941303c0,0.139178 0,0 0,0a2.962508,2.962508 0 0 0 0,0.417535c0,-0.119296 0,-0.238591 0.139178,-0.318122a38.393311,38.393311 0 0 1 0.576596,9.782242a3.976521,3.976521 0 0 1 -0.894717,2.206969a57.222138,57.222138 0 0 0 -3.976521,6.422081a13.142402,13.142402 0 0 1 -3.976521,4.493469c-1.988261,1.272487 -2.982391,0.894717 -3.558986,-1.352017a18.451058,18.451058 0 0 1 -0.298239,-7.595155a3.578869,3.578869 0 0 1 2.385913,-2.405795c1.988261,-0.974248 1.988261,-0.974248 1.491195,-2.982391a1.272487,1.272487 0 0 0 0,-1.073661a2.704034,2.704034 0 0 1 0.795304,-1.610491a3.976521,3.976521 0 0 0 0.954365,-3.022156a39.76521,39.76521 0 0 0 -0.874835,-6.123842a2.44556,2.44556 0 0 0 -0.715774,-1.988261c-1.431548,-1.868965 -1.988261,-1.988261 -4.215112,-1.053778c-0.954365,0.397652 -1.849082,0.954365 -2.783565,1.45143c-0.218709,0 -0.357887,0 -0.417535,0.258474a24.972552,24.972552 0 0 1 -4.81159,2.723917a55.154347,55.154347 0 0 1 -9.682829,3.976521a5.964782,5.964782 0 0 1 -0.854952,0.119296a2.147321,2.147321 0 0 0 -0.954365,0c-0.397652,0 -0.238591,0.258474 -0.258474,0.119296s0,0 0,0s0.397652,0 0.556713,0.119296a5.964782,5.964782 0 0 1 -2.843213,-0.238591a18.431175,18.431175 0 0 0 5.865369,6.660673a50.183695,50.183695 0 0 0 4.831473,2.664269a3.777695,3.777695 0 0 1 2.246734,3.558986a8.827877,8.827877 0 0 0 1.292369,5.089947c0,0.656126 0,1.312252 0,1.988261a3.201099,3.201099 0 0 1 -0.676009,1.570726a29.823908,29.823908 0 0 0 -4.970651,12.466393a8.09222,8.09222 0 0 1 -4.095817,5.964782c-3.220982,1.8292 -6.362434,3.81746 -9.762359,5.348421a5.288773,5.288773 0 0 1 -1.988261,0.616361c-0.974248,0 -1.610491,-0.298239 -1.709904,-1.352017a5.070064,5.070064 0 0 0 0,-2.187087a4.095817,4.095817 0 0 1 0.556713,-2.604621a13.699115,13.699115 0 0 1 5.348421,-5.030299a2.107556,2.107556 0 0 0 1.312252,0a2.783565,2.783565 0 0 1 1.332135,0.298239c0.417535,0.178943 0.477183,0 0.596478,-0.338004a2.465443,2.465443 0 0 0 0,-1.729787a4.334408,4.334408 0 0 1 1.3719,-3.519221a12.883928,12.883928 0 0 0 3.976521,-9.523768a7.157738,7.157738 0 0 0 -4.433821,-6.799851a27.239169,27.239169 0 0 0 -6.601025,-1.769552c-1.073661,-0.198826 -2.226852,-0.974248 -3.141452,-0.556713s-1.3719,1.530961 -1.988261,2.326265a4.970651,4.970651 0 0 1 -0.477183,0.437417c-0.417535,0 -0.556713,0.357887 -0.656126,0.715774a41.276288,41.276288 0 0 1 -11.054728,8.450107a38.651784,38.651784 0 0 1 -12.28745,4.374173c-0.298239,0 -0.596478,0 -0.397652,0.497065c1.988261,4.354291 1.192956,8.847759 0.815187,13.361111a19.146949,19.146949 0 0 1 -6.302786,12.247685a4.851356,4.851356 0 0 0 -1.173074,2.505208a10.935433,10.935433 0 0 0 -0.715774,3.618634c0.139178,1.212839 1.590608,1.769552 2.465443,2.604621c2.763682,2.584739 5.567129,5.129712 8.370577,7.694568a0.9146,0.9146 0 0 1 0,1.431548c0.437417,0 0.636243,-0.53683 1.093543,-0.53683a15.727141,15.727141 0 0 1 2.346147,2.107556a2.326265,2.326265 0 0 1 0.715774,1.212839a3.678282,3.678282 0 0 0 2.306382,2.90286a13.917824,13.917824 0 0 1 3.578869,3.161334c0.815187,1.014013 1.769552,1.988261 2.644386,2.922743a5.507482,5.507482 0 0 1 1.192956,1.809317c0.417535,1.133308 0,1.988261 -1.113426,2.2865a15.130663,15.130663 0 0 1 -9.782242,-0.656126a4.294643,4.294643 0 0 1 -2.704034,-4.115699c0,-1.471313 -0.417535,-1.988261 -1.988261,-2.147321a4.572999,4.572999 0 0 1 -3.837343,-2.942626a32.010994,32.010994 0 0 0 -13.73888,-13.917824a9.046585,9.046585 0 0 1 -1.590608,-1.113426a3.28063,3.28063 0 0 1 -1.113426,-4.433821c0,-0.159061 0.119296,-0.318122 0.258474,-0.775422l-1.352017,1.192956a0.616361,0.616361 0 0 0 -0.397652,0.397652a23.859126,23.859126 0 0 1 -4.314525,3.976521c-2.187087,1.650256 -3.519221,3.539104 -2.723917,6.402199a0.656126,0.656126 0 0 0 0,0.377769a1.610491,1.610491 0 0 1 0,0.318122s0,-0.278356 0.139178,-0.338004z" class="cls-1"/>
   <path stroke="null" id="svg_32" d="m171.232622,149.136389a4.533234,4.533234 0 0 0 -3.240865,2.684152a12.844163,12.844163 0 0 0 -1.332135,4.692295a6.362434,6.362434 0 0 1 -0.298239,1.113426c-0.735656,-3.479456 -0.835069,-7.296916 -5.129712,-8.748346c4.314525,-1.411665 4.374173,-5.209243 5.18936,-8.688698c0.159061,0.874835 0.278356,1.769552 0.437417,2.644386a9.941303,9.941303 0 0 0 1.610491,3.976521a4.19523,4.19523 0 0 0 2.942626,1.988261c0.218709,0.258474 -0.019883,0.278356 -0.178943,0.338004z" class="cls-2"/>
   <path stroke="null" id="svg_33" d="m74.662809,57.17934a4.413938,4.413938 0 0 0 -2.922743,2.704034a37.498593,37.498593 0 0 0 -1.192956,3.976521c0,0.139178 0.119296,0.377769 0.198826,0.576596s-0.159061,0.377769 -0.417535,0.218709a13.917824,13.917824 0 0 0 -0.715774,-3.73793a5.229125,5.229125 0 0 0 -3.837343,-3.976521c3.121569,-1.014013 3.976521,-3.419808 4.314525,-6.064195l0.238591,-1.590608c0.576596,0 0.139178,0.636243 0.397652,0.854952a9.285177,9.285177 0 0 0 2.505208,5.865369a3.320395,3.320395 0 0 0 1.650256,0.715774c0.159061,0.298239 0.019883,0.357887 -0.218709,0.4573z" class="cls-1"/>
   <path stroke="null" id="svg_34" d="m118.24548,4.410906a8.92729,8.92729 0 0 0 0.795304,3.201099a4.294643,4.294643 0 0 0 3.061921,2.882978c-3.121569,0.934482 -3.459573,3.539104 -3.857225,6.143725c-0.417535,0.119296 -0.218709,-0.318122 -0.377769,-0.417535a11.611441,11.611441 0 0 0 -0.835069,-3.161334a4.234995,4.234995 0 0 0 -3.002273,-2.564856a5.26889,5.26889 0 0 0 3.598752,-4.771825c0,-0.338004 0.159061,-0.695891 0.238591,-1.033895s0.139178,-0.397652 0.377769,-0.278356z" class="cls-1"/>
   <path stroke="null" id="svg_35" d="m152.90086,36.839435a3.976521,3.976521 0 0 0 2.783565,-2.783565a14.633597,14.633597 0 0 0 0.735656,-2.922743c0.397652,-0.119296 0.218709,0.318122 0.377769,0.437417a7.47586,7.47586 0 0 0 2.624504,5.050182a1.988261,1.988261 0 0 0 0.477183,0.198826a0.298239,0.298239 0 0 1 0,0.417535a4.433821,4.433821 0 0 0 -2.326265,2.544973a8.967055,8.967055 0 0 0 -0.775422,2.942626c0,0.139178 -0.139178,0.338004 -0.377769,0.218709l0,-0.636243c-0.198826,-0.278356 0,-0.676009 -0.178943,-0.954365a13.917824,13.917824 0 0 0 -1.014013,-2.465443a3.419808,3.419808 0 0 0 -2.226852,-1.729787c-0.238591,-0.059648 -0.238591,-0.178943 -0.099413,-0.318122z" class="cls-1"/>
   <path stroke="null" id="svg_36" d="m75.100226,83.841913c0.53683,0 0.278356,0.437417 0.298239,0.596478a8.370577,8.370577 0 0 0 1.590608,4.234995a2.505208,2.505208 0 0 0 1.630374,1.153191c0,0.198826 0.576596,0 0.417535,0.417535a3.539104,3.539104 0 0 0 -2.604621,1.988261a15.687375,15.687375 0 0 0 -1.232722,4.294643a12.903811,12.903811 0 0 0 -1.809317,-5.26889c0,-0.377769 0.397652,-0.4573 0.437417,-0.795304c-1.570726,0 -1.749669,-0.198826 -1.352017,-0.954365a7.47586,7.47586 0 0 0 2.425678,-4.513351c0.238591,-0.357887 0,-0.775422 0.198826,-1.153191z" class="cls-3"/>
   <path stroke="null" id="svg_37" d="m53.487835,175.520606a4.493469,4.493469 0 0 0 -2.604621,-4.314525c1.8292,-0.516948 2.226852,-2.127439 2.584739,-3.73793a0.238591,0.238591 0 0 1 0.397652,0a4.453704,4.453704 0 0 0 2.564856,3.797578c-1.988261,0.755539 -2.36603,2.485326 -2.584739,4.27476c-0.119296,-0.019883 -0.238591,-0.019883 -0.357887,-0.019883z" class="cls-3"/>
   <path stroke="null" id="svg_38" d="m160.575546,136.888704a3.857225,3.857225 0 0 0 2.246734,2.704034a3.797578,3.797578 0 0 0 -2.306382,3.439691c-0.159061,0.119296 0,0.53683 -0.357887,0.417535c-0.238591,-1.610491 -0.477183,-3.201099 -2.584739,-3.857225c1.709904,-0.357887 1.988261,-1.690021 2.525091,-2.922743c0.178943,0.019883 0.298239,0.198826 0.477183,0.218709z" class="cls-4"/>
   <path stroke="null" id="svg_39" d="m150.932482,166.871673c-0.178943,-1.3719 -0.477183,-2.684152 -1.988261,-3.240865c0,0 0,0 0,-0.139178s0,0 0,0a4.433821,4.433821 0 0 0 1.988261,-2.843213c0.258474,-0.139178 -0.159061,-0.676009 0.397652,-0.656126c0.338004,1.292369 0.477183,2.704034 1.988261,3.300512c0.139178,0 0.377769,0.139178 0.198826,0.397652c-1.709904,0.576596 -1.868965,1.988261 -2.147321,3.519221c-0.298239,0.059648 -0.357887,-0.159061 -0.437417,-0.338004z" class="cls-5"/>
   <path stroke="null" id="svg_40" d="m131.427647,18.448025c-0.516948,-0.576596 0.198826,-1.511078 -0.715774,-1.988261c0.516948,0 1.232722,-0.119296 1.113426,-0.338004c-0.377769,-0.695891 1.053778,-1.252604 0,-1.849082a31.116277,31.116277 0 0 1 2.425678,-3.340278c0.178943,-0.218709 0.357887,-0.576596 0.695891,-0.377769s0.099413,0.576596 0,0.835069a46.505413,46.505413 0 0 1 -2.187087,4.453704a5.507482,5.507482 0 0 0 -1.093543,2.147321a0.516948,0.516948 0 0 1 -0.238591,0.4573z" class="cls-6"/>
   <path stroke="null" id="svg_41" d="m70.706171,80.441988a2.882978,2.882978 0 0 0 1.650256,2.425678a2.704034,2.704034 0 0 0 -1.630374,2.525091a0.4573,0.4573 0 0 1 -0.198826,0.298239c-0.417535,-0.497065 -0.338004,-1.212839 -0.676009,-1.769552a2.405795,2.405795 0 0 0 -1.272487,-1.033895a3.141452,3.141452 0 0 0 1.749669,-2.803447c0.4573,-0.218709 0.238591,0.218709 0.377769,0.357887z" class="cls-7"/>
   <path stroke="null" id="svg_42" d="m151.8272,32.206788c-0.397652,-1.014013 -0.735656,-1.988261 -1.809317,-2.385913c1.053778,-0.676009 1.212839,-0.894717 1.729787,-2.525091c0.755539,0.755539 0.636243,2.127439 1.988261,2.44556c-1.173074,0.4573 -1.292369,1.530961 -1.90873,2.465443z" class="cls-6"/>
   <path stroke="null" id="svg_43" d="m155.10783,60.420205c0.357887,0.974248 0.576596,1.988261 1.849082,2.544973c-1.431548,0.477183 -1.511078,1.729787 -1.988261,2.90286c-0.397652,-1.192956 -0.516948,-2.385913 -1.868965,-2.882978a3.618634,3.618634 0 0 0 1.709904,-2.127439c0.338004,0 0.039765,-0.397652 0.298239,-0.437417z" class="cls-8"/>
   <path stroke="null" id="svg_44" d="m113.692363,1.527928c0.377769,0.656126 0.715774,1.3719 1.650256,1.630374c-1.45143,0.556713 -1.630374,1.769552 -1.988261,3.061921c-0.417535,-1.212839 -0.497065,-2.505208 -1.988261,-3.022156a3.439691,3.439691 0 0 0 1.849082,-2.346147c0.298239,0.139178 0.178943,0.556713 0.477183,0.676009z" class="cls-9"/>
   <path stroke="null" id="svg_45" d="m78.440504,25.367172a4.791708,4.791708 0 0 0 1.192956,2.147321c0.099413,0 0.357887,0.377769 0.139178,0.516948c-0.974248,0.596478 -1.073661,1.650256 -1.431548,2.82333c-0.397652,-1.332135 -0.596478,-2.544973 -1.988261,-3.101686c1.192956,-0.338004 1.3719,-1.332135 1.769552,-2.167204c0.397652,0.238591 0.099413,-0.318122 0.318122,-0.218709z" class="cls-10"/>
   <path stroke="null" id="svg_46" d="m95.897431,14.988452c-0.397652,-0.835069 -0.576596,-1.8292 -1.769552,-2.167204a2.882978,2.882978 0 0 0 1.590608,-1.988261c0,-0.178943 0,-0.357887 0.318122,-0.357887s0.278356,0.178943 0.338004,0.357887a2.704034,2.704034 0 0 0 1.570726,1.988261c-1.113426,0.417535 -1.3719,1.3719 -1.749669,2.226852c-0.139178,0 -0.139178,-0.238591 -0.159061,-0.377769a0.397652,0.397652 0 0 1 -0.139178,0.318122z" class="cls-11"/>
   <path stroke="null" id="svg_47" d="m35.513959,166.354725a47.559192,47.559192 0 0 0 4.751943,-2.306382c0.238591,0 0.298239,0 0.258474,0.238591a35.331389,35.331389 0 0 1 -3.28063,2.465443a4.553117,4.553117 0 0 1 -3.300512,1.670139c0,-0.437417 1.173074,-0.755539 0.139178,-1.312252a1.292369,1.292369 0 0 1 1.431548,-0.755539z" class="cls-12"/>
   <path stroke="null" id="svg_48" d="m58.995316,177.747458a2.326265,2.326265 0 0 0 -1.471313,1.45143c-0.099413,0.238591 -0.099413,0.636243 -0.477183,0.616361s-0.238591,-0.377769 -0.338004,-0.576596a2.346147,2.346147 0 0 0 -1.471313,-1.471313c1.332135,-0.516948 1.491195,-1.670139 1.988261,-2.90286c0.178943,1.232722 0.338004,2.36603 1.769552,2.882978z" class="cls-13"/>
   <path stroke="null" id="svg_49" d="m94.446001,72.131059c-0.119296,1.610491 -0.298239,3.220982 -0.338004,4.851356c0,0.676009 -0.735656,1.053778 -0.576596,1.749669l0,0a4.513351,4.513351 0 0 1 -0.576596,0.795304a1.988261,1.988261 0 0 1 -0.53683,0.636243l-0.218709,-0.238591c-0.218709,-0.318122 0,-0.576596 0.119296,-0.854952s0.298239,-0.854952 0.357887,-1.312252a2.723917,2.723917 0 0 0 0.198826,-1.133308a0.338004,0.338004 0 0 1 0,-0.198826c0.298239,-0.397652 0.178943,-0.874835 0.258474,-1.332135s0.238591,-1.113426 0.338004,-1.690021a3.976521,3.976521 0 0 1 0,-0.477183c0.139178,-0.357887 0.119296,-0.755539 0.238591,-1.133308a0.596478,0.596478 0 0 1 0.497065,-0.437417c0.437417,0.198826 0.278356,0.516948 0.238591,0.775422z" class="cls-14"/>
   <path stroke="null" id="svg_50" d="m171.510979,157.069548c-0.53683,-0.775422 -0.497065,-1.988261 -1.729787,-2.246734a2.7438,2.7438 0 0 0 1.530961,-2.544973c0.576596,0 0.099413,0.53683 0.397652,0.636243a2.187087,2.187087 0 0 0 1.312252,1.849082a2.36603,2.36603 0 0 0 -1.332135,1.988261c-0.039765,0.159061 -0.039765,0.278356 -0.178943,0.318122z" class="cls-15"/>
   <path stroke="null" id="svg_51" d="m121.386931,144.344681l0.218709,0.139178c0.178943,0.218709 -0.497065,0.497065 0,0.735656c0.258474,0 0.815187,0.556713 0,0.934482c0,0 0.099413,0 0.159061,0a0.258474,0.258474 0 0 1 0,0.377769a4.354291,4.354291 0 0 0 -0.695891,1.988261c-0.417535,0.178943 -0.218709,-0.338004 -0.417535,-0.397652a2.624504,2.624504 0 0 0 -1.590608,-2.405795a3.101686,3.101686 0 0 0 1.550843,-1.630374c0.417535,0.258474 0.616361,0.119296 0.775422,0.258474z" class="cls-16"/>
   <path stroke="null" id="svg_52" d="m61.321581,109.251883a1.849082,1.849082 0 0 0 -0.894717,1.3719c-0.596478,0 -0.437417,-0.974248 -1.113426,-0.835069a3.141452,3.141452 0 0 0 -0.636243,-0.53683c-0.894717,-0.477183 -0.139178,-0.497065 0.159061,-0.616361s0.636243,-0.477183 0.715774,-0.894717l0.516948,-1.809317c0.437417,1.033895 0.377769,2.127439 1.252604,2.763682a0.556713,0.556713 0 0 1 0,0.556713z" class="cls-16"/>
   <path stroke="null" id="svg_53" d="m156.420081,152.098897a2.82333,2.82333 0 0 0 1.511078,2.664269a3.300512,3.300512 0 0 0 -1.192956,1.073661c-0.278356,0 -0.4573,0.377769 -0.775422,0.159061s-0.576596,-0.99413 -1.272487,-1.173074a2.346147,2.346147 0 0 0 1.3719,-1.868965c0.178943,-0.218709 -0.298239,-0.775422 0.357887,-0.854952z" class="cls-17"/>
   <path stroke="null" id="svg_54" d="m62.415124,136.689878a8.430225,8.430225 0 0 1 3.240865,-4.394056a21.035796,21.035796 0 0 0 -1.988261,3.459573a8.648933,8.648933 0 0 1 -0.695891,1.988261c-0.119296,0.218709 -0.178943,0.516948 -0.497065,0.53683l-0.53683,-0.258474c-0.198826,-0.596478 0.119296,-0.974248 0.477183,-1.332135z" class="cls-18"/>
   <path stroke="null" id="svg_55" d="m53.706543,153.64974l0.357887,0.854952a13.65935,13.65935 0 0 1 -3.658399,6.302786a24.932787,24.932787 0 0 0 3.300512,-7.157738z" class="cls-9"/>
   <path stroke="null" id="svg_56" d="m130.572695,34.135401l-0.218709,0a2.266617,2.266617 0 0 1 -1.312252,0a8.867642,8.867642 0 0 1 -3.399925,-2.2865c0.99413,-0.238591 1.570726,0.4573 2.306382,0.516948a3.578869,3.578869 0 0 1 2.167204,1.511078l0.4573,0.258474z" class="cls-18"/>
   <path stroke="null" id="svg_57" d="m135.980763,54.415658c0.4573,0 0.934482,0 1.173074,-0.516948c0,-0.238591 0.357887,-0.238591 0.556713,0a0.497065,0.497065 0 0 1 0.178943,0.656126c-0.198826,0.516948 0.397652,1.391782 0.874835,1.352017a3.718047,3.718047 0 0 1 1.849082,0.477183a4.334408,4.334408 0 0 1 -4.632647,-1.968378z" class="cls-19"/>
   <path stroke="null" id="svg_58" d="m78.877921,95.990185a1.988261,1.988261 0 0 1 0,-2.584739c0.159061,-0.099413 0,-0.576596 0.397652,-0.437417c0,0.735656 0.854952,1.292369 0.815187,1.729787s-0.815187,0.99413 -0.815187,1.749669c-0.397652,0.059648 -0.238591,-0.4573 -0.397652,-0.4573z" class="cls-20"/>
   <path stroke="null" id="svg_59" d="m98.541818,15.405986c0,0.218709 0,0.516948 0,0.636243c0.954365,1.073661 0.417535,1.988261 -0.218709,3.042039c-0.357887,-0.516948 -0.357887,-1.252604 -1.014013,-1.590608c-0.258474,-0.119296 0,-0.258474 0.139178,-0.357887a1.411665,1.411665 0 0 0 0.616361,-1.093543c0.377769,-0.099413 -0.119296,-0.715774 0.477183,-0.636243z" class="cls-11"/>
   <path stroke="null" id="svg_60" d="m160.754489,40.318891a1.8292,1.8292 0 0 0 0.9146,1.192956a2.723917,2.723917 0 0 0 -0.934482,1.192956c-0.159061,0.119296 0,0.53683 -0.357887,0.437417a2.44556,2.44556 0 0 0 -1.053778,-1.630374a2.127439,2.127439 0 0 0 1.073661,-1.789434c0.53683,-0.059648 0,0.596478 0.357887,0.596478z" class="cls-21"/>
   <path stroke="null" id="svg_61" d="m157.414212,65.808391a2.723917,2.723917 0 0 0 1.133308,1.769552a2.306382,2.306382 0 0 0 -1.113426,1.769552c-0.397652,-0.596478 -0.437417,-1.292369 -1.014013,-1.610491c-0.119296,0 -0.278356,-0.159061 0,-0.278356c0.53683,-0.298239 0.516948,-1.033895 0.99413,-1.650256z" class="cls-22"/>
   <path stroke="null" id="svg_62" d="m121.804466,16.459765c0,-0.656126 -0.835069,-1.073661 -0.775422,-1.471313s0.755539,-0.874835 0.795304,-1.530961q0.178943,-0.238591 0.357887,0s0,0 0,0c0,0.676009 0.9146,1.173074 0.795304,1.471313s-0.735656,0.835069 -0.815187,1.431548c-0.099413,0.218709 -0.218709,0.218709 -0.357887,0.099413z" class="cls-16"/>
   <path stroke="null" id="svg_63" d="m33.943234,168.422516a19.047536,19.047536 0 0 0 3.300512,-1.670139c0.397652,0.159061 0,0.795304 0.497065,0.854952a14.037119,14.037119 0 0 1 -3.220982,1.113426c-0.258474,0.059648 -0.596478,0.238591 -0.576596,-0.298239z" class="cls-16"/>
   <path stroke="null" id="svg_64" d="m172.326166,88.037143a7.833746,7.833746 0 0 1 -1.352017,0.159061c-1.3719,0 -1.3719,0 -0.775422,-1.352017a3.439691,3.439691 0 0 1 2.127439,1.192956z" class="cls-6"/>
   <path stroke="null" id="svg_65" d="m72.475722,89.607869a0.576596,0.576596 0 0 0 0.735656,0.676009c0.497065,-0.119296 0.974248,-0.298239 1.133308,0.298239s-0.616361,0.278356 -0.795304,0.636243a0.99413,0.99413 0 0 1 -0.159061,0.139178a3.976521,3.976521 0 0 0 -2.465443,-1.153191l1.550843,-0.596478z" class="cls-2"/>
   <path stroke="null" id="svg_66" d="m62.415124,136.689878l-0.4573,1.312252a24.555017,24.555017 0 0 1 -1.093543,2.584739a0.318122,0.318122 0 0 1 -0.218709,-0.178943a15.906084,15.906084 0 0 1 1.530961,-4.19523c0.019883,0.178943 0.039765,0.377769 0.238591,0.477183z" class="cls-23"/>
   <path stroke="null" id="svg_67" d="m130.07563,33.956457c-0.9146,-0.238591 -1.352017,-1.153191 -2.167204,-1.511078c0.338004,0 0.9146,0 0.238591,-0.576596c-0.198826,-0.139178 -0.099413,-0.318122 0,-0.477183a4.751943,4.751943 0 0 1 1.928613,2.564856z" class="cls-24"/>
   <path stroke="null" id="svg_68" d="m35.513959,166.354725l-1.431548,0.755539l-1.491195,0.4573l0,0c-0.338004,-0.338004 0,-0.377769 0.218709,-0.497065s0.755539,-0.178943 0.954365,-0.576596c0.53683,-0.338004 1.093543,-0.9146 1.749669,-0.139178z" class="cls-25"/>
   <path stroke="null" id="svg_69" d="m57.842125,142.992664c0.377769,0 0,0.4573 0.417535,0.497065l-0.676009,4.374173c-0.238591,0.119296 -0.298239,0 -0.397652,-0.218709l0.437417,-3.459573c0.198826,-0.377769 -0.119296,-0.854952 0.218709,-1.192956z" class="cls-26"/>
   <path stroke="null" id="svg_70" d="m174.314426,89.806695c-0.576596,0.278356 -0.318122,1.014013 -0.835069,1.530961a2.564856,2.564856 0 0 1 0,-2.425678a2.405795,2.405795 0 0 1 0.835069,0.894717z" class="cls-6"/>
   <path stroke="null" id="svg_71" d="m90.250771,57.875231c0.178943,0.357887 0.695891,0.656126 0.218709,1.133308s-1.073661,0.178943 -1.590608,0l1.3719,-1.133308z" class="cls-27"/>
   <path stroke="null" id="svg_72" d="m94.247175,71.45505l-0.298239,0.417535a0.616361,0.616361 0 0 1 -0.258474,0.119296a0.417535,0.417535 0 0 1 -0.258474,-0.139178c-0.119296,-0.795304 0.4573,-1.332135 0.755539,-1.988261c0.178943,0.357887 1.3719,0.278356 0.497065,1.113426c-0.397652,-0.059648 -0.178943,0.417535 -0.437417,0.477183z" class="cls-28"/>
   <path stroke="null" id="svg_73" d="m30.006478,166.513786c0,0.477183 0.417535,0.377769 0.715774,0.437417l-3.539104,1.113426c0.318122,-0.695891 0.874835,-0.656126 1.192956,-0.954365a1.849082,1.849082 0 0 1 1.630374,-0.596478z" class="cls-29"/>
   <path stroke="null" id="svg_74" d="m122.023175,146.631181a0.835069,0.835069 0 0 1 -0.119296,-0.715774c0,-0.318122 -0.198826,-0.477183 -0.377769,-0.576596c-0.715774,-0.397652 -0.099413,-0.596478 0,-0.854952a4.394056,4.394056 0 0 0 1.471313,1.550843a2.226852,2.226852 0 0 0 -0.974248,0.596478z" class="cls-30"/>
   <path stroke="null" id="svg_75" d="m110.829268,175.262132c-0.357887,0.815187 -1.153191,0.576596 -1.809317,0.755539a1.292369,1.292369 0 0 0 0.735656,-1.650256l1.073661,0.894717z" class="cls-31"/>
   <path stroke="null" id="svg_76" d="m90.608658,48.828646c-0.656126,0 -1.173074,0.596478 -1.868965,0.53683l0,0c0,-0.278356 0,-0.437417 0.318122,-0.53683l2.266617,-0.835069c0.139178,0 0.258474,0.119296 0.278356,0.298239c-0.159061,0.516948 -0.636243,0.417535 -0.99413,0.53683z" class="cls-32"/>
   <path stroke="null" id="svg_77" d="m38.754824,154.186571a5.18936,5.18936 0 0 1 -1.312252,1.749669c0,-0.318122 -0.218709,-0.397652 -0.497065,-0.437417a0.53683,0.53683 0 0 1 0.278356,-0.497065c0.4573,-0.338004 0.715774,-0.934482 1.332135,-1.113426c0.139178,0.039765 0.278356,0.099413 0.198826,0.298239z" class="cls-33"/>
   <path stroke="null" id="svg_78" d="m59.313438,109.788713c0.218709,0 0.417535,-0.874835 0.656126,0a3.81746,3.81746 0 0 0 0.4573,0.835069a0.854952,0.854952 0 0 1 -0.437417,0.795304l-0.676009,-1.630374z" class="cls-34"/>
   <path stroke="null" id="svg_79" d="m86.27425,72.906481l0.298239,0.298239l-2.306382,2.127439a5.845486,5.845486 0 0 1 2.008143,-2.425678z" class="cls-35"/>
   <path stroke="null" id="svg_80" d="m102.100804,83.802148l0,-5.447834a16.164558,16.164558 0 0 1 0,5.447834z" class="cls-36"/>
   <path stroke="null" id="svg_81" d="m99.39677,84.060622a6.10396,6.10396 0 0 1 -1.113426,2.246734l-0.258474,-0.119296l1.192956,-2.564856c0.178943,0.159061 0.099413,0.437417 0.178943,0.437417z" class="cls-37"/>
   <path stroke="null" id="svg_82" d="m71.819596,162.65656c-0.4573,0.715774 -0.218709,2.107556 -1.749669,1.8292a10.895668,10.895668 0 0 1 1.749669,-1.8292z" class="cls-38"/>
   <path stroke="null" id="svg_83" d="m95.042479,82.072362l0.238591,0.258474a1.988261,1.988261 0 0 1 -1.292369,1.809317a10.060598,10.060598 0 0 1 1.053778,-2.067791z" class="cls-39"/>
   <path stroke="null" id="svg_84" d="m117.86771,3.555954a7.356564,7.356564 0 0 1 0.139178,-2.505208a4.81159,4.81159 0 0 1 0.258474,2.306382c-0.119296,0.099413 -0.198826,0.278356 -0.397652,0.198826z" class="cls-40"/>
   <path stroke="null" id="svg_85" d="m88.819224,49.365476a6.819734,6.819734 0 0 1 -2.882978,0.4573a4.095817,4.095817 0 0 1 2.882978,-0.437417l0,-0.019883z" class="cls-41"/>
   <path stroke="null" id="svg_86" d="m62.812776,137.743656a6.939029,6.939029 0 0 1 0.894717,-1.988261l0.218709,0.497065l-0.835069,1.769552c-0.258474,0.039765 -0.357887,-0.059648 -0.278356,-0.278356z" class="cls-42"/>
   <path stroke="null" id="svg_87" d="m47.065753,162.775856a5.229125,5.229125 0 0 1 -1.8292,1.690021c0.298239,-0.9146 1.073661,-1.232722 1.391782,-1.868965a0.139178,0.139178 0 0 1 0.178943,-0.119296a0.397652,0.397652 0 0 1 0.258474,0.298239z" class="cls-43"/>
   <path stroke="null" id="svg_88" d="m92.199267,54.972371l0,0.258474c-0.954365,0.139178 -1.590608,1.053778 -2.624504,1.053778l0,0l0,0c0.874835,-0.556713 1.550843,-1.391782 2.624504,-1.312252z" class="cls-44"/>
   <path stroke="null" id="svg_89" d="m47.065753,162.775856l-0.238591,-0.178943c-0.258474,-0.516948 0.298239,-0.676009 0.437417,-1.014013s0.4573,-0.198826 0.715774,0a1.988261,1.988261 0 0 1 -0.9146,1.192956z" class="cls-45"/>
   <path stroke="null" id="svg_90" d="m131.666238,17.990725c0.139178,-0.835069 0.159061,-1.709904 1.093543,-2.147321a8.748346,8.748346 0 0 1 -1.093543,2.147321z" class="cls-1"/>
   <path stroke="null" id="svg_91" d="m128.584434,30.218527c-0.357887,-0.397652 -0.934482,0 -1.292369,-0.377769l2.405795,-0.238591c0.099413,0 0.218709,0.099413 0.258474,0.238591a2.246734,2.246734 0 0 1 -1.3719,0.377769z" class="cls-46"/>
   <path stroke="null" id="svg_92" d="m90.46948,71.892468c-0.516948,0.397652 -0.854952,1.153191 -1.849082,1.033895l1.570726,-1.312252c0.238591,-0.059648 0.338004,0.039765 0.278356,0.278356z" class="cls-47"/>
   <path stroke="null" id="svg_93" d="m90.46948,71.892468l-0.278356,-0.278356a5.964782,5.964782 0 0 1 1.332135,-1.113426a0.397652,0.397652 0 0 0 0.397652,0.258474l-1.45143,1.133308z" class="cls-48"/>
   <path stroke="null" id="svg_94" d="m95.062362,57.855348c0.298239,-0.238591 0.437417,0 0.616361,0.198826c-0.397652,0.417535 -0.516948,1.153191 -1.332135,1.033895l0,0s0,-0.099413 0,-0.159061a0.676009,0.676009 0 0 1 0.178943,-0.656126c0.258474,-0.059648 0.377769,-0.238591 0.53683,-0.417535z" class="cls-49"/>
   <path stroke="null" id="svg_95" d="m92.656567,44.036938a1.789434,1.789434 0 0 0 0.974248,-0.417535c0.318122,-0.238591 0.437417,0 0.556713,0.218709a2.187087,2.187087 0 0 1 -1.232722,0.695891c-0.417535,0.039765 -0.437417,-0.238591 -0.298239,-0.497065z" class="cls-50"/>
   <path stroke="null" id="svg_96" d="m42.492754,144.364564l0.278356,0.258474a4.692295,4.692295 0 0 1 -1.153191,1.272487a0.298239,0.298239 0 0 1 -0.258474,-0.198826a4.513351,4.513351 0 0 1 1.133308,-1.332135z" class="cls-51"/>
   <path stroke="null" id="svg_97" d="m60.387099,141.720177a2.266617,2.266617 0 0 1 -0.596478,1.988261a2.306382,2.306382 0 0 1 0.497065,-1.988261l0.099413,0z" class="cls-52"/>
   <path stroke="null" id="svg_98" d="m150.932482,166.871673c0.139178,0.119296 0.178943,0.338004 0.417535,0.258474l0,1.988261a3.419808,3.419808 0 0 1 -0.417535,-2.246734z" class="cls-53"/>
   <path stroke="null" id="svg_99" d="m85.856716,197.809006c0,-0.218709 0.139178,-0.516948 0.397652,-0.298239a2.485326,2.485326 0 0 0 1.352017,0.338004c0,0.338004 -0.338004,0.298239 -0.516948,0.437417a2.544973,2.544973 0 0 1 -1.232722,-0.477183z" class="cls-54"/>
   <path stroke="null" id="svg_100" d="m90.449598,41.61126a8.271164,8.271164 0 0 1 -3.618634,-0.218709l3.101686,0c0.238591,-0.039765 0.497065,-0.218709 0.516948,0.218709z" class="cls-55"/>
   <path stroke="null" id="svg_101" d="m30.006478,166.513786a5.229125,5.229125 0 0 1 -1.550843,0.596478l-0.198826,-0.357887l1.431548,-0.53683c0.377769,-0.159061 0.4573,-0.039765 0.318122,0.298239z" class="cls-56"/>
   <path stroke="null" id="svg_102" d="m155.942899,124.660902a2.147321,2.147321 0 0 1 0,-1.988261a2.206969,2.206969 0 0 1 0,1.988261z" class="cls-57"/>
   <path stroke="null" id="svg_103" d="m92.417975,75.153215a3.837343,3.837343 0 0 1 -0.53683,1.988261a2.525091,2.525091 0 0 1 0.357887,-1.988261s0.119296,-0.07953 0.178943,0z" class="cls-58"/>
   <path stroke="null" id="svg_104" d="m90.688189,51.473032a2.644386,2.644386 0 0 1 -2.385913,0.636243l2.167204,-0.815187a0.954365,0.954365 0 0 1 0.218709,0.178943z" class="cls-59"/>
   <path stroke="null" id="svg_105" d="m41.359445,145.696698l0.258474,0.218709a4.334408,4.334408 0 0 1 -1.093543,1.312252a0.318122,0.318122 0 0 1 -0.198826,-0.218709a3.698165,3.698165 0 0 1 1.033895,-1.312252z" class="cls-60"/>
   <path stroke="null" id="svg_106" d="m89.594646,56.224975a0.377769,0.377769 0 0 1 0,0.159061a2.306382,2.306382 0 0 1 -1.988261,0.497065a5.606895,5.606895 0 0 1 1.988261,-0.656126z" class="cls-51"/>
   <path stroke="null" id="svg_107" d="m70.527227,85.690996l0.198826,-0.298239c0,0.477183 0,0.934482 0,1.411665s0,0.556713 -0.417535,0.417535a0.338004,0.338004 0 0 1 -0.099413,-0.556713a1.192956,1.192956 0 0 0 0.318122,-0.974248z" class="cls-61"/>
   <path stroke="null" id="svg_108" d="m88.819224,45.627546a3.976521,3.976521 0 0 1 -2.485326,0l1.530961,-0.198826c0.258474,0.178943 0.676009,-0.119296 0.954365,0.198826z" class="cls-62"/>
   <path stroke="null" id="svg_109" d="m167.971875,97.282555a1.411665,1.411665 0 0 1 0.715774,1.988261l-0.715774,-1.988261z" class="cls-19"/>
   <path stroke="null" id="svg_110" d="m92.417975,75.153215l-0.178943,0a2.107556,2.107556 0 0 1 0.417535,-1.530961a0.178943,0.178943 0 0 1 0.258474,0a0.755539,0.755539 0 0 1 0.258474,0.516948a0.636243,0.636243 0 0 1 0,0.278356a3.101686,3.101686 0 0 1 -0.4573,0.556713l-0.298239,0.178943z" class="cls-26"/>
   <path stroke="null" id="svg_111" d="m70.527227,48.62982a6.18349,6.18349 0 0 1 -0.178943,-1.988261a4.572999,4.572999 0 0 1 0.377769,2.564856c-0.338004,-0.139178 -0.357887,-0.318122 -0.198826,-0.576596z" class="cls-63"/>
   <path stroke="null" id="svg_112" d="m25.831131,166.076368a1.988261,1.988261 0 0 1 1.988261,0c-0.159061,0.278356 -0.497065,0 -0.695891,0.218709a2.624504,2.624504 0 0 1 -1.292369,-0.218709z" class="cls-64"/>
   <path stroke="null" id="svg_113" d="m70.328401,64.615434l0.417535,-0.218709a4.513351,4.513351 0 0 1 -0.318122,2.266617c-0.318122,-0.715774 0.318122,-1.411665 -0.099413,-2.047908z" class="cls-65"/>
   <path stroke="null" id="svg_114" d="m120.909749,148.321202c0.198826,0 0.119296,0.437417 0.417535,0.397652l0,1.650256a3.002273,3.002273 0 0 1 -0.417535,-2.047908z" class="cls-66"/>
   <path stroke="null" id="svg_115" d="m93.412106,60.201496a3.638517,3.638517 0 0 1 -1.550843,1.411665a2.44556,2.44556 0 0 1 1.550843,-1.411665z" class="cls-67"/>
   <path stroke="null" id="svg_116" d="m89.793472,47.078976a4.572999,4.572999 0 0 1 -1.988261,0.377769a3.678282,3.678282 0 0 1 1.670139,-0.596478c0.278356,-0.099413 0.338004,0.019883 0.318122,0.218709z" class="cls-68"/>
   <path stroke="null" id="svg_117" d="m141.965428,43.818229c-0.417535,0 -0.835069,0 -1.252604,-0.159061s-0.477183,0.218709 -0.497065,-0.159061s0.258474,-0.278356 0.477183,-0.198826s0.397652,0 0.596478,-0.139178s0.497065,0.377769 0.676009,0.656126z" class="cls-55"/>
   <path stroke="null" id="svg_118" d="m90.608658,48.828646l0.99413,-0.596478c0,-0.198826 0.258474,-0.258474 0.4573,-0.318122s0.318122,0.198826 0.318122,0.417535c-0.477183,0.159061 -0.735656,0.676009 -1.272487,0.715774l-0.497065,-0.218709z" class="cls-69"/>
   <path stroke="null" id="svg_119" d="m92.656567,44.036938a0.4573,0.4573 0 0 0 0.298239,0.497065a3.042039,3.042039 0 0 1 -1.849082,0.516948l0,-0.099413c0,-0.159061 0,-0.238591 0.198826,-0.298239a1.709904,1.709904 0 0 1 1.093543,-0.357887l0.258474,-0.258474z" class="cls-70"/>
   <path stroke="null" id="svg_120" d="m27.541035,163.591043s0.497065,0 0,0.218709a2.525091,2.525091 0 0 1 -0.954365,0c-0.318122,0 -0.676009,0 -0.795304,-0.477183a0.139178,0.139178 0 0 1 0.218709,0l1.530961,0.258474z" class="cls-71"/>
   <path stroke="null" id="svg_121" d="m60.387099,141.720177l-0.099413,0a1.530961,1.530961 0 0 1 0.357887,-1.352017l0.218709,0.178943c0,0.516948 0.119296,0.99413 -0.477183,1.173074z" class="cls-72"/>
   <path stroke="null" id="svg_122" d="m32.571334,167.567564l0,0a2.783565,2.783565 0 0 1 -1.670139,0.576596c0.477183,-0.4573 0.934482,-0.894717 1.670139,-0.576596z" class="cls-73"/>
   <path stroke="null" id="svg_123" d="m156.420081,30.69571l0,-1.511078c0.278356,-0.159061 0.318122,0 0.397652,0.218709l0,1.530961c-0.238591,0.07953 -0.298239,-0.119296 -0.397652,-0.238591z" class="cls-74"/>
   <path stroke="null" id="svg_124" d="m34.59936,156.512835c0.278356,-0.53683 0.854952,-0.576596 1.312252,-0.795304a0.178943,0.178943 0 0 1 0,0.278356c-0.357887,0.417535 -0.755539,0.755539 -1.352017,0.53683l0.039765,-0.019883z" class="cls-75"/>
   <path stroke="null" id="svg_125" d="m62.812776,137.743656l0.278356,0.318122c0,0.198826 -0.139178,0.397652 -0.198826,0.596478s-0.278356,0.516948 -0.516948,0.377769s0,-0.497065 0.119296,-0.735656l0.318122,-0.556713z" class="cls-76"/>
   <path stroke="null" id="svg_126" d="m35.931494,155.995888l0,-0.357887l1.192956,-0.854952c0.139178,0 0.159061,0.159061 0,0.258474l-0.278356,0.4573c-0.298239,0.019883 -0.477183,0.516948 -0.9146,0.497065z" class="cls-77"/>
   <path stroke="null" id="svg_127" d="m37.223864,155.041523l0,-0.258474a5.18936,5.18936 0 0 1 1.550843,-1.391782c0.338004,0.318122 0,0.4573 -0.178943,0.596478s-0.795304,0.874835 -1.3719,1.053778z" class="cls-78"/>
   <path stroke="null" id="svg_128" d="m92.159502,64.873908c0.258474,0.437417 0,0.636243 -0.357887,0.854952s-0.556713,0 -0.516948,-0.258474s0.318122,-0.338004 0.497065,-0.516948s0.218709,-0.178943 0.377769,-0.07953z" class="cls-79"/>
   <path stroke="null" id="svg_129" d="m88.819224,45.627546c-0.318122,-0.099413 -0.695891,0 -0.954365,-0.238591l1.530961,-0.198826c0.218709,0.159061 0.53683,0 0.715774,0.218709a2.624504,2.624504 0 0 1 -1.292369,0.218709z" class="cls-80"/>
   <path stroke="null" id="svg_130" d="m96.772266,86.048883a0.417535,0.417535 0 0 1 0.656126,-0.258474a3.459573,3.459573 0 0 1 -0.636243,1.113426c-0.218709,0 -0.338004,0 -0.258474,-0.298239l0.238591,-0.556713z" class="cls-81"/>
   <path stroke="null" id="svg_131" d="m98.541818,15.405986c-0.298239,0.119296 -0.178943,0.497065 -0.397652,0.636243c0,-0.53683 -0.178943,-1.113426 0.198826,-1.650256c0.556713,0.278356 0.218709,0.676009 0.198826,1.014013z" class="cls-82"/>
   <path stroke="null" id="svg_132" d="m94.784005,43.599521l0.616361,-0.198826c0,0.676009 -0.616361,0.835069 -1.033895,1.153191a0.238591,0.238591 0 0 1 0,-0.357887l0.417535,-0.596478z" class="cls-83"/>
   <path stroke="null" id="svg_133" d="m86.990024,57.139575l-1.570726,0.119296c0.497065,-0.377769 1.014013,-0.616361 1.570726,-0.119296z" class="cls-75"/>
   <path stroke="null" id="svg_134" d="m155.883251,155.995888c0.278356,0 0.417535,-0.596478 0.775422,-0.159061l-0.338004,1.252604a1.511078,1.511078 0 0 1 -0.437417,-1.093543z" class="cls-84"/>
   <path stroke="null" id="svg_135" d="m90.807484,60.201496a1.033895,1.033895 0 0 1 0.874835,-0.676009a0.238591,0.238591 0 0 1 0.278356,0.357887a2.704034,2.704034 0 0 1 -1.133308,0.596478a0.178943,0.178943 0 0 1 0,-0.178943l-0.019883,-0.099413z" class="cls-85"/>
   <path stroke="null" id="svg_136" d="m118.24548,18.448025a1.729787,1.729787 0 0 1 -0.139178,1.113426c-0.437417,-0.516948 -0.198826,-1.033895 -0.238591,-1.511078c0.357887,-0.178943 0.238591,0.198826 0.377769,0.397652z" class="cls-66"/>
   <path stroke="null" id="svg_137" d="m89.952532,40.139947l2.843213,0a4.592882,4.592882 0 0 1 -2.843213,0z" class="cls-47"/>
   <path stroke="null" id="svg_138" d="m92.199267,46.005316a2.90286,2.90286 0 0 1 -1.511078,0.676009a0.119296,0.119296 0 0 1 0,-0.139178l0,0a4.115699,4.115699 0 0 1 1.312252,-0.676009a0.377769,0.377769 0 0 1 0.198826,0.139178z" class="cls-86"/>
   <path stroke="null" id="svg_139" d="m92.795745,73.622254l-0.218709,0a1.988261,1.988261 0 0 1 0.437417,-1.312252c0.198826,0 0.278356,0 0.357887,0.198826a1.312252,1.312252 0 0 1 -0.119296,0.775422c-0.019883,0.178943 -0.07953,0.397652 -0.4573,0.338004z" class="cls-87"/>
   <path stroke="null" id="svg_140" d="m90.091711,45.408838c-0.238591,0 -0.516948,0 -0.715774,-0.218709a5.249008,5.249008 0 0 1 1.749669,-0.238591s0,0 0,0.099413c-0.318122,0.377769 -0.676009,0.298239 -1.033895,0.357887z" class="cls-88"/>
   <path stroke="null" id="svg_141" d="m92.040206,59.923139l0,-0.357887a0.338004,0.338004 0 0 1 0.318122,-0.417535c0.218709,0 0.278356,-0.516948 0.616361,-0.198826a0.53683,0.53683 0 0 1 0.198826,0.218709l-1.133308,0.755539z" class="cls-89"/>
   <path stroke="null" id="svg_142" d="m93.352458,75.232745c-0.119296,0.417535 0.178943,0.99413 -0.477183,1.212839c-0.377769,-0.278356 0.119296,-0.53683 0,-0.795304s0,-0.576596 0.238591,-0.775422s0.318122,0.139178 0.238591,0.357887z" class="cls-90"/>
   <path stroke="null" id="svg_143" d="m156.797851,43.579638l0,1.332135c-0.198826,0.099413 0,0.576596 -0.417535,0.417535l0,-1.530961c0.139178,-0.099413 0.198826,-0.298239 0.417535,-0.218709z" class="cls-91"/>
   <path stroke="null" id="svg_144" d="m101.802565,83.185787c0.198826,0.437417 -0.119296,0.954365 0.238591,1.3719c0,0.238591 0.139178,0.616361 -0.198826,0.616361s-0.198826,-0.377769 -0.198826,-0.596478s0.119296,-0.934482 0.159061,-1.391782z" class="cls-41"/>
   <path stroke="null" id="svg_145" d="m93.531401,62.865765a1.431548,1.431548 0 0 1 -0.894717,1.093543a0.477183,0.477183 0 0 1 -0.198826,-0.417535a1.610491,1.610491 0 0 1 1.093543,-0.676009z" class="cls-92"/>
   <path stroke="null" id="svg_146" d="m24.041696,164.744234l-0.477183,0.238591c-0.397652,-0.258474 -0.497065,-0.556713 0,-1.053778l0.477183,0.815187z" class="cls-93"/>
   <path stroke="null" id="svg_147" d="m26.089605,163.412099l-0.218709,0c-0.417535,-0.357887 -0.576596,-0.755539 -0.218709,-1.491195l0.437417,1.491195z" class="cls-94"/>
   <path stroke="null" id="svg_148" d="m92.795745,77.777719a2.664269,2.664269 0 0 1 -0.4573,1.312252s-0.139178,0 -0.198826,0a4.27476,4.27476 0 0 1 0.417535,-1.570726c0.238591,0.019883 0.238591,0.159061 0.238591,0.258474z" class="cls-45"/>
   <path stroke="null" id="svg_149" d="m94.386353,44.295412l0,0.357887c-0.338004,0.318122 -0.616361,0.695891 -1.133308,0.755539c0,0 0,-0.119296 0,-0.178943s0,0 0,0l1.133308,-0.934482z" class="cls-95"/>
   <path stroke="null" id="svg_150" d="m95.062362,36.580961a1.809317,1.809317 0 0 1 1.988261,0a3.678282,3.678282 0 0 1 -1.988261,0z" class="cls-96"/>
   <path stroke="null" id="svg_151" d="m156.797851,29.40334l-0.377769,-0.218709a2.107556,2.107556 0 0 1 0.159061,-1.113426c0.397652,0.4573 0.198826,0.9146 0.218709,1.332135z" class="cls-97"/>
   <path stroke="null" id="svg_152" d="m85.001764,44.076703c0.53683,0.417535 1.192956,0 1.789434,0.198826a4.294643,4.294643 0 0 1 -1.868965,0.218709c-0.139178,0 -0.298239,0 -0.258474,-0.218709s0.178943,-0.178943 0.338004,-0.198826z" class="cls-98"/>
   <path stroke="null" id="svg_153" d="m92.398093,44.295412l-1.073661,0.318122l-0.715774,-0.198826c0.596478,-0.119296 1.173074,-0.437417 1.789434,-0.119296z" class="cls-99"/>
   <path stroke="null" id="svg_154" d="m89.01805,66.762756c0.4573,-0.159061 0.656126,-0.755539 1.292369,-0.676009a1.292369,1.292369 0 0 1 -1.292369,0.676009z" class="cls-100"/>
   <path stroke="null" id="svg_155" d="m160.515898,143.887381a1.988261,1.988261 0 0 1 -0.139178,1.292369c-0.377769,-0.318122 -0.238591,-0.715774 -0.258474,-1.053778s0.278356,-0.298239 0.397652,-0.238591z" class="cls-101"/>
   <path stroke="null" id="svg_156" d="m121.386931,144.344681c-0.178943,0 -0.377769,0.238591 -0.516948,0s0,-0.854952 0.357887,-1.173074c0.278356,0.338004 0.059648,0.775422 0.159061,1.173074z" class="cls-102"/>
   <path stroke="null" id="svg_157" d="m171.709805,152.914084c-0.218709,-0.159061 0,-0.53683 -0.397652,-0.636243a1.45143,1.45143 0 0 1 0,-0.954365a1.868965,1.868965 0 0 1 0.397652,1.590608z" class="cls-103"/>
   <path stroke="null" id="svg_158" d="m117.86771,3.555954l0.397652,-0.198826l0,1.053778l-0.377769,0.218709l-0.019883,-1.073661z" class="cls-104"/>
   <path stroke="null" id="svg_159" d="m132.739899,146.989067a2.624504,2.624504 0 0 1 0,2.187087a5.785838,5.785838 0 0 1 0,-2.187087z" class="cls-105"/>
   <path stroke="null" id="svg_160" d="m92.437858,63.541774a0.397652,0.397652 0 0 1 0.198826,0.417535a0.795304,0.795304 0 0 0 -0.4573,0.516948a0.357887,0.357887 0 0 1 -0.357887,-0.159061l0,-0.119296c-0.039765,-0.437417 0.278356,-0.556713 0.616361,-0.656126z" class="cls-106"/>
   <path stroke="null" id="svg_161" d="m40.32555,146.989067l0.198826,0.218709a2.346147,2.346147 0 0 1 -0.775422,0.974248c-0.178943,-0.676009 0.298239,-0.874835 0.576596,-1.192956z" class="cls-107"/>
   <path stroke="null" id="svg_162" d="m96.553557,86.685126l0.258474,0.298239a1.988261,1.988261 0 0 1 -0.636243,0.9146a0.338004,0.338004 0 0 1 -0.258474,-0.258474l0.636243,-0.954365z" class="cls-108"/>
   <path stroke="null" id="svg_163" d="m95.917314,87.639491l0.258474,0.258474a1.988261,1.988261 0 0 1 -0.835069,0.874835c-0.019883,-0.596478 0.377769,-0.735656 0.576596,-1.133308z" class="cls-109"/>
   <path stroke="null" id="svg_164" d="m25.194887,166.951203l2.226852,0a3.459573,3.459573 0 0 1 -2.226852,0z" class="cls-110"/>
   <path stroke="null" id="svg_165" d="m156.420081,152.098897l-0.357887,0.854952a2.7438,2.7438 0 0 1 0.357887,-1.749669l0,0.894717z" class="cls-111"/>
   <path stroke="null" id="svg_166" d="m92.37821,48.271933l-0.377769,-0.338004a0.178943,0.178943 0 0 1 0,-0.159061s0,-0.099413 0,-0.099413s0.397652,-0.318122 0.656126,-0.417535s0.258474,0 0.238591,0.218709l-0.516948,0.795304z" class="cls-11"/>
   <path stroke="null" id="svg_167" d="m119.398671,27.613906c-0.417535,0.159061 -0.258474,-0.338004 -0.4573,-0.437417l0.9146,-0.795304c0.238591,0.636243 -0.636243,0.695891 -0.4573,1.232722z" class="cls-112"/>
   <path stroke="null" id="svg_168" d="m93.988701,52.248454l0.178943,0.417535c-0.516948,-0.278356 -0.676009,0.318122 -1.053778,0.397652s-0.278356,0 -0.238591,-0.218709c0.357887,-0.238591 0.556713,-0.755539 1.113426,-0.596478z" class="cls-36"/>
   <path stroke="null" id="svg_169" d="m67.922606,136.491052a2.584739,2.584739 0 0 1 0,2.167204l0,-2.167204z" class="cls-113"/>
   <path stroke="null" id="svg_170" d="m90.688189,51.473032c-0.139178,0 -0.198826,0 -0.218709,-0.178943s-0.318122,-0.178943 -0.4573,-0.258474l1.352017,-0.437417c-0.119296,0.437417 -0.636243,0.357887 -0.695891,0.715774l0,0l0.019883,0.159061z" class="cls-114"/>
   <path stroke="null" id="svg_171" d="m53.487835,166.533668a1.849082,1.849082 0 0 1 0,-1.113426a1.033895,1.033895 0 0 1 0.258474,1.093543a0.258474,0.258474 0 0 1 -0.258474,0.019883z" class="cls-115"/>
   <path stroke="null" id="svg_172" d="m47.324227,161.602782c0,0.437417 -0.377769,0.636243 -0.437417,1.014013l-0.198826,0l-0.278356,-0.298239c0.178943,-0.417535 0.656126,-0.53683 0.9146,-0.715774z" class="cls-116"/>
   <path stroke="null" id="svg_173" d="m53.487835,175.520606l0.357887,0l0,1.073661c-0.258474,0.198826 -0.278356,0 -0.377769,-0.198826l0.019883,-0.874835z" class="cls-117"/>
   <path stroke="null" id="svg_174" d="m93.133749,74.934506l-0.238591,0.715774c0,-0.238591 0,-0.53683 -0.238591,-0.715774s0,-0.676009 0.437417,-0.676009a0.516948,0.516948 0 0 1 0.039765,0.676009z" class="cls-14"/>
   <path stroke="null" id="svg_175" d="m99.39677,84.060622l-0.178943,-0.437417l0,-0.53683c0.178943,0 0.318122,0 0.397652,0.139178l-0.218709,0.835069z" class="cls-118"/>
   <path stroke="null" id="svg_176" d="m160.575546,136.888704c-0.377769,0.397652 -0.397652,0 -0.477183,-0.218709l0,-0.616361c0.238591,-0.119296 0.298239,0 0.377769,0.218709l0.099413,0.616361z" class="cls-119"/>
   <path stroke="null" id="svg_177" d="m117.86771,16.221173l0.377769,0.417535l0,0.874835c-0.218709,0 -0.318122,0 -0.357887,-0.218709l-0.019883,-1.073661z" class="cls-120"/>
   <path stroke="null" id="svg_178" d="m93.173514,35.248826l-0.497065,0.238591a0.4573,0.4573 0 0 1 0,-0.775422c0.238591,-0.119296 0.318122,0.357887 0.497065,0.53683z" class="cls-121"/>
   <path stroke="null" id="svg_179" d="m129.936451,29.840758l-0.258474,-0.238591l0.934482,-0.397652c0.119296,0 0.178943,0 0.139178,0.159061a1.332135,1.332135 0 0 1 -0.815187,0.477183z" class="cls-122"/>
   <path stroke="null" id="svg_180" d="m171.510979,157.069548l0.178943,-0.278356a3.220982,3.220982 0 0 1 -0.278356,1.650256c-0.318122,-0.53683 0.019883,-0.934482 0.099413,-1.3719z" class="cls-123"/>
   <path stroke="null" id="svg_181" d="m59.552029,107.740805c0,0.556713 0.357887,1.272487 -0.715774,0.894717l0.715774,-0.894717z" class="cls-34"/>
   <path stroke="null" id="svg_182" d="m53.467952,176.31591l0.377769,0.198826a0.974248,0.974248 0 0 1 -0.139178,0.854952c-0.397652,-0.318122 -0.238591,-0.715774 -0.238591,-1.053778z" class="cls-124"/>
   <path stroke="null" id="svg_183" d="m86.950259,58.034292a1.630374,1.630374 0 0 1 1.391782,-0.198826a2.863095,2.863095 0 0 1 -1.391782,0.437417s-0.119296,-0.059648 -0.119296,-0.059648s0.099413,-0.178943 0.119296,-0.178943z" class="cls-125"/>
   <path stroke="null" id="svg_184" d="m92.795745,52.825049l0.238591,0.218709a1.988261,1.988261 0 0 1 -1.133308,0.636243c0.238591,-0.556713 0.656126,-0.656126 0.894717,-0.854952z" class="cls-75"/>
   <path stroke="null" id="svg_185" d="m79.275573,92.908381c-0.278356,0 -0.198826,0.357887 -0.397652,0.437417a1.232722,1.232722 0 0 1 0.318122,-1.173074a0.874835,0.874835 0 0 1 0.07953,0.735656z" class="cls-126"/>
   <path stroke="null" id="svg_186" d="m78.877921,95.990185c0.198826,0 0,0.4573 0.397652,0.4573l0,0.815187a1.232722,1.232722 0 0 1 -0.397652,-1.272487z" class="cls-127"/>
   <path stroke="null" id="svg_187" d="m156.420081,45.329307l0.417535,-0.417535c0,0.437417 -0.159061,0.894717 -0.258474,1.411665c-0.278356,-0.377769 -0.159061,-0.676009 -0.159061,-0.99413z" class="cls-63"/>
   <path stroke="null" id="svg_188" d="m141.945545,137.584595a1.530961,1.530961 0 0 1 0,1.729787a5.626777,5.626777 0 0 1 0,-1.729787z" class="cls-128"/>
   <path stroke="null" id="svg_189" d="m139.957284,139.354147c-0.357887,0.338004 -0.874835,0.139178 -1.292369,0.338004s0,-0.218709 0,-0.338004a1.769552,1.769552 0 0 1 1.292369,0z" class="cls-129"/>
   <path stroke="null" id="svg_190" d="m160.158011,135.218565a0.9146,0.9146 0 0 1 0,-0.755539a1.113426,1.113426 0 0 1 0.298239,1.173074c-0.278356,0.119296 -0.178943,-0.298239 -0.298239,-0.417535z" class="cls-130"/>
   <path stroke="null" id="svg_191" d="m70.527227,48.62982l0.198826,0.497065l0,1.133308l-0.397652,-0.854952c-0.019883,-0.338004 -0.119296,-0.616361 0.198826,-0.775422z" class="cls-131"/>
   <path stroke="null" id="svg_192" d="m156.797851,43.579638l-0.397652,0.218709l0,-0.854952l0.377769,-0.218709l0.019883,0.854952z" class="cls-132"/>
   <path stroke="null" id="svg_193" d="m89.614528,57.417931c-0.357887,0.218709 -0.676009,0.477183 -1.212839,0.258474a1.391782,1.391782 0 0 1 0.974248,-0.4573s0.218709,0.059648 0.238591,0.198826z" class="cls-133"/>
   <path stroke="null" id="svg_194" d="m113.692363,1.527928c-0.437417,0 -0.377769,-0.397652 -0.477183,-0.676009l0,-0.298239s0.218709,0 0.218709,0a7.63492,7.63492 0 0 1 0.258474,0.974248z" class="cls-134"/>
   <path stroke="null" id="svg_195" d="m90.688189,46.482498a0.338004,0.338004 0 0 1 0,0.198826c-0.218709,0.318122 -0.576596,0.318122 -0.894717,0.397652l-0.258474,-0.218709a1.988261,1.988261 0 0 1 1.153191,-0.377769z" class="cls-135"/>
   <path stroke="null" id="svg_196" d="m94.346588,59.08807c0.119296,0.596478 -0.178943,0.755539 -0.735656,0.676009a1.113426,1.113426 0 0 1 0.775422,-0.656126l-0.039765,-0.019883z" class="cls-136"/>
   <path stroke="null" id="svg_197" d="m91.503376,64.595552l-0.894717,0.298239c0.357887,-0.576596 0.676009,-0.755539 1.153191,-0.695891l0,0c0.139178,0.258474 -0.039765,0.338004 -0.258474,0.397652z" class="cls-21"/>
   <path stroke="null" id="svg_198" d="m86.314016,72.131059c-0.159061,0.198826 -0.338004,0.218709 -0.636243,0a1.670139,1.670139 0 0 1 0.835069,-0.854952l0,0c0.318122,0.53683 -0.099413,0.676009 -0.198826,0.854952z" class="cls-137"/>
   <path stroke="null" id="svg_199" d="m92.795745,77.777719l-0.238591,-0.258474c0,-0.298239 0,-0.636243 0.258474,-0.874835c0.516948,0.377769 -0.019883,0.755539 -0.019883,1.133308z" class="cls-138"/>
   <path stroke="null" id="svg_200" d="m91.980558,77.837367s0,0.139178 -0.258474,0.119296s-0.178943,-0.178943 -0.159061,-0.318122s0,-0.377769 0.258474,-0.377769s0.178943,0.178943 0.159061,0.576596z" class="cls-139"/>
   <path stroke="null" id="svg_201" d="m53.487835,166.533668l0.357887,0l0,0.854952l-0.397652,0l0.039765,-0.854952z" class="cls-140"/>
   <path stroke="null" id="svg_202" d="m89.853119,82.330835a1.530961,1.530961 0 0 1 1.153191,-0.596478c-0.198826,0.556713 -0.556713,0.576596 -1.153191,0.596478z" class="cls-141"/>
   <path stroke="null" id="svg_203" d="m93.29281,72.409415l-0.198826,0c0,-0.258474 0.178943,-0.338004 0.338004,-0.4573l0.278356,0c0.218709,0.298239 0.238591,0.556713 -0.159061,0.735656s-0.218709,-0.139178 -0.258474,-0.278356z" class="cls-142"/>
   <path stroke="null" id="svg_204" d="m79.036982,90.244112c0,-0.278356 -0.338004,-0.218709 -0.417535,-0.417535s0.417535,0 0.636243,0s0.397652,0.099413 0.278356,0.318122s-0.318122,0.139178 -0.497065,0.099413z" class="cls-143"/>
   <path stroke="null" id="svg_205" d="m57.842125,142.992664a2.246734,2.246734 0 0 1 -0.218709,1.192956l-0.218709,-0.477183c0.039765,-0.298239 0.099413,-0.596478 0.437417,-0.715774z" class="cls-97"/>
   <path stroke="null" id="svg_206" d="m160.515898,143.887381l-0.397652,0.238591l0,-0.676009l0.357887,-0.417535l0.039765,0.854952z" class="cls-144"/>
   <path stroke="null" id="svg_207" d="m43.347706,144.125972a1.033895,1.033895 0 0 1 0.874835,-0.656126l-0.616361,0.934482l-0.258474,-0.278356z" class="cls-145"/>
   <path stroke="null" id="svg_208" d="m90.449598,41.61126l-0.516948,-0.218709c0.417535,0 0.954365,-0.596478 1.093543,0.298239l0,0l-0.576596,-0.07953z" class="cls-146"/>
   <path stroke="null" id="svg_209" d="m91.105724,81.714475a1.252604,1.252604 0 0 1 0.9146,-0.835069c-0.178943,0.596478 -0.417535,0.795304 -0.9146,0.835069z" class="cls-147"/>
   <path stroke="null" id="svg_210" d="m90.230889,60.877504a0.974248,0.974248 0 0 1 -1.033895,0.198826a1.173074,1.173074 0 0 1 0.775422,-0.417535c0.238591,-0.099413 0.278356,0.019883 0.258474,0.218709z" class="cls-148"/>
   <path stroke="null" id="svg_211" d="m57.185999,147.684959l0.397652,0.218709l0,0.656126a0.695891,0.695891 0 0 1 -0.397652,-0.874835z" class="cls-37"/>
   <path stroke="null" id="svg_212" d="m90.230889,60.877504l-0.258474,-0.218709a1.491195,1.491195 0 0 1 0.835069,-0.4573l0,0.278356a0.835069,0.835069 0 0 1 -0.576596,0.397652z" class="cls-32"/>
   <path stroke="null" id="svg_213" d="m117.887593,17.294834l0.357887,0.218709l0,0.934482l-0.377769,-0.397652l0.019883,-0.755539z" class="cls-149"/>
   <path stroke="null" id="svg_214" d="m38.536115,153.987744l0.178943,-0.596478l0.298239,0c0.318122,0.397652 0,0.616361 -0.258474,0.835069l-0.218709,-0.238591z" class="cls-150"/>
   <path stroke="null" id="svg_215" d="m34.59936,156.512835l0,0c-0.139178,0.4573 -0.497065,0.258474 -0.894717,0.397652c0.238591,-0.53683 0.53683,-0.516948 0.894717,-0.397652z" class="cls-68"/>
   <path stroke="null" id="svg_216" d="m128.823026,35.268709c-0.238591,-0.099413 -0.556713,-0.238591 0,-0.397652a2.564856,2.564856 0 0 1 0.954365,0c-0.298239,0.298239 -0.815187,-0.039765 -0.954365,0.397652z" class="cls-151"/>
   <path stroke="null" id="svg_217" d="m30.901195,160.29053a1.590608,1.590608 0 0 1 1.292369,0.278356a1.093543,1.093543 0 0 1 -1.292369,-0.278356z" class="cls-152"/>
   <path stroke="null" id="svg_218" d="m74.662809,57.17934l0.218709,-0.417535c0.238591,0 0.616361,-0.139178 0.53683,0.238591s-0.516948,0.198826 -0.755539,0.178943z" class="cls-153"/>
   <path stroke="null" id="svg_219" d="m90.688189,56.602744c0.099413,0.178943 0.318122,0.357887 0,0.576596l-0.516948,0a0.397652,0.397652 0 0 1 -0.218709,-0.218709l0.735656,-0.357887z" class="cls-154"/>
   <path stroke="null" id="svg_220" d="m61.321581,109.251883c-0.178943,-0.178943 -0.099413,-0.377769 0,-0.556713s0.497065,0 0.516948,0.218709s-0.357887,0.198826 -0.516948,0.338004z" class="cls-155"/>
   <path stroke="null" id="svg_221" d="m70.706171,80.441988l-0.377769,-0.357887a0.556713,0.556713 0 0 1 0.119296,-0.596478a0.954365,0.954365 0 0 1 0.258474,0.954365z" class="cls-156"/>
   <path stroke="null" id="svg_222" d="m144.609814,104.758414l-0.715774,-0.119296c0.4573,-0.119296 0.9146,-0.278356 1.312252,0l-0.596478,0.119296z" class="cls-157"/>
   <path stroke="null" id="svg_223" d="m92.199267,79.089971l0.198826,0l-0.198826,0.854952c-0.676009,-0.278356 -0.119296,-0.556713 0,-0.854952z" class="cls-73"/>
   <path stroke="null" id="svg_224" d="m93.272927,45.050951l0,0.258474c0,0.318122 -0.397652,0.397652 -0.676009,0.477183s-0.238591,0 -0.178943,-0.198826l0.854952,-0.53683z" class="cls-95"/>
   <path stroke="null" id="svg_225" d="m92.417975,80.183514c0,-0.357887 0.238591,-0.497065 0.497065,-0.636243a0.178943,0.178943 0 0 1 0.298239,0c-0.278356,0.198826 -0.198826,0.815187 -0.795304,0.636243z" class="cls-158"/>
   <path stroke="null" id="svg_226" d="m160.158011,135.218565l0.357887,0.417535l0,0.636243l-0.377769,-0.218709l0.019883,-0.835069z" class="cls-139"/>
   <path stroke="null" id="svg_227" d="m131.626473,34.155283l-0.497065,-0.218709l0.357887,-0.198826c0.178943,-0.099413 0.437417,-0.338004 0.556713,0s-0.139178,0.357887 -0.417535,0.417535z" class="cls-151"/>
   <path stroke="null" id="svg_228" d="m160.754489,40.318891l-0.357887,-0.596478l0,-0.576596a1.252604,1.252604 0 0 1 0.357887,1.173074z" class="cls-159"/>
   <path stroke="null" id="svg_229" d="m93.113867,59.1676l-0.198826,-0.218709c0.278356,0 0.397652,-0.616361 0.815187,-0.278356l-0.616361,0.497065z" class="cls-160"/>
   <path stroke="null" id="svg_230" d="m122.182235,17.056243c0,0.218709 0.159061,0.576596 -0.218709,0.556713s-0.159061,-0.338004 -0.159061,-0.53683a0.278356,0.278356 0 0 1 0.377769,-0.019883z" class="cls-161"/>
   <path stroke="null" id="svg_231" d="m122.182235,17.056243l-0.377769,0l0,-0.596478l0.377769,0l0,0.596478z" class="cls-162"/>
   <path stroke="null" id="svg_232" d="m94.644827,58.213235c0,0.278356 -0.159061,0.437417 -0.278356,0.656126l-0.4573,-0.278356a0.656126,0.656126 0 0 1 0.477183,-0.397652c0.07953,0.019883 0.178943,0.019883 0.258474,0.019883z" class="cls-163"/>
   <path stroke="null" id="svg_233" d="m86.950259,58.034292l0,0.178943c-0.258474,0 -0.497065,0.318122 -0.775422,0c0.178943,-0.258474 0.516948,-0.119296 0.775422,-0.178943z" class="cls-164"/>
   <path stroke="null" id="svg_234" d="m152.90086,36.839435l0,0.377769c-0.238591,0 -0.596478,0.178943 -0.576596,-0.218709s0.357887,-0.218709 0.576596,-0.159061z" class="cls-165"/>
   <path stroke="null" id="svg_235" d="m91.205137,54.236714c0,0.258474 -0.238591,0.278356 -0.377769,0.318122s-0.318122,-0.139178 -0.258474,-0.238591a0.954365,0.954365 0 0 1 0.437417,-0.258474s0.139178,0.019883 0.198826,0.178943z" class="cls-166"/>
   <path stroke="null" id="svg_236" d="m92.795745,47.536276l-0.238591,-0.218709a1.133308,1.133308 0 0 1 0.676009,-0.397652c0.039765,0.278356 0.07953,0.616361 -0.437417,0.616361z" class="cls-167"/>
   <path stroke="null" id="svg_237" d="m151.330135,159.912761l-0.397652,0.656126c0,-0.298239 0,-0.616361 0.119296,-0.9146s0.119296,-0.218709 0.198826,0s0.059648,0.139178 0.07953,0.258474z" class="cls-106"/>
   <path stroke="null" id="svg_238" d="m122.182235,13.417726l-0.357887,0l0,-0.656126c0.139178,-0.159061 0.258474,-0.159061 0.377769,0l-0.019883,0.656126z" class="cls-168"/>
   <path stroke="null" id="svg_239" d="m148.944222,163.412099l0,0.178943c-0.198826,0 -0.437417,0 -0.556713,-0.139178a0.278356,0.278356 0 0 1 0.119296,-0.218709a0.278356,0.278356 0 0 1 0.437417,0.178943z" class="cls-169"/>
   <path stroke="null" id="svg_240" d="m96.633088,80.084101c0,-0.238591 0.198826,-0.516948 0.258474,-0.477183s0.119296,0.596478 0,0.894717l-0.258474,-0.417535z" class="cls-170"/>
   <path stroke="null" id="svg_241" d="m90.01218,56.960631l0.218709,0.218709l-0.616361,0.238591l-0.238591,-0.198826l0.636243,-0.258474z" class="cls-171"/>
   <path stroke="null" id="svg_242" d="m160.396603,43.162103l0.357887,-0.437417a1.431548,1.431548 0 0 1 -0.238591,0.934482a0.4573,0.4573 0 0 1 -0.119296,-0.497065z" class="cls-172"/>
   <path stroke="null" id="svg_243" d="m98.144166,86.804422c0,0.198826 -0.139178,0.397652 -0.338004,0.417535s-0.218709,-0.139178 -0.178943,-0.298239s0.139178,-0.357887 0.357887,-0.318122s0.119296,0.139178 0.159061,0.198826z" class="cls-173"/>
   <path stroke="null" id="svg_244" d="m130.751638,29.363575l-0.178943,-0.159061a0.695891,0.695891 0 0 1 0.755539,-0.477183a0.676009,0.676009 0 0 1 -0.576596,0.636243z" class="cls-125"/>
   <path stroke="null" id="svg_245" d="m88.222746,73.960259l-0.338004,0.238591s-0.178943,-0.159061 -0.159061,-0.198826a0.397652,0.397652 0 0 1 0.357887,-0.338004c0.119296,0 0.178943,0.099413 0.139178,0.298239z" class="cls-174"/>
   <path stroke="null" id="svg_246" d="m95.062362,80.819757c0,-0.139178 0.178943,-0.377769 0.377769,-0.218709a0.53683,0.53683 0 0 1 0.198826,0.4573c0,0.218709 -0.238591,0 -0.357887,0s-0.039765,-0.258474 -0.218709,-0.238591z" class="cls-39"/>
   <path stroke="null" id="svg_247" d="m91.741967,69.864442l0.676009,-0.417535c0.198826,-0.119296 0.238591,0 0.238591,0.159061s-0.357887,0.437417 -0.676009,0.4573l-0.238591,-0.198826z" class="cls-175"/>
   <path stroke="null" id="svg_248" d="m159.899537,37.237087l0,-0.417535c0.198826,0 0.556713,0 0.516948,0.258474s-0.318122,0.159061 -0.516948,0.159061z" class="cls-94"/>
   <path stroke="null" id="svg_249" d="m93.21328,79.547271l-0.298239,0c0,-0.4573 0.318122,-0.596478 0.616361,-0.795304c0.119296,0.357887 -0.059648,0.576596 -0.318122,0.795304z" class="cls-176"/>
   <path stroke="null" id="svg_250" d="m87.407559,67.836416a1.252604,1.252604 0 0 1 -0.934482,0.357887a0.894717,0.894717 0 0 1 0.934482,-0.4573l0,0.099413z" class="cls-125"/>
   <path stroke="null" id="svg_251" d="m122.182235,12.781483l-0.377769,0c0,-0.218709 0,-0.53683 0.159061,-0.556713s0.218709,0.258474 0.218709,0.556713z" class="cls-97"/>
   <path stroke="null" id="svg_252" d="m91.503376,64.595552c0,-0.178943 0.357887,-0.159061 0.258474,-0.417535l0.417535,0.298239l0,0.397652l-0.377769,0l-0.298239,-0.278356z" class="cls-177"/>
   <path stroke="null" id="svg_253" d="m73.807857,120.664498c0,0.377769 -0.099413,0.815187 -0.676009,0.636243c0.178943,-0.258474 0.298239,-0.596478 0.676009,-0.636243z" class="cls-84"/>
   <path stroke="null" id="svg_254" d="m129.916569,119.07389c0,-0.437417 0,-0.854952 0.656126,-0.715774l-0.656126,0.715774z" class="cls-105"/>
   <path stroke="null" id="svg_255" d="m156.18149,41.412434c0.178943,0 0.437417,-0.198826 0.338004,0.218709s0,0.497065 -0.159061,0.735656a1.590608,1.590608 0 0 1 -0.178943,-0.954365z" class="cls-35"/>
   <path stroke="null" id="svg_256" d="m171.232622,149.136389l0.218709,-0.357887c0.198826,0 0.556713,0 0.53683,0s-0.4573,0.417535 -0.755539,0.357887z" class="cls-178"/>
   <path stroke="null" id="svg_257" d="m86.691785,60.340674a0.755539,0.755539 0 0 1 -0.854952,0c0.298239,-0.298239 0.53683,-0.417535 0.854952,0z" class="cls-174"/>
   <path stroke="null" id="svg_258" d="m92.29868,59.147718l-0.318122,0.417535l-0.218709,0l-0.497065,-0.218709c0.318122,-0.198826 0.636243,-0.437417 1.033895,-0.198826z" class="cls-179"/>
   <path stroke="null" id="svg_259" d="m27.183148,166.235429l0.695891,-0.218709c0.119296,0 0.238591,0.119296 0.159061,0.278356a0.318122,0.318122 0 0 1 -0.417535,0.139178l-0.437417,-0.198826z" class="cls-180"/>
   <path stroke="null" id="svg_260" d="m79.315339,173.890232l-0.119296,0.596478c-0.178943,-0.417535 -0.198826,-0.715774 0,-0.974248l0.119296,0.377769z" class="cls-181"/>
   <path stroke="null" id="svg_261" d="m25.473244,166.652964c-0.218709,0.139178 -0.53683,0 -0.695891,0.238591c-0.218709,0 -0.218709,-0.218709 -0.119296,-0.298239a0.795304,0.795304 0 0 1 0.815187,0.059648z" class="cls-110"/>
   <path stroke="null" id="svg_262" d="m86.950259,44.295412a0.755539,0.755539 0 0 1 1.093543,0l-1.093543,0z" class="cls-98"/>
   <path stroke="null" id="svg_263" d="m95.897431,14.988452s0,-0.298239 0.178943,-0.278356s0,0.178943 0.119296,0.278356a0.53683,0.53683 0 0 1 -0.159061,0.556713c-0.178943,-0.139178 -0.159061,-0.357887 -0.139178,-0.556713z" class="cls-182"/>
   <path stroke="null" id="svg_264" d="m27.183148,166.513786a1.232722,1.232722 0 0 1 -1.173074,0.139178l1.173074,-0.139178z" class="cls-110"/>
   <path stroke="null" id="svg_265" d="m91.980558,47.735102l0,0.258474c0,0.218709 -0.238591,0.218709 -0.397652,0.238591l-0.258474,-0.218709l0.656126,-0.278356z" class="cls-183"/>
   <path stroke="null" id="svg_266" d="m94.485766,49.345593c0,-0.53683 0.218709,-0.497065 0.576596,-0.278356a0.735656,0.735656 0 0 1 -0.576596,0.278356z" class="cls-184"/>
   <path stroke="null" id="svg_267" d="m88.043802,50.856671c-0.357887,0.338004 -0.795304,0.178943 -1.212839,0.159061a2.763682,2.763682 0 0 1 1.212839,-0.159061z" class="cls-185"/>
   <path stroke="null" id="svg_268" d="m96.175788,57.63664a0.775422,0.775422 0 0 1 0.397652,-0.497065c0,0.159061 0.198826,0.318122 0,0.497065s-0.238591,0.059648 -0.397652,0z" class="cls-186"/>
   <path stroke="null" id="svg_269" d="m155.10783,60.420205c-0.178943,0.099413 0.238591,0.576596 -0.278356,0.437417a3.002273,3.002273 0 0 1 0,-0.596478s0.139178,0 0.198826,-0.119296l0.07953,0.278356z" class="cls-187"/>
   <path stroke="null" id="svg_270" d="m88.043802,66.007217c0,-0.377769 0.377769,-0.298239 0.556713,-0.397652s0,0.218709 0,0.258474a0.616361,0.616361 0 0 1 -0.556713,0.139178z" class="cls-132"/>
   <path stroke="null" id="svg_271" d="m87.407559,67.836416a0,0 0 0 0 0,-0.099413c0,-0.397652 0.397652,-0.198826 0.676009,-0.596478c-0.119296,0.656126 -0.437417,0.596478 -0.676009,0.695891z" class="cls-188"/>
   <path stroke="null" id="svg_272" d="m86.314016,72.131059l0.278356,-0.695891a0.516948,0.516948 0 0 1 0.338004,0.4573l-0.616361,0.238591z" class="cls-189"/>
   <path stroke="null" id="svg_273" d="m92.437858,39.682647c-0.357887,0.338004 -0.775422,0.198826 -1.173074,0.178943a2.604621,2.604621 0 0 1 1.173074,-0.178943z" class="cls-47"/>
   <path stroke="null" id="svg_274" d="m93.571167,81.058349c0.119296,0 0.278356,-0.198826 0.318122,0a0.437417,0.437417 0 0 1 -0.258474,0.477183l-0.119296,-0.298239a0.198826,0.198826 0 0 1 0.059648,-0.178943z" class="cls-190"/>
   <path stroke="null" id="svg_275" d="m92.437858,45.587781l0.178943,0.198826a0.397652,0.397652 0 0 1 -0.417535,0.218709l-0.198826,-0.198826a0.4573,0.4573 0 0 1 0.437417,-0.218709z" class="cls-191"/>
   <path stroke="null" id="svg_276" d="m92.795745,82.529662l0.218709,0.278356c-0.099413,0.258474 -0.278356,0.497065 -0.497065,0.238591s0.278356,-0.357887 0.278356,-0.516948z" class="cls-192"/>
   <path stroke="null" id="svg_277" d="m75.100226,83.841913c0,0.397652 0.159061,0.815187 -0.178943,1.153191a2.306382,2.306382 0 0 1 0.178943,-1.153191z" class="cls-193"/>
   <path stroke="null" id="svg_278" d="m173.499239,88.93186a0.576596,0.576596 0 0 1 -0.676009,-0.596478a1.511078,1.511078 0 0 1 0.676009,0.596478z" class="cls-6"/>
   <path stroke="null" id="svg_279" d="m160.555663,97.978446c-0.119296,0 -0.218709,-0.218709 0,-0.338004s0.377769,-0.099413 0.516948,0l-0.516948,0.338004z" class="cls-68"/>
   <path stroke="null" id="svg_280" d="m176.123743,102.51168l0,0.815187c-0.178943,-0.4573 -0.198826,-0.755539 0,-1.014013a0.178943,0.178943 0 0 1 0,0.198826z" class="cls-184"/>
   <path stroke="null" id="svg_281" d="m156.420081,30.69571c0.198826,0 0.278356,0.139178 0.397652,0.238591l0,0.636243l-0.397652,-0.437417l0,-0.437417z" class="cls-194"/>
   <path stroke="null" id="svg_282" d="m167.812814,109.908009a0.735656,0.735656 0 0 1 0,1.073661a1.352017,1.352017 0 0 1 0,-1.073661z" class="cls-102"/>
   <path stroke="null" id="svg_283" d="m117.41041,26.261889a0.497065,0.497065 0 0 1 0,0.198826c0,0.119296 -0.178943,0 -0.178943,0s0,-0.556713 0.198826,-0.755539l-0.019883,0.556713z" class="cls-195"/>
   <path stroke="null" id="svg_284" d="m78.440504,25.367172c-0.099413,0.139178 0,0.397652 -0.159061,0.477183l-0.119296,-0.258474c0,-0.178943 0,-0.4573 0.139178,-0.516948s0.139178,0.159061 0.139178,0.298239z" class="cls-196"/>
   <path stroke="null" id="svg_285" d="m86.294133,163.153625c0,-0.139178 -0.119296,-0.298239 0,-0.397652s0.298239,0 0.4573,0s-0.218709,0.377769 -0.4573,0.397652z" class="cls-197"/>
   <path stroke="null" id="svg_286" d="m153.497339,163.591043l-0.198826,-0.397652c0.218709,0 0.477183,0 0.556713,0.178943s-0.178943,0.218709 -0.357887,0.218709z" class="cls-198"/>
   <path stroke="null" id="svg_287" d="m107.369695,82.072362a2.246734,2.246734 0 0 1 0,1.988261l0,-1.988261z" class="cls-199"/>
   <path stroke="null" id="svg_288" d="m54.800086,151.164415c-0.318122,0 -0.159061,0.596478 -0.596478,0.516948c-0.178943,-0.437417 0.178943,-0.795304 0.159061,-1.232722c0.338004,0.178943 0.357887,0.4573 0.417535,0.735656l0.019883,-0.019883z" class="cls-9"/>
   <path stroke="null" id="svg_289" d="m40.524376,164.286934l-0.258474,-0.238591l1.113426,-0.815187a1.332135,1.332135 0 0 1 -0.854952,1.053778z" class="cls-200"/>
   <path stroke="null" id="svg_290" d="m94.247175,71.45505a1.153191,1.153191 0 0 1 0.298239,-0.735656l0.139178,0.278356l-0.238591,1.153191l-0.198826,-0.695891z" class="cls-201"/>
   <path stroke="null" id="svg_291" d="m92.656567,69.605968l-0.238591,-0.159061a1.709904,1.709904 0 0 1 1.212839,-0.437417l-0.974248,0.596478z" class="cls-202"/>
   <path stroke="null" id="svg_292" d="m127.729482,31.312071a0.9146,0.9146 0 0 1 -0.695891,0.397652c0.198826,-0.437417 0.198826,-0.437417 0.695891,-0.397652z" class="cls-24"/>
   <path stroke="null" id="svg_293" d="m129.001969,34.214931l1.312252,0a1.073661,1.073661 0 0 1 -1.312252,0z" class="cls-151"/>
   <path stroke="null" id="svg_294" d="m94.644827,58.213235l-0.258474,0c0.159061,-0.238591 0.338004,-0.4573 0.676009,-0.417535c0.019883,0.417535 -0.139178,0.417535 -0.417535,0.417535z" class="cls-203"/>
   <path stroke="null" id="svg_295" d="m93.133749,74.934506l0,-0.676009l0,0c0.139178,-0.298239 0,-0.676009 0.198826,-0.954365a0.397652,0.397652 0 0 1 0.4573,0a7.495742,7.495742 0 0 1 -0.397652,1.849082l-0.258474,-0.218709z" class="cls-204"/>
   <path stroke="null" id="svg_296" d="m93.75011,73.383663l-0.417535,0c-0.139178,0 -0.139178,-0.159061 -0.198826,-0.238591l0.159061,-0.795304l0.258474,0.119296a0.676009,0.676009 0 0 1 0.218709,0.497065l-0.019883,0.417535z" class="cls-205"/>
   <path stroke="null" id="svg_297" d="m93.769993,73.025776a0.53683,0.53683 0 0 1 -0.218709,-0.497065c0.238591,-0.178943 0.198826,-0.417535 0.159061,-0.656126l0.238591,0a1.391782,1.391782 0 0 1 -0.178943,1.153191z" class="cls-206"/>
   <path stroke="null" id="svg_298" d="m93.133749,73.20472l0.198826,0.238591c0,0.278356 0,0.636243 -0.238591,0.854952c0,-0.238591 -0.357887,-0.397652 -0.218709,-0.676009s0.178943,-0.278356 0.258474,-0.417535z" class="cls-207"/>
  </g>
 </g>
</svg>