<svg width="200" height="200" xmlns="http://www.w3.org/2000/svg">
 <!-- Created with Method Draw - http://github.com/duopixel/Method-Draw/ -->

 <g>
  <title>background</title>
  <rect fill="none" id="canvas_background" height="202" width="202" y="-1" x="-1"/>
  <g display="none" overflow="visible" y="0" x="0" height="100%" width="100%" id="canvasGrid">
   <rect fill="url(#gridpattern)" stroke-width="0" y="0" x="0" height="100%" width="100%"/>
  </g>
 </g>
 <g>
  <title>Layer 1</title>
  <style transform="matrix(0.0007111111455493507,0,0,0.0007111111455493507,0,0) " type="text/css">.st0{fill:currentColor;}</style>
  <g stroke="null" id="svg_12">
   <path stroke="null" id="svg_11" d="m191.314263,91.543444l-82.865854,-82.858263c-4.767292,-4.774883 -12.510345,-4.774883 -17.285228,0l-17.201725,17.209316l21.824783,21.824783c5.070941,-1.715618 10.885822,-0.561751 14.931947,3.476783c4.061307,4.068899 5.207583,9.936919 3.446418,15.023042l21.035295,21.035295c5.086123,-1.753574 10.961734,-0.622481 15.023042,3.454009c5.678239,5.678239 5.678239,14.878809 0,20.564639c-5.68583,5.68583 -14.8864,5.68583 -20.57223,0c-4.273862,-4.273862 -5.329043,-10.551808 -3.165542,-15.820121l-19.615735,-19.615735l0,51.620356c1.41956,0.705984 2.71766,1.632114 3.848753,2.748025c5.678239,5.678239 5.678239,14.8864 0,20.57223c-5.68583,5.678239 -14.893991,5.678239 -20.564639,0c-5.678239,-5.68583 -5.678239,-14.893991 0,-20.57223c1.35883,-1.35883 2.975762,-2.444376 4.7597,-3.173134l0,-52.091012c-1.783939,-0.728758 -3.400871,-1.806712 -4.7597,-3.173134c-4.304227,-4.296636 -5.336634,-10.612538 -3.135178,-15.896033l-21.513543,-21.521134l-56.812757,56.812757c-4.774883,4.774883 -4.774883,12.517936 0,17.292819l82.858263,82.858263c4.767292,4.774883 12.510345,4.774883 17.285228,0l82.47111,-82.47111c4.774883,-4.782474 4.774883,-12.525528 0.007591,-17.300411" class="st0"/>
  </g>
 </g>
</svg>
