<?xml version="1.0" encoding="UTF-8"?>
<svg width="96px" height="96px" viewBox="0 0 96 96" version="1.1" xmlns="http://www.w3.org/2000/svg" xmlns:xlink="http://www.w3.org/1999/xlink">
    <title>git copy</title>
    <defs>
        <filter id="filter-1">
            <feColorMatrix in="SourceGraphic" type="matrix" values="0 0 0 0 1.000000 0 0 0 0 1.000000 0 0 0 0 1.000000 0 0 0 1.000000 0"></feColorMatrix>
        </filter>
    </defs>
    <g id="Page-1" stroke="none" stroke-width="1" fill="none" fill-rule="evenodd">
        <g id="All-icons-Copy" transform="translate(-36.000000, -166.000000)">
            <g id="git-copy" transform="translate(34.000000, 164.000000)" filter="url(#filter-1)">
                <g id="git">
                    <g id="background">
                        <rect id="canvas_background" x="0" y="0" width="100" height="100"></rect>
                    </g>
                    <g id="Layer-1" transform="translate(2.970297, 2.970297)" fill="#000000" fill-rule="nonzero" stroke="#000000">
                        <g id="svg_12">
                            <path d="M92.2347837,42.8432891 L51.2120837,1.82434703 C48.8520381,-0.539456436 45.0188436,-0.539456436 42.6550401,1.82434703 L34.1393347,10.3438104 L44.9436827,21.1481584 C47.4540495,20.2988426 50.3327035,20.8700639 52.3357356,22.8693381 C54.3462837,24.8836446 54.913747,27.788605 54.0418832,30.3064876 L64.4553955,40.72 C66.9732782,39.8518941 69.8819965,40.4118411 71.892545,42.4299054 C74.7035545,45.2409149 74.7035545,49.7956525 71.892545,52.6104198 C69.0777777,55.4251871 64.5230401,55.4251871 61.7082728,52.6104198 C59.5924995,50.4946465 59.0701327,47.3867525 60.1411728,44.7786767 L50.4304129,35.0679168 L50.4304129,60.6225485 C51.1331653,60.9720455 51.7757891,61.4305257 52.3357361,61.9829569 C55.1467455,64.7939663 55.1467455,69.3524619 52.3357361,72.1672292 C49.5209688,74.9782386 44.9624733,74.9782386 42.1552218,72.1672292 C39.3442124,69.3524619 39.3442124,64.7939663 42.1552218,61.9829569 C42.8279099,61.3102688 43.6283713,60.7728698 44.5115089,60.4120985 L44.5115089,34.6244688 C43.6283708,34.2636975 42.8279094,33.7300569 42.1552218,33.0536104 C40.0244163,30.9265629 39.5133238,27.7998787 40.6031535,25.1842871 L29.9528847,14.5302604 L1.82775743,42.6553876 C-0.53604604,45.0191911 -0.53604604,48.8523856 1.82775743,51.2161891 L42.8466995,92.2351312 C45.206745,94.5989347 49.0399396,94.5989347 51.4037431,92.2351312 L92.2310252,51.407849 C94.5948287,49.0402876 94.5948287,45.2070926 92.2347832,42.8432891" id="svg_11"></path>
                        </g>
                    </g>
                </g>
            </g>
        </g>
    </g>
</svg>