<?xml version="1.0" encoding="UTF-8"?>
<svg width="100px" height="96px" viewBox="0 0 100 96" version="1.1" xmlns="http://www.w3.org/2000/svg" xmlns:xlink="http://www.w3.org/1999/xlink">
    <title>github copy</title>
    <defs>
        <filter id="filter-1">
            <feColorMatrix in="SourceGraphic" type="matrix" values="0 0 0 0 1.000000 0 0 0 0 1.000000 0 0 0 0 1.000000 0 0 0 1.000000 0"></feColorMatrix>
        </filter>
    </defs>
    <g id="Page-1" stroke="none" stroke-width="1" fill="none" fill-rule="evenodd">
        <g id="All-icons-Copy" transform="translate(-167.000000, -168.000000)">
            <g id="github-copy" transform="translate(167.000000, 168.000000)" filter="url(#filter-1)">
                <g id="github" fill="#000000" fill-rule="nonzero">
                    <path d="M50,0.130208333 C22.375,0.130208333 0,22.1302083 0,49.2635417 C0,70.9760417 14.325,89.3885417 34.1875,95.8802083 C36.6875,96.3427083 37.6041667,94.821875 37.6041667,93.5177083 C37.6041667,92.3510417 37.5625,89.259375 37.5416667,85.1635417 C23.6333333,88.1260417 20.7,78.571875 20.7,78.571875 C18.425,72.9010417 15.1375,71.384375 15.1375,71.384375 C10.6083333,68.3385417 15.4875,68.4010417 15.4875,68.4010417 C20.5083333,68.7427083 23.1458333,73.4635417 23.1458333,73.4635417 C27.6041667,80.9760417 34.85,78.8052083 37.7083333,77.5510417 C38.1583333,74.371875 39.4458333,72.209375 40.875,70.9802083 C29.7708333,69.7510417 18.1,65.5260417 18.1,46.7010417 C18.1,41.3385417 20.0375,36.9552083 23.2458333,33.5177083 C22.6833333,32.2760417 20.9958333,27.2802083 23.6833333,20.5135417 C23.6833333,20.5135417 27.8708333,19.196875 37.4333333,25.5510417 C41.4333333,24.459375 45.6833333,23.9177083 49.9333333,23.8927083 C54.1833333,23.9177083 58.4333333,24.459375 62.4333333,25.5510417 C71.9333333,19.196875 76.1208333,20.5135417 76.1208333,20.5135417 C78.8083333,27.2802083 77.1208333,32.2760417 76.6208333,33.5177083 C79.8083333,36.9552083 81.7458333,41.3385417 81.7458333,46.7010417 C81.7458333,65.5760417 70.0583333,69.7302083 58.9333333,70.9385417 C60.6833333,72.4135417 62.3083333,75.4260417 62.3083333,80.0302083 C62.3083333,86.6052083 62.2458333,91.8885417 62.2458333,93.484375 C62.2458333,94.771875 63.1208333,96.309375 65.6833333,95.8177083 C85.6875,89.3677083 100,70.9427083 100,49.2635417 C100,22.1302083 77.6125,0.130208333 50,0.130208333 Z" id="Path"></path>
                </g>
            </g>
        </g>
    </g>
</svg>