<?xml version="1.0" encoding="UTF-8"?>
<svg width="100px" height="92px" viewBox="0 0 100 92" version="1.1" xmlns="http://www.w3.org/2000/svg" xmlns:xlink="http://www.w3.org/1999/xlink">
    <title>gitlab copy</title>
    <defs>
        <filter id="filter-1">
            <feColorMatrix in="SourceGraphic" type="matrix" values="0 0 0 0 1.000000 0 0 0 0 1.000000 0 0 0 0 1.000000 0 0 0 1.000000 0"></feColorMatrix>
        </filter>
    </defs>
    <g id="Page-1" stroke="none" stroke-width="1" fill="none" fill-rule="evenodd">
        <g id="All-icons-Copy" transform="translate(-452.000000, -40.000000)">
            <g id="gitlab-copy" transform="translate(452.000000, 36.000000)" filter="url(#filter-1)">
                <g id="gitlab">
                    <g id="background"></g>
                    <g id="Layer-1" transform="translate(0.495050, 4.455446)" fill="#000000" fill-rule="nonzero" stroke="#000000">
                        <g id="svg_168">
                            <path d="M98.2734332,51.0009559 L93.1268634,35.187845 C93.0995812,35.0422353 93.0578869,34.8996993 93.002396,34.7623411 L82.6774158,2.97981139 C82.1132001,1.29782895 80.5322012,0.168710839 78.7581495,0.180653679 C76.9878379,0.170014654 75.4172832,1.3144772 74.8851965,3.00296832 L65.0436119,33.2889985 L33.9818337,33.2889985 L24.1257757,3.00296832 C23.5955926,1.32062127 22.0340994,0.177636386 20.2701901,0.180653679 L20.2470337,0.180653679 C18.4714763,0.180653679 16.8962362,1.31989818 16.3393455,3.00586287 L6.00568168,34.8260223 C6.00568168,34.8549683 5.98252525,34.8781248 5.97384109,34.9070708 L0.734644554,51.003851 C-0.0551816445,53.4258213 0.806435402,56.0808173 2.86795297,57.5774505 L48.133454,90.4686059 C48.9509823,91.0603721 50.0576149,91.0545169 50.8688356,90.4541332 L96.1430203,57.5774505 C98.2055066,56.0802004 99.0662383,53.4231593 98.2734342,51.0009559 M30.6125386,37.9376995 L43.2300292,76.7714351 L12.9411045,37.9376995 M55.7954173,76.7801193 L67.8947777,39.5499827 L68.415803,37.9376995 L86.1017099,37.9376995 L58.6986851,73.0432114 M78.7986748,5.98438911 L87.6647847,33.288998 L69.9180916,33.288998 M63.5413238,37.9203322 L54.7504728,64.9731119 L49.5054871,81.0843653 L35.4899124,37.9203322 M20.2267723,5.9843896 L29.11025,33.2889985 L11.3751351,33.2889985 M5.59175693,53.8318594 C5.15369251,53.5132738 4.9712536,52.9484146 5.14020198,52.4337752 L9.03052277,40.4791441 L37.5624351,77.057999 M93.4221129,53.8318589 L61.4485406,77.0493153 L61.5556401,76.9103752 L89.9804525,40.4791441 L93.8707733,52.4279856 C94.0417415,52.9428565 93.8603721,53.5091973 93.4221129,53.8289644" id="svg_167"></path>
                        </g>
                    </g>
                </g>
            </g>
        </g>
    </g>
</svg>