<?xml version="1.0" encoding="UTF-8"?>
<svg width="102px" height="73px" viewBox="0 0 102 73" version="1.1" xmlns="http://www.w3.org/2000/svg" xmlns:xlink="http://www.w3.org/1999/xlink">
    <title>js copy</title>
    <defs>
        <filter id="filter-1">
            <feColorMatrix in="SourceGraphic" type="matrix" values="0 0 0 0 1.000000 0 0 0 0 1.000000 0 0 0 0 1.000000 0 0 0 1.000000 0"></feColorMatrix>
        </filter>
    </defs>
    <g id="Page-1" stroke="none" stroke-width="1" fill="none" fill-rule="evenodd">
        <g id="All-icons-Copy" transform="translate(-606.000000, -51.000000)">
            <g id="js-copy" transform="translate(606.000000, 51.000000)" filter="url(#filter-1)">
                <g id="js" fill="#000000" fill-rule="nonzero" stroke="#000000">
                    <g id="svg_6" transform="translate(0.980198, 0.841584)">
                        <path d="M0.0781025773,57.9955108 L11.6679804,50.9797876 C13.9035603,54.9420356 15.9392108,58.2984345 20.8162892,58.2984345 C25.4934376,58.2984345 28.4439191,56.4687727 28.4439191,49.3500557 L28.4439191,0.954895876 L42.6752948,0.954895876 L42.6752948,49.5499856 C42.6752948,64.2902742 34.0358985,71.0030773 21.4281959,71.0030773 C10.0443067,71.0091309 3.43450206,65.1081691 0.0781025773,57.9955103 M50.4119768,56.4687727 L62.0018541,49.7559737 C65.0553294,54.7360464 69.0175773,58.3953701 76.0333,58.3953701 C81.9342624,58.3953701 85.6905216,55.4448892 85.6905216,51.3796469 C85.6905216,46.5025686 81.8252098,44.7698423 75.3183995,41.9223552 L71.7620701,40.3956175 C61.4929418,36.0274515 54.6832072,30.5324077 54.6832072,18.9425304 C54.6832072,8.26748402 62.8136912,0.130941753 75.5243876,0.130941753 C84.5757608,0.130941753 91.0825711,3.28135258 95.7536613,11.5208892 L84.6726964,18.6396062 C82.2311278,14.2653814 79.5896294,12.5387139 75.5243876,12.5387139 C71.3561515,12.5387139 68.7146531,15.1802124 68.7146531,18.6396062 C68.7146531,22.9108366 71.3561515,24.6375041 77.4570438,27.2850608 L81.0133732,28.8117985 C93.1121634,33.9978598 99.9218979,39.2869149 99.9218979,51.1797165 C99.9218979,63.9934072 89.8587582,71.003076 76.3362247,71.003076 C63.1166155,71.0091299 54.5802134,64.7022495 50.4119768,56.4687716" id="svg_5"></path>
                    </g>
                </g>
            </g>
        </g>
    </g>
</svg>