<svg width="200" height="200" xmlns="http://www.w3.org/2000/svg">
 <!-- Created with Method Draw - http://github.com/duopixel/Method-Draw/ -->

 <g>
  <title>background</title>
  <rect fill="none" id="canvas_background" height="202" width="202" y="-1" x="-1"/>
  <g display="none" overflow="visible" y="0" x="0" height="100%" width="100%" id="canvasGrid">
   <rect fill="url(#gridpattern)" stroke-width="0" y="0" x="0" height="100%" width="100%"/>
  </g>
 </g>
 <g>
  <title>Layer 1</title>
  <g stroke="null" id="svg_6">
   <path stroke="null" id="svg_5" d="m3.15152,143.511291l22.484362,-13.610503c4.337025,7.686761 8.286187,14.198175 17.747719,14.198175c9.073668,0 14.797602,-3.549544 14.797602,-17.359855l0,-93.88661l27.608869,0l0,94.274474c0,28.59616 -16.760429,41.618989 -41.219372,41.618989c-22.084745,0.011753 -34.907766,-11.436113 -41.419181,-25.234671m97.647716,-2.961871l22.484362,-13.02283c5.923742,9.661341 13.610503,16.760429 27.221005,16.760429c11.447867,0 18.73501,-5.723933 18.73501,-13.610503c0,-9.461532 -7.498705,-12.823021 -20.121917,-18.347146l-6.899279,-2.961871c-19.922109,-8.474242 -33.132994,-19.134627 -33.132994,-41.618989c0,-20.70959 15.773139,-36.494482 40.43189,-36.494482c17.559664,0 30.182876,6.111797 39.244791,22.096498l-21.497072,13.810311c-4.736643,-8.485996 -9.86115,-11.835731 -17.747719,-11.835731c-8.086378,0 -13.210885,5.124507 -13.210885,11.835731c0,8.286187 5.124507,11.635922 16.960238,16.772182l6.899279,2.961871c23.471653,10.060959 36.682538,20.321726 36.682538,43.393761c0,24.85856 -19.522491,38.457309 -45.756206,38.457309c-25.646042,0.011753 -42.206662,-12.223595 -50.29304,-28.196542"/>
  </g>
 </g>
</svg>