<svg width="200" height="200" xmlns="http://www.w3.org/2000/svg">
 <!-- Created with Method Draw - http://github.com/duopixel/Method-Draw/ -->

 <g>
  <title>background</title>
  <rect fill="none" id="canvas_background" height="202" width="202" y="-1" x="-1"/>
  <g display="none" overflow="visible" y="0" x="0" height="100%" width="100%" id="canvasGrid">
   <rect fill="url(#gridpattern)" stroke-width="0" y="0" x="0" height="100%" width="100%"/>
  </g>
 </g>
 <g>
  <title>Layer 1</title>
  <!-- Generator: Sketch 59 (86127) - https://sketch.com -->
  <desc transform="matrix(0.4444444709353981,0,0,0.4444444709353981,0,0) ">Created with Sketch.</desc>
  <g stroke="null" id="svg_17">
   <g transform="matrix(1.9747532819266558,0,0,1.9747532819266558,-343.8194428893904,-343.8194269975819) " fill-rule="evenodd" fill="none" id="svg_12">
    <g stroke="null" fill-rule="nonzero" id="svg_13">
     <path stroke="null" fill="#000000" id="svg_15" d="m270.88169,234.934311c5.47782,-5.47782 5.477429,-14.390809 0,-19.868629c-2.653294,-2.653686 -6.181507,-4.11462 -9.934119,-4.11462c-0.891338,0 -1.768211,0.081315 -2.623974,0.241209c3.728764,-2.550478 6.145541,-6.839456 6.145541,-11.608506c0,-7.746822 -6.302698,-14.04913 -14.049521,-14.04913c-4.778432,0 -9.074838,2.425769 -11.623752,6.167434c0.843253,-4.447699 -0.479289,-9.201502 -3.858555,-12.580377c-2.652513,-2.653685 -6.181117,-4.11501 -9.933338,-4.11501c-3.753002,0 -7.280824,1.461325 -9.93451,4.11501c-3.378875,3.378875 -4.701417,8.132678 -3.858555,12.580377c-2.548523,-3.741274 -6.844929,-6.167434 -11.623752,-6.167434c-7.746432,0 -14.048739,6.301917 -14.048739,14.04913c0,4.769441 2.415995,9.058028 6.144759,11.608506c-0.865214,-0.161168 -1.743487,-0.241916 -2.623583,-0.241209c-3.753003,0 -7.280825,1.461325 -9.934119,4.115011c-2.654077,2.653294 -4.115402,6.181508 -4.115402,9.933728c0,3.753002 1.461325,7.280825 4.115011,9.93451c2.653294,2.653295 6.181507,4.115011 9.933728,4.115011c0.891338,0 1.768211,-0.081315 2.623974,-0.2416c-3.728764,2.550869 -6.144759,6.839847 -6.144759,11.608897c0,7.746431 6.301916,14.048739 14.048739,14.048739c4.778823,0 9.07562,-2.42616 11.624143,-6.167434c-0.843253,4.44809 0.479289,9.201893 3.858555,12.580377c2.653295,2.653685 6.181508,4.11501 9.933728,4.11501c3.753003,0 7.281216,-1.461325 9.934511,-4.11501c3.378875,-3.378875 4.701417,-8.132678 3.858164,-12.580377c2.548914,3.741274 6.84532,6.167434 11.623752,6.167434c7.746823,0 14.04913,-6.301917 14.04913,-14.048739c0,-4.769441 -2.415995,-9.058028 -6.14515,-11.608897c0.855763,0.160285 1.733027,0.2416 2.623974,0.2416c3.752612,0 7.280825,-1.461716 9.934119,-4.115011"/>
     <path stroke="null" fill="#3C3C3C" id="svg_14" d="m266.642361,219.302274c-3.146658,-3.146267 -8.248395,-3.146267 -11.395053,0l-16.491318,0l11.661282,-11.660891c4.450044,0 8.057227,-3.607574 8.057227,-8.057618c0,-4.450044 -3.607183,-8.058009 -8.057227,-8.058009c-4.450436,0 -8.057618,3.607965 -8.057618,8.058009l-11.661282,11.661282l0,-16.491709c3.146658,-3.146658 3.146658,-8.248395 0,-11.395053c-3.147049,-3.147049 -8.248787,-3.147049 -11.395445,0c-3.146658,3.147049 -3.146658,8.248786 0,11.395053l0,16.491709l-11.660891,-11.661673c0,-4.449653 -3.607574,-8.057227 -8.057618,-8.057227c-4.450044,0 -8.057618,3.607574 -8.057618,8.057227c0,4.450435 3.607574,8.058009 8.057227,8.058009l11.661673,11.660891l-16.491709,0c-3.147049,-3.146658 -8.248786,-3.146267 -11.395835,0c-3.146267,3.147049 -3.146267,8.248787 0,11.395836c3.147049,3.146267 8.248786,3.146267 11.395835,0l16.490927,0l-11.6605,11.6605c-4.450044,0 -8.057618,3.607183 -8.057618,8.057227c0,4.450435 3.607574,8.058009 8.057227,8.058009c4.450435,0 8.058009,-3.607574 8.058009,-8.057618l11.660891,-11.661282l0,16.491318c-3.146658,3.146658 -3.146658,8.248786 0,11.395444c3.147049,3.146658 8.248787,3.146658 11.395836,0c3.146267,-3.147049 3.146267,-8.248786 0,-11.395835l0,-16.490927l11.660891,11.661282c0,4.450044 3.607182,8.057227 8.057227,8.057227c4.450435,0 8.058009,-3.607183 8.058009,-8.057227c0,-4.450435 -3.607574,-8.057618 -8.057618,-8.057618l-11.661673,-11.661282l16.491709,0c3.147049,3.147049 8.248786,3.147049 11.395053,0c3.147049,-3.146658 3.147049,-8.248787 0,-11.395445"/>
    </g>
   </g>
  </g>
 </g>
</svg>