<?xml version="1.0" encoding="UTF-8"?>
<svg width="98px" height="62px" viewBox="0 0 98 62" version="1.1" xmlns="http://www.w3.org/2000/svg" xmlns:xlink="http://www.w3.org/1999/xlink">
    <title>markdown copy</title>
    <defs>
        <filter id="filter-1">
            <feColorMatrix in="SourceGraphic" type="matrix" values="0 0 0 0 1.000000 0 0 0 0 1.000000 0 0 0 0 1.000000 0 0 0 1.000000 0"></feColorMatrix>
        </filter>
    </defs>
    <g id="Page-1" stroke="none" stroke-width="1" fill="none" fill-rule="evenodd">
        <g id="All-icons-Copy" transform="translate(-461.000000, -208.000000)">
            <g id="markdown-copy" transform="translate(460.000000, 189.000000)" filter="url(#filter-1)">
                <g id="markdown">
                    <g id="background">
                        <rect id="canvas_background" x="0" y="0" width="100" height="100"></rect>
                    </g>
                    <g id="Layer-1" transform="translate(1.980198, 20.297030)" fill="#000000" fill-rule="nonzero" stroke="#000000">
                        <g id="svg_22">
                            <path d="M89.2896416,59.2224005 L7.03638069,59.2224005 C3.3106495,59.2224005 0.158136139,56.0702614 0.158136139,52.3441559 L0.158136139,7.06178713 C0.158136139,3.33605594 3.3106495,0.183542574 7.03638069,0.183542574 L89.0032193,0.183542574 C92.7289505,0.183542574 95.8814639,3.33605594 95.8814639,7.06178713 L95.8814639,52.3441559 C95.8814639,56.0698871 93.0153728,59.2224005 89.2896416,59.2224005 Z M7.03638069,4.76891386 C5.88994406,4.76891386 4.74350792,5.9153505 4.74350792,7.06178663 L4.74350792,52.3441554 C4.74350792,53.7770139 5.88994455,54.6370282 7.03638069,54.6370282 L89.0032193,54.6370282 C90.4360777,54.6370282 91.2960921,53.4905916 91.2960921,52.3441554 L91.2960921,7.06178663 C91.2960921,5.62892822 90.1496554,4.76891386 89.0032193,4.76891386 L7.03638069,4.76891386 Z M13.9146252,45.4659109 L13.9146252,13.9400312 L23.0857426,13.9400312 L32.2568599,25.4043955 L41.4279772,13.9400312 L50.5990946,13.9400312 L50.5990946,45.4659109 L41.4279772,45.4659109 L41.4279772,27.410098 L32.2568599,38.8744624 L23.0857426,27.410098 L23.0857426,45.4659109 L13.9146252,45.4659109 Z M71.5206248,45.4659114 L57.7641356,30.2761891 L66.935253,30.2761891 L66.935253,13.9400312 L76.1063703,13.9400312 L76.1063703,29.9897673 L85.2774876,29.9897673 L71.5209985,45.4659114 L71.5206248,45.4659114 L71.5206248,45.4659114 Z" id="svg_21"></path>
                        </g>
                    </g>
                </g>
            </g>
        </g>
    </g>
</svg>