<svg width="200" height="200" xmlns="http://www.w3.org/2000/svg">
 <!-- Created with Method Draw - http://github.com/duopixel/Method-Draw/ -->

 <g>
  <title>background</title>
  <rect fill="none" id="canvas_background" height="202" width="202" y="-1" x="-1"/>
  <g display="none" overflow="visible" y="0" x="0" height="100%" width="100%" id="canvasGrid">
   <rect fill="url(#gridpattern)" stroke-width="0" y="0" x="0" height="100%" width="100%"/>
  </g>
 </g>
 <g>
  <title>Layer 1</title>
  <!-- Generator: Sketch 59 (86127) - https://sketch.com -->
  <desc transform="matrix(0.4444444709353981,0,0,0.4444444709353981,0,0) ">Created with Sketch.</desc>
  <g stroke="null" id="svg_22">
   <path stroke="null" id="svg_21" d="m183.365076,159.629249l-166.151587,0c-7.525977,0 -13.894054,-6.367321 -13.894054,-13.894054l0,-91.470385c0,-7.525977 6.368077,-13.894054 13.894054,-13.894054l165.573014,0c7.525977,0 13.894054,6.368077 13.894054,13.894054l0,91.470385c0,7.525977 -5.789504,13.894054 -13.315481,13.894054zm-166.151587,-109.996043c-2.315802,0 -4.631603,2.315802 -4.631603,4.631603l0,91.470385c0,2.894374 2.315802,4.631603 4.631603,4.631603l165.573014,0c2.894374,0 4.631603,-2.315802 4.631603,-4.631603l0,-91.470385c0,-2.894374 -2.315802,-4.631603 -4.631603,-4.631603l-165.573014,0zm13.894054,82.207934l0,-63.682277l18.525657,0l18.525657,23.158016l18.525657,-23.158016l18.525657,0l0,63.682277l-18.525657,0l0,-36.472742l-18.525657,23.158016l-18.525657,-23.158016l0,36.472742l-18.525657,0zm116.364119,0l-27.788108,-30.683238l18.525657,0l0,-32.999039l18.525657,0l0,32.420467l18.525657,0l-27.788108,31.261811l-0.000755,0z"/>
  </g>
 </g>
</svg>