<?xml version="1.0" encoding="UTF-8"?>
<svg width="100px" height="61px" viewBox="0 0 100 61" version="1.1" xmlns="http://www.w3.org/2000/svg" xmlns:xlink="http://www.w3.org/1999/xlink">
    <title>nodejs copy</title>
    <defs>
        <filter id="filter-1">
            <feColorMatrix in="SourceGraphic" type="matrix" values="0 0 0 0 1.000000 0 0 0 0 1.000000 0 0 0 0 1.000000 0 0 0 1.000000 0"></feColorMatrix>
        </filter>
    </defs>
    <g id="Page-1" stroke="none" stroke-width="1" fill="none" fill-rule="evenodd">
        <g id="All-icons-Copy" transform="translate(-494.000000, -314.000000)">
            <g id="nodejs-copy" transform="translate(494.000000, 314.000000)" filter="url(#filter-1)">
                <g id="nodejs" transform="translate(0.000000, 0.000000)" fill="#000000" fill-rule="nonzero">
                    <g id="Group" transform="translate(38.043478, 35.869565)">
                        <path d="M11.7391304,25 C11.4130435,25 11.0869565,24.8913043 10.7608696,24.7826087 L7.7173913,23.0434783 C7.2826087,22.826087 7.5,22.7173913 7.60869565,22.6086957 C8.15217391,22.3913043 8.36956522,22.3913043 8.91304348,21.9565217 C9.02173913,21.9565217 9.02173913,21.9565217 9.13043478,21.9565217 L11.4130435,23.3695652 C11.5217391,23.3695652 11.6304348,23.3695652 11.7391304,23.3695652 L20.7608696,18.1521739 C20.8695652,18.1521739 20.8695652,18.0434783 20.8695652,17.9347826 L20.8695652,7.60869565 C20.8695652,7.5 20.8695652,7.39130435 20.7608696,7.39130435 L11.8478261,2.17391304 C11.7391304,2.17391304 11.6304348,2.17391304 11.5217391,2.17391304 L2.5,7.39130435 C2.39130435,7.39130435 2.39130435,7.5 2.39130435,7.60869565 L2.39130435,17.9347826 C2.39130435,18.0434783 2.5,18.1521739 2.5,18.1521739 L5,19.5652174 C6.30434783,20.2173913 7.17391304,19.4565217 7.17391304,18.6956522 L7.17391304,8.47826087 C7.17391304,8.36956522 7.2826087,8.26086957 7.39130435,8.26086957 L8.47826087,8.26086957 C8.58695652,8.26086957 8.69565217,8.36956522 8.69565217,8.47826087 L8.69565217,18.6956522 C8.69565217,20.4347826 7.7173913,21.5217391 6.08695652,21.5217391 C5.54347826,21.5217391 5.10869565,21.5217391 4.02173913,20.9782609 L1.73913043,19.5652174 C1.19565217,19.2391304 0.760869565,18.5869565 0.760869565,17.9347826 L0.760869565,7.60869565 C0.760869565,6.95652174 1.08695652,6.30434783 1.73913043,5.97826087 L10.7608696,0.760869565 C11.3043478,0.434782609 12.0652174,0.434782609 12.6086957,0.760869565 L21.6304348,5.97826087 C22.173913,6.30434783 22.6086957,6.95652174 22.6086957,7.60869565 L22.6086957,17.9347826 C22.6086957,18.5869565 22.2826087,19.2391304 21.6304348,19.5652174 L12.6086957,24.7826087 C12.3913043,24.8913043 12.0652174,25 11.7391304,25 Z" id="Path"></path>
                        <path d="M14.4565217,17.826087 C10.5434783,17.826087 9.67391304,15.9782609 9.67391304,14.5652174 C9.67391304,14.4565217 9.7826087,14.3478261 9.89130435,14.3478261 L11.0869565,14.3478261 C11.1956522,14.3478261 11.3043478,14.4565217 11.3043478,14.5652174 C11.5217391,15.7608696 11.9565217,16.3043478 14.3478261,16.3043478 C16.1956522,16.3043478 17.0652174,15.8695652 17.0652174,14.8913043 C17.0652174,14.3478261 16.8478261,13.9130435 13.9130435,13.5869565 C11.4130435,13.3695652 9.89130435,12.826087 9.89130435,10.8695652 C9.89130435,9.02173913 11.4130435,7.93478261 14.0217391,7.93478261 C16.8478261,7.93478261 18.3695652,8.91304348 18.4782609,11.0869565 C18.4782609,11.1956522 18.4782609,11.1956522 18.3695652,11.3043478 C18.3695652,11.3043478 18.2608696,11.4130435 18.1521739,11.4130435 L16.9565217,11.4130435 C16.8478261,11.4130435 16.7391304,11.3043478 16.7391304,11.1956522 C16.4130435,10 15.7608696,9.56521739 13.9130435,9.56521739 C11.8478261,9.56521739 11.6304348,10.326087 11.6304348,10.8695652 C11.6304348,11.5217391 11.9565217,11.7391304 14.673913,12.0652174 C17.3913043,12.3913043 18.6956522,12.9347826 18.6956522,14.8913043 C18.9130435,16.7391304 17.2826087,17.826087 14.4565217,17.826087 Z" id="Path"></path>
                    </g>
                    <path d="M65.4347826,42.826087 C65.4347826,43.8043478 64.673913,44.5652174 63.6956522,44.5652174 C62.7173913,44.5652174 61.9565217,43.8043478 61.9565217,42.826087 C61.9565217,41.8478261 62.7173913,41.0869565 63.6956522,41.0869565 C64.673913,41.0869565 65.4347826,41.8478261 65.4347826,42.826087 Z M62.2826087,42.826087 C62.2826087,43.5869565 62.9347826,44.2391304 63.6956522,44.2391304 C64.4565217,44.2391304 65.1086957,43.5869565 65.1086957,42.826087 C65.1086957,42.0652174 64.4565217,41.4130435 63.6956522,41.4130435 C62.9347826,41.4130435 62.2826087,42.0652174 62.2826087,42.826087 Z M63.0434783,41.8478261 L63.6956522,41.8478261 C63.9130435,41.8478261 64.3478261,41.8478261 64.3478261,42.3913043 C64.3478261,42.7173913 64.1304348,42.826087 64.0217391,42.826087 C64.2391304,42.826087 64.3478261,43.0434783 64.3478261,43.2608696 C64.3478261,43.3695652 64.3478261,43.6956522 64.4565217,43.8043478 L64.0217391,43.8043478 C64.0217391,43.6956522 63.9130435,43.2608696 63.9130435,43.1521739 C63.9130435,43.0434783 63.8043478,42.9347826 63.6956522,42.9347826 L63.3695652,42.9347826 L63.3695652,43.6956522 L63.0434783,43.6956522 L63.0434783,41.8478261 Z M63.4782609,42.7173913 L63.8043478,42.7173913 C64.0217391,42.7173913 64.1304348,42.5 64.1304348,42.3913043 C64.1304348,42.173913 63.9130435,42.173913 63.8043478,42.173913 L63.4782609,42.173913 L63.4782609,42.7173913 Z" id="Shape"></path>
                    <path d="M21.9565217,20.326087 C21.9565217,19.8913043 21.7391304,19.5652174 21.4130435,19.3478261 L11.8478261,13.9130435 C11.7391304,13.8043478 11.5217391,13.8043478 11.3043478,13.8043478 C11.3043478,13.8043478 11.1956522,13.8043478 11.1956522,13.8043478 C10.9782609,13.8043478 10.8695652,13.9130435 10.6521739,13.9130435 L1.08695652,19.3478261 C0.760869565,19.5652174 0.543478261,19.8913043 0.543478261,20.326087 L0.543478261,35.1086957 C0.543478261,35.326087 0.652173913,35.5434783 0.869565217,35.6521739 C1.08695652,35.7608696 1.30434783,35.7608696 1.41304348,35.6521739 L7.06521739,32.3913043 C7.39130435,32.173913 7.60869565,31.8478261 7.60869565,31.4130435 L7.60869565,24.5652174 C7.60869565,24.1304348 7.82608696,23.8043478 8.15217391,23.5869565 L10.5434783,22.173913 C10.7608696,22.0652174 10.8695652,22.0652174 11.0869565,22.0652174 C11.3043478,22.0652174 11.5217391,22.0652174 11.6304348,22.173913 L14.0217391,23.5869565 C14.3478261,23.8043478 14.5652174,24.1304348 14.5652174,24.5652174 L14.5652174,31.4130435 C14.5652174,31.8478261 14.7826087,32.173913 15.1086957,32.3913043 L20.7608696,35.6521739 C20.9782609,35.7608696 21.1956522,35.7608696 21.3043478,35.6521739 C21.5217391,35.5434783 21.6304348,35.326087 21.6304348,35.1086957 L21.9565217,20.326087 Z" id="Path"></path>
                    <path d="M67.7173913,0.108695652 C67.5,1.62370117e-15 67.2826087,1.62370117e-15 67.173913,0.108695652 C66.9565217,0.217391304 66.8478261,0.434782609 66.8478261,0.652173913 L66.8478261,15.2173913 C66.8478261,15.326087 66.7391304,15.5434783 66.6304348,15.5434783 C66.5217391,15.6521739 66.3043478,15.6521739 66.1956522,15.5434783 L63.9130435,14.1304348 C63.5869565,13.9130435 63.1521739,13.9130435 62.7173913,14.1304348 L53.2608696,19.673913 C52.9347826,19.8913043 52.7173913,20.2173913 52.7173913,20.6521739 L52.7173913,31.6304348 C52.7173913,32.0652174 52.9347826,32.3913043 53.2608696,32.6086957 L62.826087,38.1521739 C63.1521739,38.3695652 63.5869565,38.3695652 64.0217391,38.1521739 L73.5869565,32.6086957 C73.9130435,32.3913043 74.1304348,32.0652174 74.1304348,31.6304348 L74.1304348,4.23913043 C74.1304348,3.80434783 73.9130435,3.47826087 73.5869565,3.26086957 L67.7173913,0.108695652 Z M66.8478261,28.0434783 C66.8478261,28.1521739 66.7391304,28.2608696 66.7391304,28.2608696 L63.4782609,30.1086957 C63.3695652,30.1086957 63.2608696,30.1086957 63.1521739,30.1086957 L59.8913043,28.2608696 C59.7826087,28.2608696 59.7826087,28.1521739 59.7826087,28.0434783 L59.7826087,24.2391304 C59.7826087,24.1304348 59.8913043,24.0217391 59.8913043,24.0217391 L63.1521739,22.173913 C63.2608696,22.173913 63.3695652,22.173913 63.4782609,22.173913 L66.7391304,24.0217391 C66.8478261,24.0217391 66.8478261,24.1304348 66.8478261,24.2391304 L66.8478261,28.0434783 L66.8478261,28.0434783 Z" id="Shape"></path>
                    <path d="M99.4565217,24.1304348 C99.7826087,23.9130435 100,23.5869565 100,23.1521739 L100,20.4347826 C100,20 99.7826087,19.673913 99.4565217,19.4565217 L90,13.9130435 C89.673913,13.6956522 89.2391304,13.6956522 88.8043478,13.9130435 L79.3478261,19.4565217 C79.0217391,19.673913 78.8043478,20 78.8043478,20.4347826 L78.8043478,31.5217391 C78.8043478,31.9565217 79.0217391,32.2826087 79.3478261,32.5 L88.8043478,37.9347826 C89.1304348,38.1521739 89.5652174,38.1521739 89.8913043,37.9347826 L95.6521739,34.7826087 C95.8695652,34.673913 95.9782609,34.4565217 95.9782609,34.2391304 C95.9782609,34.0217391 95.8695652,33.8043478 95.6521739,33.6956522 L86.0869565,28.1521739 C85.8695652,28.0434783 85.7608696,27.826087 85.7608696,27.6086957 L85.7608696,24.1304348 C85.7608696,23.9130435 85.8695652,23.6956522 86.0869565,23.5869565 L89.0217391,21.8478261 C89.2391304,21.7391304 89.4565217,21.7391304 89.5652174,21.8478261 L92.5,23.5869565 C92.7173913,23.6956522 92.826087,23.9130435 92.826087,24.1304348 L92.826087,26.8478261 C92.826087,27.0652174 92.9347826,27.2826087 93.1521739,27.3913043 C93.3695652,27.5 93.5869565,27.5 93.6956522,27.3913043 L99.4565217,24.1304348 Z" id="Path"></path>
                    <path d="M89.2391304,23.5869565 C89.3478261,23.5869565 89.3478261,23.5869565 89.4565217,23.5869565 L91.3043478,24.673913 C91.4130435,24.673913 91.4130435,24.7826087 91.4130435,24.8913043 L91.4130435,26.9565217 C91.4130435,27.0652174 91.4130435,27.0652174 91.3043478,27.173913 L89.4565217,28.2608696 C89.3478261,28.2608696 89.3478261,28.2608696 89.2391304,28.2608696 L87.3913043,27.173913 C87.2826087,27.173913 87.2826087,27.0652174 87.2826087,26.9565217 L87.2826087,24.8913043 C87.2826087,24.7826087 87.2826087,24.7826087 87.3913043,24.673913 L89.2391304,23.5869565 Z" id="Path"></path>
                    <g id="Group" transform="translate(26.086957, 13.043478)">
                        <path d="M10.6521739,0.97826087 C10.9782609,0.760869565 11.4130435,0.760869565 11.7391304,0.97826087 L21.1956522,6.41304348 C21.5217391,6.63043478 21.7391304,6.95652174 21.7391304,7.39130435 L21.7391304,18.2608696 C21.7391304,18.6956522 21.5217391,19.0217391 21.1956522,19.2391304 L11.7391304,24.673913 C11.4130435,24.8913043 10.9782609,24.8913043 10.6521739,24.673913 L1.19565217,19.2391304 C0.869565217,19.0217391 0.652173913,18.6956522 0.652173913,18.2608696 L0.652173913,7.39130435 C0.652173913,6.95652174 0.869565217,6.63043478 1.19565217,6.41304348 L10.6521739,0.97826087 Z" id="XMLID_67_"></path>
                        <g>
                            <path d="M11.7391304,0.97826087 C11.4130435,0.760869565 10.9782609,0.760869565 10.6521739,0.97826087 L1.19565217,6.41304348 C0.869565217,6.63043478 0.652173913,6.95652174 0.652173913,7.39130435 L0.652173913,18.2608696 C0.652173913,18.6956522 0.869565217,19.0217391 1.19565217,19.2391304 L10.6521739,24.673913 C10.9782609,24.8913043 11.4130435,24.8913043 11.7391304,24.673913 L21.1956522,19.2391304 C21.5217391,19.0217391 21.7391304,18.6956522 21.7391304,18.2608696 L21.7391304,7.39130435 C21.7391304,6.95652174 21.5217391,6.63043478 21.1956522,6.41304348 L11.7391304,0.97826087 Z" id="XMLID_64_"></path>
                            <g id="Path">
                                <path d="M10.6521739,0.97826087 L1.19565217,6.41304348 C0.869565217,6.63043478 0.652173913,6.95652174 0.652173913,7.39130435 L0.652173913,18.2608696 C0.652173913,18.4782609 0.760869565,18.8043478 0.869565217,19.0217391 L11.5217391,0.869565217 C11.1956522,0.869565217 10.8695652,0.869565217 10.6521739,0.97826087 Z"></path>
                                <path d="M11.5217391,24.8913043 C11.6304348,24.8913043 11.6304348,24.7826087 11.7391304,24.7826087 L21.1956522,19.3478261 C21.5217391,19.1304348 21.7391304,18.8043478 21.7391304,18.3695652 L21.7391304,7.5 C21.7391304,7.17391304 21.6304348,6.95652174 21.5217391,6.73913043 L11.5217391,24.8913043 Z"></path>
                                <path d="M21.1956522,6.41304348 L11.8478261,0.97826087 C11.7391304,0.869565217 11.6304348,0.869565217 11.5217391,0.869565217 L0.869565217,19.0217391 C0.97826087,19.1304348 1.08695652,19.2391304 1.19565217,19.3478261 L10.6521739,24.7826087 C10.9782609,24.8913043 11.3043478,25 11.5217391,24.8913043 L21.4130435,6.73913043 C21.4130435,6.63043478 21.3043478,6.52173913 21.1956522,6.41304348 Z" opacity="0.66"></path>
                            </g>
                            <g id="Path">
                                <path d="M1.30434783,6.41304348 L1.30434783,6.41304348 C0.869565217,6.63043478 0.652173913,7.06521739 0.652173913,7.5 L0.652173913,18.3695652 C0.652173913,18.8043478 0.869565217,19.1304348 1.19565217,19.3478261 L10.6521739,24.7826087 C10.8695652,24.8913043 11.1956522,25 11.5217391,24.8913043 L1.30434783,6.41304348 Z"></path>
                                <path d="M21.7391304,7.5 C21.7391304,7.06521739 21.5217391,6.73913043 21.1956522,6.52173913 L11.8478261,1.08695652 C11.7391304,1.08695652 11.6304348,0.97826087 11.6304348,0.97826087 L21.8478261,18.3695652 L21.8478261,7.5 L21.7391304,7.5 Z"></path>
                                <path d="M11.7391304,24.7826087 L21.1956522,19.3478261 C21.5217391,19.1304348 21.7391304,18.8043478 21.7391304,18.3695652 L21.7391304,18.3695652 L11.5217391,0.97826087 C11.1956522,0.869565217 10.8695652,0.97826087 10.6521739,1.08695652 L1.30434783,6.52173913 L11.5217391,25 C11.5217391,24.8913043 11.6304348,24.8913043 11.7391304,24.7826087 Z"></path>
                            </g>
                        </g>
                    </g>
                </g>
            </g>
        </g>
    </g>
</svg>