<svg width="200" height="200" xmlns="http://www.w3.org/2000/svg" xmlns:xlink="http://www.w3.org/1999/xlink">
 <!-- Created with Method Draw - http://github.com/duopixel/Method-Draw/ -->

 <g>
  <title>background</title>
  <rect fill="none" id="canvas_background" height="202" width="202" y="-1" x="-1"/>
  <g display="none" overflow="visible" y="0" x="0" height="100%" width="100%" id="canvasGrid">
   <rect fill="url(#gridpattern)" stroke-width="0" y="0" x="0" height="100%" width="100%"/>
  </g>
 </g>
 <g>
  <title>Layer 1</title>
  <!-- Generator: Sketch 59 (86127) - https://sketch.com -->
  <desc transform="matrix(0.4444444709353981,0,0,0.4444444709353981,0,0) ">Created with Sketch.</desc>
  <style transform="matrix(0.4444444709353981,0,0,0.4444444709353981,0,0) " type="text/css">.st0{fill-rule:evenodd;clip-rule:evenodd;}
	.st1{clip-path:url(#XMLID_6_);}
	.st2{opacity:0.66;}</style>
  <g stroke="null" id="svg_68">
   <g stroke="null" transform="matrix(2.127504540874072,0,0,2.127504540874072,-378.6884866500397,-378.688488096027) " id="svg_47">
    <path stroke="null" id="svg_48" d="m224.549985,252.987477c-0.3,0 -0.6,-0.1 -0.9,-0.2l-2.8,-1.6c-0.4,-0.2 -0.2,-0.3 -0.1,-0.4c0.5,-0.2 0.7,-0.2 1.2,-0.6c0.1,0 0.1,0 0.2,0l2.1,1.3c0.1,0 0.2,0 0.3,0l8.3,-4.8c0.1,0 0.1,-0.1 0.1,-0.2l0,-9.5c0,-0.1 0,-0.2 -0.1,-0.2l-8.2,-4.8c-0.1,0 -0.2,0 -0.3,0l-8.3,4.8c-0.1,0 -0.1,0.1 -0.1,0.2l0,9.5c0,0.1 0.1,0.2 0.1,0.2l2.3,1.3c1.2,0.6 2,-0.1 2,-0.8l0,-9.4c0,-0.1 0.1,-0.2 0.2,-0.2l1,0c0.1,0 0.2,0.1 0.2,0.2l0,9.4c0,1.6 -0.9,2.6 -2.4,2.6c-0.5,0 -0.9,0 -1.9,-0.5l-2.1,-1.3c-0.5,-0.3 -0.9,-0.9 -0.9,-1.5l0,-9.5c0,-0.6 0.3,-1.2 0.9,-1.5l8.3,-4.8c0.5,-0.3 1.2,-0.3 1.7,0l8.3,4.8c0.5,0.3 0.9,0.9 0.9,1.5l0,9.5c0,0.6 -0.3,1.2 -0.9,1.5l-8.3,4.8c-0.2,0.1 -0.5,0.2 -0.8,0.2z"/>
    <path stroke="null" id="svg_49" d="m227.049985,246.387477c-3.6,0 -4.4,-1.7 -4.4,-3c0,-0.1 0.1,-0.2 0.2,-0.2l1.1,0c0.1,0 0.2,0.1 0.2,0.2c0.2,1.1 0.6,1.6 2.8,1.6c1.7,0 2.5,-0.4 2.5,-1.3c0,-0.5 -0.2,-0.9 -2.9,-1.2c-2.3,-0.2 -3.7,-0.7 -3.7,-2.5c0,-1.7 1.4,-2.7 3.8,-2.7c2.6,0 4,0.9 4.1,2.9c0,0.1 0,0.1 -0.1,0.2c0,0 -0.1,0.1 -0.2,0.1l-1.1,0c-0.1,0 -0.2,-0.1 -0.2,-0.2c-0.3,-1.1 -0.9,-1.5 -2.6,-1.5c-1.9,0 -2.1,0.7 -2.1,1.2c0,0.6 0.3,0.8 2.8,1.1c2.5,0.3 3.7,0.8 3.7,2.6c0.2,1.7 -1.3,2.7 -3.9,2.7z"/>
   </g>
   <g stroke="null" transform="matrix(2.127504540874072,0,0,2.127504540874072,-378.6884866500397,-378.688488096027) " id="svg_50">
    <path stroke="null" id="svg_51" d="m238.949985,236.387477c0,0.9 -0.7,1.6 -1.6,1.6c-0.9,0 -1.6,-0.7 -1.6,-1.6c0,-0.9 0.7,-1.6 1.6,-1.6c0.9,0 1.6,0.7 1.6,1.6zm-2.9,0c0,0.7 0.6,1.3 1.3,1.3c0.7,0 1.3,-0.6 1.3,-1.3c0,-0.7 -0.6,-1.3 -1.3,-1.3c-0.7,0 -1.3,0.6 -1.3,1.3zm0.7,-0.9l0.6,0c0.2,0 0.6,0 0.6,0.5c0,0.3 -0.2,0.4 -0.3,0.4c0.2,0 0.3,0.2 0.3,0.4c0,0.1 0,0.4 0.1,0.5l-0.4,0c0,-0.1 -0.1,-0.5 -0.1,-0.6c0,-0.1 -0.1,-0.2 -0.2,-0.2l-0.3,0l0,0.7l-0.3,0l0,-1.7zm0.4,0.8l0.3,0c0.2,0 0.3,-0.2 0.3,-0.3c0,-0.2 -0.2,-0.2 -0.3,-0.2l-0.3,0l0,0.5z"/>
   </g>
   <path stroke="null" id="svg_52" d="m44.578504,80.187612c0,-0.851002 -0.425501,-1.489253 -1.063752,-1.914754l-18.72204,-10.637523c-0.21275,-0.21275 -0.638251,-0.21275 -1.063752,-0.21275c0,0 -0.21275,0 -0.21275,0c-0.425501,0 -0.638251,0.21275 -1.063752,0.21275l-18.72204,10.637523c-0.638251,0.425501 -1.063752,1.063752 -1.063752,1.914754l0,28.934062c0,0.425501 0.21275,0.851002 0.638251,1.063752c0.425501,0.21275 0.851002,0.21275 1.063752,0l11.063024,-6.382514c0.638251,-0.425501 1.063752,-1.063752 1.063752,-1.914754l0,-13.403279c0,-0.851002 0.425501,-1.489253 1.063752,-1.914754l4.68051,-2.765756c0.425501,-0.21275 0.638251,-0.21275 1.063752,-0.21275c0.425501,0 0.851002,0 1.063752,0.21275l4.68051,2.765756c0.638251,0.425501 1.063752,1.063752 1.063752,1.914754l0,13.403279c0,0.851002 0.425501,1.489253 1.063752,1.914754l11.063024,6.382514c0.425501,0.21275 0.851002,0.21275 1.063752,0c0.425501,-0.21275 0.638251,-0.638251 0.638251,-1.063752l0.638251,-28.934062z" class="st0"/>
   <path stroke="null" id="svg_53" d="m134.146445,40.616027c-0.425501,-0.21275 -0.851002,-0.21275 -1.063752,0c-0.425501,0.21275 -0.638251,0.638251 -0.638251,1.063752l0,28.508561c0,0.21275 -0.21275,0.638251 -0.425501,0.638251c-0.21275,0.21275 -0.638251,0.21275 -0.851002,0l-4.46776,-2.765756c-0.638251,-0.425501 -1.489253,-0.425501 -2.340255,0l-18.50929,10.850273c-0.638251,0.425501 -1.063752,1.063752 -1.063752,1.914754l0,21.487796c0,0.851002 0.425501,1.489253 1.063752,1.914754l18.72204,10.850273c0.638251,0.425501 1.489253,0.425501 2.340255,0l18.72204,-10.850273c0.638251,-0.425501 1.063752,-1.063752 1.063752,-1.914754l0,-53.613114c0,-0.851002 -0.425501,-1.489253 -1.063752,-1.914754l-11.488525,-6.169763zm-1.702004,54.676867c0,0.21275 -0.21275,0.425501 -0.21275,0.425501l-6.382514,3.616758c-0.21275,0 -0.425501,0 -0.638251,0l-6.382514,-3.616758c-0.21275,0 -0.21275,-0.21275 -0.21275,-0.425501l0,-7.446266c0,-0.21275 0.21275,-0.425501 0.21275,-0.425501l6.382514,-3.616758c0.21275,0 0.425501,0 0.638251,0l6.382514,3.616758c0.21275,0 0.21275,0.21275 0.21275,0.425501l0,7.446266z" class="st0"/>
   <path stroke="null" id="svg_54" d="m196.269577,87.633878c0.638251,-0.425501 1.063752,-1.063752 1.063752,-1.914754l0,-5.318761c0,-0.851002 -0.425501,-1.489253 -1.063752,-1.914754l-18.50929,-10.850273c-0.638251,-0.425501 -1.489253,-0.425501 -2.340255,0l-18.50929,10.850273c-0.638251,0.425501 -1.063752,1.063752 -1.063752,1.914754l0,21.700546c0,0.851002 0.425501,1.489253 1.063752,1.914754l18.50929,10.637523c0.638251,0.425501 1.489253,0.425501 2.127505,0l11.275774,-6.169763c0.425501,-0.21275 0.638251,-0.638251 0.638251,-1.063752c0,-0.425501 -0.21275,-0.851002 -0.638251,-1.063752l-18.72204,-10.850273c-0.425501,-0.21275 -0.638251,-0.638251 -0.638251,-1.063752l0,-6.808015c0,-0.425501 0.21275,-0.851002 0.638251,-1.063752l5.744262,-3.404007c0.425501,-0.21275 0.851002,-0.21275 1.063752,0l5.744262,3.404007c0.425501,0.21275 0.638251,0.638251 0.638251,1.063752l0,5.318761c0,0.425501 0.21275,0.851002 0.638251,1.063752c0.425501,0.21275 0.851002,0.21275 1.063752,0l11.275774,-6.382514z" class="st0"/>
   <path stroke="null" id="svg_55" d="m176.271035,86.570125c0.21275,0 0.21275,0 0.425501,0l3.616758,2.127505c0.21275,0 0.21275,0.21275 0.21275,0.425501l0,4.042259c0,0.21275 0,0.21275 -0.21275,0.425501l-3.616758,2.127505c-0.21275,0 -0.21275,0 -0.425501,0l-3.616758,-2.127505c-0.21275,0 -0.21275,-0.21275 -0.21275,-0.425501l0,-4.042259c0,-0.21275 0,-0.21275 0.21275,-0.425501l3.616758,-2.127505z" class="st0"/>
   <g stroke="null" transform="matrix(2.127504540874072,0,0,2.127504540874072,-378.6884866500397,-378.688488096027) " id="svg_56">
    <path stroke="null" d="m212.549985,209.887477c0.3,-0.2 0.7,-0.2 1,0l8.7,5c0.3,0.2 0.5,0.5 0.5,0.9l0,10c0,0.4 -0.2,0.7 -0.5,0.9l-8.7,5c-0.3,0.2 -0.7,0.2 -1,0l-8.7,-5c-0.3,-0.2 -0.5,-0.5 -0.5,-0.9l0,-10c0,-0.4 0.2,-0.7 0.5,-0.9l8.7,-5z" class="st0" id="svg_45"/>
    <g stroke="null" id="svg_57">
     <defs stroke="null" transform="translate(-0.0000035860766729456373,-2.842170943040401e-14) translate(0,0.0000017930383364728186) translate(0,-0.000012551268810057081) translate(0.0000034740119190246332,-2.842170943040401e-14) translate(170.74998474121094,0) translate(0,152.98748779296875) ">
      <path stroke="null" d="m42.8,56.9c-0.3,-0.2 -0.7,-0.2 -1,0l-8.7,5c-0.3,0.2 -0.5,0.5 -0.5,0.9l0,10c0,0.4 0.2,0.7 0.5,0.9l8.7,5c0.3,0.2 0.7,0.2 1,0l8.7,-5c0.3,-0.2 0.5,-0.5 0.5,-0.9l0,-10c0,-0.4 -0.2,-0.7 -0.5,-0.9l-8.7,-5z" id="svg_44"/>
     </defs>
     <use stroke="null" x="170.749985" y="152.987477" id="svg_58" fill-rule="evenodd" clip-rule="evenodd" xlink:href="#svg_44"/>
     <clipPath stroke="null" transform="translate(-0.0000035860766729456373,-2.842170943040401e-14) translate(0,0.0000017930383364728186) translate(0,-0.000012551268810057081) translate(0.0000034740119190246332,-2.842170943040401e-14) translate(170.74998474121094,0) translate(0,152.98748779296875) " id="svg_43">
      <use stroke="null" id="svg_59" xlink:href="#svg_44"/>
     </clipPath>
     <g stroke="null" id="svg_60" class="st1">
      <path stroke="null" id="svg_61" d="m212.549985,209.887477l-8.7,5c-0.3,0.2 -0.5,0.5 -0.5,0.9l0,10c0,0.2 0.1,0.5 0.2,0.7l9.8,-16.7c-0.3,0 -0.6,0 -0.8,0.1z"/>
      <path stroke="null" id="svg_62" d="m213.349985,231.887477c0.1,0 0.1,-0.1 0.2,-0.1l8.7,-5c0.3,-0.2 0.5,-0.5 0.5,-0.9l0,-10c0,-0.3 -0.1,-0.5 -0.2,-0.7l-9.2,16.7z"/>
      <path stroke="null" id="svg_63" d="m222.249985,214.887477l-8.6,-5c-0.1,-0.1 -0.2,-0.1 -0.3,-0.1l-9.8,16.7c0.1,0.1 0.2,0.2 0.3,0.3l8.7,5c0.3,0.1 0.6,0.2 0.8,0.1l9.1,-16.7c0,-0.1 -0.1,-0.2 -0.2,-0.3z" class="st2"/>
     </g>
     <g stroke="null" id="svg_64" class="st1">
      <path stroke="null" id="svg_65" d="m203.949985,214.887477l0,0c-0.4,0.2 -0.6,0.6 -0.6,1l0,10c0,0.4 0.2,0.7 0.5,0.9l8.7,5c0.2,0.1 0.5,0.2 0.8,0.1l-9.4,-17z"/>
      <path stroke="null" id="svg_66" d="m222.749985,215.887477c0,-0.4 -0.2,-0.7 -0.5,-0.9l-8.6,-5c-0.1,0 -0.2,-0.1 -0.2,-0.1l9.4,16l0,-10l-0.1,0z"/>
      <path stroke="null" id="svg_67" d="m213.549985,231.787477l8.7,-5c0.3,-0.2 0.5,-0.5 0.5,-0.9l0,0l-9.4,-16c-0.3,-0.1 -0.6,0 -0.8,0.1l-8.6,5l9.4,17c0,-0.1 0.1,-0.1 0.2,-0.2z"/>
     </g>
    </g>
   </g>
  </g>
 </g>
</svg>