<?xml version="1.0" encoding="UTF-8"?>
<svg width="99px" height="131px" viewBox="0 0 99 131" version="1.1" xmlns="http://www.w3.org/2000/svg" xmlns:xlink="http://www.w3.org/1999/xlink">
    <title>reindeer copy</title>
    <defs>
        <filter id="filter-1">
            <feColorMatrix in="SourceGraphic" type="matrix" values="0 0 0 0 1.000000 0 0 0 0 1.000000 0 0 0 0 1.000000 0 0 0 1.000000 0"></feColorMatrix>
        </filter>
    </defs>
    <g id="Page-1" stroke="none" stroke-width="1" fill="none" fill-rule="evenodd">
        <g id="All-icons-Copy" transform="translate(-175.000000, -307.000000)">
            <g id="reindeer-copy" transform="translate(175.000000, 307.000000)" filter="url(#filter-1)">
                <g id="reindeer" fill="#000000" fill-rule="nonzero" stroke="#000000" stroke-width="0.5">
                    <g id="svg_77" transform="translate(0.673267, 0.673267)">
                        <path d="M37.2118078,1.69128498 C35.8174604,3.46590907 35.1519765,5.33560193 34.518182,9.23343664 C33.6625596,14.3988599 28.8140337,21.1170793 26.7858919,19.8811802 C25.0429576,18.8354196 24.3140941,14.8425158 25.2964754,11.6418548 C25.5499931,10.7862324 25.7718211,9.80385147 25.7718211,9.45526461 C25.7401313,8.34612476 24.3774737,10.3425765 23.5535411,12.6559256 C22.5711601,15.4446205 22.7929881,17.472762 24.3457839,20.2614569 C25.2647856,21.9093221 25.4549237,22.5114264 25.2330958,23.0184619 C24.9478882,23.652256 24.8211296,23.557187 23.775369,21.9727014 C23.0465055,20.895251 22.4760907,19.5642832 22.2542627,18.3917637 C21.9373657,16.9023472 21.8106068,16.6171396 21.557089,17.0607959 C21.0817433,17.9164183 21.5253992,20.9586306 22.4127114,22.7332547 C22.8563674,23.5888771 23.1415749,24.4128094 23.0465055,24.476189 C22.7296085,24.8247758 16.9620806,18.5185229 16.2649069,17.0607959 C15.7261818,15.9199662 15.599423,15.2227925 15.694492,13.8601349 C15.8529407,11.8953726 15.5043539,11.6418548 14.8071802,13.2580302 C13.8881785,15.4446205 14.3318344,17.69459 16.2015276,20.2614569 C17.1522191,21.5607352 21.6204686,26.0289848 22.4444012,26.5043305 C22.7929881,26.6944687 22.3176423,27.0430555 20.796536,27.8669881 C18.0712208,29.2930254 15.3459052,30.2437165 10.9410352,31.3211669 C6.97982091,32.3035479 5.80730178,32.9690321 5.80730178,34.3316898 C5.80730178,35.5992783 6.66292419,37.4055919 7.51854627,37.9760067 C7.9305124,38.2612143 9.48330853,38.7682495 10.9410352,39.1168364 C12.3670725,39.4654232 14.5219729,40.035838 15.6944924,40.3844249 C19.1803609,41.3984957 19.27543,42.1907385 16.4233559,47.8631973 C13.9198686,52.8384824 13.2543847,54.7715548 12.7473491,58.1306645 C12.2720034,61.3630153 12.4938314,63.9298822 13.6029715,68.6516495 C14.0783173,70.6797911 14.3635245,72.4544152 14.2367656,72.5811741 C14.1416966,72.7079329 11.7649678,72.042449 9.03965258,71.1234473 L4.06436749,69.4122029 L2.67002006,70.1093766 C1.65594929,70.6481016 1.14891374,71.1551371 0.705257799,72.2008977 C-0.118674803,74.0705909 0.0714636898,74.6726955 2.54326117,77.9684256 C4.98336918,81.2324662 5.5220942,82.246537 6.40940609,85.1936802 C7.96220221,90.2957242 8.15234038,90.5809315 11.6065192,93.1477983 C13.3494534,94.4470767 15.1874568,95.6195961 15.694492,95.7146652 C16.2965967,95.8414241 17.2155984,96.6019771 18.4198073,97.9963245 C20.7331564,100.68995 20.9232946,100.816709 22.53947,101.070227 C24.5993013,101.387124 24.7260602,101.101916 24.1239556,97.3942199 C23.4901615,93.5597645 23.0465052,92.7675217 21.2718814,92.3238657 C18.8634632,91.7534509 18.1345997,91.4365539 15.4726637,89.7569988 L12.8424176,88.0774442 L11.5114497,84.1796094 C10.7508967,82.024709 10.2438612,80.1867056 10.3072405,80.123326 C10.4023096,80.028257 11.2262422,80.3768438 12.1769337,80.883879 C15.4092845,82.6585031 26.8809606,87.7922366 29.4161377,88.6161692 C34.8350788,90.4224828 37.4336351,90.6760005 53.1517332,90.8978285 C65.6057907,91.0879667 64.9403068,90.9612078 66.1128259,93.5914543 C67.9825191,97.9012555 74.3204618,105.1582 78.6619525,108.041963 C80.690094,109.372931 81.1971296,109.911657 82.3062694,111.876419 C84.3344109,115.457357 87.1547956,119.260122 89.309696,121.351643 C91.1160096,123.094578 91.3695274,123.506544 92.19346,126.073411 C93.0173926,128.576898 93.2392206,128.925485 94.2849811,129.527589 C95.2039828,130.034625 95.5842595,130.129694 96.0279154,129.844487 C96.9469171,129.274072 97.4539527,127.24593 97.4856421,124.013579 C97.5490214,121.573471 97.4222629,120.812918 96.9786066,120.115745 C96.693399,119.640399 96.2180536,119.260122 95.932846,119.260122 C94.9187752,119.260122 92.3519084,117.643947 91.05263,116.18622 C89.3730753,114.284837 88.5808322,112.541903 86.9012775,106.996203 C85.6970682,102.97161 85.4752403,102.527954 84.2393415,101.355434 C82.5597869,99.7709486 81.5457158,97.8061864 81.5457158,96.0949419 C81.5457158,95.3660784 81.9893717,93.4646957 82.5280967,91.8802101 C83.7956853,88.2042034 84.0808928,84.6866453 83.3203395,82.0563988 C82.813304,80.3134645 82.813304,80.1867056 83.3203395,79.6162908 C83.6055471,79.2993938 84.5879281,78.6655993 85.5069298,78.2536332 C86.4893107,77.8099772 87.5350713,77.0177344 88.0737966,76.2888709 C88.9294191,75.2114206 88.9927983,74.8945235 88.9611085,72.6128642 C88.9294187,70.1093769 88.4223835,68.8734778 87.3766229,68.8734778 C87.154795,68.8734778 86.1090344,69.7291002 85.031584,70.7748605 C82.1161303,73.6586244 80.8802315,73.6903142 76.6021201,71.0600681 C72.0388015,68.303063 69.3134859,67.7009584 59.2995365,67.2889922 C55.4017017,67.1305435 51.9158332,66.9404054 51.503867,66.8453363 C45.8314082,65.6094376 42.4406091,63.9298825 38.0357388,60.0954274 C35.4371824,57.8137681 33.6625583,55.722247 32.7118668,53.7257949 C31.824555,51.9194813 31.5393474,48.496992 32.1097622,45.9935048 C32.2999004,45.0745031 32.5534181,42.5076362 32.6484872,40.2576667 L32.8386254,36.2330731 L33.7893169,36.2330731 C35.9442173,36.2330731 39.7152935,33.5077578 39.7152935,31.9549617 C39.7152935,30.9725807 39.0814994,30.7824422 35.4054923,30.7190629 C33.7576271,30.6873731 32.3632797,30.5606143 32.2365211,30.4655452 C32.141452,30.3704761 32.902005,30.0218892 33.9160758,29.7366816 C34.9301465,29.4514741 36.8315295,28.6909211 38.1308075,28.0888164 C39.8103622,27.2648838 41.1730202,26.8846072 42.725816,26.7261588 C46.2116846,26.4092618 50.3313472,24.254361 53.7538362,21.0537 C56.6376002,18.2966949 56.986187,18.1065568 60.408676,17.3460035 C64.5600285,16.395312 66.7466187,14.7474471 67.8874484,11.6735446 C68.5846221,9.80385147 68.8381399,5.49405062 68.2360352,5.49405062 C68.0775865,5.49405062 67.9191382,5.96939636 67.9191382,6.57150099 C67.9191382,8.12429711 66.7466187,10.9763713 65.51072,12.434098 C64.3065107,13.8284454 60.6938836,15.8248975 60.2185378,15.3495517 C60.0283997,15.1594136 60.1551585,14.5256191 60.5671247,13.669997 C61.6445751,11.3883377 62.5635767,7.87077934 62.4685073,6.41305263 L62.3734383,5.0187052 L61.3276777,7.77571026 C59.9016404,11.5150966 57.6833607,14.7157576 56.986187,13.9868941 C56.7326692,13.7333763 56.7326692,8.69471194 56.986187,6.79332929 C57.3664637,4.09970351 56.6059104,6.09615557 55.3700116,11.0080611 C54.7362175,13.6383072 53.8805951,16.3636225 53.468629,17.092486 C51.5989358,20.3882161 45.8947875,24.1909817 42.8525749,24.1909817 C40.6342948,24.1909817 39.9371211,23.4304287 40.2223287,21.4022869 C40.4124669,20.1030085 41.0779511,17.314314 41.8068143,14.6840675 C41.9969525,14.0185836 41.965263,13.955204 41.5532965,14.2721013 C40.7293639,14.9692751 39.4617754,17.6629008 38.7329122,20.2297674 C37.3385647,25.3635009 36.5463219,26.1874335 32.9970741,26.2191233 C30.8104839,26.2191233 27.6732021,25.6170186 27.6732021,25.1733627 C27.6732021,24.6663271 29.1309288,22.6381856 30.3351381,21.4973559 C31.0323118,20.8001822 32.8069359,18.7086611 34.2646626,16.8389679 C35.6906999,14.9692747 37.1167368,13.3214099 37.4336338,13.1629612 C37.7188414,13.0045125 39.3350165,12.7826845 41.0145715,12.6876154 C46.2750638,12.3390286 49.3806558,10.5960943 51.4087976,6.76163883 C51.9792124,5.68418846 52.3911786,4.76518677 52.3277993,4.70180749 C52.26442,4.60673841 51.4404874,5.39898121 50.5531752,6.44474178 C48.588413,8.66302181 46.8137889,9.96229984 44.6588884,10.6594736 C43.1377821,11.1981986 40.3490873,11.3883371 40.3490873,11.0080604 C40.3490873,10.8813015 41.1413301,9.96229984 42.0920215,8.94822907 C44.4370605,6.38136217 47.3525139,1.3743876 46.465202,1.3743876 C46.3067533,1.3743876 45.5462003,2.26169949 44.7856473,3.30746006 C43.1694719,5.52574009 39.5885343,8.91653926 37.9406691,9.80385147 C36.9899776,10.3425765 36.7998394,10.3425765 36.5463216,9.93061036 C35.8174581,8.7897807 36.5146318,4.86025618 38.0040483,1.97649223 C38.4477043,1.08918035 38.7329119,0.296937551 38.6695322,0.201868142 C38.5744632,0.138488861 37.9089792,0.803972774 37.2118055,1.69128466 L37.2118078,1.69128498 L37.2118078,1.69128498 Z" id="svg_73"></path>
                    </g>
                </g>
            </g>
        </g>
    </g>
</svg>