<svg width="200" height="200" xmlns="http://www.w3.org/2000/svg">
 <!-- Created with Method Draw - http://github.com/duopixel/Method-Draw/ -->

 <g>
  <title>background</title>
  <rect fill="none" id="canvas_background" height="202" width="202" y="-1" x="-1"/>
  <g display="none" overflow="visible" y="0" x="0" height="100%" width="100%" id="canvasGrid">
   <rect fill="url(#gridpattern)" stroke-width="0" y="0" x="0" height="100%" width="100%"/>
  </g>
 </g>
 <g>
  <title>Layer 1</title>
  <!-- Generator: Sketch 59 (86127) - https://sketch.com -->
  <desc transform="matrix(0.4444444709353981,0,0,0.4444444709353981,0,0) ">Created with Sketch.</desc>
  <style transform="matrix(0.4444444709353981,0,0,0.4444444709353981,0,0) " type="text/css">.st0{fill-rule:evenodd;clip-rule:evenodd;}
	.st1{clip-path:url(#XMLID_6_);}
	.st2{opacity:0.66;}</style>
  <g stroke="null" id="svg_78">
   <g stroke="null" transform="matrix(0.49295176940969315,0,0,0.49295176940969315,-1674.1264912789563,-1674.1264912789563) " id="svg_76">
    <title stroke="null" transform="translate(-0.00003687869320856407,-4.547473508864641e-13) translate(-4.547473508864641e-13,1.0146269798278809) translate(-1.0139374732971191,-4.547473508864641e-13) translate(-4.547473508864641e-13,-2.0285959243774414) translate(3399.999755859375,0) translate(0,3399.999755859375) ">background</title>
    <rect stroke="null" x="3397.985782" y="3397.985787" width="402" height="402" id="svg_74" fill="none"/>
   </g>
   <g stroke="null" transform="matrix(0.49295176940969315,0,0,0.49295176940969315,-1674.1264912789563,-1674.1264912789563) " id="svg_77">
    <title stroke="null" transform="translate(-0.00003687869320856407,-4.547473508864641e-13) translate(-4.547473508864641e-13,1.0146269798278809) translate(-1.0139374732971191,-4.547473508864641e-13) translate(-4.547473508864641e-13,-2.0285959243774414) translate(3399.999755859375,0) translate(0,3399.999755859375) ">Layer 1</title>
    <path stroke="null" d="m3566.363904,3404.197865c-4.28528,5.453993 -6.330527,11.200163 -8.278382,23.179468c-2.629604,15.875014 -17.53069,36.522272 -23.763825,32.723955c-5.3566,-3.21396 -7.596633,-15.485443 -4.577458,-25.322108c0.779142,-2.629604 1.460891,-5.648778 1.460891,-6.720098c-0.097393,-3.408745 -4.28528,2.726996 -6.817491,9.836665c-3.019174,8.57056 -2.337425,14.803694 2.434818,23.374254c2.824389,5.064422 3.408745,6.914883 2.726996,8.473167c-0.876535,1.947854 -1.266105,1.655676 -4.480065,-3.21396c-2.240033,-3.311353 -3.993102,-7.401847 -4.674851,-11.005378c-0.973927,-4.577458 -1.363498,-5.453993 -2.14264,-4.090494c-1.460891,2.629604 -0.097393,11.979305 2.629604,17.433298c1.363498,2.629604 2.240033,5.161814 1.947854,5.3566c-0.973927,1.07132 -18.699403,-18.309832 -20.842043,-22.789898c-1.655676,-3.506138 -2.045247,-5.648778 -1.753069,-9.836665c0.486964,-6.038349 -0.584356,-6.817491 -2.726996,-1.850462c-2.824389,6.720098 -1.460891,13.634981 4.28528,21.523792c2.921782,3.993102 16.654156,17.725476 19.186367,19.186367c1.07132,0.584356 -0.389571,1.655676 -5.064422,4.187887c-8.375774,4.382673 -16.751549,7.304454 -30.289137,10.615807c-12.174091,3.019174 -15.777621,5.064422 -15.777621,9.252309c0,3.895709 2.629604,9.447094 5.259207,11.200163c1.266105,0.876535 6.038349,2.434818 10.518414,3.506138c4.382673,1.07132 11.005378,2.824389 14.608909,3.895709c10.7132,3.116567 11.005378,5.551385 2.240033,22.984683c-7.694025,15.290658 -9.739272,21.231614 -11.297556,31.555243c-1.460891,9.934058 -0.779142,17.822869 2.629604,32.334385c1.460891,6.233134 2.337425,11.687127 1.947854,12.076698c-0.292178,0.389571 -7.596633,-1.655676 -15.972407,-4.480065l-15.290658,-5.259207l-4.28528,2.14264c-3.116567,1.655676 -4.674851,3.21396 -6.038349,6.42792c-2.532211,5.746171 -1.947854,7.596633 5.648778,17.725476c7.49924,10.031451 9.154916,13.148018 11.881912,22.205541c4.772244,15.680229 5.3566,16.556763 15.972407,24.445574c5.3566,3.993102 11.005378,7.596633 12.563661,7.888811c1.850462,0.389571 4.674851,2.726996 8.375774,7.012276c7.109669,8.278382 7.694025,8.667952 12.661054,9.447094c6.330527,0.973927 6.720098,0.097393 4.869636,-11.297556c-1.947854,-11.78452 -3.311353,-14.219338 -8.765345,-15.582836c-7.401847,-1.753069 -9.64188,-2.726996 -17.822869,-7.888811l-8.083596,-5.161814l-4.090494,-11.979305c-2.337425,-6.622705 -3.895709,-12.271483 -3.700924,-12.466269c0.292178,-0.292178 2.824389,0.779142 5.746171,2.337425c9.934058,5.453993 45.190224,21.231614 52.981642,23.763825c16.654156,5.551385 24.640359,6.330527 72.947151,7.012276c38.275341,0.584356 36.230094,0.194785 39.833624,8.278382c5.746171,13.245411 25.224716,35.548344 38.567519,44.411082c6.233134,4.090494 7.791418,5.746171 11.200163,11.78452c6.233134,11.005378 14.901087,22.692505 21.523792,29.120425c5.551385,5.3566 6.330527,6.622705 8.862738,14.511516c2.532211,7.694025 3.21396,8.765345 6.42792,10.615807c2.824389,1.558284 3.993102,1.850462 5.3566,0.973927c2.824389,-1.753069 4.382673,-7.986203 4.480065,-17.920261c0.194785,-7.49924 -0.194785,-9.836665 -1.558284,-11.979305c-0.876535,-1.460891 -2.337425,-2.629604 -3.21396,-2.629604c-3.116567,0 -11.005378,-4.967029 -14.99848,-9.447094c-5.161814,-5.843563 -7.596633,-11.200163 -12.758447,-28.24389c-3.700924,-12.368876 -4.382673,-13.732374 -8.180989,-17.335905c-5.161814,-4.869636 -8.278382,-10.907985 -8.278382,-16.167192c0,-2.240033 1.363498,-8.083596 3.019174,-12.953232c3.895709,-11.297556 4.772244,-22.108148 2.434818,-30.191745c-1.558284,-5.3566 -1.558284,-5.746171 0,-7.49924c0.876535,-0.973927 3.895709,-2.921782 6.720098,-4.187887c3.019174,-1.363498 6.233134,-3.798316 7.888811,-6.038349c2.629604,-3.311353 2.824389,-4.28528 2.726996,-11.297556c-0.097393,-7.694025 -1.655676,-11.492342 -4.869636,-11.492342c-0.681749,0 -3.895709,2.629604 -7.207062,5.843563c-8.960131,8.862738 -12.758447,8.960131 -25.906465,0.876535c-14.024552,-8.473167 -22.400327,-10.323629 -53.176428,-11.589734c-11.979305,-0.486964 -22.692505,-1.07132 -23.95861,-1.363498c-17.433298,-3.798316 -27.854319,-8.960131 -41.391908,-20.74465c-7.986203,-7.012276 -13.440196,-13.440196 -16.361978,-19.575938c-2.726996,-5.551385 -3.603531,-16.0698 -1.850462,-23.763825c0.584356,-2.824389 1.363498,-10.7132 1.655676,-17.628083l0.584356,-12.368876l2.921782,0c6.622705,0 18.21244,-8.375774 18.21244,-13.148018c0,-3.019174 -1.947854,-3.603531 -13.245411,-3.798316c-5.064422,-0.097393 -9.349702,-0.486964 -9.739272,-0.779142c-0.292178,-0.292178 2.045247,-1.363498 5.161814,-2.240033c3.116567,-0.876535 8.960131,-3.21396 12.953232,-5.064422c5.161814,-2.532211 9.349702,-3.700924 14.121945,-4.187887c10.7132,-0.973927 23.374254,-7.596633 33.892668,-17.433298c8.862738,-8.473167 9.934058,-9.057523 20.452472,-11.394949c12.758447,-2.921782 19.478545,-7.986203 22.984683,-17.433298c2.14264,-5.746171 2.921782,-18.991581 1.07132,-18.991581c-0.486964,0 -0.973927,1.460891 -0.973927,3.311353c0,4.772244 -3.603531,13.537589 -7.401847,18.017654c-3.700924,4.28528 -14.803694,10.421022 -16.264585,8.960131c-0.584356,-0.584356 -0.194785,-2.532211 1.07132,-5.161814c3.311353,-7.012276 6.135742,-17.822869 5.843563,-22.302934l-0.292178,-4.28528l-3.21396,8.473167c-4.382673,11.492342 -11.200163,21.329007 -13.342803,19.088974c-0.779142,-0.779142 -0.779142,-16.264585 0,-22.108148c1.168713,-8.278382 -1.168713,-2.14264 -4.967029,12.953232c-1.947854,8.083596 -4.577458,16.45937 -5.843563,18.699403c-5.746171,10.128843 -23.276861,21.81597 -32.626563,21.81597c-6.817491,0 -8.960131,-2.337425 -8.083596,-8.57056c0.584356,-3.993102 2.629604,-12.563661 4.869636,-20.647258c0.584356,-2.045247 0.486964,-2.240033 -0.779142,-1.266105c-2.532211,2.14264 -6.42792,10.421022 -8.667952,18.309832c-4.28528,15.777621 -6.720098,18.309832 -17.628083,18.407225c-6.720098,0 -16.361978,-1.850462 -16.361978,-3.21396c0,-1.558284 4.480065,-7.791418 8.180989,-11.297556c2.14264,-2.14264 7.596633,-8.57056 12.076698,-14.316731c4.382673,-5.746171 8.765345,-10.810592 9.739272,-11.297556c0.876535,-0.486964 5.843563,-1.168713 11.005378,-1.460891c16.167192,-1.07132 25.711679,-6.42792 31.944814,-18.21244c1.753069,-3.311353 3.019174,-6.135742 2.824389,-6.330527c-0.194785,-0.292178 -2.726996,2.14264 -5.453993,5.3566c-6.038349,6.817491 -11.492342,10.810592 -18.115047,12.953232c-4.674851,1.655676 -13.245411,2.240033 -13.245411,1.07132c0,-0.389571 2.434818,-3.21396 5.3566,-6.330527c7.207062,-7.888811 16.167192,-23.276861 13.440196,-23.276861c-0.486964,0 -2.824389,2.726996 -5.161814,5.940956c-4.967029,6.817491 -15.972407,17.238512 -21.036829,19.965509c-2.921782,1.655676 -3.506138,1.655676 -4.28528,0.389571c-2.240033,-3.506138 -0.097393,-15.582836 4.480065,-24.445574c1.363498,-2.726996 2.240033,-5.161814 2.045247,-5.453993c-0.292178,-0.194785 -2.337425,1.850462 -4.480065,4.577458l0.000007,0.000001z" id="svg_73"/>
   </g>
  </g>
 </g>
</svg>