<svg width="200" height="200" xmlns="http://www.w3.org/2000/svg">
 <!-- Created with Method Draw - http://github.com/duopixel/Method-Draw/ -->

 <g>
  <title>background</title>
  <rect fill="none" id="canvas_background" height="202" width="202" y="-1" x="-1"/>
  <g display="none" overflow="visible" y="0" x="0" height="100%" width="100%" id="canvasGrid">
   <rect fill="url(#gridpattern)" stroke-width="0" y="0" x="0" height="100%" width="100%"/>
  </g>
 </g>
 <g>
  <title>Layer 1</title>
  <!-- Generator: Sketch 59 (86127) - https://sketch.com -->
  <desc transform="matrix(0.4444444709353981,0,0,0.4444444709353981,0,0) ">Created with Sketch.</desc>
  <style transform="matrix(0.4444444709353981,0,0,0.4444444709353981,0,0) " type="text/css">.st0{fill-rule:evenodd;clip-rule:evenodd;}
	.st1{clip-path:url(#XMLID_6_);}
	.st2{opacity:0.66;}</style>
  <g stroke="null" id="svg_84">
   <path stroke="null" id="svg_83" d="m170.649406,110.889729c-6.84515,0.03916 -12.773959,1.683876 -17.747266,4.127453c-1.832683,-3.634039 -3.673198,-6.80599 -3.978646,-9.17908c-0.344607,-2.756857 -0.767534,-4.4329 -0.344607,-7.722332c0.422927,-3.289431 2.33393,-7.957291 2.33393,-8.341058c-0.03916,-0.344607 -0.422927,-2.028483 -4.362413,-2.067643s-7.346397,0.767534 -7.722332,1.793523s-1.143469,3.406911 -1.644716,5.850489c-0.689214,3.594879 -7.878971,16.329677 -11.967265,23.018188c-1.339268,-2.600217 -2.482738,-4.894987 -2.717697,-6.72767c-0.344607,-2.756857 -0.767534,-4.4329 -0.344607,-7.722332c0.422927,-3.289431 2.33393,-7.957291 2.33393,-8.333226c-0.03916,-0.344607 -0.422927,-2.028483 -4.362413,-2.067643c-3.939486,-0.03916 -7.346397,0.767534 -7.722332,1.793523c-0.383767,1.033821 -0.806694,3.477399 -1.644716,5.850489c-0.806694,2.37309 -10.361709,23.636914 -12.852278,29.181956c-1.260949,2.827345 -2.37309,5.082955 -3.171952,6.618023c-0.806694,1.527236 -0.03916,0.11748 -0.11748,0.266287c-0.689214,1.300109 -1.072981,2.028483 -1.072981,2.028483l0,0.03916c-0.532575,0.955502 -1.112141,1.871843 -1.378428,1.871843c-0.187968,0 -0.571735,-2.561057 0.07832,-6.077616c1.417588,-7.377725 4.855827,-18.890735 4.816667,-19.313662c0,-0.187968 0.650054,-2.21645 -2.21645,-3.250272c-2.788185,-1.033821 -3.782846,0.689214 -4.017805,0.689214c-0.227127,0 -0.422927,0.610894 -0.422927,0.610894s3.101464,-12.961926 -5.928809,-12.961926c-5.662521,0 -13.463173,6.155936 -17.324339,11.779297c-2.443578,1.339268 -7.651844,4.166613 -13.157726,7.189757c-2.106802,1.143469 -4.284093,2.37309 -6.351735,3.477399l-0.422927,-0.462087c-10.917779,-11.646154 -31.147783,-19.908892 -30.301929,-35.588515c0.305447,-5.701681 2.29477,-20.723418 38.85445,-38.93277c29.941658,-14.912089 53.923179,-10.823796 58.089792,-1.723035c5.928809,13.001086 -12.813119,37.170575 -43.937405,40.647974c-11.857617,1.339268 -18.091873,-3.250272 -19.658269,-4.973307c-1.644716,-1.793523 -1.871843,-1.871843 -2.482738,-1.527236c-0.994661,0.532575 -0.383767,2.13813 0,3.101464c0.916342,2.41225 4.738348,6.688511 11.246723,8.834473c5.693849,1.871843 19.619109,2.905664 36.442201,-3.594879c18.851575,-7.307237 33.575696,-27.5764 29.252444,-44.516972c-4.401572,-17.238187 -33.003962,-22.900708 -60.047787,-13.306533c-16.094718,5.740841 -33.536536,14.684962 -46.075536,26.425099c-14.919921,13.92526 -17.285179,26.088324 -16.290517,31.132119c3.477399,18.013553 28.296942,29.75369 38.243556,38.431524c-0.493415,0.266287 -0.955502,0.532575 -1.378428,0.767534c-4.973307,2.443578 -23.903202,12.351032 -28.641549,22.83022c-5.357074,11.857617 0.838022,20.386643 4.973307,21.530112c12.773959,3.555719 25.853364,-2.827345 32.925642,-13.345693c7.033118,-10.518349 6.195096,-24.169489 2.944824,-30.403745l-0.11748,-0.227127l3.900326,-2.29477c2.521897,-1.488076 5.012467,-2.866505 7.189757,-4.056965c-1.221789,3.328591 -2.106802,7.268077 -2.561057,13.001086c-0.532575,6.72767 2.21645,15.452496 5.850489,18.890735c1.605556,1.488076 3.516559,1.527236 4.70702,1.527236c4.205773,0 6.116776,-3.477399 8.223579,-7.651844c2.600217,-5.082955 4.894987,-10.972603 4.894987,-10.972603s-2.866505,15.94591 4.973307,15.94591c2.866505,0 5.733009,-3.712358 7.033118,-5.623361l0,0.03916c0,0 0.07832,-0.11748 0.227127,-0.383767c0.15664,-0.234959 0.313279,-0.477751 0.462087,-0.728374l0,-0.07832c1.143469,-1.989323 3.712358,-6.539703 7.534364,-14.074067c4.934147,-9.711655 9.672495,-21.874719 9.672495,-21.874719s0.462087,2.983984 1.871843,7.878971c0.838022,2.905664 2.678537,6.077616 4.088293,9.17908c-1.143469,1.605556 -1.832683,2.521897 -1.832683,2.521897l0.03916,0.03916c-0.916342,1.221789 -1.950163,2.521897 -3.023144,3.822006c-3.900326,4.66786 -8.568186,9.977942 -9.17908,11.51301c-0.728374,1.793523 -0.571735,3.132792 0.838022,4.205773c1.033821,0.767534 2.866505,0.916342 4.816667,0.767534c3.516559,-0.227127 5.967968,-1.112141 7.189757,-1.644716c1.911003,-0.689214 4.088293,-1.723035 6.195096,-3.250272c3.822006,-2.827345 6.155936,-6.84515 5.928809,-12.202224c-0.11748,-2.944824 -1.072981,-5.850489 -2.25561,-8.607346c0.344607,-0.493415 0.689214,-0.994661 1.033821,-1.527236c6.038456,-8.834473 10.706316,-18.546128 10.706316,-18.546128s0.462087,2.983984 1.871843,7.878971c0.728374,2.482738 2.17729,5.200434 3.477399,7.878971c-5.662521,4.6287 -9.21824,9.977942 -10.440029,13.502333c-2.25561,6.500543 -0.493415,9.445367 2.827345,10.134582c1.488076,0.305447 3.634039,-0.383767 5.239594,-1.072981c1.989323,-0.650054 4.401572,-1.762195 6.618023,-3.406911c3.822006,-2.827345 7.495204,-6.76683 7.307237,-12.084744c-0.11748,-2.443578 -0.767534,-4.855827 -1.644716,-7.150597c4.816667,-1.989323 11.050923,-3.132792 18.969054,-2.17729c17.018892,1.989323 20.386643,12.617319 19.736588,17.058051c-0.650054,4.4329 -4.205773,6.88431 -5.396234,7.651844c-1.182629,0.728374 -1.566396,0.994661 -1.456748,1.527236c0.15664,0.806694 0.689214,0.767534 1.723035,0.610894c1.417588,-0.227127 8.951953,-3.634039 9.2574,-11.818457c0.462087,-10.502685 -9.523687,-21.976535 -27.223961,-21.866887l0,0zm-131.248313,44.250684c-5.623361,6.155936 -13.541493,8.489866 -16.901412,6.500543c-3.634039,-2.106802 -2.21645,-11.168403 4.70702,-17.708106c4.205773,-3.978646 9.672495,-7.651844 13.267373,-9.907454c0.806694,-0.493415 2.028483,-1.221789 3.477399,-2.106802c0.227127,-0.148808 0.383767,-0.227127 0.383767,-0.227127c0.266287,-0.15664 0.571735,-0.344607 0.877182,-0.532575c2.561057,9.33572 0.11748,17.520138 -5.811329,23.981521l0,0zm41.110061,-27.952335c-1.950163,4.777508 -6.077616,17.058051 -8.568186,16.368837c-2.13813,-0.571735 -3.438239,-9.868294 -0.422927,-19.047374c1.527236,-4.6287 4.777508,-10.134582 6.688511,-12.272712c3.101464,-3.438239 6.461383,-4.58954 7.307237,-3.171952c0.994661,1.824851 -3.782846,15.139216 -5.004635,18.123201zm33.920303,16.212198c-0.838022,0.422927 -1.605556,0.728374 -1.950163,0.501247c-0.266287,-0.15664 0.344607,-0.728374 0.344607,-0.728374s4.244933,-4.55038 5.928809,-6.657183c0.955502,-1.221789 2.106802,-2.639377 3.328591,-4.244933l0,0.462087c-0.007832,5.505882 -5.278754,9.171248 -7.651844,10.667156l0,0zm26.158812,-5.967968c-0.610894,-0.462087 -0.532575,-1.871843 1.527236,-6.312576c0.806694,-1.762195 2.639377,-4.70702 5.811329,-7.495204c0.383767,1.143469 0.610894,2.25561 0.571735,3.289431c-0.031328,6.88431 -4.926315,9.445367 -7.910299,10.518349z"/>
  </g>
 </g>
</svg>