<?xml version="1.0" encoding="UTF-8"?>
<svg width="100px" height="99px" viewBox="0 0 100 99" version="1.1" xmlns="http://www.w3.org/2000/svg" xmlns:xlink="http://www.w3.org/1999/xlink">
    <title>static-site-generator copy</title>
    <defs>
        <filter id="filter-1">
            <feColorMatrix in="SourceGraphic" type="matrix" values="0 0 0 0 1.000000 0 0 0 0 1.000000 0 0 0 0 1.000000 0 0 0 1.000000 0"></feColorMatrix>
        </filter>
    </defs>
    <g id="Page-1" stroke="none" stroke-width="1" fill="none" fill-rule="evenodd">
        <g id="All-icons-Copy" transform="translate(-645.000000, -308.000000)">
            <g id="static-site-generator-copy" transform="translate(645.000000, 308.000000)" filter="url(#filter-1)">
                <g id="static-site-generator" transform="translate(0.000000, -0.000000)" fill="#000000" fill-rule="nonzero">
                    <path d="M58.2951882,70.6167157 C58.0173038,72.3181179 57.5757576,73.9615565 56.9807782,75.533393 L62.3185441,80.3699442 C61.5701317,81.9451903 60.7177258,83.4590632 59.7340494,84.8808763 L52.8807058,82.6714401 C51.7998551,83.9926693 50.5894387,85.2013809 49.2682095,86.2822316 L51.4776457,93.1355752 C50.0558326,94.1192516 48.5419597,94.9699527 46.9667135,95.7200699 L42.1301624,90.3823041 C40.5583259,90.9772834 38.9165921,91.4188296 37.2134851,91.696714 L35.6910881,98.7478157 C34.8301581,98.8160082 33.9658185,98.8790862 33.0861356,98.8790862 C32.2064527,98.8790862 31.3421131,98.8160082 30.4794783,98.7478157 L28.9570814,91.696714 C27.2556792,91.4188296 25.6122405,90.9772834 24.040404,90.3823041 L19.2038529,95.7200699 C17.6286067,94.9716575 16.1147338,94.1192516 14.6929208,93.1355752 L16.9023569,86.2822316 C15.5811277,85.2013809 14.3724161,83.9909645 13.2915654,82.6714401 L6.43822188,84.8808763 C5.45454545,83.4590632 4.60384435,81.9451903 3.85372714,80.3699442 L9.19149299,75.533393 C8.59651366,73.9615565 8.1549674,72.3198227 7.87708307,70.6167157 L0.825981332,69.0943187 C0.757788859,68.2316839 0.694710821,67.3673443 0.694710821,66.4876614 C0.694710821,65.6079785 0.757788859,64.7436389 0.825981332,63.8810041 L7.87708307,62.3586072 C8.1549674,60.657205 8.59651366,59.0137664 9.19149299,57.4419298 L3.85372714,52.6053787 C4.60213954,51.0301325 5.45454545,49.5162596 6.43822188,48.0944466 L13.2915654,50.3038827 C14.3724161,48.9826535 15.5828325,47.773942 16.9040617,46.6930913 L14.6946256,39.8397477 C16.1164386,38.8560713 17.6303116,38.0053702 19.2055577,37.255253 L24.0421089,42.5930188 C25.6139454,41.9980395 27.2556792,41.5564932 28.9587862,41.2786089 L30.4811831,34.2275071 C31.3421131,34.1593147 32.2064527,34.0962366 33.0861356,34.0962366 C33.9658185,34.0962366 34.8301581,34.1593147 35.6927929,34.2275071 L37.2151899,41.2786089 C38.9165921,41.5564932 40.5600307,41.9980395 42.1318672,42.5930188 L46.9684184,37.255253 C48.5436645,38.0036653 50.0575374,38.8560713 51.4793505,39.8397477 L49.2699143,46.6930913 C50.5911435,47.773942 51.7998551,48.9843584 52.8807058,50.3055875 L59.7340494,48.0961514 C60.7177258,49.5179645 61.5684269,51.0318374 62.3185441,52.6070835 L56.9807782,57.4436347 C57.5757576,59.0154712 58.0173038,60.657205 58.2951882,62.360312 L65.3462899,63.8827089 C65.4144824,64.7436389 65.4775604,65.6079785 65.4775604,66.4876614 C65.4775604,67.3673443 65.4144824,68.2316839 65.3462899,69.0943187 L58.2951882,70.6167157 Z M33.0861356,49.4395431 C23.6704599,49.4395431 16.0380173,57.0719857 16.0380173,66.4876614 C16.0380173,75.9033372 23.6704599,83.5357797 33.0861356,83.5357797 C42.5018114,83.5357797 50.1342539,75.9033372 50.1342539,66.4876614 C50.1342539,57.0719857 42.5018114,49.4395431 33.0861356,49.4395431 Z" id="Shape"></path>
                    <path d="M81.9443379,22.6825214 C81.6783872,23.5639091 81.3306056,24.4094958 80.9026979,25.2056429 L83.5945957,30.3644035 C82.685931,31.5134467 81.6494054,32.5499723 80.5003623,33.458637 L75.3416017,30.7667391 C74.5454545,31.1963517 73.6998679,31.5441333 72.8184802,31.8083792 L71.0727528,37.3660657 C70.3533223,37.4513063 69.6270724,37.5058603 68.8871841,37.5058603 C68.1472957,37.5058603 67.4210459,37.4513063 66.7033201,37.3677705 L64.9575928,31.810084 C64.0762051,31.5458381 63.2306184,31.1963517 62.4344713,30.7684439 L57.2757107,33.4603418 C56.1266675,32.5516771 55.0901419,31.5151515 54.1814772,30.3661083 L56.8733751,25.2073477 C56.4437625,24.4112006 56.0959809,23.5656139 55.8317351,22.6842262 L50.2740485,20.9384989 C50.1888079,20.2190683 50.1342539,19.4928185 50.1342539,18.7529301 C50.1342539,18.0130418 50.1888079,17.286792 50.2723437,16.5690662 L55.8300303,14.8233389 C56.0942761,13.9419512 56.4437625,13.0963645 56.8716703,12.3002174 L54.1797724,7.14145676 C55.0884371,5.99241359 56.1249627,4.95588799 57.2740059,4.04722329 L62.4327665,6.73912117 C63.2289136,6.30950859 64.0745003,5.96172697 64.955888,5.69748114 L66.7016153,0.13979457 C67.4210459,0.0545539786 68.1472957,0 68.8871841,0 C69.6270724,0 70.3533223,0.0545539786 71.071048,0.138089758 L72.8167753,5.69577633 C73.6981631,5.96002216 74.5437497,6.30950859 75.3398969,6.73741636 L80.4986575,4.04551848 C81.6477006,4.95418318 82.6842262,5.99070878 83.5928909,7.13975195 L80.9009931,12.2985126 C81.3306056,13.0946597 81.6783872,13.9402463 81.9426331,14.8216341 L87.5003197,16.5673614 C87.5855602,17.286792 87.6401142,18.0130418 87.6401142,18.7529301 C87.6401142,19.4928185 87.5855602,20.2190683 87.5020245,20.9367941 L81.9443379,22.6825214 Z M68.8871841,11.9336828 C65.1212547,11.9336828 62.0679368,14.9870008 62.0679368,18.7529301 C62.0679368,22.5188595 65.1212547,25.5721775 68.8871841,25.5721775 C72.6531134,25.5721775 75.7064314,22.5188595 75.7064314,18.7529301 C75.7064314,14.9870008 72.6531134,11.9336828 68.8871841,11.9336828 Z" id="Shape"></path>
                    <path d="M95.7192175,61.1533052 C95.4566765,62.0994758 95.0867323,62.9962068 94.6127946,63.8332694 L96.3090824,67.4031454 C95.5385074,68.3868218 94.6537101,69.2716191 93.6700337,70.0421941 L90.1001577,68.3459063 C89.2647999,68.819844 88.3663641,69.1897882 87.4201935,69.4523292 L86.0938499,73.1824575 C85.4818224,73.2574692 84.8629757,73.3069087 84.2304906,73.3069087 C83.5980054,73.3069087 82.9791587,73.2574692 82.3671312,73.1824575 L81.0407876,69.4523292 C80.0946171,69.1897882 79.197886,68.819844 78.3608234,68.3459063 L74.7909474,70.0421941 C73.807271,69.2716191 72.9224737,68.3868218 72.1518987,67.4031454 L73.8481865,63.8332694 C73.3742488,62.9979116 73.0043046,62.0994758 72.7417636,61.15501 L69.0116353,59.8286664 C68.9366236,59.2149342 68.8871841,58.5960875 68.8871841,57.9636023 C68.8871841,57.3311171 68.9366236,56.7122704 69.0116353,56.1002429 L72.7417636,54.7738993 C73.0043046,53.8277288 73.3742488,52.9309977 73.8481865,52.0956399 L72.1518987,48.525764 C72.9224737,47.5420875 73.807271,46.6572902 74.7909474,45.8867153 L78.3608234,47.583003 C79.1961812,47.1090653 80.0946171,46.7391212 81.0407876,46.4765801 L82.3671312,42.7464519 C82.9791587,42.6697353 83.5980054,42.6202958 84.2304906,42.6202958 C84.8629757,42.6202958 85.4818224,42.6697353 86.0938499,42.744747 L87.4201935,46.4748753 C88.3663641,46.7374164 89.2630951,47.1073605 90.1001577,47.5812982 L93.6700337,45.8850104 C94.6537101,46.6555854 95.5385074,47.5403827 96.3090824,48.5240592 L94.6127946,52.0939351 C95.0867323,52.9292929 95.4566765,53.8277288 95.7192175,54.7738993 L99.4493458,56.1002429 C99.5243575,56.7122704 99.573797,57.3311171 99.573797,57.9636023 C99.573797,58.5960875 99.5243575,59.2149342 99.4493458,59.8269616 L95.7192175,61.1533052 Z M84.2304906,52.8491668 C81.4056174,52.8491668 79.1160551,55.1387291 79.1160551,57.9636023 C79.1160551,60.7884755 81.4056174,63.0780378 84.2304906,63.0780378 C87.0553638,63.0780378 89.3449261,60.7884755 89.3449261,57.9636023 C89.3449261,55.1387291 87.0553638,52.8491668 84.2304906,52.8491668 Z" id="Shape"></path>
                </g>
            </g>
        </g>
    </g>
</svg>