<?xml version="1.0" encoding="UTF-8"?>
<svg width="100px" height="100px" viewBox="0 0 100 100" version="1.1" xmlns="http://www.w3.org/2000/svg" xmlns:xlink="http://www.w3.org/1999/xlink">
    <title>svg copy</title>
    <defs>
        <filter id="filter-1">
            <feColorMatrix in="SourceGraphic" type="matrix" values="0 0 0 0 1.000000 0 0 0 0 1.000000 0 0 0 0 1.000000 0 0 0 1.000000 0"></feColorMatrix>
        </filter>
    </defs>
    <g id="Page-1" stroke="none" stroke-width="1" fill="none" fill-rule="evenodd">
        <g id="All-icons-Copy" transform="translate(-184.000000, -444.000000)">
            <g id="svg-copy" transform="translate(184.000000, 444.000000)" filter="url(#filter-1)">
                <g id="svg" fill="#000000" fill-rule="nonzero">
                    <path d="M8.09821429,71.6964286 C7.40089312,70.999318 6.27053545,70.999318 5.57321429,71.6964286 L0.523214286,76.7482143 C0.187898143,77.0831577 -0.000511892857,77.5376621 -0.000511892857,78.0116071 C-0.000511892857,78.4855521 0.187898143,78.9400566 0.523214286,79.275 L1.78571429,80.5357143 L9.3625,72.9589286 L8.09821429,71.6964286 Z" id="Shape"></path>
                    <polygon id="Rectangle-path" transform="translate(9.982768, 81.160011) rotate(-45.000000) translate(-9.982768, -81.160011) " points="4.62643399 78.4818438 15.3391017 78.4818438 15.3391017 83.8381776 4.62643399 83.8381776"></polygon>
                    <path d="M18.2,81.8 L10.6232143,89.375 L20.725,99.4767857 C21.4312161,100.152076 22.5437839,100.152076 23.25,99.4767857 L28.3035714,94.4267857 C29.000682,93.7294645 29.000682,92.599107 28.3035714,91.9017857 L18.2,81.8 Z" id="Shape"></path>
                    <path d="M48.5053571,61.5964286 C45.8884202,64.2340162 41.6864014,64.4248673 38.8411396,62.0353666 C35.9958779,59.6458659 35.45767,55.4740896 37.6033162,52.4407036 C39.7489625,49.4073175 43.8618321,48.5254511 47.0625,50.4125 L65.7142857,31.7642857 L38.3571429,37.5660714 C33.5655711,38.5701246 29.4986011,41.7151164 27.3214286,46.1 L14.0607143,72.6089286 L15.6678571,74.2160714 L18.1928571,71.6892857 C18.6412045,71.2250775 19.3051391,71.0389061 19.9294773,71.2023264 C20.5538157,71.365747 21.0413959,71.8533271 21.2048164,72.4776655 C21.3682368,73.1020037 21.1820654,73.7659384 20.7178571,74.2142857 L18.1928571,76.7410714 L23.2446429,81.7928571 L25.7714286,79.2678571 C26.4721052,78.5911211 27.5858657,78.6007993 28.2746761,79.2896096 C28.9634864,79.97842 28.9731646,81.0921805 28.2964286,81.7928571 L25.7696429,84.3178571 L27.3767857,85.925 L53.9,72.6785714 C58.2857436,70.500653 61.4308707,66.432192 62.4339286,61.6392857 L68.2357143,34.2857143 L49.5875,52.9375 C51.2366957,55.7342968 50.7921336,59.291527 48.5053571,61.5964286 L48.5053571,61.5964286 Z" id="Shape"></path>
                    <path d="M40.9285714,54.0196429 C39.7175084,55.2251584 39.5271321,57.1184709 40.4739434,58.540965 C41.4207548,59.9634591 43.2408309,60.5186155 44.8203734,59.8667054 C46.3999157,59.2147954 47.2986282,57.5375382 46.9665423,55.8613341 C46.6344562,54.18513 45.1641405,52.9772196 43.4553571,52.9767828 C42.5081266,52.975567 41.5992104,53.3506955 40.9285714,54.0196429 L40.9285714,54.0196429 Z" id="Shape"></path>
                    <path d="M98.2142857,69.6428571 L96.2196429,69.6428571 C95.1192498,55.1728639 89.6498882,41.3783404 80.5357143,30.0857143 C83.0536189,26.4913739 82.5815675,21.5992566 79.4228641,18.552665 C76.2641609,15.5060735 71.3581846,15.2110452 67.8571429,17.8571429 C56.9579986,9.67853027 43.9454466,4.79076789 30.3571429,3.77142857 L30.3571429,1.78571429 C30.3571429,0.799491518 29.5576513,0 28.5714286,0 L21.4285714,0 C20.4423488,0 19.6428571,0.799491518 19.6428571,1.78571429 L19.6428571,8.92857143 C19.6428571,9.9147942 20.4423488,10.7142857 21.4285714,10.7142857 L28.5714286,10.7142857 C29.5576513,10.7142857 30.3571429,9.9147942 30.3571429,8.92857143 L30.3571429,7.35892857 C43.0724316,8.364037 55.2463179,12.935511 65.4803571,20.5482143 C64.1159814,22.9026325 63.9086032,25.7532616 64.9178571,28.2803571 L65.4892857,28.1607143 C67.14044,27.800697 68.8643095,28.2493993 70.1304043,29.3687414 C71.3964991,30.4880836 72.0531239,32.143953 71.8982143,33.8267857 C72.3338587,33.89256 72.7737084,33.9265782 73.2142857,33.9285714 C74.8874377,33.9326479 76.5275245,33.462725 77.9446429,32.5732143 C86.4346296,43.1851687 91.5526343,56.0961732 92.6392857,69.6428571 L91.0714286,69.6428571 C90.0852059,69.6428571 89.2857143,70.4423487 89.2857143,71.4285714 L89.2857143,78.5714286 C89.2857143,79.5576512 90.0852059,80.3571429 91.0714286,80.3571429 L98.2142857,80.3571429 C99.2005084,80.3571429 100,79.5576512 100,78.5714286 L100,71.4285714 C100,70.4423487 99.2005084,69.6428571 98.2142857,69.6428571 Z" id="Shape"></path>
                </g>
            </g>
        </g>
    </g>
</svg>