<?xml version="1.0" encoding="UTF-8"?>
<svg width="94px" height="30px" viewBox="0 0 94 30" version="1.1" xmlns="http://www.w3.org/2000/svg" xmlns:xlink="http://www.w3.org/1999/xlink">
    <title>template-engine copy</title>
    <defs>
        <filter id="filter-1">
            <feColorMatrix in="SourceGraphic" type="matrix" values="0 0 0 0 1.000000 0 0 0 0 1.000000 0 0 0 0 1.000000 0 0 0 1.000000 0"></feColorMatrix>
        </filter>
    </defs>
    <g id="Page-1" stroke="none" stroke-width="1" fill="none" fill-rule="evenodd">
        <g id="All-icons-Copy" transform="translate(-625.000000, -226.000000)">
            <g id="template-engine-copy" transform="translate(622.000000, 191.000000)" filter="url(#filter-1)">
                <g id="template-engine">
                    <g id="background" transform="translate(0.837227, 0.837227)">
                        <rect id="canvas_background" x="0" y="0" width="98.3255452" height="98.3255452"></rect>
                    </g>
                    <g id="Layer-1" transform="translate(3.125000, 35.416667)" fill="#000000" fill-rule="nonzero" stroke="#000000" stroke-width="0.5">
                        <g id="svg_35" transform="translate(0.903248, 0.476461)">
                            <g id="svg_30" transform="translate(45.960785, 14.126930) scale(-1, 1) rotate(-180.000000) translate(-45.960785, -14.126930) translate(0.012411, 0.058979)">
                                <path d="M29.6206378,27.3979105 C26.760241,26.4617806 23.6398081,24.6935353 19.8952886,21.8851457 C14.8505888,17.9846046 11.8341703,16.5804098 8.19366529,16.5284026 C4.34513139,16.4243882 2.83692216,17.6725613 2.94093659,20.8970086 C3.04495102,23.4453622 2.21283558,23.3933549 0.860647999,20.7929942 C-2.72784982,13.720013 5.64531176,3.63061332 17.5029567,0.770216502 C26.8642554,-1.41408652 39.6580302,1.65433915 44.1306507,7.16710392 C44.8587517,8.10323379 45.6908672,8.88334201 45.898896,8.88334201 C46.1069249,8.88334201 46.9910475,8.10323379 47.7711557,7.21911114 C52.8158556,1.55032472 65.1415655,-1.41408652 74.5028642,0.770216502 C87.2446318,3.83864217 95.4617717,14.8641717 90.3650647,21.9891601 C89.2209059,23.653391 88.0767472,24.0174415 88.9088627,22.4572251 C89.7409781,20.8450014 89.5329492,19.4408066 88.2327689,17.9325974 C87.1406173,16.6844242 86.6205452,16.5284026 83.8641628,16.5284026 C80.2236578,16.5804098 77.2592465,17.9325974 72.2145467,21.7811313 C65.8696665,26.6178023 62.125147,28.1260115 56.560375,28.1260115 C52.4518051,28.1260115 50.2675021,27.293896 47.8751702,24.7975497 L46.0549177,22.92529 L44.3386796,24.7455425 C43.4025497,25.7336796 41.790326,26.8778383 40.7501817,27.3459033 C38.5138715,28.2820331 32.325013,28.3340403 29.6206378,27.3979105 Z" id="svg_31"></path>
                            </g>
                        </g>
                    </g>
                </g>
            </g>
        </g>
    </g>
</svg>