<svg height="512" viewBox="0 0 24 24" width="512" xmlns="http://www.w3.org/2000/svg"><path d="M6.75 18a.75.75 0 01-.53-1.281L8.939 14l-2.72-2.72a.75.75 0 111.061-1.061l3.25 3.25a.75.75 0 010 1.061l-3.25 3.25a.744.744 0 01-.53.22zM17.25 18h-4.5a.75.75 0 010-1.5h4.5a.75.75 0 010 1.5z"/><path d="M21.25 23H2.75A2.752 2.752 0 010 20.25V3.75A2.752 2.752 0 012.75 1h18.5A2.752 2.752 0 0124 3.75v16.5A2.752 2.752 0 0121.25 23zM2.75 2.5c-.689 0-1.25.561-1.25 1.25v16.5c0 .689.561 1.25 1.25 1.25h18.5c.689 0 1.25-.561 1.25-1.25V3.75c0-.689-.561-1.25-1.25-1.25z"/><path d="M23.25 6H.75a.75.75 0 010-1.5h22.5a.75.75 0 010 1.5z"/></svg>
