<svg width="200" height="200" xmlns="http://www.w3.org/2000/svg">
 <!-- Created with Method Draw - http://github.com/duopixel/Method-Draw/ -->

 <g>
  <title>background</title>
  <rect fill="none" id="canvas_background" height="202" width="202" y="-1" x="-1"/>
  <g display="none" overflow="visible" y="0" x="0" height="100%" width="100%" id="canvasGrid">
   <rect fill="url(#gridpattern)" stroke-width="0" y="0" x="0" height="100%" width="100%"/>
  </g>
 </g>
 <g>
  <title>Layer 1</title>
  <!-- Generator: Sketch 59 (86127) - https://sketch.com -->
  <desc transform="matrix(0.4444444709353981,0,0,0.4444444709353981,0,0) ">Created with Sketch.</desc>
  <style transform="matrix(0.4444444709353981,0,0,0.4444444709353981,0,0) " type="text/css">.st0{fill-rule:evenodd;clip-rule:evenodd;}
	.st1{clip-path:url(#XMLID_6_);}
	.st2{opacity:0.66;}</style>
  <g stroke="null" id="svg_90">
   <rect stroke="null" x="1347.232301" y="1370.438674" transform="matrix(0.7435981707485605,0,0,0.7435981707485605,-996.9801055800488,-996.8889887801424) " id="svg_88" rx="5" height="209.342" width="256"/>
   <path stroke="null" id="svg_89" fill="#FFF" d="m25.819325,38.357809c-0.635776,-0.63652 -1.403913,-0.95478 -2.303667,-0.95478s-1.670121,0.321234 -2.31259,0.963703c-0.633546,0.633546 -0.95478,1.403913 -0.95478,2.303667s0.321234,1.670865 0.95478,2.303667l9.995447,9.995447l-9.986523,9.986523c-0.642469,0.642469 -0.963703,1.412837 -0.972626,2.31259c0.008923,0.899754 0.330158,1.670865 0.963703,2.303667c0.642469,0.633546 1.412837,0.95478 2.303667,0.963703c0.908677,0 1.679788,-0.321234 2.322257,-0.963703l11.105639,-11.114562c2.33118,-2.322257 2.33118,-4.653437 0,-6.985361l-11.115305,-11.114562zm43.533955,24.616074c-0.642469,-0.642469 -1.422503,-0.963703 -2.33118,-0.963703l0,-0.004462l-21.44091,0l0,0.004462c-0.908677,0 -1.680532,0.321234 -2.322257,0.963703c-0.642469,0.642469 -0.963703,1.41358 -0.963703,2.322257c0,0.908677 0.321234,1.688711 0.963703,2.33118c0.642469,0.642469 1.412837,0.963703 2.322257,0.963703l0,-0.004462l21.440166,0l0,0.004462c0.908677,0 1.687968,-0.321234 2.33118,-0.963703c0.642469,-0.642469 0.963703,-1.422503 0.963703,-2.33118c0,-0.908677 -0.321234,-1.679788 -0.963703,-2.322257l0.000744,0z"/>
  </g>
 </g>
</svg>