<svg width="200" height="200" xmlns="http://www.w3.org/2000/svg">
 <!-- Created with Method Draw - http://github.com/duopixel/Method-Draw/ -->

 <g>
  <title>background</title>
  <rect fill="none" id="canvas_background" height="202" width="202" y="-1" x="-1"/>
  <g display="none" overflow="visible" y="0" x="0" height="100%" width="100%" id="canvasGrid">
   <rect fill="url(#gridpattern)" stroke-width="0" y="0" x="0" height="100%" width="100%"/>
  </g>
 </g>
 <g>
  <title>Layer 1</title>
  <!-- Generator: Sketch 59 (86127) - https://sketch.com -->
  <desc transform="matrix(0.4444444709353981,0,0,0.4444444709353981,0,0) ">Created with Sketch.</desc>
  <style transform="matrix(0.4444444709353981,0,0,0.4444444709353981,0,0) " type="text/css">.st0{fill-rule:evenodd;clip-rule:evenodd;}
	.st1{clip-path:url(#XMLID_6_);}
	.st2{opacity:0.66;}</style>
  <g stroke="null" id="svg_113">
   <g stroke="null" transform="matrix(0.3802353886855533,0,0,0.3802353886855533,-2145.7196507460985,-2145.157188875494) " id="svg_95">
    <g stroke="null" id="svg_96">
     <path stroke="null" id="svg_97" d="m6162.129541,5739.488234c-19.04,8.352 -39.328,13.888 -60.48,16.576c21.76,-12.992 38.368,-33.408 46.176,-58.016c-20.288,12.096 -42.688,20.64 -66.56,25.408c-19.264,-20.512 -46.72,-33.216 -76.672,-33.216c-58.112,0 -104.896,47.168 -104.896,104.992c0,8.32 0.704,16.32 2.432,23.936c-87.264,-4.256 -164.48,-46.08 -216.352,-109.792c-9.056,15.712 -14.368,33.696 -14.368,53.056c0,36.352 18.72,68.576 46.624,87.232c-16.864,-0.32 -33.408,-5.216 -47.424,-12.928c0,0.32 0,0.736 0,1.152c0,51.008 36.384,93.376 84.096,103.136c-8.544,2.336 -17.856,3.456 -27.52,3.456c-6.72,0 -13.504,-0.384 -19.872,-1.792c13.6,41.568 52.192,72.128 98.08,73.12c-35.712,27.936 -81.056,44.768 -130.144,44.768c-8.608,0 -16.864,-0.384 -25.12,-1.44c46.496,29.984 101.6,47.104 161.024,47.104c193.152,0 298.752,-160 298.752,-298.688c0,-4.64 -0.16,-9.12 -0.384,-13.568c20.832,-14.784 38.336,-33.248 52.608,-54.496z"/>
    </g>
   </g>
   <g stroke="null" transform="matrix(0.3802353886855533,0,0,0.3802353886855533,-2145.7196507460985,-2145.157188875494) " id="svg_98"/>
   <g stroke="null" transform="matrix(0.3802353886855533,0,0,0.3802353886855533,-2145.7196507460985,-2145.157188875494) " id="svg_99"/>
   <g stroke="null" transform="matrix(0.3802353886855533,0,0,0.3802353886855533,-2145.7196507460985,-2145.157188875494) " id="svg_100"/>
   <g stroke="null" transform="matrix(0.3802353886855533,0,0,0.3802353886855533,-2145.7196507460985,-2145.157188875494) " id="svg_101"/>
   <g stroke="null" transform="matrix(0.3802353886855533,0,0,0.3802353886855533,-2145.7196507460985,-2145.157188875494) " id="svg_102"/>
   <g stroke="null" transform="matrix(0.3802353886855533,0,0,0.3802353886855533,-2145.7196507460985,-2145.157188875494) " id="svg_103"/>
   <g stroke="null" transform="matrix(0.3802353886855533,0,0,0.3802353886855533,-2145.7196507460985,-2145.157188875494) " id="svg_104"/>
   <g stroke="null" transform="matrix(0.3802353886855533,0,0,0.3802353886855533,-2145.7196507460985,-2145.157188875494) " id="svg_105"/>
   <g stroke="null" transform="matrix(0.3802353886855533,0,0,0.3802353886855533,-2145.7196507460985,-2145.157188875494) " id="svg_106"/>
   <g stroke="null" transform="matrix(0.3802353886855533,0,0,0.3802353886855533,-2145.7196507460985,-2145.157188875494) " id="svg_107"/>
   <g stroke="null" transform="matrix(0.3802353886855533,0,0,0.3802353886855533,-2145.7196507460985,-2145.157188875494) " id="svg_108"/>
   <g stroke="null" transform="matrix(0.3802353886855533,0,0,0.3802353886855533,-2145.7196507460985,-2145.157188875494) " id="svg_109"/>
   <g stroke="null" transform="matrix(0.3802353886855533,0,0,0.3802353886855533,-2145.7196507460985,-2145.157188875494) " id="svg_110"/>
   <g stroke="null" transform="matrix(0.3802353886855533,0,0,0.3802353886855533,-2145.7196507460985,-2145.157188875494) " id="svg_111"/>
   <g stroke="null" transform="matrix(0.3802353886855533,0,0,0.3802353886855533,-2145.7196507460985,-2145.157188875494) " id="svg_112"/>
  </g>
 </g>
</svg>