<?xml version="1.0" encoding="UTF-8"?>
<svg width="100px" height="82px" viewBox="0 0 100 82" version="1.1" xmlns="http://www.w3.org/2000/svg" xmlns:xlink="http://www.w3.org/1999/xlink">
    <title>twitter copy</title>
    <defs>
        <filter id="filter-1">
            <feColorMatrix in="SourceGraphic" type="matrix" values="0 0 0 0 1.000000 0 0 0 0 1.000000 0 0 0 0 1.000000 0 0 0 1.000000 0"></feColorMatrix>
        </filter>
    </defs>
    <g id="Page-1" stroke="none" stroke-width="1" fill="none" fill-rule="evenodd">
        <g id="All-icons-Copy" transform="translate(-34.000000, -454.000000)">
            <g id="twitter-copy" transform="translate(34.000000, 454.000000)" filter="url(#filter-1)">
                <g id="twitter" fill="#000000" fill-rule="nonzero">
                    <path d="M100,9.61875 C96.28125,11.25 92.31875,12.33125 88.1875,12.85625 C92.4375,10.31875 95.68125,6.33125 97.20625,1.525 C93.24375,3.8875 88.86875,5.55625 84.20625,6.4875 C80.44375,2.48125 75.08125,0 69.23125,0 C57.88125,0 48.74375,9.2125 48.74375,20.50625 C48.74375,22.13125 48.88125,23.69375 49.21875,25.18125 C32.175,24.35 17.09375,16.18125 6.9625,3.7375 C5.19375,6.80625 4.15625,10.31875 4.15625,14.1 C4.15625,21.2 7.8125,27.49375 13.2625,31.1375 C9.96875,31.075 6.7375,30.11875 4,28.6125 C4,28.675 4,28.75625 4,28.8375 C4,38.8 11.10625,47.075 20.425,48.98125 C18.75625,49.4375 16.9375,49.65625 15.05,49.65625 C13.7375,49.65625 12.4125,49.58125 11.16875,49.30625 C13.825,57.425 21.3625,63.39375 30.325,63.5875 C23.35,69.04375 14.49375,72.33125 4.90625,72.33125 C3.225,72.33125 1.6125,72.25625 -1.11022302e-14,72.05 C9.08125,77.90625 19.84375,81.25 31.45,81.25 C69.175,81.25 89.8,50 89.8,22.9125 C89.8,22.00625 89.76875,21.13125 89.725,20.2625 C93.79375,17.375 97.2125,13.76875 100,9.61875 Z" id="Path"></path>
                </g>
            </g>
        </g>
    </g>
</svg>