<svg width="200" height="200" xmlns="http://www.w3.org/2000/svg">
 <!-- Created with Method Draw - http://github.com/duopixel/Method-Draw/ -->

 <g>
  <title>background</title>
  <rect fill="none" id="canvas_background" height="202" width="202" y="-1" x="-1"/>
  <g display="none" overflow="visible" y="0" x="0" height="100%" width="100%" id="canvasGrid">
   <rect fill="url(#gridpattern)" stroke-width="0" y="0" x="0" height="100%" width="100%"/>
  </g>
 </g>
 <g>
  <title>Layer 1</title>
  <!-- Generator: Sketch 59 (86127) - https://sketch.com -->
  <desc transform="matrix(0.4444444709353981,0,0,0.4444444709353981,0,0) ">Created with Sketch.</desc>
  <style transform="matrix(0.4444444709353981,0,0,0.4444444709353981,0,0) " type="text/css">.st0{fill-rule:evenodd;clip-rule:evenodd;}
	.st1{clip-path:url(#XMLID_6_);}
	.st2{opacity:0.66;}</style>
  <style transform="matrix(0.08041040204684524,0,0,0.08041040204684524,0,0) ">.st0{fill:#0179cb}</style>
  <g stroke="null" id="svg_119">
   <path stroke="null" id="svg_118" d="m72.375215,121.599795l-47.544149,37.051647l-20.739086,-10.328557l0,-96.563807l20.657113,-10.410529l47.216259,37.13362l74.759076,-74.841049l49.183603,19.591468l0,153.206923l-48.937685,19.919359l-74.595131,-74.759076zm72.873705,13.033655l0,-69.266907l-44.757079,34.67444l44.757079,34.592467zm-118.778401,-12.459846l23.526157,-21.394867l-23.526157,-23.444184l0,44.839051z" class="st0"/>
  </g>
 </g>
</svg>