<svg width="200" height="200" xmlns="http://www.w3.org/2000/svg" style="vector-effect: non-scaling-stroke;" stroke="null">
 <!-- Created with Method Draw - http://github.com/duopixel/Method-Draw/ -->

 <g stroke="null">
  <title stroke="null">background</title>
  <rect stroke="null" fill="none" id="canvas_background" height="202" width="202" y="-1" x="-1"/>
  <g style="vector-effect: non-scaling-stroke;" stroke="null" display="none" overflow="visible" y="0" x="0" height="100%" width="100%" id="canvasGrid">
   <rect stroke="null" fill="url(#gridpattern)" stroke-width="0" y="0" x="0" height="100%" width="100%"/>
  </g>
 </g>
 <g stroke="null">
  <title stroke="null">Layer 1</title>
  <!-- Generator: Sketch 59 (86127) - https://sketch.com -->
  <desc style="vector-effect: non-scaling-stroke;" stroke="null" transform="matrix(0.4444444709353981,0,0,0.4444444709353981,0,0) ">Created with Sketch.</desc>
  <style style="vector-effect: non-scaling-stroke;" stroke="null" transform="matrix(0.4444444709353981,0,0,0.4444444709353981,0,0) " type="text/css">.st0{fill-rule:evenodd;clip-rule:evenodd;}
	.st1{clip-path:url(#XMLID_6_);}
	.st2{opacity:0.66;}</style>
  <style style="vector-effect: non-scaling-stroke;" stroke="null" transform="matrix(0.08041040204684524,0,0,0.08041040204684524,0,0) ">.st0{fill:#0179cb}</style>
  <style style="vector-effect: non-scaling-stroke;" stroke="null" transform="matrix(0.0007111111455493507,0,0,0.0007111111455493507,0,0) " type="text/css">.st0{fill:#333333;}</style>
  <style style="vector-effect: non-scaling-stroke;" stroke="null" transform="matrix(0.0007111111455493507,0,0,0.0007111111455493507,0,0) " type="text/css">.st0{fill:#333333;}</style>
  <style style="vector-effect: non-scaling-stroke;" stroke="null" transform="matrix(0.0007111111455493507,0,0,0.0007111111455493507,0,0) " type="text/css">.st0{fill:#333333;}</style>
  <!-- Generator: Sketch 59 (86127) - https://sketch.com -->
  <desc transform="matrix(0.4444424841160668,0,0,0.4444424841160668,0,0) ">Created with Sketch.</desc>
  <g stroke="null" id="svg_153">
   <g transform="matrix(1.9914276290230932,0,0,1.9914276290230932,-348.0731833154606,-348.0731717138091) " fill-rule="evenodd" fill="none" id="svg_147">
    <g stroke="null" fill-rule="nonzero" fill="#000000" id="svg_148">
     <g stroke="null" transform="rotate(-180 225.09524536132812,224.66233825683594) translate(49.931739807128906,49.855072021484375) scale(-1,1) translate(-49.931739807128906,-49.855072021484375) translate(0.10238900035619736,0.03623199835419655) " id="svg_149">
      <path stroke="null" id="svg_151" d="m-142.650899,273.369819c-4.300341,-1.086957 -9.249147,-4.565217 -15.358362,-10.724638c-3.515358,-3.586956 -3.686007,-3.804347 -3.993174,-5.724637c-0.648464,-3.695653 -3.071672,-6.268116 -6.450512,-6.847826c-1.569966,-0.253624 -2.081911,-0.57971 -3.856655,-2.427537c-2.28669,-2.391304 -3.139932,-4.057971 -2.832765,-5.57971c0.136519,-0.615942 1.433447,-2.282609 3.37884,-4.311594c3.003413,-3.115942 3.27645,-3.297101 4.641638,-3.297101c1.331058,0 1.638225,0.217391 4.095563,2.753623c2.25256,2.31884 2.730376,3.007246 2.901024,4.275362c0.682594,4.456522 4.539249,7.536232 8.259386,6.594203c0.648464,-0.181159 3.856655,-3.405797 10,-10.036232l9.044368,-9.782609l3.310581,3.550725l3.34471,3.550725l-8.805461,9.057971c-4.812287,4.963768 -9.078498,9.492753 -9.419795,10.108695c-1.604096,2.536232 -0.307168,6.739131 3.037542,9.927537c4.129693,3.913043 8.532423,5.217391 12.525598,3.804347l1.979522,-0.724637l0.716723,0.833333l0.682594,0.797102l-1.160409,0.942028c-2.457338,1.992754 -8.498294,3.876812 -12.25256,3.804348c-0.989761,0 -2.696246,-0.253623 -3.788396,-0.543478z"/>
      <path stroke="null" id="svg_150" d="m-97.463186,272.464022c-4.47099,-0.905797 -8.498293,-4.202899 -10.546075,-8.623188c-1.228669,-2.608696 -1.262798,-2.862319 -1.262798,-6.52174c0,-2.101449 0.068259,-4.202898 0.170648,-4.637681c0.136519,-0.688405 -3.242321,-4.456522 -21.12628,-23.442029l-21.262799,-22.608695l-1.228668,0.362318c-0.682594,0.217392 -2.662116,0.289856 -4.368601,0.217392c-2.764505,-0.108696 -3.412969,-0.289855 -5.665529,-1.485508c-5.494881,-2.862318 -8.94198,-9.347826 -8.259386,-15.615941l0.204778,-2.10145l4.334471,4.565218l4.334471,4.601449l4.402731,-0.905797c2.423208,-0.507247 4.505119,-1.050725 4.607508,-1.195652c0.136519,-0.18116 0.648464,-2.391305 1.16041,-5l0.921501,-4.673913l-4.33447,-4.60145l-4.300342,-4.565217l1.843004,-0.217391c6.006826,-0.76087 12.116041,2.862318 14.880546,8.768115c1.228669,2.608696 1.262798,2.862319 1.262798,6.52174c0,2.101449 -0.068259,4.202898 -0.170648,4.637681c-0.136519,0.688406 3.208191,4.42029 21.12628,23.442029l21.262798,22.608696l1.228669,-0.362319c0.682594,-0.217392 2.662116,-0.289855 4.368601,-0.217392c2.764505,0.108696 3.412969,0.289855 5.665529,1.485508c5.52901,2.89855 8.94198,9.420289 8.225256,15.760869l-0.204778,1.956522l-4.300341,-4.565217l-4.334471,-4.60145l-4.402731,0.978261c-2.457338,0.543478 -4.539249,1.086957 -4.709897,1.231884c-0.136519,0.144928 -0.648465,2.355073 -1.092151,4.927536l-0.853242,4.673913l4.300341,4.565218l4.300342,4.565217l-1.638226,0.253623c-1.911262,0.253624 -2.559727,0.253624 -4.539249,-0.181159z"/>
      <path stroke="null" id="Path" d="m-118.487077,219.964022l-4.709897,-5l17.167235,-18.623188c21.228669,-23.007247 19.931741,-21.666667 20.887372,-21.666667c1.023891,0 9.488175,8.913043 9.488175,10c0.03401,0.652174 -7.201485,8.369565 -29.044489,30.942029l-9.044368,9.384058l-4.744028,-5.036232z"/>
     </g>
    </g>
   </g>
  </g>
 </g>
</svg>