<svg viewBox="0 0 100 75" xmlns="http://www.w3.org/2000/svg" class="icon icon--css" fill="currentColor" width="200" height="200"><defs><filter id="a"><feColorMatrix in="SourceGraphic" values="0 0 0 0 1.000000 0 0 0 0 1.000000 0 0 0 0 1.000000 0 0 0 1.000000 0"/></filter></defs><g filter="url(#a)" fill="none" fill-rule="evenodd"><path d="M86.087 43.065c-3.497.02-6.525.86-9.065 2.11-.937-1.858-1.877-3.479-2.033-4.691-.176-1.41-.392-2.266-.176-3.947.216-1.681 1.192-4.067 1.192-4.263-.02-.176-.216-1.036-2.228-1.056-2.012-.02-3.752.392-3.944.916a23.246 23.246 0 00-.84 2.99c-.352 1.837-4.025 8.346-6.113 11.764-.684-1.329-1.268-2.502-1.388-3.438-.176-1.41-.392-2.266-.176-3.947.216-1.681 1.192-4.067 1.192-4.259-.02-.176-.216-1.036-2.228-1.057-2.013-.02-3.753.393-3.945.917-.196.528-.412 1.777-.84 2.99-.412 1.213-5.292 12.08-6.565 14.914a63.458 63.458 0 01-1.62 3.382c-.412.78-.02.06-.06.136l-.548 1.037v.02c-.272.488-.568.956-.704.956-.096 0-.292-1.308.04-3.106.724-3.77 2.48-9.654 2.46-9.87 0-.096.332-1.133-1.132-1.661-1.424-.528-1.932.352-2.052.352-.116 0-.216.312-.216.312s1.584-6.624-3.028-6.624c-2.893 0-6.877 3.146-8.85 6.02-1.248.684-3.908 2.13-6.72 3.674-1.076.585-2.188 1.213-3.244 1.777l-.217-.236C17.463 43.225 7.13 39.003 7.562 30.99c.156-2.914 1.172-10.59 19.846-19.897 15.294-7.62 27.543-5.531 29.671-.88 3.029 6.644-6.544 18.996-22.442 20.773-6.057.685-9.241-1.66-10.041-2.541-.84-.917-.956-.957-1.268-.78-.509.271-.196 1.092 0 1.584.468 1.233 2.42 3.418 5.744 4.515 2.909.957 10.021 1.485 18.614-1.837 9.63-3.734 17.15-14.093 14.942-22.75C60.38.365 45.77-2.53 31.956 2.374c-8.22 2.934-17.13 7.505-23.534 13.504C.8 22.996-.408 29.212.1 31.79c1.776 9.207 14.454 15.207 19.534 19.642-.252.136-.488.272-.704.392-2.54 1.249-12.21 6.312-14.63 11.668-2.736 6.06.428 10.419 2.54 11.003 6.525 1.817 13.206-1.445 16.819-6.82 3.592-5.376 3.164-12.353 1.504-15.539l-.06-.116 1.992-1.173c1.288-.76 2.56-1.465 3.672-2.073-.624 1.701-1.076 3.715-1.308 6.644-.272 3.439 1.132 7.898 2.989 9.655.82.76 1.796.78 2.404.78 2.148 0 3.124-1.777 4.2-3.91 1.328-2.598 2.5-5.608 2.5-5.608s-1.464 8.15 2.54 8.15c1.465 0 2.93-1.898 3.593-2.875v.02s.04-.06.116-.196c.08-.12.16-.244.236-.372v-.04c.584-1.017 1.897-3.342 3.849-7.193 2.52-4.963 4.94-11.179 4.94-11.179s.236 1.525.956 4.027c.428 1.485 1.369 3.106 2.089 4.69-.584.821-.936 1.29-.936 1.29l.02.02a54.442 54.442 0 01-1.545 1.953c-1.992 2.385-4.376 5.1-4.688 5.884-.372.916-.292 1.6.428 2.15.528.391 1.464.467 2.46.391 1.796-.116 3.049-.568 3.673-.84.976-.352 2.088-.88 3.164-1.661 1.952-1.445 3.144-3.498 3.028-6.236-.06-1.505-.548-2.99-1.152-4.4.176-.251.352-.508.528-.78 3.085-4.515 5.469-9.478 5.469-9.478s.236 1.525.956 4.027c.372 1.269 1.112 2.657 1.776 4.026-2.892 2.366-4.708 5.1-5.332 6.9-1.153 3.323-.253 4.828 1.444 5.18.76.156 1.856-.196 2.676-.548 1.016-.332 2.248-.9 3.38-1.741 1.953-1.445 3.829-3.458 3.733-6.176-.06-1.25-.392-2.482-.84-3.655 2.46-1.016 5.644-1.6 9.689-1.112 8.693 1.016 10.413 6.448 10.08 8.717-.331 2.266-2.147 3.519-2.755 3.91-.604.373-.8.51-.744.781.08.413.352.393.88.313.724-.116 4.572-1.858 4.728-6.04.236-5.368-4.864-11.232-13.905-11.176zM19.047 65.68c-2.872 3.146-6.917 4.339-8.633 3.322-1.856-1.076-1.132-5.707 2.404-9.05 2.149-2.033 4.94-3.91 6.777-5.063.412-.252 1.036-.624 1.776-1.077.116-.076.196-.116.196-.116.136-.08.292-.176.448-.272 1.309 4.771.06 8.954-2.968 12.256zm20.998-14.285c-.996 2.441-3.104 8.718-4.376 8.365-1.092-.292-1.756-5.043-.216-9.734.78-2.366 2.44-5.18 3.416-6.272 1.584-1.757 3.3-2.346 3.733-1.621.508.932-1.933 7.737-2.557 9.262zm17.326 8.285c-.428.216-.82.372-.996.256-.136-.08.176-.372.176-.372s2.169-2.325 3.029-3.402c.488-.624 1.076-1.349 1.7-2.17v.237c-.004 2.813-2.697 4.687-3.909 5.451zm13.362-3.05c-.312-.236-.272-.956.78-3.226.412-.9 1.348-2.405 2.968-3.83.196.584.312 1.152.292 1.68-.016 3.519-2.516 4.828-4.04 5.376z" fill="#000" fill-rule="nonzero"/></g></svg>