<svg xmlns="http://www.w3.org/2000/svg" viewBox="0 0 200 200" class="icon icon--design-system" fill="currentColor" width="200" height="200"><path fill="none" d="M-1-1h202v202H-1z"/><g><g stroke="null"><path d="M79.315 173.89a11.611 11.611 0 004.494 7.118 12.168 12.168 0 012.664 2.863 3.857 3.857 0 01.895 2.426 1.988 1.988 0 001.093 1.988 9.404 9.404 0 001.989 1.213 5.13 5.13 0 012.803 2.744 43.742 43.742 0 002.127 3.976 3.599 3.599 0 01.517 1.551 1.292 1.292 0 01-1.113 1.61 17.099 17.099 0 01-7.595-1.053c-.14-.298-.537-.457-1.233-.477a4.812 4.812 0 01-3.559-3.34 3.161 3.161 0 01.239-2.406c.497-.994.358-1.213-.716-1.233-2.525 0-2.963-.577-3.738-3.38a32.23 32.23 0 00-6.402-12.327 96.124 96.124 0 00-1.889-2.128 5.448 5.448 0 01.278-8.51c.955-.258 1.293-1.093 1.75-1.829l3.54-3.857a10.339 10.339 0 001.013-1.292c.795-1.213.616-1.75-.616-2.426a13.083 13.083 0 01-5.09-5.309 21.453 21.453 0 01-2.744-11.114 4.99 4.99 0 000-2.167 46.505 46.505 0 01.537-5.965 15.071 15.071 0 00-4.533 5.706c-.299 0-.338-.198-.378-.417a7.655 7.655 0 011.312-2.883 12.705 12.705 0 00-1.988 2.883c-.199.318-.259.775-.716.895s-.239-.338-.14-.537.319-.776.359-1.213a16.105 16.105 0 00-4.275 8.49c-.199 0-.298-.16-.477-.14l-.318.358a29.605 29.605 0 00-2.167 6.442c-.1.358 0 .816-.458 1.034-.139 0-.179-.298-.298-.318s0 0 0 0 .278 0 .318.219a22.17 22.17 0 01-.736 3.26c-.596 0-.119-.616-.357-.854s.338-.497 0-.895a46.983 46.983 0 01-3.56 5.865 10.756 10.756 0 01-2.107 2.943l-.676.318a3.639 3.639 0 01-.954.497 29.923 29.923 0 01-8.67 5.349c-.834 0-.337-.657-.556-.955a19.107 19.107 0 013.221-2.445l.278-.22c-.159 0-.278.18-.437.28a29.227 29.227 0 01-3.738 1.988 1.292 1.292 0 01-.934.178c-.637-.556-1.233.18-1.83 0l-3.022.458c-.298 0-.596.199-.815-.16s-.338-.218-.557-.158-.715.318-1.093.119-.537.278-.835.199a6.8 6.8 0 01-2.287 0h-.358c0-.517.438-.219.696-.239h.517c.378-.139.795 0 1.173-.139h.398c.199-.159 0-.258 0-.358a9.365 9.365 0 00-1.67 0 2.744 2.744 0 01-2.326-1.133.378.378 0 01.477-.239 2.127 2.127 0 002.624-.855c.199-.377.676.12.875-.278a32.647 32.647 0 004.474-2.644c.119 0 .377-.16.179-.398s-.875-.14-1.293-.278-.397-.557-.378-1.094a2.923 2.923 0 003.718 0 15.906 15.906 0 002.883-2.744l.358-.517a7.794 7.794 0 011.114-1.77 2.525 2.525 0 00.517-.814v-.637c2.227-2.386 2.922-5.587 4.493-8.31 0-.12.12-.26 0-.359s-.179 0-.258 0l-.577.498c-.238 0-.318 0-.278-.259 4.135-4.493 8.231-8.967 13.918-11.611a54.697 54.697 0 0016.641-11.453c.418 0 .497-.358.676-.636 1.452-2.207 2.207-4.832 4.136-6.76a12.268 12.268 0 013.817-2.664c7.496-3.162 12.964-8.749 18.034-14.853a45.293 45.293 0 006.6-9.941 9.206 9.206 0 00-.476-7.953 15.011 15.011 0 01-2.863 5.965 17.338 17.338 0 00-.239-7.735 3.977 3.977 0 00-.577 1.71 41.515 41.515 0 010 5.448v.756c-.596-.378-.198-.915-.238-1.372V79.01a17.477 17.477 0 00-2.128 4.275.616.616 0 01-.397-.139 8.112 8.112 0 00-1.83 2.724c-.238 0-.397.258-.656.258-.755 0-1.173.637-1.65 1.094a2.147 2.147 0 01-1.65.815c2.903-1.79 3.022-4.732 3.36-7.615a.696.696 0 000-.596.954.954 0 00-.219.179L95.4 82.37c-.218 0-.358 0-.238-.259a1.392 1.392 0 01.238-1.054c0-.258 0-.258-.218-.238a9.941 9.941 0 01-1.989 1.988c-.179 0-.357 0-.218-.278a3.42 3.42 0 01.676-1.273c.218 0 .119-.12 0-.199.119-.636.238-1.272.338-1.988 0-.298 0-.497-.378-.378a.278.278 0 01-.239-.397 26.305 26.305 0 00.875-6.104c.1-.358.16-.756.259-1.114s.397-.656-.2-.815c-.198 0-.158-.278 0-.437l.22-.716a13.68 13.68 0 00-2.486 1.59c-.298.16-.437 0-.397-.258l.457-.437a1.988 1.988 0 01.616-.557h.16s-.16 0-.26.12a1.511 1.511 0 01-.755.317 38.214 38.214 0 00-5.17 3.34q-.397 0-.297-.298c.099-.397.775-.397.656-.954 0-.16-.299-.199-.378-.398v-.139a44.796 44.796 0 005.289-5.686c0-.318.218-.597.199-.935a.994.994 0 010-.417 1.253 1.253 0 01.437-.577 4.295 4.295 0 001.054-.934 20.857 20.857 0 004.076-6.204l.397-.875a2.982 2.982 0 00-1.431 1.352.636.636 0 01-.398.498l-.497.417c-.199 0-.378-.318-.577 0a2.803 2.803 0 00-.576.358 1.034 1.034 0 01-.617.278h-.178c-.338 0-.478.299-.756.358s-.437.298-.736.259-.656-.1-.974 0c-1.173.298-2.346.596-3.539.855-.278 0-.696.338-.835-.1s.378-.318.596-.457.995-.338 1.392-.716c1.352 0 1.352 0 1.372-1.054l.497-.696c0-.198-.139-.377 0-.576.418-.577 1.531-.338 1.511-1.372a.16.16 0 010-.259c.418-.974 1.59-1.332 1.988-2.326 0-.139-.278-.199-.178-.417.457-1.134 1.65-1.73 1.988-2.883 0-.259.378-.458.318-.895l-1.292.616c-.259 0-.498 0-.577.279l-2.505 1.63a1.988 1.988 0 01-1.313.338c-.139-.457.358-.318.438-.517-.298.278-.736 0-1.094.239a14.713 14.713 0 01-3.757.238.477.477 0 01.576-.258c.398-.14.835 0 1.213-.16a12.188 12.188 0 003.062-1.809c.238-.457.775-.616 1.093-.994a4.513 4.513 0 01.617-.616 1.55 1.55 0 00.497-.517c1.988-.855 2.604-2.624 3.658-4.493l-1.51.974c-.18.159-.339.358-.617.199l-.656.238c-.537-.12-.895.378-1.392.438a1.65 1.65 0 01-.418.119c-.596.219-1.193-.16-1.77 0a12.427 12.427 0 01-2.703-.08 1.392 1.392 0 00-1.094 0h0c-.616 0-1.272.398-1.79-.198.915-.517 1.99-.259 2.943-.676a8.172 8.172 0 003.122-1.73h0c.318-.915 1.292-.696 1.988-1.114.14-.099.458-.179.239-.437s-.278 0-.418 0a10.876 10.876 0 01-2.783 0c.338-.597.875-.16 1.312-.278s.795 0 1.173-.18a9.544 9.544 0 005.329-3.022h-.736a3.977 3.977 0 00-1.988 0 3.52 3.52 0 01-2.386-1.093c.1-.219.238-.338.497-.239a4.851 4.851 0 003.32-.497 15.449 15.449 0 01-6.86-2.783c1.174-.12 1.71.596 2.446.795a11.77 11.77 0 007.198-.477 32.409 32.409 0 004.752-2.247c.417-.238.636-.457.457-1.014-.258-.875-.338-1.79-.557-2.664 0-.259-.238-.457 0-.696a.696.696 0 01.816-.12 10.836 10.836 0 011.312.776 4.195 4.195 0 003.976.974 5.03 5.03 0 012.923-.119c.696.179 1.034-.14 1.253-.716s.437-1.073.636-1.61a3.579 3.579 0 01.895-1.491c.258-.239.497-.617.914-.458s.338.557.378.855 0 1.153 0 1.73c-.199.219 0 .477-.12.716s.18 0 0 0 .22-.1 0 0c.28.696.518 1.471 1.532.914.397-.139.198.418.457.438a3.658 3.658 0 003.141-1.233 67.183 67.183 0 008.65-10.935c.278-.418.596-.796.914-1.193.577 0 .696.397.477.775s-.159 1.193-.855 1.63c-.397.24 0 1.174 0 1.77l-4.732 9.663a4.93 4.93 0 00-.716 1.61l1.293.12c.377.318 1.014-.298 1.292.378l-1.75.119c0 .497.955.358.915.974 0 .14-.219 0-.278.12s.198 0 .278-.12h.398c.278.497 1.014 1.074-.259 1.253-.517 0-.914-.398-1.55-.378a10.995 10.995 0 002.684 1.73 2.446 2.446 0 001.252.139.338.338 0 01.278 0l.597-.199c.219 0 .457-.159.497.219a3.38 3.38 0 01-1.988.716c-.2.338-.855-.299-.875.397.716.597 1.55.358 2.366.259 0 .576-.557.278-.656.696a99.075 99.075 0 0110.756 6.939c0 .198-.199.377-.477.298.16.199.338 0 .497 0a5.806 5.806 0 013.34 3.976 23.86 23.86 0 01-.178 5.21c-.259 2.266-1.591 2.982-3.977 3.718-.636 0-1.272-.239-1.988-.279s-1.213-.875-1.293-1.889a.974.974 0 01-1.411.299 3.658 3.658 0 00-3.142-.816 16.98 16.98 0 01-6.64 0c-.855-.198-1.452.597-2.565.657l3.837 1.968c6.82 3.977 10.478 10.18 12.963 17.338a4.553 4.553 0 003.241 4.612 34.317 34.317 0 013.758 2.406 5.19 5.19 0 012.505 4.573c0 1.273.18 2.545.239 3.818 0 .576.159.835.815.815a47.28 47.28 0 0014.673-2.605 5.329 5.329 0 014.713-.358c-.16.975.397 1.153 1.173 1.054a1.57 1.57 0 01.934.16l.477.258a1.511 1.511 0 00.676.596h0c.12.557 0 1.133 0 1.69.279-.258.18-.895.796-.795a3.32 3.32 0 01.994 2.664 35.57 35.57 0 00.696 9.941c0 .14 0 0 0 0a2.963 2.963 0 000 .418c0-.12 0-.239.139-.318a38.393 38.393 0 01.576 9.782 3.977 3.977 0 01-.894 2.207 57.222 57.222 0 00-3.977 6.422 13.142 13.142 0 01-3.976 4.494c-1.989 1.272-2.983.894-3.56-1.352a18.451 18.451 0 01-.298-7.596 3.579 3.579 0 012.386-2.405c1.989-.975 1.989-.975 1.492-2.983a1.272 1.272 0 000-1.073 2.704 2.704 0 01.795-1.61 3.977 3.977 0 00.954-3.023 39.765 39.765 0 00-.875-6.124 2.446 2.446 0 00-.715-1.988c-1.432-1.87-1.989-1.988-4.215-1.054-.955.398-1.85.954-2.784 1.451-.219 0-.358 0-.418.259a24.973 24.973 0 01-4.811 2.724 55.154 55.154 0 01-9.683 3.976 5.965 5.965 0 01-.855.12 2.147 2.147 0 00-.954 0c-.398 0-.239.258-.259.119s0 0 0 0 .398 0 .557.12a5.965 5.965 0 01-2.843-.24 18.431 18.431 0 005.865 6.661 50.184 50.184 0 004.832 2.665 3.778 3.778 0 012.246 3.559 8.828 8.828 0 001.293 5.09v1.988a3.201 3.201 0 01-.676 1.57 29.824 29.824 0 00-4.971 12.467 8.092 8.092 0 01-4.096 5.965c-3.22 1.829-6.362 3.817-9.762 5.348a5.289 5.289 0 01-1.988.616c-.975 0-1.61-.298-1.71-1.352a5.07 5.07 0 000-2.187 4.096 4.096 0 01.556-2.604 13.7 13.7 0 015.349-5.03 2.108 2.108 0 001.312 0 2.784 2.784 0 011.332.298c.418.179.477 0 .597-.338a2.465 2.465 0 000-1.73 4.334 4.334 0 011.372-3.52 12.884 12.884 0 003.976-9.523 7.158 7.158 0 00-4.434-6.8 27.24 27.24 0 00-6.6-1.77c-1.074-.198-2.228-.974-3.142-.556s-1.372 1.53-1.988 2.326a4.97 4.97 0 01-.478.437c-.417 0-.556.358-.656.716a41.276 41.276 0 01-11.055 8.45 38.652 38.652 0 01-12.287 4.375c-.298 0-.596 0-.398.497 1.989 4.354 1.193 8.847.816 13.36a19.147 19.147 0 01-6.303 12.248 4.851 4.851 0 00-1.173 2.506 10.935 10.935 0 00-.716 3.618c.14 1.213 1.59 1.77 2.465 2.605 2.764 2.585 5.568 5.13 8.371 7.694a.915.915 0 010 1.432c.437 0 .636-.537 1.094-.537a15.727 15.727 0 012.346 2.108 2.326 2.326 0 01.715 1.213 3.678 3.678 0 002.307 2.902 13.918 13.918 0 013.579 3.162c.815 1.014 1.77 1.988 2.644 2.922a5.507 5.507 0 011.193 1.81c.418 1.133 0 1.988-1.113 2.286a15.13 15.13 0 01-9.783-.656 4.295 4.295 0 01-2.704-4.116c0-1.47-.417-1.988-1.988-2.147a4.573 4.573 0 01-3.837-2.942 32.011 32.011 0 00-13.74-13.918 9.047 9.047 0 01-1.59-1.114 3.28 3.28 0 01-1.113-4.434c0-.159.12-.318.258-.775l-1.352 1.193a.616.616 0 00-.397.398 23.86 23.86 0 01-4.315 3.976c-2.187 1.65-3.52 3.54-2.724 6.402a.656.656 0 000 .378 1.61 1.61 0 010 .318s0-.278.14-.338z" fill="#20191b"/><path d="M171.233 149.136a4.533 4.533 0 00-3.241 2.685 12.844 12.844 0 00-1.332 4.692 6.362 6.362 0 01-.299 1.113c-.735-3.48-.835-7.297-5.13-8.748 4.315-1.412 4.375-5.21 5.19-8.689.16.875.278 1.77.437 2.645a9.941 9.941 0 001.61 3.976 4.195 4.195 0 002.944 1.988c.218.259-.02.279-.18.338z" fill="#1e191b"/><path d="M74.663 57.18a4.414 4.414 0 00-2.923 2.703 37.499 37.499 0 00-1.193 3.977c0 .14.12.378.199.576s-.16.378-.418.22a13.918 13.918 0 00-.715-3.739 5.23 5.23 0 00-3.838-3.976c3.122-1.014 3.977-3.42 4.315-6.064l.238-1.591c.577 0 .14.636.398.855a9.285 9.285 0 002.505 5.865 3.32 3.32 0 001.65.716c.16.298.02.358-.218.457zM118.245 4.41a8.927 8.927 0 00.796 3.202 4.295 4.295 0 003.062 2.883c-3.122.934-3.46 3.54-3.858 6.144-.417.119-.218-.318-.377-.418a11.611 11.611 0 00-.835-3.161 4.235 4.235 0 00-3.003-2.565 5.269 5.269 0 003.6-4.772c0-.338.158-.696.238-1.034s.139-.397.377-.278zM152.9 36.84a3.977 3.977 0 002.784-2.784 14.634 14.634 0 00.736-2.923c.398-.12.219.318.378.438a7.476 7.476 0 002.624 5.05 1.988 1.988 0 00.478.199.298.298 0 010 .417 4.434 4.434 0 00-2.327 2.545 8.967 8.967 0 00-.775 2.943c0 .139-.14.338-.378.218v-.636c-.199-.278 0-.676-.179-.954a13.918 13.918 0 00-1.014-2.466 3.42 3.42 0 00-2.227-1.73c-.238-.06-.238-.178-.1-.318z" fill="#20191b"/><path d="M75.1 83.842c.537 0 .279.437.298.596a8.37 8.37 0 001.591 4.235 2.505 2.505 0 001.63 1.154c0 .198.577 0 .418.417a3.54 3.54 0 00-2.605 1.988 15.687 15.687 0 00-1.232 4.295 12.904 12.904 0 00-1.81-5.269c0-.378.398-.457.438-.795-1.571 0-1.75-.199-1.352-.955a7.476 7.476 0 002.425-4.513c.239-.358 0-.775.2-1.153zM53.488 175.52a4.493 4.493 0 00-2.605-4.314c1.83-.517 2.227-2.127 2.585-3.738a.239.239 0 01.398 0 4.454 4.454 0 002.564 3.798c-1.988.755-2.366 2.485-2.584 4.274-.12-.02-.239-.02-.358-.02z" fill="#1f191b"/><path d="M160.576 136.889a3.857 3.857 0 002.246 2.704 3.798 3.798 0 00-2.306 3.44c-.16.119 0 .536-.358.417-.239-1.61-.477-3.201-2.585-3.857 1.71-.358 1.989-1.69 2.525-2.923.18.02.299.199.478.219z" fill="#211b1d"/><path d="M150.932 166.872c-.178-1.372-.477-2.684-1.988-3.241v-.14c0-.14 0 0 0 0a4.434 4.434 0 001.988-2.843c.259-.139-.159-.676.398-.656.338 1.293.477 2.704 1.988 3.3.14 0 .378.14.2.398-1.71.577-1.87 1.989-2.148 3.52-.298.06-.358-.16-.438-.338z" fill="#201b1d"/><path d="M131.428 18.448c-.517-.577.198-1.511-.716-1.988.517 0 1.233-.12 1.113-.338-.377-.696 1.054-1.253 0-1.85a31.116 31.116 0 012.426-3.34c.179-.218.358-.576.696-.377s.1.576 0 .835a46.505 46.505 0 01-2.187 4.453 5.507 5.507 0 00-1.094 2.148.517.517 0 01-.238.457z" fill="#1e1b1c"/><path d="M70.706 80.442a2.883 2.883 0 001.65 2.426 2.704 2.704 0 00-1.63 2.525.457.457 0 01-.199.298c-.417-.497-.338-1.213-.676-1.77a2.406 2.406 0 00-1.272-1.033 3.141 3.141 0 001.75-2.804c.457-.219.238.219.377.358z" fill="#231d1f"/><path d="M151.827 32.207c-.397-1.014-.735-1.988-1.81-2.386 1.055-.676 1.214-.895 1.73-2.525.756.755.637 2.127 1.989 2.445-1.173.458-1.292 1.531-1.909 2.466z" fill="#1e1b1c"/><path d="M155.108 60.42c.358.974.576 1.988 1.849 2.545-1.432.477-1.511 1.73-1.988 2.903-.398-1.193-.517-2.386-1.87-2.883a3.619 3.619 0 001.71-2.127c.339 0 .04-.398.299-.438z" fill="#211d1f"/><path d="M113.692 1.528c.378.656.716 1.372 1.65 1.63-1.45.557-1.63 1.77-1.988 3.062-.417-1.213-.497-2.505-1.988-3.022a3.44 3.44 0 001.85-2.346c.297.14.178.557.476.676z" fill="#1f1c1d"/><path d="M78.44 25.367a4.792 4.792 0 001.193 2.147c.1 0 .358.378.14.517-.975.597-1.074 1.65-1.432 2.824-.398-1.332-.596-2.545-1.988-3.102 1.193-.338 1.372-1.332 1.77-2.167.397.238.099-.318.318-.219z" fill="#211e1f"/><path d="M95.897 14.988c-.397-.835-.576-1.829-1.77-2.167a2.883 2.883 0 001.591-1.988c0-.179 0-.358.319-.358s.278.179.338.358a2.704 2.704 0 001.57 1.988c-1.113.418-1.372 1.372-1.75 2.227-.139 0-.139-.238-.158-.378a.398.398 0 01-.14.318z" fill="#1f1d1e"/><path d="M35.514 166.355a47.56 47.56 0 004.752-2.307c.238 0 .298 0 .258.239a35.331 35.331 0 01-3.28 2.465 4.553 4.553 0 01-3.3 1.67c0-.437 1.172-.755.138-1.312a1.292 1.292 0 011.432-.755z" fill="#f7f5f6"/><path d="M58.995 177.747a2.326 2.326 0 00-1.471 1.452c-.1.238-.1.636-.477.616s-.239-.378-.338-.576a2.346 2.346 0 00-1.471-1.472c1.332-.517 1.49-1.67 1.988-2.903.179 1.233.338 2.367 1.77 2.883z" fill="#1f1b1c"/><path d="M94.446 72.131c-.12 1.61-.298 3.221-.338 4.851 0 .676-.736 1.054-.577 1.75h0a4.513 4.513 0 01-.576.795 1.988 1.988 0 01-.537.637l-.219-.239c-.218-.318 0-.577.12-.855s.298-.855.357-1.312a2.724 2.724 0 00.2-1.133.338.338 0 010-.2c.298-.397.178-.874.258-1.331s.238-1.114.338-1.69a3.977 3.977 0 010-.478c.139-.358.119-.755.238-1.133a.596.596 0 01.497-.437c.438.198.279.517.239.775z" fill="#edecec"/><path d="M171.511 157.07c-.537-.776-.497-1.989-1.73-2.247a2.744 2.744 0 001.531-2.545c.577 0 .1.537.398.636a2.187 2.187 0 001.312 1.85 2.366 2.366 0 00-1.332 1.987c-.04.16-.04.279-.179.319z" fill="#211c1d"/><path d="M121.387 144.345l.219.139c.179.219-.497.497 0 .736.258 0 .815.556 0 .934h.159a.258.258 0 010 .378 4.354 4.354 0 00-.696 1.988c-.418.179-.219-.338-.418-.398a2.625 2.625 0 00-1.59-2.405 3.102 3.102 0 001.55-1.63c.418.258.617.119.776.258zM61.322 109.252a1.85 1.85 0 00-.895 1.372c-.597 0-.438-.974-1.114-.835a3.141 3.141 0 00-.636-.537c-.895-.477-.139-.497.16-.616s.635-.478.715-.895l.517-1.81c.437 1.034.378 2.128 1.253 2.764a.557.557 0 010 .557z" fill="#1e1c1d"/><path d="M156.42 152.099a2.823 2.823 0 001.511 2.664 3.3 3.3 0 00-1.193 1.074c-.278 0-.457.378-.775.159s-.577-.994-1.273-1.173a2.346 2.346 0 001.372-1.87c.18-.218-.298-.775.358-.854z" fill="#221e1f"/><path d="M62.415 136.69a8.43 8.43 0 013.241-4.394 21.036 21.036 0 00-1.988 3.46 8.649 8.649 0 01-.696 1.988c-.12.218-.18.517-.497.536l-.537-.258c-.199-.596.12-.974.477-1.332z" fill="#f2f0f1"/><path d="M53.707 153.65l.357.855a13.66 13.66 0 01-3.658 6.302 24.933 24.933 0 003.3-7.157z" fill="#1f1c1d"/><path d="M130.573 34.135h-.219a2.267 2.267 0 01-1.312 0 8.868 8.868 0 01-3.4-2.286c.994-.239 1.57.457 2.306.517a3.579 3.579 0 012.167 1.51l.458.26z" fill="#f2f0f1"/><path d="M135.98 54.416c.458 0 .935 0 1.174-.517 0-.239.358-.239.557 0a.497.497 0 01.178.656c-.198.517.398 1.392.875 1.352a3.718 3.718 0 011.85.477 4.334 4.334 0 01-4.633-1.968z" fill="#1c1819"/><path d="M78.878 95.99a1.988 1.988 0 010-2.585c.159-.099 0-.576.398-.437 0 .736.855 1.292.815 1.73s-.815.994-.815 1.75c-.398.06-.239-.458-.398-.458z" fill="#242122"/><path d="M98.542 15.406v.636c.954 1.074.417 1.988-.219 3.042-.358-.517-.358-1.252-1.014-1.59-.258-.12 0-.259.14-.358a1.412 1.412 0 00.616-1.094c.377-.1-.12-.716.477-.636z" fill="#1f1d1e"/><path d="M160.754 40.319a1.83 1.83 0 00.915 1.193 2.724 2.724 0 00-.934 1.193c-.16.12 0 .537-.358.437a2.446 2.446 0 00-1.054-1.63 2.127 2.127 0 001.074-1.79c.536-.06 0 .597.357.597z" fill="#252525"/><path d="M157.414 65.808a2.724 2.724 0 001.134 1.77 2.306 2.306 0 00-1.114 1.77c-.398-.597-.437-1.293-1.014-1.611-.12 0-.278-.16 0-.278.537-.299.517-1.034.994-1.65z" fill="#232021"/><path d="M121.804 16.46c0-.656-.835-1.074-.775-1.472s.756-.874.795-1.53q.18-.24.358 0s0 0 0 0c0 .676.915 1.173.796 1.47s-.736.836-.816 1.432c-.1.22-.218.22-.358.1zM33.943 168.423a19.048 19.048 0 003.3-1.67c.398.158 0 .795.498.854a14.037 14.037 0 01-3.221 1.114c-.259.06-.597.238-.577-.298z" fill="#1e1c1d"/><path d="M172.326 88.037a7.834 7.834 0 01-1.352.16c-1.372 0-1.372 0-.775-1.353a3.44 3.44 0 012.127 1.193z" fill="#1e1b1c"/><path d="M72.476 89.608a.577.577 0 00.735.676c.497-.12.975-.298 1.134.298s-.617.278-.796.636a.994.994 0 01-.159.14 3.977 3.977 0 00-2.465-1.154l1.55-.596z" fill="#1e191b"/><path d="M62.415 136.69l-.457 1.312a24.555 24.555 0 01-1.094 2.585.318.318 0 01-.218-.18 15.906 15.906 0 011.53-4.194c.02.179.04.377.24.477z" fill="#211f20"/><path d="M130.076 33.956c-.915-.238-1.352-1.153-2.168-1.51.338 0 .915 0 .239-.577-.199-.14-.1-.318 0-.477a4.752 4.752 0 011.929 2.564z" fill="#201d1e"/><path d="M35.514 166.355l-1.432.755-1.49.458h0c-.339-.338 0-.378.218-.498s.755-.178.954-.576c.537-.338 1.094-.915 1.75-.14z" fill="#2a2829"/><path d="M57.842 142.993c.378 0 0 .457.418.497l-.676 4.374c-.239.12-.299 0-.398-.219l.437-3.46c.2-.377-.119-.854.22-1.192z" fill="#2f2f2f"/><path d="M174.314 89.807c-.576.278-.318 1.014-.835 1.53a2.565 2.565 0 010-2.425 2.406 2.406 0 01.835.895z" fill="#1e1b1c"/><path d="M90.25 57.875c.18.358.697.656.22 1.134s-1.074.178-1.591 0l1.372-1.134z" fill="#241f21"/><path d="M94.247 71.455l-.298.418a.616.616 0 01-.259.119.418.418 0 01-.258-.14c-.12-.795.457-1.331.756-1.988.178.358 1.371.279.497 1.114-.398-.06-.18.417-.438.477z" fill="#252122"/><path d="M30.006 166.514c0 .477.418.378.716.437l-3.539 1.114c.318-.696.875-.656 1.193-.955a1.85 1.85 0 011.63-.596z" fill="#242223"/><path d="M122.023 146.631a.835.835 0 01-.12-.716c0-.318-.198-.477-.377-.576-.716-.398-.1-.597 0-.855a4.394 4.394 0 001.471 1.55 2.227 2.227 0 00-.974.597z" fill="#251f21"/><path d="M110.83 175.262c-.359.815-1.154.577-1.81.756a1.292 1.292 0 00.736-1.65l1.073.894z" fill="#1c1618"/><path d="M90.609 48.829c-.656 0-1.173.596-1.87.536h0c0-.278 0-.437.319-.536l2.266-.835c.14 0 .259.119.279.298-.16.517-.636.417-.994.537z" fill="#302e2f"/><path d="M38.755 154.187a5.19 5.19 0 01-1.312 1.75c0-.319-.22-.398-.497-.438a.537.537 0 01.278-.497c.457-.338.716-.935 1.332-1.114.14.04.278.1.199.299z" fill="#eeecec"/><path d="M59.313 109.789c.22 0 .418-.875.657 0a3.817 3.817 0 00.457.835.855.855 0 01-.438.795l-.676-1.63z" fill="#242022"/><path d="M86.274 72.906l.298.299-2.306 2.127a5.845 5.845 0 012.008-2.426z" fill="#1f1f1f"/><path d="M102.1 83.802v-5.448a16.165 16.165 0 010 5.448z" fill="#262425"/><path d="M99.397 84.06a6.104 6.104 0 01-1.114 2.247l-.258-.119 1.193-2.565c.179.16.1.438.179.438z" fill="#313232"/><path d="M71.82 162.657c-.458.715-.22 2.107-1.75 1.829a10.896 10.896 0 011.75-1.83z" fill="#181516"/><path d="M95.042 82.072l.24.259a1.988 1.988 0 01-1.293 1.81 10.06 10.06 0 011.053-2.069z" fill="#222121"/><path d="M117.868 3.556a7.357 7.357 0 01.139-2.505 4.812 4.812 0 01.258 2.306c-.119.1-.198.278-.397.199z" fill="#e9e9e9"/><path d="M88.82 49.365a6.82 6.82 0 01-2.884.458 4.096 4.096 0 012.883-.438v-.02z" fill="#464646"/><path d="M62.813 137.744a6.939 6.939 0 01.894-1.989l.22.497-.836 1.77c-.258.04-.358-.06-.278-.278z" fill="#252223"/><path d="M47.066 162.776a5.23 5.23 0 01-1.83 1.69c.299-.915 1.074-1.233 1.392-1.87a.14.14 0 01.18-.118.398.398 0 01.258.298z" fill="#2f2e2e"/><path d="M92.2 54.972v.259c-.955.139-1.591 1.054-2.625 1.054h0c.875-.557 1.55-1.392 2.624-1.313z" fill="#302f2f"/><path d="M47.066 162.776l-.239-.18c-.258-.516.298-.675.438-1.013s.457-.199.715 0a1.988 1.988 0 01-.914 1.193z" fill="#3c3c3c"/><path d="M131.666 17.99c.14-.834.16-1.71 1.094-2.147a8.748 8.748 0 01-1.094 2.148z" fill="#20191b"/><path d="M128.584 30.219c-.357-.398-.934 0-1.292-.378l2.406-.239c.1 0 .219.1.258.239a2.247 2.247 0 01-1.372.378z" fill="#272626"/><path d="M90.47 71.892c-.517.398-.855 1.154-1.85 1.034l1.571-1.312c.239-.06.338.04.278.278z" fill="#292929"/><path d="M90.47 71.892l-.279-.278a5.965 5.965 0 011.332-1.113.398.398 0 00.398.258l-1.452 1.133z" fill="#2c2a2b"/><path d="M95.062 57.855c.299-.238.438 0 .617.2-.398.417-.517 1.152-1.332 1.033h0v-.159a.676.676 0 01.179-.656c.258-.06.377-.239.536-.418z" fill="#2d282a"/><path d="M92.657 44.037a1.79 1.79 0 00.974-.418c.318-.238.437 0 .557.22a2.187 2.187 0 01-1.233.695c-.418.04-.438-.239-.298-.497z" fill="#232122"/><path d="M42.493 144.365l.278.258a4.692 4.692 0 01-1.153 1.273.298.298 0 01-.259-.2 4.513 4.513 0 011.134-1.331z" fill="#393939"/><path d="M60.387 141.72a2.267 2.267 0 01-.596 1.988 2.306 2.306 0 01.497-1.988h.1z" fill="#3a3939"/><path d="M150.932 166.872c.14.119.18.338.418.258v1.988a3.42 3.42 0 01-.418-2.246z" fill="#e0e0e0"/><path d="M85.857 197.809c0-.219.139-.517.397-.298a2.485 2.485 0 001.352.338c0 .338-.338.298-.517.437a2.545 2.545 0 01-1.232-.477z" fill="#1a1818"/><path d="M90.45 41.611a8.271 8.271 0 01-3.619-.218h3.102c.238-.04.497-.22.517.218z" fill="#1b1819"/><path d="M30.006 166.514a5.23 5.23 0 01-1.55.596l-.2-.358 1.432-.536c.378-.16.458-.04.318.298z" fill="#dfddde"/><path d="M155.943 124.66a2.147 2.147 0 010-1.987 2.207 2.207 0 010 1.988z" fill="#0f0f0f"/><path d="M92.418 75.153a3.837 3.837 0 01-.537 1.988 2.525 2.525 0 01.358-1.988s.12-.08.179 0z" fill="#414141"/><path d="M90.688 51.473a2.644 2.644 0 01-2.386.636l2.167-.815a.954.954 0 01.22.179z" fill="#353334"/><path d="M41.36 145.697l.258.218a4.334 4.334 0 01-1.094 1.313.318.318 0 01-.198-.22 3.698 3.698 0 011.033-1.311z" fill="#343535"/><path d="M89.595 56.225a.378.378 0 010 .159 2.306 2.306 0 01-1.989.497 5.607 5.607 0 011.989-.656z" fill="#393939"/><path d="M70.527 85.691l.2-.298v1.411c0 .477 0 .557-.418.418a.338.338 0 01-.1-.557 1.193 1.193 0 00.318-.974z" fill="#eae9e9"/><path d="M88.82 45.628a3.977 3.977 0 01-2.486 0l1.53-.2c.26.18.677-.119.955.2z" fill="#3d3d3d"/><path d="M167.972 97.283a1.412 1.412 0 01.716 1.988l-.716-1.988z" fill="#1c1819"/><path d="M92.418 75.153h-.179a2.108 2.108 0 01.418-1.53.179.179 0 01.258 0 .756.756 0 01.259.516.636.636 0 010 .279 3.102 3.102 0 01-.458.556l-.298.18z" fill="#2f2f2f"/><path d="M70.527 48.63a6.183 6.183 0 01-.179-1.988 4.573 4.573 0 01.378 2.564c-.338-.139-.358-.318-.199-.576z" fill="#e7e7e7"/><path d="M25.831 166.076a1.988 1.988 0 011.988 0c-.159.279-.497 0-.695.22a2.625 2.625 0 01-1.293-.22z" fill="#0f0b0d"/><path d="M70.328 64.615l.418-.218a4.513 4.513 0 01-.318 2.266c-.318-.715.318-1.411-.1-2.048z" fill="#bdbdbd"/><path d="M120.91 148.321c.199 0 .119.438.417.398v1.65a3.002 3.002 0 01-.417-2.048z" fill="#e2e2e2"/><path d="M93.412 60.201a3.639 3.639 0 01-1.55 1.412 2.446 2.446 0 011.55-1.412z" fill="#333232"/><path d="M89.793 47.079a4.573 4.573 0 01-1.988.378 3.678 3.678 0 011.67-.597c.279-.1.338.02.318.219z" fill="#141414"/><path d="M141.965 43.818c-.417 0-.835 0-1.252-.159s-.477.219-.497-.159.258-.278.477-.199.398 0 .596-.139.497.378.676.656z" fill="#1b1819"/><path d="M90.609 48.829l.994-.597c0-.199.258-.258.457-.318s.318.199.318.418c-.477.159-.735.676-1.272.715l-.497-.218z" fill="#e9e8e8"/><path d="M92.657 44.037a.457.457 0 00.298.497 3.042 3.042 0 01-1.85.517v-.1c0-.159 0-.238.2-.298a1.71 1.71 0 011.093-.358l.259-.258z" fill="#2c2829"/><path d="M27.541 163.591s.497 0 0 .219a2.525 2.525 0 01-.954 0c-.318 0-.676 0-.796-.477a.14.14 0 01.22 0l1.53.258z" fill="#0a0708"/><path d="M60.387 141.72h-.1a1.531 1.531 0 01.359-1.352l.218.18c0 .516.12.993-.477 1.172z" fill="#363737"/><path d="M32.571 167.568h0a2.784 2.784 0 01-1.67.576c.477-.457.935-.895 1.67-.576z" fill="#4a4a4a"/><path d="M156.42 30.696v-1.511c.278-.16.318 0 .398.218v1.531c-.239.08-.299-.119-.398-.238z" fill="#b0b0b0"/><path d="M34.6 156.513c.278-.537.854-.577 1.312-.795a.179.179 0 010 .278c-.358.417-.756.755-1.352.537l.04-.02z" fill="#444"/><path d="M62.813 137.744l.278.318c0 .199-.139.397-.199.596s-.278.517-.517.378 0-.497.12-.736l.318-.556z" fill="#373536"/><path d="M35.931 155.996v-.358l1.193-.855c.14 0 .16.16 0 .259l-.278.457c-.298.02-.477.517-.915.497z" fill="#3a393a"/><path d="M37.224 155.042v-.259a5.19 5.19 0 011.55-1.392c.339.318 0 .458-.178.597s-.796.875-1.372 1.054z" fill="#1d191a"/><path d="M92.16 64.874c.258.437 0 .636-.358.855s-.557 0-.517-.259.318-.338.497-.517.218-.179.378-.08z" fill="#f7f7f7"/><path d="M88.82 45.628c-.319-.1-.697 0-.955-.239l1.53-.199c.22.16.538 0 .717.219a2.625 2.625 0 01-1.293.219z" fill="#323131"/><path d="M96.772 86.049a.418.418 0 01.656-.259 3.46 3.46 0 01-.636 1.114c-.219 0-.338 0-.258-.298l.238-.557z" fill="#2d2c2c"/><path d="M98.542 15.406c-.298.12-.18.497-.398.636 0-.537-.179-1.113.199-1.65.557.278.219.676.199 1.014z" fill="#eee"/><path d="M94.784 43.6l.616-.2c0 .677-.616.836-1.034 1.154a.239.239 0 010-.358l.418-.596z" fill="#0c090a"/><path d="M86.99 57.14l-1.57.119c.496-.378 1.013-.616 1.57-.12z" fill="#444"/><path d="M155.883 155.996c.279 0 .418-.597.776-.16l-.338 1.253a1.511 1.511 0 01-.438-1.093z" fill="#1a1416"/><path d="M90.807 60.201a1.034 1.034 0 01.875-.676.239.239 0 01.279.358 2.704 2.704 0 01-1.134.597.179.179 0 010-.18l-.02-.099z" fill="#343132"/><path d="M118.245 18.448a1.73 1.73 0 01-.139 1.113c-.437-.516-.199-1.033-.238-1.51.358-.18.238.198.377.397z" fill="#e2e2e2"/><path d="M89.953 40.14h2.843a4.593 4.593 0 01-2.843 0z" fill="#292929"/><path d="M92.2 46.005a2.903 2.903 0 01-1.512.676.12.12 0 010-.139h0A4.116 4.116 0 0192 45.866a.378.378 0 01.2.14z" fill="#090607"/><path d="M92.796 73.622h-.219a1.988 1.988 0 01.437-1.312c.2 0 .279 0 .358.199a1.312 1.312 0 01-.119.775c-.02.18-.08.398-.457.338z" fill="#3d3c3c"/><path d="M90.092 45.409c-.239 0-.517 0-.716-.219a5.249 5.249 0 011.75-.238v.099c-.319.378-.676.298-1.034.358z" fill="#121011"/><path d="M92.04 59.923v-.358a.338.338 0 01.318-.417c.219 0 .279-.517.617-.2a.537.537 0 01.199.22l-1.134.755z" fill="#3b3738"/><path d="M93.352 75.233c-.119.417.18.994-.477 1.213-.377-.279.12-.537 0-.796s0-.576.239-.775.318.139.238.358z" fill="#070606"/><path d="M156.798 43.58v1.332c-.199.1 0 .576-.418.417V43.8c.14-.1.2-.299.418-.22z" fill="#c9c9c9"/><path d="M101.803 83.186c.198.437-.12.954.238 1.372 0 .238.14.616-.199.616s-.198-.378-.198-.596.119-.935.159-1.392z" fill="#464646"/><path d="M93.531 62.866a1.432 1.432 0 01-.894 1.093.477.477 0 01-.2-.417 1.61 1.61 0 011.094-.676z" fill="#2b2728"/><path d="M24.042 164.744l-.477.239c-.398-.259-.498-.557 0-1.054l.477.815z" fill="#282526"/><path d="M26.09 163.412h-.22c-.417-.358-.576-.755-.218-1.491l.438 1.491z" fill="#2b2b2b"/><path d="M92.796 77.778a2.664 2.664 0 01-.458 1.312h-.198a4.275 4.275 0 01.417-1.57c.239.02.239.158.239.258z" fill="#3c3c3c"/><path d="M94.386 44.295v.358c-.338.318-.616.696-1.133.756v-.18c0-.06 0 0 0 0l1.133-.934z" fill="#010000"/><path d="M95.062 36.581a1.81 1.81 0 011.989 0 3.678 3.678 0 01-1.989 0z" fill="#110c0e"/><path d="M156.798 29.403l-.378-.218a2.108 2.108 0 01.16-1.114c.397.458.198.915.218 1.332z" fill="#e5e5e5"/><path d="M85.002 44.077c.537.417 1.193 0 1.79.199a4.295 4.295 0 01-1.87.218c-.139 0-.298 0-.258-.218s.179-.18.338-.2z" fill="#2d2b2c"/><path d="M92.398 44.295l-1.074.319-.715-.2c.596-.119 1.173-.437 1.79-.119z" fill="#dfdbdc"/><path d="M89.018 66.763c.457-.16.656-.756 1.292-.676a1.292 1.292 0 01-1.292.676z" fill="#040505"/><path d="M160.516 143.887a1.988 1.988 0 01-.14 1.293c-.377-.318-.238-.716-.258-1.054s.279-.298.398-.239z" fill="#ddd"/><path d="M121.387 144.345c-.179 0-.378.238-.517 0s0-.855.358-1.173c.278.338.06.775.159 1.173z" fill="#0e0c0c"/><path d="M171.71 152.914c-.219-.159 0-.537-.398-.636a1.451 1.451 0 010-.955 1.869 1.869 0 01.398 1.591z" fill="#c6c6c6"/><path d="M117.868 3.556l.397-.199v1.054l-.377.219-.02-1.074z" fill="#4e4e4e"/><path d="M132.74 146.99a2.625 2.625 0 010 2.186 5.786 5.786 0 010-2.187z" fill="#120e0f"/><path d="M92.438 63.542a.398.398 0 01.199.417.795.795 0 00-.458.517.358.358 0 01-.358-.159v-.12c-.04-.437.279-.556.617-.655z" fill="#353535"/><path d="M40.326 146.99l.198.218a2.346 2.346 0 01-.775.974c-.179-.676.298-.875.577-1.193z" fill="#363636"/><path d="M96.554 86.685l.258.298a1.988 1.988 0 01-.636.915.338.338 0 01-.259-.259l.637-.954z" fill="#3e3e3e"/><path d="M95.917 87.64l.259.258a1.988 1.988 0 01-.835.875c-.02-.597.377-.736.576-1.134z" fill="#2e2e2e"/><path d="M25.195 166.951h2.227a3.46 3.46 0 01-2.227 0z" fill="#4d4c4c"/><path d="M156.42 152.099l-.358.855a2.744 2.744 0 01.358-1.75v.895z" fill="#cdcdcd"/><path d="M92.378 48.272L92 47.934a.179.179 0 010-.16v-.099s.398-.318.657-.417.258 0 .238.219l-.517.795z" fill="#1f1d1e"/><path d="M119.399 27.614c-.418.159-.259-.338-.458-.438l.915-.795c.239.636-.636.696-.457 1.233z" fill="#323232"/><path d="M93.989 52.248l.179.418c-.517-.278-.676.318-1.054.398s-.278 0-.239-.22c.358-.238.557-.755 1.114-.596z" fill="#262425"/><path d="M67.923 136.491a2.585 2.585 0 010 2.167v-2.167z" fill="#111"/><path d="M90.688 51.473c-.139 0-.199 0-.219-.179s-.318-.179-.457-.258l1.352-.438c-.12.438-.636.358-.696.716h0l.02.159z" fill="#aeacad"/><path d="M53.488 166.534a1.85 1.85 0 010-1.114 1.034 1.034 0 01.258 1.094.258.258 0 01-.258.02z" fill="#c1c1c1"/><path d="M47.324 161.603c0 .437-.378.636-.437 1.014h-.199l-.278-.298c.179-.418.656-.537.914-.716z" fill="#d4d1d2"/><path d="M53.488 175.52h.358v1.074c-.259.2-.279 0-.378-.199l.02-.874z" fill="#a0a0a0"/><path d="M93.134 74.935l-.239.715c0-.238 0-.537-.238-.715s0-.677.437-.677a.517.517 0 01.04.677z" fill="#edecec"/><path d="M99.397 84.06l-.18-.437v-.537c.18 0 .319 0 .398.14l-.218.835z" fill="#040102"/><path d="M160.576 136.889c-.378.397-.398 0-.478-.219v-.616c.239-.12.299 0 .378.218l.1.617z" fill="#110f10"/><path d="M117.868 16.221l.377.418v.875c-.218 0-.318 0-.357-.22l-.02-1.073z" fill="#6e6c6d"/><path d="M93.174 35.249l-.498.238a.457.457 0 010-.775c.239-.12.319.358.498.537z" fill="#141112"/><path d="M129.936 29.84l-.258-.238.934-.397c.12 0 .18 0 .14.159a1.332 1.332 0 01-.816.477z" fill="#050505"/><path d="M171.511 157.07l.179-.279a3.221 3.221 0 01-.278 1.65c-.319-.536.02-.934.099-1.371z" fill="#cecece"/><path d="M59.552 107.74c0 .558.358 1.273-.716.896l.716-.895z" fill="#242022"/><path d="M53.468 176.316l.378.199a.974.974 0 01-.14.855c-.397-.318-.238-.716-.238-1.054z" fill="#e8e8e8"/><path d="M86.95 58.034a1.63 1.63 0 011.392-.199 2.863 2.863 0 01-1.392.438l-.119-.06s.1-.179.12-.179z" fill="#383838"/><path d="M92.796 52.825l.238.219a1.988 1.988 0 01-1.133.636c.239-.557.656-.656.895-.855z" fill="#444"/><path d="M79.276 92.908c-.279 0-.2.358-.398.438a1.233 1.233 0 01.318-1.173.875.875 0 01.08.735z" fill="#b7b7b7"/><path d="M78.878 95.99c.199 0 0 .457.398.457v.816a1.233 1.233 0 01-.398-1.273z" fill="#cdcacb"/><path d="M156.42 45.33l.418-.418c0 .437-.16.894-.259 1.411-.278-.377-.159-.676-.159-.994z" fill="#e7e7e7"/><path d="M141.946 137.585a1.531 1.531 0 010 1.73 5.627 5.627 0 010-1.73z" fill="#0d090a"/><path d="M139.957 139.354c-.358.338-.875.14-1.292.338s0-.219 0-.338a1.77 1.77 0 011.292 0z" fill="#120b0e"/><path d="M160.158 135.219a.915.915 0 010-.756 1.113 1.113 0 01.298 1.173c-.278.12-.179-.298-.298-.417z" fill="#c5c5c5"/><path d="M70.527 48.63l.2.497v1.133l-.399-.855c-.02-.338-.119-.616.2-.775z" fill="#585858"/><path d="M156.798 43.58l-.398.218v-.855l.378-.218.02.855z" fill="#5a5a5a"/><path d="M89.615 57.418c-.358.219-.676.477-1.213.258a1.392 1.392 0 01.974-.457s.219.06.239.199z" fill="#434243"/><path d="M113.692 1.528c-.437 0-.377-.398-.477-.676V.554h.219a7.635 7.635 0 01.258.974z" fill="#060606"/><path d="M90.688 46.482a.338.338 0 010 .2c-.219.317-.576.317-.895.397l-.258-.219a1.988 1.988 0 011.153-.378z" fill="#2a2828"/><path d="M94.347 59.088c.119.597-.18.756-.736.676a1.113 1.113 0 01.775-.656l-.04-.02z" fill="#080506"/><path d="M91.503 64.596l-.894.298c.358-.577.676-.756 1.153-.696h0c.139.258-.04.338-.259.398z" fill="#252525"/><path d="M86.314 72.131c-.159.199-.338.219-.636 0a1.67 1.67 0 01.835-.855h0c.318.537-.1.676-.199.855z" fill="#2b2c2c"/><path d="M92.796 77.778l-.239-.259c0-.298 0-.636.259-.875.517.378-.02.756-.02 1.134z" fill="#151314"/><path d="M91.98 77.837s0 .14-.258.12-.179-.18-.159-.318 0-.378.258-.378.18.179.16.576z" fill="#686868"/><path d="M53.488 166.534h.358v.855h-.398l.04-.855z" fill="#484747"/><path d="M89.853 82.33a1.531 1.531 0 011.153-.596c-.199.557-.556.577-1.153.597z" fill="#424242"/><path d="M93.293 72.41h-.199c0-.26.179-.339.338-.458h.278c.22.298.239.557-.159.736s-.218-.14-.258-.279z" fill="#605e5f"/><path d="M79.037 90.244c0-.278-.338-.219-.418-.417s.418 0 .637 0 .397.099.278.318-.318.139-.497.1z" fill="#d2d2d2"/><path d="M57.842 142.993a2.247 2.247 0 01-.219 1.193l-.218-.478c.04-.298.1-.596.437-.715z" fill="#e5e5e5"/><path d="M160.516 143.887l-.398.239v-.676l.358-.418.04.855z" fill="#868686"/><path d="M43.348 144.126a1.034 1.034 0 01.875-.656l-.617.934-.258-.278z" fill="#d5d1d3"/><path d="M90.45 41.611l-.517-.218c.417 0 .954-.597 1.093.298h0l-.576-.08z" fill="#2d292a"/><path d="M91.106 81.714a1.253 1.253 0 01.914-.835c-.179.597-.417.796-.914.835z" fill="#333"/><path d="M90.23 60.878a.974.974 0 01-1.033.198 1.173 1.173 0 01.775-.417c.239-.1.279.02.259.219z" fill="#0a0909"/><path d="M57.186 147.685l.398.219v.656a.696.696 0 01-.398-.875z" fill="#313232"/><path d="M90.23 60.878l-.258-.22a1.491 1.491 0 01.835-.457v.279a.835.835 0 01-.576.398z" fill="#302e2f"/><path d="M117.888 17.295l.357.219v.934l-.377-.398.02-.755z" fill="#b3b3b3"/><path d="M38.536 153.988l.18-.597h.297c.318.398 0 .617-.258.835l-.219-.238z" fill="#aea8aa"/><path d="M34.6 156.513h0c-.14.457-.498.258-.895.397.238-.536.536-.516.894-.397z" fill="#141414"/><path d="M128.823 35.269c-.239-.1-.557-.239 0-.398a2.565 2.565 0 01.954 0c-.298.298-.815-.04-.954.398z" fill="#282426"/><path d="M30.901 160.29a1.59 1.59 0 011.293.279 1.094 1.094 0 01-1.293-.278z" fill="#0f0d0e"/><path d="M74.663 57.18l.219-.418c.238 0 .616-.14.536.238s-.517.2-.755.18z" fill="#bcbdbc"/><path d="M90.688 56.603c.1.179.318.358 0 .576h-.517a.398.398 0 01-.218-.218l.735-.358z" fill="#2b2829"/><path d="M61.322 109.252c-.18-.18-.1-.378 0-.557s.497 0 .517.219-.358.199-.517.338z" fill="#272425"/><path d="M70.706 80.442l-.378-.358a.557.557 0 01.12-.596.954.954 0 01.258.954z" fill="#9a9a9a"/><path d="M144.61 104.758l-.716-.119c.457-.12.915-.278 1.312 0l-.596.12z" fill="#080808"/><path d="M92.2 79.09h.198l-.199.855c-.676-.278-.119-.557 0-.855z" fill="#4a4a4a"/><path d="M93.273 45.051v.258c0 .319-.398.398-.676.478s-.239 0-.179-.2l.855-.536z" fill="#010000"/><path d="M92.418 80.184c0-.358.239-.498.497-.637a.179.179 0 01.298 0c-.278.2-.199.815-.795.637z" fill="#060002"/><path d="M160.158 135.219l.358.417v.636l-.378-.218.02-.835z" fill="#686868"/><path d="M131.626 34.155l-.497-.218.358-.2c.18-.099.438-.337.557 0s-.14.359-.418.418z" fill="#282426"/><path d="M160.754 40.319l-.357-.597v-.576a1.253 1.253 0 01.357 1.173z" fill="#a8a8a8"/><path d="M93.114 59.168l-.199-.22c.278 0 .398-.615.815-.277l-.616.497z" fill="#100d0e"/><path d="M122.182 17.056c0 .219.16.577-.218.557s-.16-.338-.16-.537a.278.278 0 01.378-.02z" fill="#e3e3e3"/><path d="M122.182 17.056h-.378v-.596h.378v.596z" fill="#908f8f"/><path d="M94.645 58.213c0 .279-.16.438-.279.656l-.457-.278a.656.656 0 01.477-.398c.08.02.18.02.259.02z" fill="#c7c4c5"/><path d="M86.95 58.034v.18c-.258 0-.497.317-.775 0 .179-.26.517-.12.775-.18z" fill="#232323"/><path d="M152.9 36.84v.377c-.238 0-.596.18-.576-.219s.358-.218.577-.159z" fill="#bab7b8"/><path d="M91.205 54.237c0 .258-.238.278-.378.318s-.318-.14-.258-.239a.954.954 0 01.437-.258s.14.02.2.179z" fill="#5c5c5c"/><path d="M92.796 47.536l-.239-.218a1.133 1.133 0 01.676-.398c.04.278.08.616-.437.616z" fill="#3e3a3c"/><path d="M151.33 159.913l-.398.656c0-.298 0-.616.12-.915s.12-.218.199 0 .06.14.08.259z" fill="#353535"/><path d="M122.182 13.418h-.358v-.656c.14-.16.259-.16.378 0l-.02.656z" fill="#999"/><path d="M148.944 163.412v.179c-.199 0-.437 0-.556-.14a.278.278 0 01.119-.218.278.278 0 01.437.18z" fill="#cacaca"/><path d="M96.633 80.084c0-.238.199-.517.259-.477s.119.596 0 .895l-.259-.418z" fill="#8c8789"/><path d="M90.012 56.96l.219.22-.616.238-.24-.199.637-.258z" fill="#040303"/><path d="M160.397 43.162l.357-.437a1.432 1.432 0 01-.238.934.457.457 0 01-.12-.497z" fill="#595959"/><path d="M98.144 86.804c0 .2-.139.398-.338.418s-.219-.14-.179-.298.14-.358.358-.318.12.139.16.198z" fill="#505151"/><path d="M130.752 29.364l-.18-.16a.696.696 0 01.756-.477.676.676 0 01-.576.637z" fill="#383838"/><path d="M88.223 73.96l-.338.239s-.18-.16-.16-.199a.398.398 0 01.359-.338c.119 0 .179.1.139.298z" fill="#0e0e0e"/><path d="M95.062 80.82c0-.14.18-.378.378-.219a.537.537 0 01.199.457c0 .22-.239 0-.358 0s-.04-.258-.219-.238z" fill="#222121"/><path d="M91.742 69.864l.676-.417c.199-.12.239 0 .239.159s-.358.437-.676.457l-.239-.199z" fill="#d0cbcd"/><path d="M159.9 37.237v-.417c.198 0 .556 0 .516.258s-.318.16-.516.16z" fill="#2b2b2b"/><path d="M93.213 79.547h-.298c0-.457.318-.596.616-.795.12.358-.06.577-.318.795z" fill="#2f2d2e"/><path d="M87.408 67.836a1.253 1.253 0 01-.935.358.895.895 0 01.935-.457v.1z" fill="#383838"/><path d="M122.182 12.781h-.378c0-.218 0-.536.16-.556s.218.258.218.556z" fill="#e5e5e5"/><path d="M91.503 64.596c0-.18.358-.16.259-.418l.417.298v.398h-.377l-.299-.278z" fill="#cecfce"/><path d="M73.808 120.664c0 .378-.1.816-.676.637.179-.259.298-.597.676-.637z" fill="#1a1416"/><path d="M129.917 119.074c0-.438 0-.855.656-.716l-.656.716z" fill="#120e0f"/><path d="M156.181 41.412c.18 0 .438-.198.338.22s0 .496-.159.735a1.59 1.59 0 01-.179-.955z" fill="#1f1f1f"/><path d="M171.233 149.136l.218-.357h.537c-.02 0-.457.417-.755.357z" fill="#c4c4c4"/><path d="M86.692 60.34a.756.756 0 01-.855 0c.298-.298.537-.417.855 0z" fill="#0e0e0e"/><path d="M92.299 59.148l-.318.417h-.22l-.496-.218c.318-.2.636-.438 1.034-.2z" fill="#e7e2e4"/><path d="M27.183 166.235l.696-.218c.12 0 .239.119.16.278a.318.318 0 01-.418.14l-.438-.2z" fill="#9b9899"/><path d="M79.315 173.89l-.119.597c-.179-.418-.199-.716 0-.975l.12.378z" fill="#0f0b0c"/><path d="M25.473 166.653c-.218.14-.537 0-.696.239-.218 0-.218-.22-.119-.299a.795.795 0 01.815.06z" fill="#4d4c4c"/><path d="M86.95 44.295a.756.756 0 011.094 0H86.95z" fill="#2d2b2c"/><path d="M95.897 14.988s0-.298.18-.278 0 .179.119.278a.537.537 0 01-.16.557c-.178-.139-.158-.358-.139-.557z" fill="#070707"/><path d="M27.183 166.514a1.233 1.233 0 01-1.173.139l1.173-.14z" fill="#4d4c4c"/><path d="M91.98 47.735v.259c0 .218-.238.218-.397.238l-.259-.219.657-.278z" fill="#070405"/><path d="M94.486 49.346c0-.537.218-.497.576-.279a.736.736 0 01-.576.279z" fill="#0e0c0d"/><path d="M88.044 50.857c-.358.338-.796.179-1.213.159a2.764 2.764 0 011.213-.16z" fill="#2c2c2c"/><path d="M96.176 57.637a.775.775 0 01.397-.497c0 .159.2.318 0 .497s-.238.06-.397 0z" fill="#e8e4e5"/><path d="M155.108 60.42c-.18.1.238.577-.279.438a3.002 3.002 0 010-.597s.14 0 .2-.12l.079.28z" fill="#101010"/><path d="M88.044 66.007c0-.378.378-.298.557-.397s0 .218 0 .258a.616.616 0 01-.557.14z" fill="#5a5a5a"/><path d="M87.408 67.836v-.099c0-.398.397-.199.676-.596-.12.656-.438.596-.676.695z" fill="#1e1e1e"/><path d="M86.314 72.131l.278-.696a.517.517 0 01.338.457l-.616.24z" fill="#0c0b0b"/><path d="M92.438 39.683c-.358.338-.776.198-1.173.179a2.605 2.605 0 011.173-.18z" fill="#292929"/><path d="M93.571 81.058c.12 0 .279-.198.318 0a.437.437 0 01-.258.478l-.12-.299a.199.199 0 01.06-.179z" fill="#151213"/><path d="M92.438 45.588l.179.199a.398.398 0 01-.418.218L92 45.806a.457.457 0 01.438-.218z" fill="#060405"/><path d="M92.796 82.53l.218.278c-.099.258-.278.497-.497.239s.279-.358.279-.517z" fill="#313030"/><path d="M75.1 83.842c0 .398.16.815-.179 1.153a2.306 2.306 0 01.18-1.153z" fill="#272727"/><path d="M173.5 88.932a.577.577 0 01-.677-.597 1.511 1.511 0 01.676.597z" fill="#1e1b1c"/><path d="M160.556 97.978c-.12 0-.219-.218 0-.338s.377-.099.517 0l-.517.338z" fill="#141414"/><path d="M176.124 102.512v.815c-.18-.457-.2-.756 0-1.014a.179.179 0 010 .199z" fill="#0e0c0d"/><path d="M156.42 30.696c.199 0 .278.139.398.238v.637l-.398-.438v-.437z" fill="#322d2e"/><path d="M167.813 109.908a.736.736 0 010 1.074 1.352 1.352 0 010-1.074z" fill="#0e0c0c"/><path d="M117.41 26.262a.497.497 0 010 .199c0 .119-.179 0-.179 0s0-.557.2-.756l-.02.557z" fill="#121212"/><path d="M78.44 25.367c-.099.14 0 .398-.159.477l-.119-.258c0-.18 0-.457.14-.517s.139.159.139.298z" fill="#0a0a0a"/><path d="M86.294 163.154c0-.14-.12-.299 0-.398s.298 0 .457 0-.218.378-.457.398z" fill="#262223"/><path d="M153.497 163.591l-.198-.398c.218 0 .477 0 .556.18s-.179.218-.358.218z" fill="#b9b9b9"/><path d="M107.37 82.072a2.247 2.247 0 010 1.989v-1.989z" fill="#181315"/><path d="M54.8 151.164c-.318 0-.159.597-.596.517-.18-.437.179-.795.159-1.232.338.179.358.457.417.735l.02-.02z" fill="#1f1c1d"/><path d="M40.524 164.287l-.258-.239 1.113-.815a1.332 1.332 0 01-.855 1.054z" fill="#e0dbdd"/><path d="M94.247 71.455a1.153 1.153 0 01.298-.736l.14.279-.239 1.153-.199-.696z" fill="#c0bbbd"/><path d="M92.657 69.606l-.239-.16a1.71 1.71 0 011.213-.437l-.974.597z" fill="#f4edf0"/><path d="M127.73 31.312a.915.915 0 01-.696.398c.198-.438.198-.438.695-.398z" fill="#201d1e"/><path d="M129.002 34.215h1.312a1.074 1.074 0 01-1.312 0z" fill="#282426"/><path d="M94.645 58.213h-.259c.16-.238.338-.457.676-.417.02.417-.139.417-.417.417z" fill="#fefbfc"/><path d="M93.134 74.935v-.677h0c.139-.298 0-.676.199-.954a.398.398 0 01.457 0 7.496 7.496 0 01-.398 1.85l-.258-.22z" fill="#252323"/><path d="M93.75 73.384h-.417c-.14 0-.14-.16-.2-.239l.16-.795.258.12a.676.676 0 01.219.496l-.02.418z" fill="#a6a4a5"/><path d="M93.77 73.026a.537.537 0 01-.219-.497c.239-.18.2-.418.16-.656h.238a1.392 1.392 0 01-.179 1.153z" fill="#131011"/><path d="M93.134 73.205l.199.238c0 .279 0 .637-.239.855 0-.238-.358-.397-.219-.676s.18-.278.259-.417z" fill="#d6d5d5"/></g></g></svg>