<svg viewBox="0 0 98 127" xmlns="http://www.w3.org/2000/svg" class="icon icon--design-system" fill="currentColor" width="200"><defs><filter id="design-system-a"><feColorMatrix in="SourceGraphic" values="0 0 0 0 1.000000 0 0 0 0 1.000000 0 0 0 0 1.000000 0 0 0 1.000000 0"/></filter></defs><g transform="translate(-1 -1)" filter="url(#design-system-a)" fill="none" fill-rule="evenodd"><g fill-rule="nonzero"><path d="M36.987 111.522a7.385 7.385 0 002.861 4.527 7.743 7.743 0 011.696 1.822c.362.433.563.978.57 1.543-.055.525.222 1.03.696 1.264.388.309.814.568 1.266.772.803.322 1.445.95 1.785 1.745.407.866.86 1.71 1.354 2.53.184.299.297.636.33.986a.821.821 0 01-.71 1.024 10.895 10.895 0 01-4.835-.67c-.089-.19-.342-.29-.785-.304a3.062 3.062 0 01-2.266-2.124 2.01 2.01 0 01.152-1.53c.317-.633.228-.772-.455-.785-1.608 0-1.887-.366-2.38-2.15a20.495 20.495 0 00-4.076-7.84 61.16 61.16 0 00-1.203-1.354 3.464 3.464 0 01.178-5.413c.607-.164.822-.696 1.113-1.164l2.254-2.453c.236-.257.452-.531.645-.822.507-.772.393-1.113-.392-1.543a8.325 8.325 0 01-3.24-3.377 13.637 13.637 0 01-1.748-7.07 3.172 3.172 0 000-1.378c.033-1.27.147-2.538.342-3.794a9.588 9.588 0 00-2.886 3.63c-.19 0-.215-.127-.24-.266a4.867 4.867 0 01.835-1.834 8.081 8.081 0 00-1.266 1.834c-.126.202-.164.493-.455.57-.292.075-.152-.216-.089-.342.063-.127.203-.494.228-.772a10.24 10.24 0 00-2.722 5.4c-.126 0-.19-.1-.303-.088l-.203.228a18.82 18.82 0 00-1.38 4.097c-.063.228 0 .519-.29.658-.09 0-.115-.19-.19-.203-.077-.012 0 0 0 0s.176 0 .202.14a14.09 14.09 0 01-.469 2.074c-.38 0-.076-.392-.227-.544-.152-.152.215-.316 0-.57a29.88 29.88 0 01-2.266 3.732 6.842 6.842 0 01-1.342 1.871l-.43.203c-.186.135-.39.241-.608.316a19.053 19.053 0 01-5.519 3.402c-.532 0-.215-.417-.354-.607a12.164 12.164 0 012.05-1.556l.177-.139c-.1 0-.177.114-.278.177-.762.479-1.557.901-2.38 1.265a.823.823 0 01-.595.114c-.405-.354-.785.114-1.164 0l-1.924.29c-.19 0-.38.127-.52-.1-.139-.228-.215-.14-.354-.102-.139.038-.455.203-.696.076-.24-.126-.342.177-.532.127a4.333 4.333 0 01-1.455 0h-.228c0-.33.278-.14.443-.152h.329c.24-.089.506 0 .747-.089h.253c.127-.1 0-.164 0-.227a5.967 5.967 0 00-1.063 0 1.747 1.747 0 01-1.481-.721.24.24 0 01.303-.152 1.355 1.355 0 001.671-.544c.127-.24.43.076.557-.177a20.789 20.789 0 002.848-1.682c.076 0 .24-.101.114-.253s-.557-.088-.822-.177c-.266-.088-.254-.354-.24-.695.686.566 1.679.566 2.366 0 .683-.503 1.3-1.09 1.836-1.746l.227-.329c.185-.405.423-.783.71-1.125.141-.15.253-.326.328-.519v-.404c1.418-1.518 1.861-3.554 2.861-5.287 0-.076.076-.164 0-.227-.076-.064-.114 0-.164 0l-.367.316c-.152 0-.203 0-.178-.165 2.633-2.858 5.24-5.704 8.861-7.386A34.824 34.824 0 0033 78.02c.266 0 .316-.228.43-.405.924-1.404 1.405-3.073 2.633-4.3a7.81 7.81 0 012.43-1.695c4.773-2.01 8.254-5.564 11.482-9.447a28.808 28.808 0 004.202-6.324 5.851 5.851 0 00-.304-5.058 9.545 9.545 0 01-1.822 3.794c.32-1.63.269-3.312-.152-4.92-.204.33-.33.702-.367 1.088a26.384 26.384 0 010 3.465v.48c-.38-.24-.127-.581-.152-.872V51.17c-.574.84-1.03 1.755-1.355 2.72a.393.393 0 01-.253-.09 5.16 5.16 0 00-1.164 1.733c-.152 0-.254.165-.418.165-.481 0-.747.404-1.05.695-.255.322-.641.512-1.051.519 1.848-1.138 1.924-3.01 2.139-4.844a.442.442 0 000-.38.607.607 0 00-.14.114l-.86 1.505c-.14 0-.228 0-.152-.164a.885.885 0 01.152-.67c0-.165 0-.165-.14-.152-.36.48-.785.905-1.265 1.265-.114 0-.228 0-.14-.177.085-.298.232-.574.43-.81.14 0 .077-.076 0-.126.077-.405.153-.81.216-1.265 0-.19 0-.316-.24-.24a.177.177 0 01-.152-.253c.337-1.268.524-2.571.557-3.883.063-.228.1-.48.164-.708.064-.228.253-.418-.126-.519-.127 0-.102-.177 0-.278l.139-.455a8.71 8.71 0 00-1.582 1.012c-.19.1-.279 0-.254-.165l.292-.278c.104-.144.238-.265.392-.354h.101s-.101 0-.164.076a.962.962 0 01-.481.202 24.332 24.332 0 00-3.291 2.125c-.17 0-.233-.064-.19-.19.063-.253.493-.253.417-.607 0-.101-.19-.127-.24-.253v-.089a28.504 28.504 0 003.367-3.617c0-.202.14-.379.127-.594a.632.632 0 010-.266.797.797 0 01.278-.366c.255-.16.482-.361.67-.595a13.266 13.266 0 002.596-3.946l.253-.556a1.898 1.898 0 00-.911.86.405.405 0 01-.254.316l-.316.266c-.127 0-.24-.203-.367 0-.131.06-.254.137-.367.227a.658.658 0 01-.393.177h-.113c-.216 0-.304.19-.482.228-.177.038-.278.19-.468.164-.19-.025-.418-.063-.62 0-.747.19-1.494.38-2.253.544-.177 0-.443.215-.532-.063-.089-.278.24-.202.38-.29.14-.09.633-.216.886-.456.86 0 .86 0 .873-.67l.317-.443c0-.127-.089-.24 0-.367.266-.367.974-.215.962-.873a.101.101 0 010-.164c.266-.62 1.012-.847 1.266-1.48 0-.088-.178-.126-.114-.265.29-.721 1.05-1.1 1.266-1.834 0-.164.24-.29.202-.57l-.823.393c-.164 0-.316 0-.367.177l-1.595 1.037c-.244.167-.54.243-.835.215-.089-.29.228-.202.278-.329-.19.177-.468 0-.696.152a9.375 9.375 0 01-2.392.152c.063-.14.22-.21.367-.165.253-.088.531 0 .772-.1a7.761 7.761 0 001.95-1.152c.151-.29.493-.392.695-.632.118-.143.25-.274.393-.392a.987.987 0 00.316-.329c1.266-.544 1.659-1.67 2.33-2.858l-.963.62c-.113.1-.215.227-.392.126l-.418.152c-.341-.076-.57.24-.886.278a1.051 1.051 0 01-.266.076c-.38.139-.76-.101-1.126 0a7.918 7.918 0 01-1.722-.05.887.887 0 00-.696 0c-.392 0-.81.252-1.14-.127.583-.33 1.267-.165 1.874-.43a5.204 5.204 0 001.988-1.1c.202-.582.822-.443 1.265-.709.09-.063.292-.114.152-.278-.139-.164-.177 0-.265 0a6.93 6.93 0 01-1.773 0c.216-.38.557-.101.836-.177.278-.076.506 0 .747-.114a6.077 6.077 0 003.392-1.922h-.468a2.534 2.534 0 00-1.266 0 2.241 2.241 0 01-1.52-.696c.064-.139.153-.215.317-.152.72.15 1.47.038 2.114-.316a9.84 9.84 0 01-4.367-1.77c.747-.076 1.089.38 1.557.506a7.5 7.5 0 004.582-.304 20.641 20.641 0 003.026-1.43c.266-.15.405-.29.29-.644-.164-.557-.214-1.138-.354-1.695 0-.164-.151-.29 0-.442a.443.443 0 01.52-.076c.29.144.568.31.835.493a2.673 2.673 0 002.532.62 3.205 3.205 0 011.86-.076c.443.114.659-.089.798-.456.139-.366.278-.683.405-1.024.109-.358.304-.684.57-.949.164-.151.316-.392.582-.29.266.1.215.354.24.543.026.19 0 .734 0 1.1-.126.14 0 .304-.076.456-.076.152.114 0 0 0s.14-.063 0 0c.177.443.33.936.975.582.253-.089.127.265.291.278a2.33 2.33 0 002-.784 42.74 42.74 0 005.506-6.956c.178-.266.38-.506.583-.759.367 0 .443.253.303.493-.139.24-.1.76-.544 1.037-.253.152 0 .747 0 1.126l-3.012 6.147a3.135 3.135 0 00-.456 1.024l.823.076c.24.202.645-.19.822.24l-1.114.076c0 .316.608.228.583.62 0 .088-.14 0-.177.076-.038.075.126 0 .177-.076h.253c.177.316.645.683-.165.796-.329 0-.582-.252-.987-.24a7 7 0 001.709 1.1c.253.1.528.13.797.089a.215.215 0 01.178 0l.38-.126c.139 0 .29-.102.316.139a2.153 2.153 0 01-1.266.455c-.127.215-.544-.19-.557.253.456.38.987.228 1.506.164 0 .367-.354.177-.417.443a63.083 63.083 0 016.848 4.414c0 .126-.127.24-.304.19.101.126.215 0 .316 0a3.694 3.694 0 012.127 2.529 15.163 15.163 0 01-.114 3.313c-.165 1.442-1.013 1.897-2.532 2.365-.405 0-.81-.151-1.265-.177-.456-.025-.773-.556-.823-1.201a.62.62 0 01-.899.19 2.33 2.33 0 00-2-.519 10.82 10.82 0 01-4.228 0c-.544-.126-.924.38-1.633.417l2.443 1.252c4.342 2.53 6.671 6.476 8.253 11.029a2.896 2.896 0 002.064 2.934c.83.458 1.629.969 2.392 1.53a3.3 3.3 0 011.595 2.909c0 .81.114 1.619.152 2.428 0 .367.101.531.519.519a30.125 30.125 0 009.342-1.657 3.395 3.395 0 013-.228c-.102.62.253.734.747.67a1 1 0 01.595.102l.303.164c.102.167.252.3.43.38.077.354 0 .72 0 1.075.178-.165.115-.57.507-.506.455.441.687 1.063.633 1.694-.15 2.119-.001 4.247.443 6.324 0 .088 0 0 0 0a1.883 1.883 0 000 .266c0-.076 0-.152.089-.203a24.4 24.4 0 01.367 6.223 2.528 2.528 0 01-.57 1.403 36.393 36.393 0 00-2.532 4.085 8.362 8.362 0 01-2.531 2.859c-1.266.809-1.899.569-2.266-.86a11.726 11.726 0 01-.19-4.832 2.277 2.277 0 011.52-1.53c1.265-.62 1.265-.62.948-1.897.101-.216.101-.466 0-.683.047-.389.226-.75.507-1.024.46-.53.68-1.225.607-1.923a25.273 25.273 0 00-.557-3.895 1.555 1.555 0 00-.455-1.265c-.912-1.188-1.266-1.264-2.684-.67-.607.253-1.177.607-1.772.923-.14 0-.228 0-.266.165-.954.689-1.981 1.27-3.063 1.732a35.131 35.131 0 01-6.165 2.53 3.8 3.8 0 01-.544.076 1.368 1.368 0 00-.608 0c-.253 0-.151.164-.164.076-.013-.089 0 0 0 0s.253 0 .354.075a3.8 3.8 0 01-1.81-.151 11.727 11.727 0 003.734 4.236c.994.621 2.02 1.187 3.076 1.695a2.403 2.403 0 011.43 2.264 5.611 5.611 0 00.823 3.238v1.264c-.05.366-.198.712-.43 1a18.961 18.961 0 00-3.164 7.93 5.147 5.147 0 01-2.608 3.793c-2.05 1.164-4.05 2.428-6.215 3.402a3.37 3.37 0 01-1.266.392c-.62 0-1.025-.19-1.089-.86a3.222 3.222 0 000-1.39c-.07-.577.055-1.16.355-1.658a8.718 8.718 0 013.405-3.2c.271.09.564.09.835 0 .294-.007.586.058.848.19.266.114.304 0 .38-.215a1.567 1.567 0 000-1.1 2.756 2.756 0 01.874-2.238 8.192 8.192 0 002.531-6.058 4.553 4.553 0 00-2.823-4.326 17.354 17.354 0 00-4.202-1.125c-.684-.127-1.418-.62-2-.354-.582.265-.874.973-1.266 1.48-.095.099-.197.192-.304.278-.266 0-.354.227-.417.455a26.276 26.276 0 01-7.038 5.375 24.622 24.622 0 01-7.823 2.782c-.19 0-.38 0-.253.316 1.265 2.77.76 5.628.519 8.5a12.176 12.176 0 01-4.013 7.79 3.085 3.085 0 00-.747 1.593 6.95 6.95 0 00-.456 2.302c.089.772 1.013 1.126 1.57 1.657 1.76 1.644 3.544 3.263 5.33 4.894a.582.582 0 010 .91c.278 0 .404-.34.695-.34a10.01 10.01 0 011.494 1.34c.228.204.387.473.456.771a2.34 2.34 0 001.468 1.847 8.858 8.858 0 012.279 2.01c.519.646 1.126 1.266 1.683 1.86.327.33.585.72.76 1.15.265.722 0 1.266-.71 1.455a9.64 9.64 0 01-6.227-.417 2.732 2.732 0 01-1.722-2.618c0-.936-.265-1.265-1.265-1.366a2.911 2.911 0 01-2.444-1.872 20.37 20.37 0 00-8.746-8.853 5.76 5.76 0 01-1.013-.708 2.086 2.086 0 01-.709-2.82c0-.101.076-.203.165-.493l-.861.758a.392.392 0 00-.253.253 15.185 15.185 0 01-2.747 2.53c-1.392 1.05-2.24 2.25-1.734 4.072a.417.417 0 000 .24c.006.068.006.135 0 .203 0 0 0-.177.088-.215z" fill="#000"/><path d="M95.506 95.776a2.885 2.885 0 00-2.063 1.708 8.165 8.165 0 00-.848 2.984 4.044 4.044 0 01-.19.708c-.468-2.213-.532-4.641-3.266-5.564 2.747-.898 2.785-3.314 3.304-5.527.101.556.177 1.126.279 1.682a6.32 6.32 0 001.025 2.53 2.67 2.67 0 001.873 1.264c.14.165-.012.177-.114.215z" fill="#1E191B"/><path d="M34.025 37.284a2.81 2.81 0 00-1.86 1.72c-.3.828-.554 1.672-.76 2.529 0 .088.076.24.127.367.05.126-.102.24-.266.139a8.846 8.846 0 00-.456-2.378 3.328 3.328 0 00-2.443-2.53c1.987-.644 2.532-2.175 2.747-3.857l.152-1.011c.367 0 .088.404.253.543a5.904 5.904 0 001.595 3.731c.302.246.665.403 1.05.456.102.19.013.227-.139.29zM61.772 3.718c.04.704.213 1.395.506 2.036a2.733 2.733 0 001.95 1.834c-1.987.595-2.203 2.251-2.456 3.908-.266.076-.14-.202-.24-.265A7.38 7.38 0 0061 9.22a2.696 2.696 0 00-1.911-1.632 3.352 3.352 0 002.29-3.035c0-.215.102-.443.153-.658.05-.215.088-.253.24-.177zM83.835 24.346a2.53 2.53 0 001.773-1.771c.22-.602.376-1.225.468-1.86.253-.075.14.203.24.28a4.754 4.754 0 001.671 3.211c.096.056.198.098.304.127a.19.19 0 010 .266 2.821 2.821 0 00-1.48 1.618 5.7 5.7 0 00-.495 1.872c0 .089-.088.215-.24.14v-.405c-.127-.178 0-.43-.114-.608a8.849 8.849 0 00-.646-1.568 2.177 2.177 0 00-1.417-1.1c-.152-.038-.152-.114-.064-.202z" fill="#20191B"/><path d="M34.304 54.243c.342 0 .177.278.19.38a5.322 5.322 0 001.012 2.693c.23.378.606.644 1.038.734 0 .126.367 0 .266.266a2.253 2.253 0 00-1.658 1.264 9.972 9.972 0 00-.785 2.732 8.203 8.203 0 00-1.152-3.351c0-.24.253-.291.279-.506-1 0-1.114-.127-.861-.607a4.754 4.754 0 001.544-2.871c.152-.228 0-.493.127-.734zM20.544 112.559a2.858 2.858 0 00-1.658-2.745c1.165-.328 1.418-1.353 1.646-2.377a.152.152 0 01.253 0 2.833 2.833 0 001.633 2.415c-1.266.48-1.507 1.581-1.646 2.72-.076-.013-.152-.013-.228-.013z" fill="#1F191B"/><path d="M88.722 87.986c.172.77.704 1.41 1.43 1.72a2.416 2.416 0 00-1.468 2.188c-.102.075 0 .341-.228.265-.152-1.024-.304-2.036-1.646-2.453 1.089-.228 1.266-1.075 1.608-1.86.114.013.19.127.304.14z" fill="#211B1D"/><path d="M82.582 107.057c-.114-.872-.304-1.707-1.266-2.061v-.089c0-.088 0 0 0 0a2.82 2.82 0 001.266-1.808c.165-.089-.101-.43.253-.418.216.823.304 1.72 1.266 2.1.089 0 .24.088.127.253-1.089.367-1.19 1.265-1.367 2.238-.19.038-.228-.1-.279-.215z" fill="#201B1D"/><path d="M70.165 12.647c-.33-.367.126-.961-.456-1.265.329 0 .785-.076.709-.215-.24-.442.67-.796 0-1.176.467-.741.983-1.451 1.544-2.125.114-.139.228-.366.443-.24.215.127.063.367 0 .531a29.57 29.57 0 01-1.392 2.833c-.33.399-.568.865-.697 1.366a.329.329 0 01-.151.291z" fill="#1E1B1C"/><path d="M31.506 52.08a1.834 1.834 0 001.051 1.544 1.72 1.72 0 00-1.038 1.606.29.29 0 01-.127.19c-.265-.317-.215-.772-.43-1.126a1.531 1.531 0 00-.81-.658 1.998 1.998 0 001.114-1.783c.291-.14.152.14.24.228z" fill="#231D1F"/><path d="M83.152 21.399c-.253-.645-.468-1.265-1.152-1.518.67-.43.772-.569 1.101-1.606.481.48.405 1.353 1.266 1.556-.747.29-.823.973-1.215 1.568z" fill="#1E1B1C"/><path d="M85.24 39.345c.228.62.368 1.265 1.178 1.619-.912.303-.962 1.1-1.266 1.846-.253-.759-.33-1.517-1.19-1.834a2.302 2.302 0 001.089-1.353c.215 0 .025-.253.19-.278z" fill="#211D1F"/><path d="M58.873 1.884c.24.418.456.873 1.051 1.037-.924.355-1.038 1.126-1.266 1.948-.266-.771-.316-1.593-1.266-1.922a2.188 2.188 0 001.178-1.493c.19.089.114.355.303.43z" fill="#1F1C1D"/><path d="M36.43 17.048c.13.514.392.984.76 1.366.063 0 .228.24.088.329-.62.38-.683 1.05-.91 1.796-.254-.848-.38-1.619-1.267-1.973.76-.215.874-.847 1.127-1.379.253.152.063-.202.202-.139z" fill="#211E1F"/><path d="M47.544 10.446c-.253-.53-.367-1.163-1.126-1.378.515-.242.89-.709 1.012-1.265 0-.114 0-.227.203-.227.202 0 .177.113.215.227a1.72 1.72 0 001 1.265c-.709.266-.873.873-1.114 1.416-.088 0-.088-.151-.101-.24a.253.253 0 01-.089.202z" fill="#1F1D1E"/><path d="M9.101 106.729a30.29 30.29 0 003.026-1.468c.151 0 .19 0 .164.152a22.492 22.492 0 01-2.088 1.568 2.9 2.9 0 01-2.102 1.063c0-.278.747-.48.089-.835a.823.823 0 01.911-.48z" fill="#F7F5F6"/><path d="M24.05 113.975a1.48 1.48 0 00-.936.924c-.063.151-.063.404-.304.392-.24-.013-.152-.24-.215-.367a1.493 1.493 0 00-.937-.936c.848-.329.95-1.062 1.266-1.847.114.785.215 1.505 1.127 1.834z" fill="#1F1B1C"/><path d="M46.62 46.794c-.076 1.025-.19 2.049-.215 3.086 0 .43-.468.67-.367 1.113a2.871 2.871 0 01-.367.506c-.084.157-.2.295-.342.405l-.14-.152c-.138-.203 0-.367.077-.544.076-.177.19-.544.228-.835.093-.228.136-.474.126-.72a.215.215 0 010-.127c.19-.253.114-.557.165-.847.05-.291.152-.709.215-1.075a2.527 2.527 0 010-.304c.089-.228.076-.48.152-.72a.38.38 0 01.316-.28c.279.127.178.33.152.494z" fill="#EDECEC"/><path d="M95.684 100.822c-.342-.493-.317-1.264-1.102-1.429.615-.302.996-.935.975-1.619.367 0 .063.342.253.405.038.517.36.97.836 1.176-.491.237-.816.721-.849 1.265-.025.101-.025.177-.113.202z" fill="#211C1D"/><path d="M63.772 92.728l.14.089c.113.139-.317.316 0 .468.164 0 .518.354 0 .594h.1a.164.164 0 010 .24c-.248.38-.4.814-.442 1.265-.266.114-.14-.215-.266-.253a1.67 1.67 0 00-1.013-1.53c.448-.21.8-.58.987-1.037.266.164.393.076.494.164zM25.532 70.406a1.176 1.176 0 00-.57.873c-.38 0-.278-.62-.709-.531a2 2 0 00-.405-.342c-.57-.303-.089-.316.101-.392a.82.82 0 00.456-.569l.33-1.15c.278.657.24 1.352.797 1.757a.354.354 0 010 .354z" fill="#1E1C1D"/><path d="M86.076 97.66c-.04.705.336 1.368.962 1.695a2.1 2.1 0 00-.76.683c-.177 0-.29.24-.493.101-.203-.139-.367-.632-.81-.746.48-.215.812-.666.873-1.189.114-.139-.19-.493.228-.543z" fill="#221E1F"/><path d="M26.228 87.86a5.363 5.363 0 012.063-2.796c-.49.692-.914 1.429-1.266 2.2a5.498 5.498 0 01-.443 1.265c-.076.14-.114.33-.316.342l-.342-.165c-.127-.379.076-.62.304-.847z" fill="#F2F0F1"/><path d="M20.684 98.647l.227.544a8.687 8.687 0 01-2.329 4.009 15.853 15.853 0 002.102-4.553z" fill="#1F1C1D"/><path d="M69.62 22.626h-.139a1.444 1.444 0 01-.835 0 5.646 5.646 0 01-2.165-1.455c.633-.152 1 .291 1.468.329.566.133 1.06.477 1.38.961l.291.165z" fill="#F2F0F1"/><path d="M73.063 35.526c.291 0 .595 0 .747-.33 0-.151.228-.151.355 0 .142.088.192.27.113.418-.126.329.254.885.557.86.413-.003.818.102 1.178.304a2.76 2.76 0 01-2.95-1.252z" fill="#1C1819"/><path d="M36.709 61.97a1.264 1.264 0 010-1.644c.101-.063 0-.366.253-.278 0 .468.544.822.519 1.1-.025.279-.519.633-.519 1.113-.253.038-.152-.29-.253-.29z" fill="#242122"/><path d="M49.228 10.712v.405c.607.683.266 1.264-.14 1.935-.227-.33-.227-.797-.645-1.012-.165-.076 0-.164.089-.228a.898.898 0 00.392-.695c.24-.063-.076-.456.304-.405z" fill="#1F1D1E"/><path d="M88.835 26.559c.077.324.289.6.583.759a1.733 1.733 0 00-.595.758c-.101.076 0 .342-.228.279a1.555 1.555 0 00-.67-1.037c.41-.234.67-.666.683-1.139.341-.038 0 .38.227.38z" fill="#252525"/><path d="M86.709 42.772c.08.457.34.862.721 1.126-.402.24-.666.659-.708 1.126-.254-.38-.279-.823-.646-1.025-.076 0-.177-.101 0-.177.342-.19.33-.658.633-1.05z" fill="#232021"/><path d="M64.038 11.382c0-.417-.532-.683-.494-.936.038-.252.481-.556.507-.973.076-.102.152-.102.227 0 0 .43.583.746.507.936-.076.19-.469.53-.52.91-.062.14-.138.14-.227.063zM8.101 108.044a12.13 12.13 0 002.102-1.063c.253.102 0 .506.316.544a8.942 8.942 0 01-2.05.709c-.165.037-.38.151-.368-.19z" fill="#1E1C1D"/><path d="M96.203 56.912a4.992 4.992 0 01-.861.1c-.874 0-.874 0-.494-.86.53.08 1.011.35 1.355.76z" fill="#1E1B1C"/><path d="M32.633 57.91a.367.367 0 00.468.43c.317-.075.62-.189.722.19.101.38-.393.178-.507.405a.633.633 0 01-.1.089 2.533 2.533 0 00-1.57-.734l.987-.38z" fill="#1E191B"/><path d="M26.228 87.86l-.291.834c-.2.56-.433 1.11-.696 1.644a.202.202 0 01-.14-.114c.198-.93.526-1.83.975-2.668.013.113.025.24.152.303z" fill="#211F20"/><path d="M69.304 22.512c-.582-.152-.861-.734-1.38-.961.215 0 .582 0 .152-.367-.127-.089-.063-.203 0-.304.586.385 1.02.962 1.228 1.632z" fill="#201D1E"/><path d="M9.101 106.729l-.911.48-.95.291c-.215-.215 0-.24.14-.316.139-.076.48-.114.607-.367.342-.215.697-.582 1.114-.088z" fill="#2A2829"/><path d="M23.316 91.868c.241 0 0 .291.266.316l-.43 2.783c-.152.076-.19 0-.253-.14l.278-2.2c.127-.24-.076-.544.14-.759z" fill="#2F2F2F"/><path d="M97.468 58.037c-.367.177-.202.645-.531.974a1.63 1.63 0 010-1.543c.223.141.406.337.531.57z" fill="#1E1B1C"/><path d="M43.95 37.726c.113.228.442.418.139.721-.304.304-.684.114-1.013 0l.873-.72z" fill="#241F21"/><path d="M46.494 46.364l-.19.266a.393.393 0 01-.165.076.266.266 0 01-.164-.089c-.076-.506.29-.847.48-1.265.115.228.874.177.317.709-.253-.038-.114.265-.278.303z" fill="#252122"/><path d="M5.595 106.83c0 .303.266.24.456.278l-2.254.708c.203-.442.557-.417.76-.607.261-.29.65-.433 1.038-.38z" fill="#242223"/><path d="M64.177 94.183a.53.53 0 01-.076-.456c0-.202-.126-.303-.24-.366-.456-.253-.064-.38 0-.544.226.4.548.74.936.986-.236.07-.45.201-.62.38z" fill="#251F21"/><path d="M57.05 112.394c-.227.519-.734.367-1.151.481a.822.822 0 00.468-1.05l.684.57z" fill="#1C1618"/><path d="M44.177 31.972c-.418 0-.747.38-1.19.341 0-.177 0-.278.203-.341l1.443-.531c.089 0 .164.075.177.19-.101.328-.405.265-.633.34z" fill="#302E2F"/><path d="M11.165 98.989a3.301 3.301 0 01-.836 1.112c0-.202-.14-.252-.316-.278a.341.341 0 01.177-.316c.291-.215.456-.594.848-.708.089.025.177.063.127.19z" fill="#EEECEC"/><path d="M24.253 70.748c.14 0 .266-.557.418 0 .074.188.172.367.291.53a.544.544 0 01-.278.507l-.43-1.037z" fill="#242022"/><path d="M41.418 47.287l.19.19-1.469 1.353a3.719 3.719 0 011.279-1.543z" fill="#1F1F1F"/><path d="M51.494 54.218v-3.465a10.273 10.273 0 010 3.465z" fill="#262425"/><path d="M49.772 54.382a3.881 3.881 0 01-.709 1.43l-.164-.076.76-1.632c.113.101.063.278.113.278z" fill="#313232"/><path d="M32.215 104.376c-.29.455-.14 1.34-1.114 1.164.325-.43.699-.82 1.114-1.164z" fill="#181516"/><path d="M47 53.118l.152.164c-.014.515-.34.97-.823 1.15.172-.462.397-.903.671-1.314z" fill="#222121"/><path d="M61.532 3.174a4.675 4.675 0 01.088-1.593c.174.468.23.972.165 1.467-.076.063-.127.177-.253.126z" fill="#E9E9E9"/><path d="M43.038 32.313a4.345 4.345 0 01-1.835.291 2.61 2.61 0 011.835-.278v-.013z" fill="#464646"/><path d="M26.481 88.53c.122-.45.314-.876.57-1.265l.139.316-.532 1.125c-.164.026-.228-.037-.177-.177z" fill="#252223"/><path d="M16.456 104.452a3.328 3.328 0 01-1.165 1.075c.19-.582.684-.784.886-1.189a.089.089 0 01.114-.076c.085.03.147.102.165.19z" fill="#2F2E2E"/><path d="M45.19 35.88v.164c-.608.089-1.013.67-1.671.67.557-.354.987-.885 1.67-.834z" fill="#302F2F"/><path d="M16.456 104.452l-.152-.114c-.165-.329.19-.43.278-.645.089-.215.291-.126.456 0-.087.32-.296.592-.582.76z" fill="#3C3C3C"/><path d="M70.316 12.356c.09-.531.102-1.087.697-1.366a5.563 5.563 0 01-.697 1.366z" fill="#20191B"/><path d="M68.354 20.134c-.227-.253-.595 0-.822-.24l1.531-.152c.064 0 .14.063.165.152a1.431 1.431 0 01-.874.24z" fill="#272626"/><path d="M44.089 46.642c-.33.253-.545.734-1.178.658l1-.835c.152-.038.216.026.178.177z" fill="#292929"/><path d="M44.089 46.642l-.178-.177c.247-.276.533-.514.848-.708a.253.253 0 00.254.164l-.924.721z" fill="#2C2A2B"/><path d="M47.013 37.714c.19-.152.278 0 .392.126-.253.266-.33.734-.848.658v-.102a.43.43 0 01.114-.417c.164-.038.24-.152.342-.265z" fill="#2D282A"/><path d="M45.481 28.924a1.14 1.14 0 00.62-.266c.203-.152.279 0 .355.14-.206.23-.482.385-.785.442-.266.025-.279-.152-.19-.316z" fill="#232122"/><path d="M13.544 92.74l.178.165a2.986 2.986 0 01-.735.81.19.19 0 01-.164-.127c.183-.327.428-.614.721-.847z" fill="#393939"/><path d="M24.937 91.059a1.44 1.44 0 01-.38 1.265 1.466 1.466 0 01.316-1.265h.064z" fill="#3A3939"/><path d="M82.582 107.057c.089.076.114.215.266.165v1.264a2.174 2.174 0 01-.266-1.429z" fill="#E0E0E0"/><path d="M41.152 126.736c0-.139.089-.329.253-.19.26.153.56.227.86.215 0 .215-.214.19-.328.279a1.621 1.621 0 01-.785-.304z" fill="#1A1818"/><path d="M44.076 27.38a5.27 5.27 0 01-2.304-.138h1.975c.152-.026.316-.14.329.139z" fill="#1B1819"/><path d="M5.595 106.83a3.33 3.33 0 01-.987.38l-.127-.229.911-.341c.24-.101.292-.025.203.19z" fill="#DFDDDE"/><path d="M85.772 80.208a1.365 1.365 0 010-1.265c.201.398.201.867 0 1.265z" fill="#0F0F0F"/><path d="M45.33 48.716a2.44 2.44 0 01-.343 1.265 1.605 1.605 0 01.228-1.265s.076-.05.114 0z" fill="#414141"/><path d="M44.228 33.654a1.685 1.685 0 01-1.52.405l1.38-.519c.052.03.1.07.14.114z" fill="#353334"/><path d="M12.823 93.588l.164.14a2.758 2.758 0 01-.696.834.202.202 0 01-.126-.14c.152-.324.378-.61.658-.834z" fill="#343535"/><path d="M43.532 36.676a.24.24 0 010 .102 1.47 1.47 0 01-1.266.316 3.572 3.572 0 011.266-.418z" fill="#393939"/><path d="M31.392 55.42l.127-.19v.898c0 .303 0 .354-.266.265a.215.215 0 01-.063-.354.758.758 0 00.202-.62z" fill="#EAE9E9"/><path d="M43.038 29.936a2.534 2.534 0 01-1.582 0l.974-.127c.165.114.43-.076.608.127z" fill="#3D3D3D"/><path d="M93.43 62.793a.898.898 0 01.456 1.264l-.456-1.264z" fill="#1C1819"/><path d="M45.33 48.716h-.115a1.34 1.34 0 01.266-.973.114.114 0 01.165 0 .48.48 0 01.164.328.404.404 0 010 .178c-.083.128-.18.247-.291.354l-.19.113z" fill="#2F2F2F"/><path d="M31.392 31.845a3.93 3.93 0 01-.114-1.264c.236.509.32 1.075.241 1.631-.215-.088-.228-.202-.127-.367z" fill="#E7E7E7"/><path d="M2.937 106.551a1.267 1.267 0 011.266 0c-.102.178-.317 0-.444.14a1.672 1.672 0 01-.822-.14z" fill="#0F0B0D"/><path d="M31.266 42.014l.266-.14c.057.49-.013.987-.203 1.442-.202-.455.203-.898-.063-1.302z" fill="#BDBDBD"/><path d="M63.468 95.258c.127 0 .076.278.266.253v1.05a1.908 1.908 0 01-.266-1.303z" fill="#E2E2E2"/><path d="M45.962 39.206c-.234.39-.577.702-.987.898.177-.432.54-.762.987-.898z" fill="#333232"/><path d="M43.658 30.859a2.914 2.914 0 01-1.266.24 2.343 2.343 0 011.064-.38c.177-.063.215.013.202.14z" fill="#141414"/><path d="M76.873 28.785c-.265 0-.531 0-.797-.101-.266-.102-.304.139-.317-.102-.012-.24.165-.177.304-.126.14.05.253 0 .38-.089.127-.088.316.24.43.418z" fill="#1B1819"/><path d="M44.177 31.972l.633-.38c0-.126.165-.164.291-.202.127-.038.203.126.203.266-.304.1-.469.43-.81.455l-.317-.14z" fill="#E9E8E8"/><path d="M45.481 28.924a.29.29 0 00.19.316c-.347.234-.76.35-1.177.329v-.063c0-.102 0-.152.126-.19a1.09 1.09 0 01.696-.228l.165-.164z" fill="#2C2829"/><path d="M4.025 104.97s.317 0 0 .14c-.2.038-.407.038-.607 0-.203 0-.43 0-.507-.304a.089.089 0 01.14 0l.974.165z" fill="#0A0708"/><path d="M24.937 91.059h-.064a.973.973 0 01.228-.86l.14.114c0 .328.075.632-.304.746z" fill="#363737"/><path d="M7.228 107.5a1.773 1.773 0 01-1.063.367c.303-.291.594-.57 1.063-.367z" fill="#4A4A4A"/><path d="M86.076 20.438v-.962c.177-.1.202 0 .253.14v.973c-.152.051-.19-.075-.253-.151z" fill="#B0B0B0"/><path d="M8.519 100.468c.177-.341.544-.367.835-.506a.114.114 0 010 .177c-.227.266-.48.481-.86.342l.025-.013z" fill="#444"/><path d="M26.481 88.53l.177.202c0 .126-.088.253-.126.38-.038.126-.178.328-.33.24-.151-.09 0-.317.076-.468l.203-.355z" fill="#373536"/><path d="M9.367 100.14v-.228l.76-.544c.088 0 .1.101 0 .164l-.178.291c-.19.013-.303.33-.582.316z" fill="#3A393A"/><path d="M10.19 99.532v-.164c.266-.359.602-.66.987-.885.215.202 0 .29-.114.38-.114.088-.506.556-.873.67z" fill="#1D191A"/><path d="M45.165 42.178c.164.278 0 .405-.228.544s-.355 0-.33-.165c.026-.164.203-.215.317-.328.114-.114.14-.114.24-.051z" fill="#F7F7F7"/><path d="M43.038 29.936c-.203-.064-.443 0-.608-.152l.975-.127c.14.102.342 0 .456.14a1.672 1.672 0 01-.823.139z" fill="#323131"/><path d="M48.101 55.647a.266.266 0 01.418-.164 2.2 2.2 0 01-.405.708c-.14 0-.215 0-.165-.19l.152-.354z" fill="#2D2C2C"/><path d="M49.228 10.712c-.19.076-.114.316-.253.405 0-.342-.114-.708.126-1.05.355.177.14.43.127.645z" fill="#EEE"/><path d="M46.835 28.646l.393-.127c0 .43-.393.531-.658.734a.152.152 0 010-.228l.265-.38z" fill="#0C090A"/><path d="M41.873 37.258l-1 .076c.317-.24.646-.392 1-.076z" fill="#444"/><path d="M85.734 100.14c.177 0 .266-.38.494-.102l-.215.797a.96.96 0 01-.279-.696z" fill="#1A1416"/><path d="M44.304 39.206a.658.658 0 01.557-.43.152.152 0 01.177.228 1.722 1.722 0 01-.722.379.114.114 0 010-.114l-.012-.063z" fill="#343132"/><path d="M61.772 12.647a1.1 1.1 0 01-.088.708c-.279-.329-.127-.657-.152-.96.227-.115.152.126.24.252z" fill="#E2E2E2"/><path d="M43.76 26.445h1.81a2.927 2.927 0 01-1.81 0z" fill="#292929"/><path d="M45.19 30.176a1.849 1.849 0 01-.962.43.076.076 0 010-.089c.25-.192.533-.338.835-.43a.24.24 0 01.127.089z" fill="#090607"/><path d="M45.57 47.743h-.14c-.01-.303.089-.6.279-.835.126 0 .177 0 .228.126.025.169-.001.34-.076.494-.013.113-.05.253-.291.215z" fill="#3D3C3C"/><path d="M43.848 29.796c-.152 0-.329 0-.456-.139.36-.113.737-.164 1.114-.151v.063c-.202.24-.43.19-.658.227z" fill="#121011"/><path d="M45.089 39.029V38.8a.215.215 0 01.202-.265c.14 0 .177-.33.393-.127a.342.342 0 01.126.14l-.721.48z" fill="#3B3738"/><path d="M45.924 48.767c-.076.266.114.632-.304.772-.24-.178.076-.342 0-.506-.076-.165 0-.367.152-.494.152-.126.203.089.152.228z" fill="#070606"/><path d="M86.316 28.633v.847c-.126.064 0 .367-.265.266v-.974c.088-.063.126-.19.265-.14z" fill="#C9C9C9"/><path d="M51.304 53.826c.126.278-.076.607.152.873 0 .151.088.392-.127.392s-.126-.24-.126-.38c0-.139.075-.594.1-.885z" fill="#464646"/><path d="M46.038 40.9a.91.91 0 01-.57.696.303.303 0 01-.126-.265c.162-.234.414-.39.696-.43z" fill="#2B2728"/><path d="M1.797 105.704l-.303.152c-.253-.165-.317-.354 0-.67l.303.518z" fill="#282526"/><path d="M3.101 104.857h-.139c-.266-.228-.367-.48-.14-.949l.28.949z" fill="#2B2B2B"/><path d="M45.57 50.386c-.022.299-.122.587-.292.835h-.126c.024-.347.114-.687.266-1 .152.013.152.102.152.165z" fill="#3C3C3C"/><path d="M46.582 29.088v.228c-.215.202-.392.443-.721.48v-.113c0-.038 0 0 0 0l.721-.595z" fill="#010000"/><path d="M47.013 24.181a1.153 1.153 0 011.265 0 2.344 2.344 0 01-1.265 0z" fill="#110C0E"/><path d="M86.316 19.616l-.24-.14a1.34 1.34 0 01.101-.708c.253.291.127.582.14.848z" fill="#E5E5E5"/><path d="M40.608 28.95c.341.265.76 0 1.139.126a2.736 2.736 0 01-1.19.139c-.089 0-.19 0-.165-.14.026-.139.114-.113.216-.126z" fill="#2D2B2C"/><path d="M45.316 29.088l-.683.203-.456-.127c.38-.076.747-.278 1.14-.076z" fill="#DFDBDC"/><path d="M43.165 43.38c.29-.102.417-.481.822-.43a.823.823 0 01-.822.43z" fill="#040505"/><path d="M88.684 92.437c.063.277.032.566-.09.822-.24-.202-.151-.455-.164-.67-.012-.215.178-.19.254-.152z" fill="#DDD"/><path d="M63.772 92.728c-.114 0-.24.152-.329 0-.089-.152 0-.544.228-.746.177.215.038.493.101.746z" fill="#0E0C0C"/><path d="M95.81 98.18c-.14-.102 0-.342-.253-.406a.922.922 0 010-.607c.236.28.33.654.253 1.012z" fill="#C6C6C6"/><path fill="#4E4E4E" d="M61.532 3.174l.253-.126v.67l-.24.14z"/><path d="M71 94.41c.203.442.203.95 0 1.391a3.677 3.677 0 010-1.39z" fill="#120E0F"/><path d="M45.342 41.33c.094.053.145.16.126.266a.506.506 0 00-.29.329.228.228 0 01-.229-.101v-.076c-.025-.278.178-.354.393-.417z" fill="#353535"/><path d="M12.165 94.41l.126.14a1.493 1.493 0 01-.494.62c-.113-.43.19-.557.368-.76z" fill="#363636"/><path d="M47.962 56.052l.165.19c-.077.228-.218.43-.405.581a.215.215 0 01-.165-.164l.405-.607z" fill="#3E3E3E"/><path d="M47.557 56.659l.165.164c-.116.236-.301.43-.532.557-.013-.38.24-.468.367-.721z" fill="#2E2E2E"/><path d="M2.532 107.108h1.417c-.46.156-.958.156-1.417 0z" fill="#4D4C4C"/><path d="M86.076 97.66l-.228.544c-.05-.386.03-.777.228-1.113v.57z" fill="#CDCDCD"/><path d="M45.304 31.618l-.24-.215a.114.114 0 010-.102v-.063s.252-.202.417-.265c.165-.064.165 0 .152.139l-.33.506z" fill="#1F1D1E"/><path d="M62.506 18.477c-.265.102-.164-.215-.29-.278l.581-.506c.152.405-.405.443-.29.784z" fill="#323232"/><path d="M46.33 34.147l.113.266c-.33-.177-.43.202-.67.253-.241.05-.178 0-.153-.14.228-.151.355-.48.71-.379z" fill="#262425"/><path d="M29.734 87.733c.202.437.202.94 0 1.378v-1.378z" fill="#111"/><path d="M44.228 33.654c-.089 0-.127 0-.14-.114-.012-.114-.202-.114-.29-.164l.86-.279c-.076.279-.405.228-.443.456l.013.1z" fill="#AEACAD"/><path d="M20.544 106.842a1.175 1.175 0 010-.708c.187.18.252.452.165.696a.165.165 0 01-.165.012z" fill="#C1C1C1"/><path d="M16.62 103.706c0 .278-.24.405-.278.645h-.127l-.177-.19c.114-.265.418-.341.582-.455z" fill="#D4D1D2"/><path d="M20.544 112.559h.228v.683c-.164.126-.177 0-.24-.127l.012-.556z" fill="#A0A0A0"/><path d="M45.785 48.577l-.152.456c0-.152 0-.342-.152-.456-.152-.113 0-.43.278-.43.115.117.126.3.026.43z" fill="#EDECEC"/><path d="M49.772 54.382l-.114-.278v-.341c.114 0 .203 0 .253.088l-.139.531z" fill="#040102"/><path d="M88.722 87.986c-.241.253-.254 0-.304-.14v-.392c.152-.075.19 0 .24.14l.064.392z" fill="#110F10"/><path d="M61.532 11.23l.24.266v.557c-.14 0-.202 0-.228-.14l-.012-.682z" fill="#6E6C6D"/><path d="M45.81 23.334l-.316.152a.29.29 0 010-.494c.152-.076.202.228.316.342z" fill="#141112"/><path d="M69.215 19.894l-.164-.152.595-.253c.076 0 .113 0 .088.101a.848.848 0 01-.519.304z" fill="#050505"/><path d="M95.684 100.822l.113-.177c.035.36-.026.722-.177 1.05-.202-.341.013-.594.064-.873z" fill="#CECECE"/><path d="M24.405 69.445c0 .354.228.81-.456.57l.456-.57z" fill="#242022"/><path d="M20.532 113.065l.24.126a.62.62 0 01-.088.544c-.254-.202-.152-.455-.152-.67z" fill="#E8E8E8"/><path d="M41.848 37.827c.261-.173.587-.22.886-.126a1.824 1.824 0 01-.886.278l-.076-.038s.063-.114.076-.114z" fill="#383838"/><path d="M45.57 34.514l.152.139a1.266 1.266 0 01-.722.405c.152-.354.418-.418.57-.544z" fill="#444"/><path d="M36.962 60.01c-.177 0-.127.228-.253.279a.784.784 0 01.202-.747c.086.141.104.313.051.468z" fill="#B7B7B7"/><path d="M36.709 61.97c.126 0 0 .291.253.291v.519a.784.784 0 01-.253-.81z" fill="#CDCACB"/><path d="M86.076 29.746l.266-.266c0 .279-.101.57-.165.898-.177-.24-.101-.43-.101-.632z" fill="#E7E7E7"/><path d="M76.86 88.428a.973.973 0 010 1.1 3.576 3.576 0 010-1.1z" fill="#0D090A"/><path d="M75.595 89.554c-.228.215-.557.088-.823.215-.266.126 0-.14 0-.215.265-.104.558-.104.823 0z" fill="#120B0E"/><path d="M88.456 86.923a.581.581 0 010-.48c.205.19.279.481.19.746-.178.076-.114-.19-.19-.266z" fill="#C5C5C5"/><path d="M31.392 31.845l.127.316v.721l-.253-.543c-.013-.215-.076-.393.126-.494z" fill="#585858"/><path fill="#5A5A5A" d="M86.316 28.633l-.253.14v-.545l.24-.139z"/><path d="M43.544 37.435c-.228.14-.43.304-.772.165a.886.886 0 01.62-.291s.14.038.152.126z" fill="#434243"/><path d="M58.873 1.884c-.278 0-.24-.253-.303-.43v-.19h.139c.068.203.123.41.164.62z" fill="#060606"/><path d="M44.228 30.48a.215.215 0 010 .126c-.14.202-.367.202-.57.253l-.164-.14c.213-.154.47-.238.734-.24z" fill="#2A2828"/><path d="M46.557 38.498c.076.38-.114.48-.468.43a.709.709 0 01.493-.418l-.025-.012z" fill="#080506"/><path d="M44.747 42l-.57.19c.228-.366.43-.48.734-.442.089.164-.025.215-.164.253z" fill="#252525"/><path d="M41.443 46.794c-.101.127-.215.14-.405 0 .104-.24.293-.434.532-.544.202.342-.064.43-.127.544z" fill="#2B2C2C"/><path d="M45.57 50.386l-.152-.165c0-.19 0-.404.164-.556.33.24-.012.48-.012.72z" fill="#151314"/><path d="M45.05 50.424s0 .088-.164.076c-.164-.013-.114-.114-.101-.203.012-.088 0-.24.164-.24.165 0 .114.114.102.367z" fill="#686868"/><path fill="#484747" d="M20.544 106.842h.228v.544h-.253z"/><path d="M43.696 53.282a.975.975 0 01.734-.38c-.126.355-.354.367-.734.38z" fill="#424242"/><path d="M45.886 46.971h-.127c0-.164.114-.215.216-.29h.177c.14.189.152.353-.101.467-.254.114-.14-.088-.165-.177z" fill="#605E5F"/><path d="M36.81 58.316c0-.177-.215-.14-.266-.266-.05-.126.266 0 .405 0 .14 0 .254.063.178.202-.076.14-.203.089-.317.064z" fill="#D2D2D2"/><path d="M23.316 91.868c.025.261-.024.524-.139.76l-.139-.304c.025-.19.063-.38.278-.456z" fill="#E5E5E5"/><path fill="#868686" d="M88.684 92.437l-.254.152v-.43l.228-.265z"/><path d="M14.089 92.59a.658.658 0 01.557-.418l-.393.594-.164-.177z" fill="#D5D1D3"/><path d="M44.076 27.38l-.33-.138c.267 0 .608-.38.697.19l-.367-.051z" fill="#2D292A"/><path d="M44.494 52.89a.797.797 0 01.582-.531c-.114.38-.266.506-.582.531z" fill="#333"/><path d="M43.937 39.636a.62.62 0 01-.659.126c.124-.149.301-.244.494-.265.152-.063.177.012.165.139z" fill="#0A0909"/><path d="M22.899 94.853l.253.14v.416a.443.443 0 01-.253-.556z" fill="#313232"/><path d="M43.937 39.636l-.165-.14a.95.95 0 01.532-.29v.177a.532.532 0 01-.367.253z" fill="#302E2F"/><path fill="#B3B3B3" d="M61.544 11.914l.228.139v.594l-.24-.253z"/><path d="M11.025 98.862l.114-.38h.19c.203.254 0 .393-.164.532l-.14-.152z" fill="#AEA8AA"/><path d="M8.519 100.468c-.089.291-.316.165-.57.253.152-.341.342-.329.57-.253z" fill="#141414"/><path d="M68.506 23.346c-.152-.063-.354-.151 0-.252.201-.038.407-.038.608 0-.19.19-.52-.026-.608.252z" fill="#282426"/><path d="M6.165 102.871c.287-.063.587.002.822.177a.697.697 0 01-.822-.177z" fill="#0F0D0E"/><path d="M34.025 37.284l.14-.266c.151 0 .392-.089.341.152-.05.24-.329.126-.48.114z" fill="#BCBDBC"/><path d="M44.228 36.917c.063.114.202.227 0 .367h-.33a.253.253 0 01-.139-.14l.469-.227z" fill="#2B2829"/><path d="M25.532 70.406c-.114-.114-.064-.24 0-.354.063-.114.316 0 .329.14.012.138-.228.126-.33.214z" fill="#272425"/><path d="M31.506 52.08l-.24-.227a.354.354 0 01.076-.38c.163.157.227.39.164.608z" fill="#9A9A9A"/><path d="M78.557 67.548l-.456-.076c.291-.076.583-.177.836 0l-.38.076z" fill="#080808"/><path d="M45.19 51.22h.126l-.126.544c-.43-.177-.076-.354 0-.543z" fill="#4A4A4A"/><path d="M45.873 29.569v.164c0 .203-.253.253-.43.304-.177.05-.152 0-.114-.127l.544-.341z" fill="#010000"/><path d="M45.33 51.916c0-.227.151-.316.316-.405a.114.114 0 01.19 0c-.178.127-.127.519-.507.405z" fill="#060002"/><path fill="#686868" d="M88.456 86.923l.228.266v.405l-.241-.14z"/><path d="M70.291 22.638l-.316-.139.228-.126c.113-.064.278-.215.354 0 .076.215-.089.227-.266.265z" fill="#282426"/><path d="M88.835 26.559l-.227-.38v-.366a.796.796 0 01.227.746z" fill="#A8A8A8"/><path d="M45.772 38.548l-.126-.139c.177 0 .253-.392.519-.177l-.393.316z" fill="#100D0E"/><path d="M64.278 11.762c0 .139.102.367-.139.354-.24-.013-.101-.215-.101-.342a.177.177 0 01.24-.012z" fill="#E3E3E3"/><path fill="#908F8F" d="M64.278 11.762h-.24v-.38h.24z"/><path d="M46.747 37.941c0 .177-.101.278-.177.418l-.292-.178a.418.418 0 01.304-.252c.05.012.114.012.165.012z" fill="#C7C4C5"/><path d="M41.848 37.827v.114c-.164 0-.316.203-.494 0 .114-.164.33-.076.494-.114z" fill="#232323"/><path d="M83.835 24.346v.24c-.151 0-.38.114-.367-.14.013-.252.228-.138.367-.1z" fill="#BAB7B8"/><path d="M44.557 35.412c0 .164-.152.177-.24.202-.09.025-.203-.088-.165-.152a.608.608 0 01.278-.164s.089.013.127.114z" fill="#5C5C5C"/><path d="M45.57 31.15l-.152-.14a.722.722 0 01.43-.252c.025.177.05.392-.278.392z" fill="#3E3A3C"/><path d="M82.835 102.63l-.253.418c0-.19 0-.392.076-.582.076-.19.076-.139.127 0 .05.14.038.089.05.165z" fill="#353535"/><path d="M64.278 9.447h-.227V9.03c.088-.101.164-.101.24 0l-.013.417z" fill="#999"/><path d="M81.316 104.857v.114c-.126 0-.278 0-.354-.089a.177.177 0 01.076-.14.177.177 0 01.278.115z" fill="#CACACA"/><path d="M48.013 51.853c0-.152.126-.329.164-.304.038.026.076.38 0 .57l-.164-.266z" fill="#8C8789"/><path fill="#040303" d="M43.797 37.144l.14.14-.393.151-.152-.126z"/><path d="M88.608 28.367l.227-.278a.91.91 0 01-.151.595.29.29 0 01-.076-.317z" fill="#595959"/><path d="M48.975 56.128c0 .126-.089.253-.216.265-.126.013-.139-.088-.113-.19.025-.1.088-.227.227-.202.14.025.076.089.102.127z" fill="#505151"/><path d="M69.734 19.59l-.114-.1a.443.443 0 01.481-.304.43.43 0 01-.367.404z" fill="#383838"/><path d="M42.658 47.958l-.215.151s-.114-.1-.101-.126a.253.253 0 01.228-.215c.076 0 .114.063.088.19z" fill="#0E0E0E"/><path d="M47.013 52.32c0-.088.114-.24.24-.138.088.07.135.179.127.29 0 .14-.152 0-.228 0-.076 0-.025-.164-.14-.151z" fill="#222121"/><path d="M44.899 45.352l.43-.265c.127-.076.152 0 .152.1 0 .102-.228.28-.43.292l-.152-.127z" fill="#D0CBCD"/><path d="M88.291 24.599v-.266c.127 0 .355 0 .33.164-.026.165-.203.102-.33.102z" fill="#2B2B2B"/><path d="M45.835 51.511h-.19c0-.29.203-.379.393-.505.076.227-.038.366-.203.505z" fill="#2F2D2E"/><path d="M42.14 44.062a.798.798 0 01-.596.228.57.57 0 01.595-.29v.062z" fill="#383838"/><path d="M64.278 9.043h-.24c0-.14 0-.342.101-.354.102-.013.14.164.14.354z" fill="#E5E5E5"/><path d="M44.747 42c0-.113.228-.1.164-.265l.266.19v.253h-.24l-.19-.177z" fill="#CECFCE"/><path d="M33.481 77.666c0 .24-.063.518-.43.404.114-.164.19-.38.43-.404z" fill="#1A1416"/><path d="M69.203 76.654c0-.278 0-.544.417-.455l-.417.455z" fill="#120E0F"/><path d="M85.924 27.254c.114 0 .279-.126.215.14-.063.265 0 .316-.101.467-.1-.185-.14-.397-.114-.607z" fill="#1F1F1F"/><path d="M95.506 95.776l.14-.227h.341c-.012 0-.29.265-.48.227z" fill="#C4C4C4"/><path d="M41.684 39.294a.481.481 0 01-.545 0c.19-.19.342-.265.545 0z" fill="#0E0E0E"/><path d="M45.253 38.536l-.202.265h-.14l-.316-.139c.202-.126.405-.278.658-.126z" fill="#E7E2E4"/><path d="M3.797 106.653l.444-.14c.075 0 .151.076.1.178a.203.203 0 01-.265.088l-.279-.126z" fill="#9B9899"/><path d="M36.987 111.522l-.076.38c-.114-.266-.126-.456 0-.62l.076.24z" fill="#0F0B0C"/><path d="M2.709 106.918c-.14.089-.342 0-.443.152-.14 0-.14-.14-.076-.19a.507.507 0 01.519.038z" fill="#4D4C4C"/><path d="M41.848 29.088a.481.481 0 01.696 0h-.696z" fill="#2D2B2C"/><path d="M47.544 10.446s0-.19.114-.177c.114.013 0 .114.076.177a.341.341 0 01-.101.355c-.114-.089-.101-.228-.089-.355z" fill="#070707"/><path d="M3.797 106.83a.785.785 0 01-.746.088l.746-.088z" fill="#4D4C4C"/><path d="M45.05 31.276v.165c0 .139-.151.139-.253.151l-.164-.139.418-.177z" fill="#070405"/><path d="M46.646 32.3c0-.34.139-.316.367-.176a.469.469 0 01-.367.177z" fill="#0E0C0D"/><path d="M42.544 33.262c-.228.215-.506.114-.772.1.247-.09.51-.125.772-.1z" fill="#2C2C2C"/><path d="M47.722 37.574a.493.493 0 01.253-.316c0 .101.126.203 0 .316-.127.114-.152.038-.253 0z" fill="#E8E4E5"/><path d="M85.24 39.345c-.113.063.152.367-.177.278a1.908 1.908 0 010-.38s.089 0 .127-.075l.05.177z" fill="#101010"/><path d="M42.544 42.899c0-.24.24-.19.355-.253.114-.063 0 .139 0 .164a.393.393 0 01-.355.089z" fill="#5A5A5A"/><path d="M42.14 44.062c0-.253.252-.126.43-.38-.076.355-.279.317-.43.38z" fill="#1E1E1E"/><path d="M41.443 46.794l.177-.443c.124.046.208.16.215.291l-.392.152z" fill="#0C0B0B"/><path d="M45.342 26.154c-.228.215-.494.127-.747.114a1.66 1.66 0 01.747-.114z" fill="#292929"/><path d="M46.063 52.473c.076 0 .178-.127.203 0a.278.278 0 01-.165.303l-.076-.19a.126.126 0 01.038-.113z" fill="#151213"/><path d="M45.342 29.91l.114.127a.253.253 0 01-.266.139l-.127-.127a.291.291 0 01.279-.139z" fill="#060405"/><path d="M45.57 53.409l.139.177c-.063.164-.177.316-.317.151-.139-.164.178-.227.178-.328z" fill="#313030"/><path d="M34.304 54.243c0 .253.101.519-.114.734-.026-.25.014-.503.114-.734z" fill="#272727"/><path d="M96.95 57.48a.367.367 0 01-.431-.379c.179.08.329.213.43.38z" fill="#1E1B1C"/><path d="M88.709 63.235c-.076 0-.14-.139 0-.215.14-.076.24-.063.329 0l-.33.215z" fill="#141414"/><path d="M98.62 66.119v.518c-.114-.29-.126-.48 0-.645a.114.114 0 010 .127z" fill="#0E0C0D"/><path d="M86.076 20.438c.127 0 .177.088.253.151v.405l-.253-.278v-.278z" fill="#322D2E"/><path d="M93.33 70.824a.468.468 0 010 .682.86.86 0 010-.682z" fill="#0E0C0C"/><path d="M61.24 17.617a.316.316 0 010 .127c0 .076-.113 0-.113 0s0-.354.126-.48l-.012.353z" fill="#121212"/><path d="M36.43 17.048c-.063.089 0 .253-.1.304l-.077-.165c0-.113 0-.29.089-.328.088-.038.088.1.088.19z" fill="#0A0A0A"/><path d="M41.43 104.692c0-.088-.076-.19 0-.253s.19 0 .292 0c.1 0-.14.24-.292.253z" fill="#262223"/><path d="M84.215 104.97l-.126-.252c.139 0 .303 0 .354.113.05.114-.114.14-.228.14z" fill="#B9B9B9"/><path d="M54.848 53.118c.197.398.197.866 0 1.264v-1.264z" fill="#181315"/><path d="M21.38 97.066c-.203 0-.102.38-.38.329-.114-.278.114-.506.101-.784.215.114.228.29.266.468l.013-.013z" fill="#1F1C1D"/><path d="M12.291 105.413l-.164-.152.708-.518a.848.848 0 01-.544.67z" fill="#E0DBDD"/><path d="M46.494 46.364a.733.733 0 01.19-.468l.088.177-.152.734-.126-.443z" fill="#C0BBBD"/><path d="M45.481 45.188l-.152-.101c.211-.19.488-.29.772-.278l-.62.379z" fill="#F4EDF0"/><path d="M67.81 20.83a.582.582 0 01-.443.253c.127-.279.127-.279.443-.253z" fill="#201D1E"/><path d="M68.62 22.676h.836a.684.684 0 01-.836 0z" fill="#282426"/><path d="M46.747 37.941h-.165c.102-.152.215-.29.43-.265.013.265-.088.265-.265.265z" fill="#FEFBFC"/><path d="M45.785 48.577v-.43c.088-.19 0-.43.126-.607a.253.253 0 01.292 0c-.035.401-.12.797-.254 1.176l-.164-.139z" fill="#252323"/><path d="M46.177 47.59h-.266c-.088 0-.088-.1-.126-.15l.101-.507.165.076a.43.43 0 01.139.316l-.013.266z" fill="#A6A4A5"/><path d="M46.19 47.363a.341.341 0 01-.14-.316c.153-.114.127-.266.102-.417h.152c.071.25.03.517-.114.733z" fill="#131011"/><path d="M45.785 47.477l.126.152c0 .177 0 .405-.152.544 0-.152-.227-.253-.139-.43.089-.177.114-.177.165-.266z" fill="#D6D5D5"/></g></g></svg>