<svg xmlns="http://www.w3.org/2000/svg" viewBox="0 0 200 200" class="icon icon--git" fill="currentColor" width="200" height="200"><path fill="none" d="M-1-1h202v202H-1z"/><g><path d="M191.314 91.543L108.448 8.685c-4.767-4.775-12.51-4.775-17.285 0l-17.202 17.21 21.825 21.824c5.071-1.715 10.886-.561 14.932 3.477 4.061 4.069 5.208 9.937 3.447 15.023L135.2 87.254c5.086-1.753 10.962-.622 15.023 3.454 5.678 5.679 5.678 14.88 0 20.565-5.686 5.686-14.886 5.686-20.572 0-4.274-4.274-5.33-10.552-3.166-15.82L106.87 75.837v51.62a14.967 14.967 0 013.85 2.749c5.677 5.678 5.677 14.886 0 20.572-5.687 5.678-14.895 5.678-20.565 0-5.679-5.686-5.679-14.894 0-20.572a14.494 14.494 0 014.76-3.174v-52.09a14.377 14.377 0 01-4.76-3.174c-4.305-4.296-5.337-10.612-3.136-15.896l-21.513-21.52L8.692 91.163c-4.775 4.775-4.775 12.518 0 17.293l82.858 82.858c4.768 4.775 12.51 4.775 17.286 0l82.47-82.471c4.776-4.783 4.776-12.526.008-17.3" fill="currentColor" stroke="null"/></g></svg>