<svg viewBox="0 0 96 96" xmlns="http://www.w3.org/2000/svg" class="icon icon--git" fill="currentColor" width="200"><defs><filter id="git-a"><feColorMatrix in="SourceGraphic" values="0 0 0 0 1.000000 0 0 0 0 1.000000 0 0 0 0 1.000000 0 0 0 1.000000 0"/></filter></defs><g transform="translate(-2 -2)" filter="url(#git-a)" fill="none" fill-rule="evenodd"><path d="M0 0h100v100H0z"/><path d="M95.205 45.814L54.182 4.794a6.05 6.05 0 00-8.557 0l-8.515 8.52 10.804 10.804a7.186 7.186 0 017.392 1.722 7.188 7.188 0 011.706 7.437L67.426 43.69c2.518-.868 5.426-.308 7.437 1.71a7.2 7.2 0 010 10.18 7.197 7.197 0 01-10.184 0 7.204 7.204 0 01-1.568-7.831l-9.71-9.71v25.554a7.41 7.41 0 011.905 1.36 7.204 7.204 0 010 10.185c-2.815 2.81-7.373 2.81-10.18 0a7.204 7.204 0 012.356-11.756V37.595a7.117 7.117 0 01-2.356-1.571c-2.131-2.127-2.642-5.254-1.553-7.87l-10.65-10.653L4.798 45.626a6.054 6.054 0 000 8.56l41.019 41.02a6.05 6.05 0 008.557 0l40.827-40.828a6.062 6.062 0 00.004-8.564" fill="#000" fill-rule="nonzero" stroke="#000"/></g></svg>