<svg viewBox="0 0 100 96" xmlns="http://www.w3.org/2000/svg" class="icon icon--github" fill="currentColor" width="200"><defs><filter id="github-a"><feColorMatrix in="SourceGraphic" values="0 0 0 0 1.000000 0 0 0 0 1.000000 0 0 0 0 1.000000 0 0 0 1.000000 0"/></filter></defs><g filter="url(#github-a)" fill="none" fill-rule="evenodd"><path d="M50 .13c-27.625 0-50 22-50 49.134C0 70.976 14.325 89.389 34.188 95.88c2.5.463 3.416-1.058 3.416-2.362 0-1.167-.041-4.259-.062-8.354C23.633 88.126 20.7 78.572 20.7 78.572c-2.275-5.671-5.563-7.188-5.563-7.188-4.529-3.045.35-2.983.35-2.983 5.021.342 7.659 5.063 7.659 5.063 4.458 7.512 11.704 5.341 14.562 4.087.45-3.18 1.738-5.342 3.167-6.57C29.771 69.75 18.1 65.525 18.1 46.7c0-5.362 1.938-9.746 5.146-13.183-.563-1.242-2.25-6.238.437-13.004 0 0 4.188-1.317 13.75 5.037 4-1.092 8.25-1.633 12.5-1.658 4.25.025 8.5.566 12.5 1.658 9.5-6.354 13.688-5.037 13.688-5.037 2.687 6.766 1 11.762.5 13.004 3.187 3.437 5.125 7.82 5.125 13.183 0 18.875-11.688 23.03-22.813 24.238 1.75 1.475 3.375 4.487 3.375 9.091 0 6.575-.062 11.859-.062 13.454 0 1.288.875 2.825 3.437 2.334C85.687 89.368 100 70.943 100 49.264 100 22.13 77.612.13 50 .13z" fill="#000" fill-rule="nonzero"/></g></svg>