<svg viewBox="0 0 100 92" xmlns="http://www.w3.org/2000/svg" class="icon icon--gitlab" fill="currentColor" width="200"><defs><filter id="gitlab-a"><feColorMatrix in="SourceGraphic" values="0 0 0 0 1.000000 0 0 0 0 1.000000 0 0 0 0 1.000000 0 0 0 1.000000 0"/></filter></defs><g transform="translate(0 -4)" filter="url(#gitlab-a)" fill="none" fill-rule="evenodd"><path d="M98.768 55.456l-5.146-15.813a2.235 2.235 0 00-.125-.425L83.172 7.435a4.105 4.105 0 00-3.919-2.799 4.035 4.035 0 00-3.873 2.822L65.54 37.744H34.477L24.62 7.458a4.035 4.035 0 00-3.856-2.822h-.023a4.116 4.116 0 00-3.908 2.825L6.501 39.281c0 .03-.023.053-.032.082l-5.24 16.096a5.873 5.873 0 002.134 6.574l45.266 32.891a2.316 2.316 0 002.735-.014l45.274-32.877a5.87 5.87 0 002.13-6.577m-67.66-13.063l12.617 38.834-30.289-38.834M56.29 81.236l12.1-37.23.52-1.613h17.687L59.194 77.5m20.1-67.06l8.866 27.305H70.413m-6.377 4.632l-8.79 27.053L50 85.539 35.985 42.377M20.722 10.44l8.883 27.304H11.87M6.087 58.287a1.248 1.248 0 01-.452-1.398l3.89-11.954 28.532 36.578m55.86-23.226L61.944 81.505l.107-.14 28.425-36.43 3.89 11.948a1.248 1.248 0 01-.449 1.401" fill="#000" fill-rule="nonzero" stroke="#000"/></g></svg>