<svg xmlns="http://www.w3.org/2000/svg" stroke="null" vector-effect="non-scaling-stroke" viewBox="0 0 200 200" class="icon icon--gitlab" fill="currentColor" width="200" height="200"><path stroke="null" fill="none" id="canvas_background" d="M-1-1h202v202H-1z"/><g><style></style><style></style><style></style><style></style><style></style><linearGradient y2=".5" y1=".5" x2="1" x1="0" id="svg_157"><stop stop-color="#4c4c4c" offset="0"/><stop stop-color="#343434" offset="1"/></linearGradient><g stroke="null" id="svg_168"><path stroke="null" id="svg_167" d="M198.512 111.022l-10.396-31.943a4.514 4.514 0 00-.251-.86l-20.857-64.2a8.291 8.291 0 00-7.917-5.654 8.15 8.15 0 00-7.823 5.701l-19.88 61.178H68.643L48.734 14.066a8.15 8.15 0 00-7.788-5.7h-.047a8.315 8.315 0 00-7.894 5.706L12.131 78.349c0 .058-.046.105-.064.163L1.484 111.028a11.864 11.864 0 004.31 13.278l91.436 66.44a4.678 4.678 0 005.525-.029l91.454-66.41a11.858 11.858 0 004.303-13.285M61.837 84.634l25.488 78.444L26.14 84.634m86.566 78.462l24.44-75.205 1.053-3.257h35.725l-55.354 70.913m40.602-135.459l17.91 55.156h-35.848m-12.882 9.355l-17.757 54.647-10.595 32.544L71.69 84.6M40.858 20.087l17.945 55.156H22.978M11.295 116.74a2.52 2.52 0 01-.912-2.824l7.859-24.148 57.634 73.89m112.837-46.918l-64.587 46.9.216-.281 57.419-73.591 7.858 24.137a2.52 2.52 0 01-.906 2.83"/></g></g></svg>