<svg xmlns="http://www.w3.org/2000/svg" viewBox="0 0 200 200" class="icon icon--js" fill="currentColor" width="200" height="200"><path fill="none" d="M-1-1h202v202H-1z"/><g><path d="M3.152 143.511l22.484-13.61c4.337 7.687 8.286 14.198 17.748 14.198 9.073 0 14.797-3.55 14.797-17.36V32.852h27.61v94.275c0 28.596-16.761 41.619-41.22 41.619-22.085.012-34.908-11.436-41.42-25.235m97.648-2.962l22.485-13.022c5.923 9.66 13.61 16.76 27.22 16.76 11.448 0 18.736-5.724 18.736-13.61 0-9.462-7.5-12.824-20.122-18.348l-6.9-2.962c-19.922-8.474-33.133-19.134-33.133-41.618 0-20.71 15.774-36.495 40.432-36.495 17.56 0 30.183 6.112 39.245 22.097l-21.497 13.81c-4.737-8.486-9.861-11.836-17.748-11.836-8.086 0-13.21 5.125-13.21 11.836 0 8.286 5.124 11.636 16.96 16.772l6.899 2.962c23.472 10.06 36.682 20.322 36.682 43.394 0 24.858-19.522 38.457-45.756 38.457-25.646.012-42.206-12.224-50.293-28.197" stroke="null"/></g></svg>