<svg viewBox="0 0 102 73" xmlns="http://www.w3.org/2000/svg" class="icon icon--js" fill="currentColor" width="200"><defs><filter id="js-a"><feColorMatrix in="SourceGraphic" values="0 0 0 0 1.000000 0 0 0 0 1.000000 0 0 0 0 1.000000 0 0 0 1.000000 0"/></filter></defs><g filter="url(#js-a)" fill="none" fill-rule="evenodd"><path d="M1.058 58.837l11.59-7.016c2.236 3.963 4.271 7.319 9.148 7.319 4.678 0 7.628-1.83 7.628-8.948V1.796h14.231v48.596c0 14.74-8.639 21.453-21.247 21.453-11.383.006-17.993-5.895-21.35-13.008m50.334-1.527l11.59-6.712c3.054 4.98 7.016 8.639 14.031 8.639 5.901 0 9.658-2.95 9.658-7.016 0-4.877-3.866-6.61-10.372-9.457l-3.557-1.527c-10.269-4.368-17.079-9.863-17.079-21.453C55.663 9.11 63.793.973 76.505.973c9.051 0 15.558 3.15 20.229 11.39L85.653 19.48c-2.442-4.374-5.083-6.1-9.148-6.1-4.169 0-6.81 2.64-6.81 6.1 0 4.271 2.641 5.998 8.742 8.646l3.557 1.526c12.098 5.186 18.908 10.475 18.908 22.368 0 12.814-10.063 19.824-23.586 19.824-13.22.006-21.756-6.301-25.924-14.535" fill="#000" fill-rule="nonzero" stroke="#000"/></g></svg>