<svg xmlns="http://www.w3.org/2000/svg" viewBox="0 0 200 200" class="icon icon--logo-svg" fill="currentColor" width="200" height="200"><path fill="none" d="M-1-1h202v202H-1z"/><g><g fill-rule="nonzero" fill="none" stroke="null"><path fill="#000" d="M191.105 120.118c10.817-10.817 10.817-28.418 0-39.236-5.24-5.24-12.207-8.125-19.617-8.125-1.76 0-3.492.16-5.182.476 7.363-5.036 12.136-13.506 12.136-22.924 0-15.298-12.446-27.743-27.744-27.743-9.437 0-17.921 4.79-22.955 12.179 1.666-8.783-.946-18.17-7.62-24.843-5.237-5.24-12.205-8.126-19.615-8.126-7.411 0-14.378 2.885-19.618 8.126-6.673 6.672-9.284 16.06-7.62 24.843-5.033-7.388-13.517-12.18-22.954-12.18-15.297 0-27.743 12.445-27.743 27.744 0 9.419 4.771 17.888 12.135 22.924a28.168 28.168 0 00-5.181-.476c-7.412 0-14.378 2.886-19.618 8.126-5.241 5.24-8.127 12.207-8.127 19.617s2.886 14.378 8.126 19.618c5.24 5.24 12.207 8.126 19.617 8.126 1.76 0 3.492-.16 5.182-.477-7.364 5.037-12.135 13.507-12.135 22.925 0 15.297 12.445 27.742 27.743 27.742 9.437 0 17.922-4.79 22.955-12.179-1.665 8.784.946 18.172 7.62 24.843 5.24 5.24 12.207 8.127 19.616 8.127 7.412 0 14.379-2.886 19.619-8.127 6.672-6.672 9.284-16.06 7.618-24.843 5.034 7.388 13.518 12.18 22.955 12.18 15.298 0 27.743-12.445 27.743-27.743 0-9.419-4.77-17.888-12.135-22.925 1.69.316 3.422.477 5.182.477 7.41 0 14.377-2.887 19.617-8.126" stroke-width="1.97475"/><path fill="#3C3C3C" d="M182.733 89.248c-6.213-6.213-16.288-6.213-22.502 0h-32.566l23.028-23.027c8.788 0 15.91-7.124 15.91-15.912 0-8.787-7.122-15.912-15.91-15.912-8.789 0-15.912 7.125-15.912 15.912l-23.028 23.028V40.77c6.214-6.214 6.214-16.288 0-22.502-6.215-6.215-16.29-6.215-22.503 0-6.214 6.215-6.214 16.29 0 22.502v32.567L66.222 50.308c0-8.786-7.124-15.91-15.911-15.91-8.788 0-15.912 7.124-15.912 15.91 0 8.789 7.124 15.913 15.91 15.913l23.03 23.027H40.772c-6.215-6.213-16.29-6.213-22.504 0-6.213 6.215-6.213 16.29 0 22.504 6.214 6.214 16.289 6.214 22.504 0h32.565L50.311 134.78c-8.788 0-15.912 7.123-15.912 15.911 0 8.789 7.124 15.913 15.91 15.913 8.79 0 15.913-7.124 15.913-15.912l23.028-23.028v32.566c-6.214 6.214-6.214 16.29 0 22.503 6.214 6.214 16.29 6.214 22.504 0 6.213-6.214 6.213-16.29 0-22.504v-32.565l23.027 23.028c0 8.788 7.123 15.91 15.911 15.91 8.789 0 15.913-7.122 15.913-15.91 0-8.789-7.124-15.912-15.912-15.912l-23.029-23.028h32.567c6.215 6.215 16.29 6.215 22.502 0 6.215-6.214 6.215-16.29 0-22.503" stroke-width="1.97475"/></g></g></svg>