<svg viewBox="0 0 100 100" xmlns="http://www.w3.org/2000/svg" class="icon icon--mac-os" fill="currentColor" width="200"><defs><filter id="mac-os-a"><feColorMatrix in="SourceGraphic" values="0 0 0 0 1.000000 0 0 0 0 1.000000 0 0 0 0 1.000000 0 0 0 1.000000 0"/></filter></defs><g filter="url(#mac-os-a)" fill="none" fill-rule="evenodd"><g fill="#000" fill-rule="nonzero"><path d="M32.662.942c-4.3 1.087-9.249 4.565-15.358 10.725-3.516 3.587-3.686 3.804-3.993 5.724-.649 3.696-3.072 6.268-6.45 6.848-1.57.254-2.083.58-3.858 2.428-2.286 2.391-3.14 4.058-2.832 5.58.136.615 1.433 2.282 3.378 4.311 3.004 3.116 3.277 3.297 4.642 3.297 1.331 0 1.638-.217 4.096-2.754 2.252-2.318 2.73-3.007 2.9-4.275.683-4.456 4.54-7.536 8.26-6.594.649.181 3.857 3.406 10 10.036l9.044 9.783 3.311-3.551 3.345-3.55-8.806-9.059c-4.812-4.963-9.078-9.492-9.42-10.108-1.604-2.537-.307-6.74 3.038-9.928 4.13-3.913 8.532-5.217 12.526-3.804l1.98.724.716-.833.682-.797-1.16-.942C46.246 2.21 40.205.326 36.451.399c-.99 0-2.697.253-3.789.543z"/><path d="M77.85 1.848c-4.471.906-8.498 4.203-10.546 8.623-1.229 2.609-1.263 2.862-1.263 6.522 0 2.101.068 4.203.17 4.637.137.689-3.242 4.457-21.126 23.442l-21.262 22.61-1.23-.363c-.682-.218-2.661-.29-4.368-.218-2.764.11-3.413.29-5.665 1.486-5.495 2.862-8.942 9.348-8.26 15.616l.205 2.101L8.84 81.74l4.334-4.601 4.403.905c2.423.508 4.505 1.051 4.607 1.196.137.181.649 2.391 1.16 5l.922 4.674-4.334 4.601-4.3 4.566 1.842.217c6.007.761 12.116-2.862 14.88-8.768 1.23-2.609 1.264-2.862 1.264-6.522 0-2.101-.069-4.203-.17-4.637-.137-.689 3.207-4.42 21.125-23.442l21.263-22.61 1.229.363c.682.218 2.662.29 4.368.218 2.765-.11 3.413-.29 5.666-1.486 5.529-2.899 8.942-9.42 8.225-15.76l-.205-1.957-4.3 4.565-4.334 4.601-4.403-.978c-2.457-.543-4.54-1.087-4.71-1.232-.137-.145-.648-2.355-1.092-4.927l-.853-4.674 4.3-4.565 4.3-4.566-1.638-.253c-1.911-.254-2.56-.254-4.54.18h.001z"/><path d="M56.826 54.348l-4.71 5L69.283 77.97c21.229 23.007 19.932 21.667 20.888 21.667 1.024 0 9.488-8.913 9.488-10 .034-.652-7.202-8.37-29.045-30.942l-9.044-9.384-4.744 5.036v.001z"/></g></g></svg>