<svg viewBox="0 0 98 62" xmlns="http://www.w3.org/2000/svg" class="icon icon--markdown" fill="currentColor" width="200"><defs><filter id="a"><feColorMatrix in="SourceGraphic" values="0 0 0 0 1.000000 0 0 0 0 1.000000 0 0 0 0 1.000000 0 0 0 1.000000 0"/></filter></defs><g transform="translate(-1 -19)" filter="url(#a)" fill="none" fill-rule="evenodd"><path d="M0 0h100v100H0z"/><path d="M91.27 79.52H9.017c-3.726 0-6.879-3.153-6.879-6.879V27.36c0-3.726 3.153-6.878 6.879-6.878h81.966c3.726 0 6.879 3.152 6.879 6.878V72.64c0 3.726-2.866 6.878-6.592 6.878zM9.017 25.065c-1.147 0-2.293 1.146-2.293 2.293V72.64c0 1.433 1.146 2.293 2.293 2.293h81.966c1.433 0 2.293-1.146 2.293-2.293V27.36c0-1.433-1.146-2.293-2.293-2.293H9.017zm6.878 40.697V34.237h9.17l9.172 11.464 9.171-11.464h9.171v31.526h-9.17V47.707l-9.172 11.464-9.171-11.464v18.056h-9.171zm57.606 0l-13.757-15.19h9.171V34.237h9.172v16.05h9.17L73.502 65.763h0z" fill="#000" fill-rule="nonzero" stroke="#000"/></g></svg>