<svg xmlns="http://www.w3.org/2000/svg" viewBox="0 0 200 200" class="icon icon--markdown" fill="currentColor" width="200" height="200"><path fill="none" d="M-1-1h202v202H-1z"/><g><path d="M183.365 159.63H17.213c-7.525 0-13.894-6.368-13.894-13.895v-91.47c0-7.526 6.369-13.894 13.894-13.894h165.574c7.525 0 13.894 6.368 13.894 13.894v91.47c0 7.526-5.79 13.894-13.316 13.894zM17.213 49.632c-2.315 0-4.631 2.316-4.631 4.632v91.47c0 2.895 2.316 4.632 4.631 4.632h165.574c2.894 0 4.631-2.316 4.631-4.632v-91.47c0-2.895-2.316-4.632-4.631-4.632H17.213zm13.895 82.208V68.16h18.525L68.16 91.317l18.526-23.158h18.525v63.682H86.685V95.368l-18.526 23.158-18.526-23.158v36.473H31.108zm116.364 0l-27.788-30.683h18.525v-33h18.526v32.421h18.526l-27.789 31.262h0z" stroke="null"/></g></svg>