<svg xmlns="http://www.w3.org/2000/svg" xmlns:xlink="http://www.w3.org/1999/xlink" viewBox="0 0 200 200" class="icon icon--nodejs" fill="currentColor" width="200" height="200"><path fill="none" d="M-1-1h202v202H-1z"/><g><g stroke="null"><path d="M99.043 159.544c-.639 0-1.277-.213-1.915-.426l-5.957-3.404c-.851-.425-.426-.638-.213-.851 1.064-.425 1.49-.425 2.553-1.276h.426l4.467 2.765h.639L116.7 146.14c.213 0 .213-.213.213-.425v-20.212c0-.212 0-.425-.213-.425l-17.446-10.212h-.638L80.96 125.078c-.213 0-.213.213-.213.425v20.212c0 .212.213.425.213.425l4.893 2.766c2.553 1.276 4.255-.213 4.255-1.702v-19.999c0-.212.213-.425.426-.425h2.127c.213 0 .426.213.426.425v19.999c0 3.404-1.915 5.532-5.106 5.532-1.064 0-1.915 0-4.043-1.064l-4.467-2.766c-1.064-.638-1.915-1.915-1.915-3.191v-20.212c0-1.276.638-2.553 1.915-3.19L97.128 112.1c1.064-.638 2.553-.638 3.617 0l17.658 10.212c1.064.638 1.915 1.915 1.915 3.191v20.212c0 1.276-.639 2.553-1.915 3.191l-17.658 10.212c-.426.213-1.064.426-1.702.426z" stroke-width="2.1275"/><path d="M104.361 145.502c-7.659 0-9.36-3.617-9.36-6.383 0-.212.212-.425.425-.425h2.34c.213 0 .426.213.426.425.425 2.34 1.276 3.404 5.957 3.404 3.616 0 5.318-.85 5.318-2.765 0-1.064-.425-1.915-6.17-2.553-4.893-.426-7.871-1.49-7.871-5.319 0-3.617 2.978-5.744 8.084-5.744 5.532 0 8.51 1.914 8.723 6.17 0 .212 0 .212-.213.425 0 0-.212.213-.425.213h-2.34a.458.458 0 01-.426-.426c-.638-2.34-1.915-3.191-5.531-3.191-4.043 0-4.468 1.49-4.468 2.553 0 1.276.638 1.702 5.957 2.34 5.319.638 7.872 1.702 7.872 5.532.425 3.616-2.766 5.744-8.298 5.744zM129.679 124.227c0 1.915-1.49 3.404-3.404 3.404-1.915 0-3.404-1.49-3.404-3.404 0-1.915 1.489-3.404 3.404-3.404 1.914 0 3.404 1.49 3.404 3.404zm-6.17 0c0 1.49 1.276 2.766 2.766 2.766 1.489 0 2.765-1.277 2.765-2.766 0-1.49-1.276-2.766-2.765-2.766-1.49 0-2.766 1.277-2.766 2.766zm1.49-1.915h1.276c.425 0 1.276 0 1.276 1.064 0 .638-.425.85-.638.85.425 0 .638.426.638.852 0 .213 0 .85.213 1.064h-.851c0-.213-.213-1.064-.213-1.277a.458.458 0 00-.425-.425h-.639v1.489h-.638v-3.617zm.85 1.702h.638c.426 0 .639-.425.639-.638 0-.426-.426-.426-.639-.426h-.638v1.064z" stroke-width="2.1275"/><path d="M44.579 80.188c0-.851-.426-1.49-1.064-1.915L24.793 67.635c-.213-.212-.639-.212-1.064-.212h-.213c-.425 0-.638.212-1.064.212L3.73 78.273c-.638.425-1.063 1.064-1.063 1.915v28.934c0 .425.212.85.638 1.063.425.213.85.213 1.064 0l11.063-6.382c.638-.426 1.063-1.064 1.063-1.915V88.485c0-.851.426-1.49 1.064-1.915l4.68-2.766c.426-.212.639-.212 1.064-.212.426 0 .851 0 1.064.212l4.68 2.766c.639.426 1.064 1.064 1.064 1.915v13.403c0 .851.426 1.49 1.064 1.915l11.063 6.382c.426.213.851.213 1.064 0a1.17 1.17 0 00.638-1.063l.639-28.934zM134.146 40.616c-.425-.213-.85-.213-1.063 0a1.17 1.17 0 00-.639 1.064v28.508c0 .213-.212.639-.425.639-.213.212-.638.212-.851 0L126.7 68.06c-.638-.426-1.49-.426-2.34 0l-18.51 10.85c-.638.426-1.063 1.064-1.063 1.915v21.488c0 .85.425 1.489 1.064 1.914l18.722 10.85c.638.426 1.489.426 2.34 0l18.722-10.85c.638-.425 1.064-1.063 1.064-1.914V48.7c0-.851-.426-1.49-1.064-1.915l-11.489-6.17zm-1.702 54.677c0 .213-.212.425-.212.425l-6.383 3.617h-.638l-6.383-3.617c-.212 0-.212-.212-.212-.425v-7.446c0-.213.212-.426.212-.426l6.383-3.617h.638l6.383 3.617c.212 0 .212.213.212.426v7.446zM196.27 87.634c.638-.426 1.063-1.064 1.063-1.915V80.4c0-.85-.425-1.489-1.063-1.914l-18.51-10.85c-.638-.426-1.489-.426-2.34 0l-18.51 10.85c-.638.425-1.063 1.063-1.063 1.914v21.7c0 .852.425 1.49 1.064 1.916l18.509 10.637c.638.426 1.49.426 2.128 0l11.275-6.17a1.17 1.17 0 00.639-1.063 1.17 1.17 0 00-.639-1.064l-18.722-10.85a1.17 1.17 0 01-.638-1.064v-6.808c0-.426.213-.851.638-1.064l5.745-3.404c.425-.213.85-.213 1.063 0l5.745 3.404c.425.213.638.638.638 1.064v5.319c0 .425.213.85.638 1.063.426.213.851.213 1.064 0l11.276-6.382z" fill-rule="evenodd" clip-rule="evenodd"/><path d="M176.271 86.57h.426l3.616 2.128c.213 0 .213.212.213.425v4.042c0 .213 0 .213-.213.426l-3.616 2.127h-.426l-3.617-2.127c-.212 0-.212-.213-.212-.426v-4.042c0-.213 0-.213.212-.425l3.617-2.128z" fill-rule="evenodd" clip-rule="evenodd"/><g><path d="M73.513 67.848a1.932 1.932 0 012.127 0l18.51 10.638c.638.425 1.063 1.063 1.063 1.914v21.275c0 .851-.425 1.49-1.064 1.915L75.64 114.228a1.932 1.932 0 01-2.127 0l-18.51-10.638c-.638-.425-1.063-1.064-1.063-1.915V80.4c0-.85.425-1.489 1.063-1.914l18.51-10.638z" fill-rule="evenodd" clip-rule="evenodd" stroke-width="2.1275"/><g transform="matrix(2.1275 0 0 2.1275 -378.688 -378.688)"><defs transform="translate(170.75 152.987)"><path stroke="null" d="M42.8 56.9c-.3-.2-.7-.2-1 0l-8.7 5c-.3.2-.5.5-.5.9v10c0 .4.2.7.5.9l8.7 5c.3.2.7.2 1 0l8.7-5c.3-.2.5-.5.5-.9v-10c0-.4-.2-.7-.5-.9l-8.7-5z" id="a"/></defs><use x="170.75" y="152.987" fill-rule="evenodd" clip-rule="evenodd" xlink:href="#a"/><g clip-path="url(#XMLID_6_)"><path d="M212.55 209.887l-8.7 5c-.3.2-.5.5-.5.9v10c0 .2.1.5.2.7l9.8-16.7c-.3 0-.6 0-.8.1zM213.35 231.887c.1 0 .1-.1.2-.1l8.7-5c.3-.2.5-.5.5-.9v-10c0-.3-.1-.5-.2-.7l-9.2 16.7z"/><path d="M222.25 214.887l-8.6-5c-.1-.1-.2-.1-.3-.1l-9.8 16.7.3.3 8.7 5c.3.1.6.2.8.1l9.1-16.7c0-.1-.1-.2-.2-.3z" opacity=".66"/></g><g clip-path="url(#XMLID_6_)"><path d="M203.95 214.887h0c-.4.2-.6.6-.6 1v10c0 .4.2.7.5.9l8.7 5c.2.1.5.2.8.1l-9.4-17zM222.75 215.887c0-.4-.2-.7-.5-.9l-8.6-5c-.1 0-.2-.1-.2-.1l9.4 16v-10h-.1z"/><path d="M213.55 231.787l8.7-5c.3-.2.5-.5.5-.9h0l-9.4-16c-.3-.1-.6 0-.8.1l-8.6 5 9.4 17c0-.1.1-.1.2-.2z"/></g></g></g></g></g></svg>