<svg viewBox="0 0 100 61" xmlns="http://www.w3.org/2000/svg" class="icon icon--nodejs" fill="currentColor" width="200" height="200"><defs><filter id="a"><feColorMatrix in="SourceGraphic" values="0 0 0 0 1.000000 0 0 0 0 1.000000 0 0 0 0 1.000000 0 0 0 1.000000 0"/></filter></defs><g filter="url(#a)" fill="none" fill-rule="evenodd"><g fill="#000" fill-rule="nonzero"><path d="M49.783 60.87c-.326 0-.653-.11-.979-.218l-3.043-1.739c-.435-.217-.218-.326-.109-.435.544-.217.761-.217 1.305-.652h.217l2.283 1.413h.326l9.021-5.217c.109 0 .109-.109.109-.218V43.478c0-.108 0-.217-.109-.217l-8.913-5.218h-.326l-9.022 5.218c-.108 0-.108.109-.108.217v10.326c0 .109.108.218.108.218l2.5 1.413c1.305.652 2.174-.109 2.174-.87V44.348c0-.109.11-.218.218-.218h1.087c.108 0 .217.11.217.218v10.217c0 1.74-.978 2.826-2.609 2.826-.543 0-.978 0-2.065-.543l-2.282-1.413c-.544-.326-.979-.978-.979-1.63V43.477c0-.652.326-1.304.979-1.63l9.021-5.218a1.867 1.867 0 011.848 0l9.022 5.218c.543.326.978.978.978 1.63v10.326c0 .653-.326 1.305-.978 1.63l-9.022 5.218a2.048 2.048 0 01-.87.218z"/><path d="M52.5 53.696c-3.913 0-4.783-1.848-4.783-3.261 0-.109.11-.218.218-.218h1.195c.11 0 .218.11.218.218.217 1.195.652 1.739 3.043 1.739 1.848 0 2.718-.435 2.718-1.413 0-.544-.218-.978-3.152-1.304-2.5-.218-4.022-.761-4.022-2.718 0-1.848 1.522-2.935 4.13-2.935 2.826 0 4.348.979 4.457 3.153 0 .108 0 .108-.109.217 0 0-.109.109-.217.109H55a.234.234 0 01-.217-.218c-.326-1.195-.979-1.63-2.826-1.63-2.066 0-2.283.76-2.283 1.304 0 .652.326.87 3.043 1.196 2.718.326 4.022.87 4.022 2.826.218 1.848-1.413 2.935-4.239 2.935zM65.435 42.826c0 .978-.761 1.74-1.74 1.74-.978 0-1.738-.762-1.738-1.74s.76-1.739 1.739-1.739c.978 0 1.739.76 1.739 1.74zm-3.152 0c0 .761.652 1.413 1.413 1.413.76 0 1.413-.652 1.413-1.413 0-.76-.652-1.413-1.413-1.413s-1.413.652-1.413 1.413zm.76-.978h.653c.217 0 .652 0 .652.543 0 .326-.218.435-.326.435.217 0 .326.217.326.435 0 .109 0 .435.109.543h-.435c0-.108-.109-.543-.109-.652a.234.234 0 00-.217-.217h-.326v.76h-.327v-1.847zm.435.87h.326c.218 0 .326-.218.326-.327 0-.217-.217-.217-.326-.217h-.326v.543zM21.957 20.326c0-.435-.218-.76-.544-.978l-9.565-5.435c-.109-.109-.326-.109-.544-.109h-.108c-.218 0-.326.109-.544.109l-9.565 5.435c-.326.217-.544.543-.544.978V35.11c0 .217.11.434.327.543.217.109.434.109.543 0l5.652-3.26c.326-.218.544-.544.544-.979v-6.848c0-.435.217-.76.543-.978l2.391-1.413c.218-.109.327-.109.544-.109.217 0 .435 0 .543.109l2.392 1.413c.326.217.543.543.543.978v6.848c0 .435.218.76.544.978l5.652 3.261c.217.109.435.109.543 0a.598.598 0 00.326-.543l.327-14.783zM67.717.109C67.5 0 67.283 0 67.174.109a.598.598 0 00-.326.543v14.565c0 .11-.109.326-.218.326a.33.33 0 01-.434 0l-2.283-1.413c-.326-.217-.76-.217-1.196 0l-9.456 5.544c-.326.217-.544.543-.544.978V31.63c0 .435.218.761.544.979l9.565 5.543c.326.218.761.218 1.196 0l9.565-5.543c.326-.218.543-.544.543-.979V4.24c0-.436-.217-.762-.543-.98L67.717.11zm-.87 27.934c0 .11-.108.218-.108.218l-3.26 1.848h-.327l-3.26-1.848c-.11 0-.11-.109-.11-.218V24.24c0-.109.11-.217.11-.217l3.26-1.848h.326l3.261 1.848c.109 0 .109.108.109.217v3.804zM99.457 24.13c.326-.217.543-.543.543-.978v-2.717c0-.435-.217-.761-.543-.978L90 13.913c-.326-.217-.76-.217-1.196 0l-9.456 5.544c-.326.217-.544.543-.544.978v11.087c0 .435.218.76.544.978l9.456 5.435a.987.987 0 001.087 0l5.761-3.152a.598.598 0 00.326-.544.598.598 0 00-.326-.543l-9.565-5.544a.598.598 0 01-.326-.543V24.13c0-.217.109-.434.326-.543l2.935-1.74c.217-.108.435-.108.543 0l2.935 1.74a.598.598 0 01.326.543v2.718c0 .217.109.435.326.543.218.109.435.109.544 0l5.76-3.26z"/><path d="M89.24 23.587h.217l1.847 1.087c.109 0 .109.109.109.217v2.066c0 .108 0 .108-.109.217l-1.847 1.087h-.218l-1.848-1.087c-.108 0-.108-.109-.108-.217V24.89c0-.108 0-.108.108-.217l1.848-1.087z"/><g><path d="M36.74 14.022a.987.987 0 011.086 0l9.457 5.435c.326.217.543.543.543.978v10.87c0 .434-.217.76-.543.978l-9.457 5.434a.987.987 0 01-1.087 0l-9.456-5.434c-.326-.218-.544-.544-.544-.979v-10.87c0-.434.218-.76.544-.977l9.456-5.435z"/><path d="M37.826 14.022a.987.987 0 00-1.087 0l-9.456 5.435c-.326.217-.544.543-.544.978v10.87c0 .434.218.76.544.978l9.456 5.434a.987.987 0 001.087 0l9.457-5.434c.326-.218.543-.544.543-.979v-10.87c0-.434-.217-.76-.543-.977l-9.457-5.435z"/><path d="M36.74 14.022l-9.457 5.435c-.326.217-.544.543-.544.978v10.87c0 .217.109.543.218.76l10.652-18.152c-.326 0-.652 0-.87.109zM37.609 37.935c.108 0 .108-.109.217-.109l9.457-5.435c.326-.217.543-.543.543-.978v-10.87c0-.326-.109-.543-.217-.76l-10 18.152z"/><path d="M47.283 19.457l-9.348-5.435c-.109-.109-.218-.109-.326-.109L26.957 32.065l.326.326 9.456 5.435c.326.109.652.217.87.109L47.5 19.783c0-.11-.109-.218-.217-.326z" opacity=".66"/><g><path d="M27.391 19.457a1.196 1.196 0 00-.652 1.086v10.87c0 .435.218.76.544.978l9.456 5.435c.218.109.544.217.87.109L27.39 19.457zM47.826 20.543c0-.434-.217-.76-.543-.978l-9.348-5.435c-.109 0-.218-.108-.218-.108l10.218 17.391v-10.87h-.109z"/><path d="M37.826 37.826l9.457-5.435c.326-.217.543-.543.543-.978L37.61 14.022c-.326-.109-.652 0-.87.108l-9.348 5.435L37.61 38.043c0-.108.108-.108.217-.217z"/></g></g></g></g></svg>