<svg xmlns="http://www.w3.org/2000/svg" viewBox="0 0 200 200" class="icon icon--reindeer" fill="currentColor" width="200" height="200"><path fill="none" id="canvas_background" d="M-1-1h202v202H-1z"/><g><style></style><g stroke="null" id="svg_78" transform="translate(-1674.126 -1674.126) scale(.49295)"><g id="svg_76"><path stroke="null" id="svg_74" fill="none" d="M3397.986 3397.986h402v402h-402z"/></g><g id="svg_77"><path stroke="null" d="M3566.364 3404.198c-4.285 5.454-6.33 11.2-8.278 23.18-2.63 15.874-17.531 36.522-23.764 32.723-5.357-3.214-7.597-15.485-4.578-25.322.78-2.63 1.461-5.649 1.461-6.72-.097-3.409-4.285 2.727-6.817 9.837-3.02 8.57-2.338 14.803 2.434 23.374 2.825 5.064 3.41 6.915 2.727 8.473-.876 1.948-1.266 1.656-4.48-3.214-2.24-3.311-3.993-7.402-4.674-11.005-.974-4.578-1.364-5.454-2.143-4.09-1.461 2.629-.097 11.979 2.63 17.433 1.363 2.63 2.24 5.161 1.947 5.356-.974 1.072-18.699-18.31-20.842-22.79-1.655-3.506-2.045-5.648-1.753-9.836.487-6.039-.584-6.818-2.727-1.85-2.824 6.72-1.46 13.634 4.286 21.523 2.921 3.993 16.654 17.725 19.186 19.186 1.071.585-.39 1.656-5.065 4.188-8.375 4.383-16.751 7.305-30.289 10.616-12.174 3.02-15.777 5.064-15.777 9.252 0 3.896 2.63 9.447 5.259 11.2 1.266.877 6.038 2.435 10.518 3.507 4.383 1.071 11.006 2.824 14.61 3.895 10.712 3.117 11.005 5.552 2.24 22.985-7.695 15.29-9.74 21.232-11.298 31.555-1.461 9.934-.78 17.823 2.63 32.335 1.46 6.233 2.337 11.687 1.947 12.076-.292.39-7.596-1.655-15.972-4.48l-15.29-5.259-4.286 2.143c-3.117 1.655-4.675 3.214-6.039 6.428-2.532 5.746-1.947 7.596 5.65 17.725 7.499 10.032 9.154 13.148 11.881 22.206 4.772 15.68 5.357 16.556 15.973 24.445 5.356 3.993 11.005 7.597 12.563 7.89 1.85.389 4.675 2.726 8.376 7.011 7.11 8.279 7.694 8.668 12.661 9.447 6.33.974 6.72.098 4.87-11.297-1.948-11.785-3.312-14.22-8.766-15.583-7.401-1.753-9.642-2.727-17.823-7.889l-8.083-5.162-4.09-11.979c-2.338-6.623-3.896-12.271-3.702-12.466.293-.292 2.825.779 5.747 2.337 9.934 5.454 45.19 21.232 52.981 23.764 16.654 5.551 24.64 6.33 72.947 7.012 38.276.585 36.23.195 39.834 8.279 5.746 13.245 25.225 35.548 38.568 44.41 6.233 4.091 7.791 5.747 11.2 11.785 6.233 11.006 14.9 22.693 21.524 29.12 5.55 5.357 6.33 6.623 8.862 14.512 2.532 7.694 3.214 8.766 6.428 10.616 2.825 1.558 3.993 1.85 5.357.974 2.824-1.753 4.382-7.986 4.48-17.92.195-7.5-.195-9.837-1.558-11.98-.877-1.46-2.338-2.63-3.214-2.63-3.117 0-11.006-4.966-14.999-9.446-5.162-5.844-7.596-11.2-12.758-28.244-3.701-12.369-4.383-13.732-8.181-17.336-5.162-4.87-8.279-10.908-8.279-16.167 0-2.24 1.364-8.084 3.02-12.953 3.895-11.298 4.772-22.109 2.434-30.192-1.558-5.357-1.558-5.746 0-7.5.877-.973 3.896-2.921 6.72-4.187 3.02-1.364 6.234-3.799 7.89-6.039 2.629-3.311 2.824-4.285 2.726-11.297-.097-7.694-1.655-11.493-4.87-11.493-.681 0-3.895 2.63-7.206 5.844-8.96 8.863-12.759 8.96-25.907.877-14.024-8.474-22.4-10.324-53.176-11.59-11.98-.487-22.693-1.072-23.959-1.364-17.433-3.798-27.854-8.96-41.392-20.744-7.986-7.013-13.44-13.44-16.362-19.576-2.727-5.552-3.603-16.07-1.85-23.764.584-2.824 1.363-10.713 1.655-17.628l.585-12.37h2.921c6.623 0 18.213-8.375 18.213-13.147 0-3.02-1.948-3.604-13.245-3.798-5.065-.098-9.35-.487-9.74-.78-.292-.292 2.045-1.363 5.162-2.24 3.117-.876 8.96-3.214 12.953-5.064 5.162-2.532 9.35-3.7 14.122-4.188 10.713-.974 23.374-7.597 33.893-17.433 8.863-8.473 9.934-9.058 20.452-11.395 12.759-2.922 19.479-7.986 22.985-17.433 2.143-5.747 2.922-18.992 1.071-18.992-.487 0-.974 1.46-.974 3.311 0 4.773-3.603 13.538-7.401 18.018-3.701 4.285-14.804 10.421-16.265 8.96-.584-.584-.195-2.532 1.071-5.162 3.312-7.012 6.136-17.823 5.844-22.303l-.292-4.285-3.214 8.473c-4.383 11.493-11.2 21.33-13.343 19.09-.78-.78-.78-16.265 0-22.109 1.169-8.278-1.169-2.143-4.967 12.953-1.948 8.084-4.578 16.46-5.844 18.7-5.746 10.129-23.276 21.816-32.626 21.816-6.818 0-8.96-2.338-8.084-8.57.585-3.994 2.63-12.565 4.87-20.648.584-2.045.487-2.24-.78-1.266-2.532 2.142-6.427 10.42-8.667 18.31-4.286 15.777-6.72 18.31-17.628 18.407-6.72 0-16.362-1.85-16.362-3.214 0-1.558 4.48-7.792 8.18-11.298 2.143-2.142 7.597-8.57 12.077-14.316 4.383-5.747 8.766-10.811 9.74-11.298.876-.487 5.843-1.169 11.005-1.46 16.167-1.072 25.712-6.429 31.945-18.213 1.753-3.312 3.019-6.136 2.824-6.33-.195-.293-2.727 2.142-5.454 5.356-6.038 6.817-11.492 10.81-18.115 12.953-4.675 1.656-13.245 2.24-13.245 1.071 0-.39 2.435-3.214 5.356-6.33 7.207-7.889 16.168-23.277 13.44-23.277-.486 0-2.824 2.727-5.161 5.94-4.967 6.818-15.973 17.24-21.037 19.966-2.922 1.656-3.506 1.656-4.285.39-2.24-3.506-.098-15.583 4.48-24.446 1.363-2.727 2.24-5.161 2.045-5.454-.292-.194-2.337 1.85-4.48 4.578h0z" id="svg_73"/></g></g></g></svg>