<svg viewBox="0 0 99 131" xmlns="http://www.w3.org/2000/svg" class="icon icon--reindeer" fill="currentColor" width="200" height="200"><defs><filter id="a"><feColorMatrix in="SourceGraphic" values="0 0 0 0 1.000000 0 0 0 0 1.000000 0 0 0 0 1.000000 0 0 0 1.000000 0"/></filter></defs><g filter="url(#a)" fill="none" fill-rule="evenodd"><path d="M37.885 2.365c-1.394 1.774-2.06 3.644-2.694 7.542-.855 5.165-5.704 11.883-7.732 10.647-1.743-1.045-2.472-5.038-1.49-8.239.254-.856.476-1.838.476-2.186-.032-1.11-1.394.887-2.218 3.2-.983 2.789-.76 4.817.792 7.606.92 1.648 1.11 2.25.887 2.757-.285.634-.412.538-1.457-1.046-.73-1.077-1.3-2.408-1.521-3.581-.317-1.49-.444-1.775-.698-1.33-.475.855-.031 3.897.856 5.672.444.855.729 1.68.634 1.742-.317.349-6.085-5.957-6.782-7.415-.539-1.14-.665-1.838-.57-3.2.158-1.965-.19-2.219-.888-.603-.919 2.187-.475 4.437 1.395 7.004.95 1.299 5.419 5.767 6.243 6.243.348.19-.127.538-1.648 1.362-2.726 1.426-5.45 2.377-9.856 3.454-3.96.983-5.133 1.648-5.133 3.011 0 1.268.855 3.074 1.71 3.644.413.285 1.966.793 3.423 1.141 1.426.349 3.581.92 4.754 1.268 3.486 1.014 3.58 1.806.729 7.478-2.504 4.976-3.17 6.909-3.676 10.268-.476 3.232-.254 5.8.855 10.52.476 2.03.76 3.804.634 3.93-.095.127-2.472-.538-5.197-1.457l-4.975-1.712-1.395.698c-1.014.538-1.52 1.045-1.964 2.091-.824 1.87-.634 2.472 1.838 5.768 2.44 3.264 2.978 4.278 3.866 7.225 1.552 5.102 1.743 5.387 5.197 7.954 1.743 1.3 3.58 2.472 4.088 2.567.602.127 1.52.887 2.725 2.282 2.313 2.693 2.504 2.82 4.12 3.073 2.06.317 2.186.032 1.584-3.676-.634-3.834-1.077-4.626-2.852-5.07-2.408-.57-3.137-.887-5.8-2.567l-2.63-1.68-1.33-3.897c-.76-2.155-1.268-3.993-1.204-4.056.095-.095.919.253 1.87.76 3.232 1.775 14.703 6.909 17.238 7.732 5.42 1.807 8.018 2.06 23.736 2.282 12.454.19 11.789.063 12.961 2.694 1.87 4.31 8.208 11.566 12.55 14.45 2.027 1.331 2.534 1.87 3.644 3.835 2.028 3.58 4.848 7.383 7.003 9.475 1.806 1.743 2.06 2.155 2.884 4.722.824 2.503 1.045 2.852 2.091 3.454.92.507 1.3.602 1.743.317.92-.57 1.426-2.599 1.458-5.831.063-2.44-.063-3.2-.507-3.898-.285-.475-.76-.856-1.046-.856-1.014 0-3.58-1.616-4.88-3.074-1.68-1.9-2.472-3.644-4.151-9.19-1.205-4.024-1.426-4.468-2.662-5.64-1.68-1.585-2.694-3.55-2.694-5.26 0-.73.444-2.631.982-4.216 1.268-3.676 1.553-7.193.793-9.823-.507-1.743-.507-1.87 0-2.44.285-.317 1.267-.951 2.186-1.363.983-.444 2.028-1.236 2.567-1.965.856-1.077.92-1.394.887-3.676-.031-2.503-.538-3.74-1.584-3.74-.222 0-1.268.856-2.345 1.902-2.916 2.884-4.152 2.916-8.43.285-4.563-2.757-7.288-3.359-17.302-3.77-3.898-.16-7.384-.35-7.796-.444-5.672-1.236-9.063-2.916-13.468-6.75-2.599-2.282-4.373-4.373-5.324-6.37-.887-1.806-1.172-5.229-.602-7.732.19-.92.444-3.486.539-5.736l.19-4.025h.95c2.155 0 5.927-2.725 5.927-4.278 0-.982-.634-1.172-4.31-1.236-1.648-.031-3.042-.158-3.17-.253-.094-.095.666-.444 1.68-.73 1.014-.284 2.916-1.045 4.215-1.647 1.68-.824 3.042-1.204 4.595-1.363 3.486-.316 7.606-2.471 11.028-5.672 2.884-2.757 3.232-2.947 6.655-3.708 4.151-.95 6.338-2.598 7.479-5.672.697-1.87.95-6.18.348-6.18-.158 0-.317.476-.317 1.078 0 1.553-1.172 4.405-2.408 5.862-1.204 1.395-4.817 3.391-5.292 2.916-.19-.19-.064-.824.348-1.68 1.078-2.281 1.997-5.799 1.902-7.257l-.095-1.394L62 8.449c-1.426 3.74-3.644 6.94-4.342 6.211-.253-.253-.253-5.292 0-7.193.38-2.694-.38-.698-1.616 4.214-.634 2.63-1.49 5.356-1.901 6.085-1.87 3.295-7.574 7.098-10.616 7.098-2.218 0-2.916-.76-2.63-2.788.19-1.3.855-4.088 1.584-6.719.19-.665.159-.729-.253-.412-.824.698-2.092 3.391-2.82 5.958-1.395 5.134-2.187 5.958-5.737 5.99-2.186 0-5.324-.603-5.324-1.046 0-.507 1.458-2.536 2.662-3.676.698-.698 2.472-2.79 3.93-4.659 1.426-1.87 2.852-3.517 3.169-3.676.285-.158 1.901-.38 3.58-.475 5.261-.349 8.367-2.092 10.395-5.926.57-1.078.982-1.997.92-2.06-.064-.095-.888.697-1.776 1.743-1.964 2.218-3.739 3.518-5.894 4.215-1.521.538-4.31.729-4.31.348 0-.126.793-1.045 1.743-2.06 2.345-2.566 5.26-7.573 4.373-7.573-.158 0-.919.887-1.68 1.933-1.615 2.218-5.196 5.609-6.844 6.496-.95.539-1.14.539-1.394.127-.73-1.141-.032-5.07 1.457-7.954.444-.888.73-1.68.666-1.775-.095-.063-.76.602-1.458 1.49h0z" fill="#000" fill-rule="nonzero" stroke="#000" stroke-width=".5"/></g></svg>