<svg xmlns="http://www.w3.org/2000/svg" viewBox="0 0 200 200" class="icon icon--sass" fill="currentColor" width="200" height="200"><path fill="none" id="canvas_background" d="M-1-1h202v202H-1z"/><g><style></style><g stroke="null" id="svg_84"><path stroke="null" id="svg_83" d="M170.65 110.89c-6.846.039-12.775 1.684-17.748 4.127-1.833-3.634-3.673-6.806-3.979-9.179-.344-2.757-.767-4.433-.344-7.722.423-3.29 2.334-7.958 2.334-8.341-.04-.345-.423-2.029-4.363-2.068s-7.346.768-7.722 1.794-1.143 3.407-1.645 5.85c-.689 3.595-7.879 16.33-11.967 23.018-1.34-2.6-2.483-4.895-2.718-6.727-.344-2.757-.767-4.433-.344-7.723.423-3.29 2.334-7.957 2.334-8.333-.04-.345-.423-2.028-4.363-2.068-3.94-.039-7.346.768-7.722 1.794-.384 1.034-.807 3.477-1.645 5.85-.806 2.373-10.361 23.637-12.852 29.182a124.14 124.14 0 01-3.172 6.618c-.807 1.528-.04.118-.117.267-.69 1.3-1.073 2.028-1.073 2.028v.04c-.533.955-1.113 1.871-1.379 1.871-.188 0-.572-2.56.078-6.077 1.418-7.378 4.856-18.891 4.817-19.314 0-.188.65-2.217-2.216-3.25-2.789-1.034-3.783.689-4.018.689-.227 0-.423.61-.423.61s3.101-12.961-5.929-12.961c-5.662 0-13.463 6.156-17.324 11.78-2.444 1.338-7.652 4.166-13.158 7.189-2.107 1.143-4.284 2.373-6.352 3.477l-.423-.462C36.3 111.203 16.07 102.94 16.915 87.261c.306-5.702 2.295-20.724 38.855-38.933 29.942-14.912 53.923-10.824 58.09-1.723 5.929 13-12.813 37.17-43.938 40.648-11.857 1.34-18.092-3.25-19.658-4.973-1.645-1.794-1.872-1.872-2.483-1.528-.994.533-.383 2.138 0 3.102.917 2.412 4.739 6.688 11.247 8.834 5.694 1.872 19.62 2.906 36.442-3.595 18.852-7.307 33.576-27.576 29.253-44.517-4.402-17.238-33.004-22.9-60.048-13.306-16.095 5.74-33.537 14.685-46.076 26.425C3.68 71.62 1.314 83.783 2.31 88.827c3.477 18.014 28.297 29.754 38.243 38.432-.493.266-.955.532-1.378.767-4.973 2.444-23.903 12.351-28.642 22.83-5.357 11.858.838 20.387 4.974 21.53 12.774 3.556 25.853-2.827 32.925-13.345 7.033-10.519 6.195-24.17 2.945-30.404l-.117-.227 3.9-2.295a252.442 252.442 0 017.19-4.057c-1.222 3.329-2.107 7.268-2.561 13.001-.533 6.728 2.216 15.453 5.85 18.891 1.606 1.488 3.517 1.527 4.707 1.527 4.206 0 6.117-3.477 8.224-7.652 2.6-5.083 4.895-10.972 4.895-10.972s-2.867 15.946 4.973 15.946c2.867 0 5.733-3.713 7.033-5.624v.04s.079-.118.227-.384c.157-.235.314-.478.462-.729v-.078c1.144-1.99 3.713-6.54 7.535-14.074 4.934-9.712 9.672-21.875 9.672-21.875s.462 2.984 1.872 7.88c.838 2.905 2.679 6.077 4.088 9.178a133.223 133.223 0 01-1.832 2.522l.039.04a106.537 106.537 0 01-3.023 3.821c-3.9 4.668-8.568 9.978-9.18 11.513-.728 1.794-.571 3.133.839 4.206 1.034.768 2.866.916 4.816.768 3.517-.227 5.968-1.113 7.19-1.645 1.911-.69 4.088-1.723 6.195-3.25 3.822-2.828 6.156-6.846 5.929-12.203-.117-2.944-1.073-5.85-2.256-8.607.345-.493.69-.995 1.034-1.527 6.039-8.835 10.707-18.546 10.707-18.546s.462 2.984 1.871 7.879c.729 2.482 2.178 5.2 3.478 7.879-5.663 4.628-9.218 9.978-10.44 13.502-2.256 6.5-.494 9.445 2.827 10.135 1.488.305 3.634-.384 5.24-1.073 1.989-.65 4.401-1.763 6.618-3.407 3.822-2.828 7.495-6.767 7.307-12.085-.117-2.444-.768-4.856-1.645-7.15 4.817-1.99 11.051-3.133 18.97-2.178 17.018 1.99 20.386 12.617 19.736 17.058-.65 4.433-4.206 6.884-5.396 7.652-1.183.728-1.567.995-1.457 1.527.157.807.69.768 1.723.611 1.418-.227 8.952-3.634 9.257-11.818.462-10.503-9.523-21.977-27.224-21.867h0zM39.4 155.14c-5.623 6.156-13.541 8.49-16.901 6.501-3.634-2.107-2.217-11.168 4.707-17.708 4.205-3.979 9.672-7.652 13.267-9.908.807-.493 2.029-1.221 3.477-2.106.228-.15.384-.228.384-.228.267-.156.572-.344.877-.532 2.561 9.336.118 17.52-5.81 23.981h0zm41.11-27.952c-1.95 4.778-6.077 17.058-8.568 16.369-2.138-.572-3.438-9.868-.423-19.047 1.527-4.63 4.778-10.135 6.689-12.273 3.101-3.438 6.46-4.59 7.307-3.172.994 1.825-3.783 15.14-5.005 18.123zm33.92 16.212c-.838.423-1.605.729-1.95.502-.266-.157.345-.729.345-.729s4.245-4.55 5.929-6.657c.955-1.222 2.107-2.64 3.328-4.245v.462c-.008 5.506-5.278 9.171-7.652 10.667h0zm26.16-5.968c-.612-.462-.533-1.872 1.527-6.312.806-1.762 2.639-4.707 5.81-7.495.385 1.143.612 2.255.573 3.289-.032 6.884-4.927 9.445-7.91 10.518z"/></g></g></svg>