<svg viewBox="0 0 100 86" xmlns="http://www.w3.org/2000/svg" class="icon icon--shell" fill="currentColor" width="200"><defs><filter id="shell-a"><feColorMatrix in="SourceGraphic" values="0 0 0 0 1.000000 0 0 0 0 1.000000 0 0 0 0 1.000000 0 0 0 1.000000 0"/></filter></defs><g filter="url(#shell-a)" fill="none" fill-rule="evenodd"><g fill="#000" fill-rule="nonzero"><path d="M92.403.655H7.11A7.105 7.105 0 000 7.758v71.09a7.113 7.113 0 007.11 7.11h85.293c3.92 0 7.116-3.187 7.116-7.11V7.758c0-3.926-3.2-7.103-7.116-7.103zm-69.3 5.335a3.554 3.554 0 013.555 3.558 3.548 3.548 0 01-3.555 3.542 3.546 3.546 0 01-3.561-3.542 3.555 3.555 0 013.561-3.558zm-10.668 0a3.552 3.552 0 013.555 3.558 3.546 3.546 0 01-3.555 3.542 3.547 3.547 0 01-3.558-3.542 3.557 3.557 0 013.558-3.558zm79.968 72.862H7.11V18.5h85.293v60.352z"/><path d="M39.842 33.11L17.016 22.67v5.035l17.649 7.549v.093l-17.649 7.536v5.032l22.826-10.439zM50.587 32.9h12.435v4.794H50.587z"/></g></g></svg>