<svg class="icon icon-static-site-generator icon icon--static-site-generator" fill="currentColor" xmlns="http://www.w3.org/2000/svg" viewBox="0 0 24 22" fill="currentColor" width="200" height="200"><path d="M17 9.64V7.35c-1.17-.41-1.91-.53-2.28-1.43s.07-1.51.6-2.62L13.7 1.68c-1.1.53-1.72 1-2.62.6S10.06 1.16 9.64 0H7.35c-.41 1.16-.53 1.91-1.43 2.28-.9.37-1.51-.07-2.62-.6L1.68 3.3c.53 1.11 1 1.72.6 2.62S1.16 6.94 0 7.35v2.29c1.15.42 1.91.54 2.28 1.44s-.08 1.53-.6 2.62l1.62 1.62c1.1-.53 1.72-1 2.62-.6.9.37 1 1.12 1.43 2.28h2.29c.42-1.16.53-1.91 1.44-2.28.9-.37 1.5.07 2.62.6l1.62-1.62c-.53-1.11-1-1.72-.6-2.62s1.12-1.02 2.28-1.44zm-8.5 1.69a2.83 2.83 0 112.83-2.83 2.83 2.83 0 01-2.83 2.83zM24 15.54v-1.08c-.55-.19-.9-.25-1.07-.67s0-.71.28-1.24l-.76-.76c-.52.25-.81.46-1.24.28s-.48-.52-.67-1.07h-1.08c-.19.55-.25.9-.67 1.07s-.71 0-1.24-.28l-.76.76c.25.53.46.82.28 1.24s-.53.48-1.07.67v1.08c.54.19.9.25 1.07.67s0 .72-.28 1.24l.76.76c.52-.25.81-.46 1.24-.28s.48.52.67 1.07h1.08c.19-.54.25-.9.67-1.07.43-.18.71 0 1.24.28l.76-.76c-.25-.52-.46-.81-.28-1.24s.53-.48 1.07-.67zm-4 .79A1.33 1.33 0 1121.33 15 1.32 1.32 0 0120 16.33zm-4 3.07v-.8c-.41-.15-.67-.19-.81-.51s0-.53.22-.93l-.58-.57c-.38.19-.6.35-.92.22s-.36-.4-.51-.81h-.8c-.15.41-.19.67-.51.81s-.53 0-.93-.22l-.57.57c.19.4.35.61.21.93s-.39.36-.8.51v.8c.41.15.67.19.8.51s0 .54-.21.93l.57.57c.39-.19.61-.35.93-.21s.36.39.51.8h.8c.15-.41.19-.67.51-.8.32-.14.53 0 .93.21l.57-.57c-.19-.39-.35-.61-.21-.93s.39-.36.8-.51zm-3 .6a1 1 0 111-1 1 1 0 01-1 1z"/></svg>