<svg viewBox="0 0 100 99" xmlns="http://www.w3.org/2000/svg" class="icon icon--static-site-generator" fill="currentColor" width="200" height="200"><defs><filter id="a"><feColorMatrix in="SourceGraphic" values="0 0 0 0 1.000000 0 0 0 0 1.000000 0 0 0 0 1.000000 0 0 0 1.000000 0"/></filter></defs><g filter="url(#a)" fill="none" fill-rule="evenodd"><g fill="#000" fill-rule="nonzero"><path d="M58.295 70.617a25.471 25.471 0 01-1.314 4.916l5.338 4.837a32.182 32.182 0 01-2.585 4.51l-6.853-2.209a25.644 25.644 0 01-3.613 3.611l2.21 6.854a32.352 32.352 0 01-4.511 2.584l-4.837-5.338a25.438 25.438 0 01-4.917 1.315l-1.522 7.05c-.86.069-1.725.132-2.605.132-.88 0-1.744-.063-2.607-.131l-1.522-7.051a25.471 25.471 0 01-4.917-1.315l-4.836 5.338a32.182 32.182 0 01-4.511-2.584l2.21-6.854a25.723 25.723 0 01-3.611-3.61L6.438 84.88a32.352 32.352 0 01-2.584-4.511l5.337-4.837a25.438 25.438 0 01-1.314-4.916L.826 69.094c-.068-.862-.131-1.727-.131-2.606 0-.88.063-1.744.131-2.607l7.051-1.522c.278-1.702.72-3.345 1.314-4.917l-5.337-4.837c.748-1.575 1.6-3.089 2.584-4.51l6.854 2.209a25.644 25.644 0 013.612-3.61l-2.21-6.854a32.352 32.352 0 014.512-2.585l4.836 5.338a25.438 25.438 0 014.917-1.314l1.522-7.051c.861-.069 1.725-.132 2.605-.132.88 0 1.744.063 2.607.132l1.522 7.05c1.702.278 3.345.72 4.917 1.315l4.836-5.338c1.576.749 3.09 1.601 4.511 2.585l-2.21 6.853a25.644 25.644 0 013.612 3.613l6.853-2.21a32.352 32.352 0 012.585 4.511l-5.338 4.837a25.438 25.438 0 011.314 4.916l7.051 1.523c.068.86.132 1.725.132 2.605 0 .88-.064 1.744-.132 2.606l-7.05 1.523zM33.086 49.44c-9.416 0-17.048 7.632-17.048 17.048 0 9.415 7.632 17.048 17.048 17.048 9.416 0 17.048-7.633 17.048-17.048 0-9.416-7.632-17.048-17.048-17.048zM81.944 22.683a13.664 13.664 0 01-1.041 2.523l2.692 5.158A18.84 18.84 0 0180.5 33.46l-5.158-2.692c-.797.43-1.642.777-2.524 1.041l-1.745 5.558c-.72.085-1.446.14-2.186.14s-1.466-.055-2.184-.138l-1.745-5.558a13.547 13.547 0 01-2.524-1.042l-5.158 2.692a18.84 18.84 0 01-3.095-3.094l2.692-5.159a13.432 13.432 0 01-1.041-2.523l-5.558-1.746c-.085-.719-.14-1.445-.14-2.185s.055-1.466.138-2.184l5.558-1.746c.264-.881.614-1.727 1.042-2.523L54.18 7.141a18.84 18.84 0 013.094-3.094l5.159 2.692c.796-.43 1.642-.777 2.523-1.042L66.702.14C67.42.055 68.147 0 68.887 0s1.466.055 2.184.138l1.746 5.558c.881.264 1.727.614 2.523 1.041l5.159-2.691a18.84 18.84 0 013.094 3.094L80.9 12.299c.43.796.777 1.641 1.042 2.523l5.557 1.745c.086.72.14 1.446.14 2.186s-.054 1.466-.138 2.184l-5.558 1.746zm-13.057-10.75a6.82 6.82 0 100 13.64 6.82 6.82 0 000-13.64zM95.72 61.153a11.866 11.866 0 01-1.107 2.68l1.696 3.57a15.463 15.463 0 01-2.639 2.64l-3.57-1.697c-.835.474-1.734.844-2.68 1.106l-1.326 3.73c-.612.075-1.231.125-1.864.125-.632 0-1.25-.05-1.863-.125l-1.326-3.73a11.866 11.866 0 01-2.68-1.106l-3.57 1.696a15.463 15.463 0 01-2.64-2.639l1.697-3.57a11.853 11.853 0 01-1.106-2.678l-3.73-1.326a15.32 15.32 0 01-.125-1.865c0-.633.05-1.252.125-1.864l3.73-1.326a11.82 11.82 0 011.106-2.678l-1.696-3.57a15.463 15.463 0 012.639-2.64l3.57 1.697a11.833 11.833 0 012.68-1.106l1.326-3.73c.612-.077 1.231-.127 1.863-.127.633 0 1.252.05 1.864.125l1.326 3.73c.946.262 1.843.632 2.68 1.106l3.57-1.696c.984.77 1.869 1.655 2.64 2.64l-1.697 3.569c.474.835.844 1.734 1.106 2.68l3.73 1.326c.075.612.125 1.231.125 1.864 0 .632-.05 1.25-.125 1.863l-3.73 1.326zM84.23 52.85a5.114 5.114 0 100 10.228 5.114 5.114 0 000-10.228z"/></g></g></svg>