<svg class="icon icon--svg icon icon--svg" xmlns="http://www.w3.org/2000/svg" viewBox="0 0 100 100" fill="currentColor" width="200" height="200"><g fill="currentColor"><path d="M95.872 59.938c5.477-5.478 5.477-14.39 0-19.868a13.956 13.956 0 00-9.934-4.115c-.892 0-1.769.081-2.624.241 3.728-2.55 6.145-6.84 6.145-11.608 0-7.747-6.303-14.05-14.05-14.05-4.778 0-9.074 2.426-11.623 6.168.843-4.448-.48-9.201-3.859-12.58A13.954 13.954 0 0049.994.01c-3.753 0-7.28 1.461-9.935 4.115-3.378 3.379-4.701 8.132-3.858 12.58-2.549-3.741-6.845-6.167-11.624-6.167-7.746 0-14.049 6.302-14.049 14.049 0 4.77 2.416 9.058 6.145 11.608a14.264 14.264 0 00-2.623-.241 13.957 13.957 0 00-9.935 4.115A13.955 13.955 0 000 50.004c0 3.753 1.461 7.28 4.115 9.934a13.957 13.957 0 009.934 4.115c.891 0 1.768-.081 2.624-.241-3.73 2.55-6.145 6.84-6.145 11.609 0 7.746 6.302 14.048 14.049 14.048 4.779 0 9.075-2.426 11.624-6.167-.843 4.448.48 9.202 3.858 12.58a13.956 13.956 0 009.934 4.115c3.753 0 7.281-1.461 9.935-4.115 3.379-3.379 4.701-8.132 3.858-12.58 2.549 3.741 6.845 6.167 11.624 6.167 7.746 0 14.049-6.302 14.049-14.048 0-4.77-2.416-9.058-6.145-11.61.855.161 1.733.242 2.624.242 3.752 0 7.28-1.461 9.934-4.115" opacity=".5"/><path d="M91.632 44.306a8.058 8.058 0 00-11.395 0H63.746l11.661-11.66a8.058 8.058 0 10-8.058-8.058L55.69 36.249V19.757A8.058 8.058 0 1044.292 8.362a8.058 8.058 0 000 11.395V36.25l-11.66-11.663a8.058 8.058 0 10-8.058 8.058l11.662 11.661H19.744a8.059 8.059 0 100 11.396h16.49l-11.66 11.66a8.058 8.058 0 108.058 8.058l11.66-11.661V80.25a8.058 8.058 0 1011.397 0V63.759l11.66 11.661a8.057 8.057 0 008.058 8.057 8.057 8.057 0 100-16.114L63.746 55.7h16.491a8.057 8.057 0 0011.395 0 8.057 8.057 0 000-11.395"/></g></svg>