<svg viewBox="0 0 100 100" xmlns="http://www.w3.org/2000/svg" class="icon icon--svg" fill="currentColor" width="200"><defs><filter id="svg-a"><feColorMatrix in="SourceGraphic" values="0 0 0 0 1.000000 0 0 0 0 1.000000 0 0 0 0 1.000000 0 0 0 1.000000 0"/></filter></defs><g filter="url(#svg-a)" fill="none" fill-rule="evenodd"><g fill="#000" fill-rule="nonzero"><path d="M8.098 71.696a1.786 1.786 0 00-2.525 0l-5.05 5.052a1.786 1.786 0 000 2.527l1.263 1.26 7.577-7.576-1.265-1.263zM4.302 83.054l7.575-7.575 3.787 3.787-7.575 7.575zM18.2 81.8l-7.577 7.575 10.102 10.102a1.827 1.827 0 002.525 0l5.054-5.05a1.786 1.786 0 000-2.525L18.2 81.8zM48.505 61.596a7.143 7.143 0 11-1.443-11.183l18.652-18.649-27.357 5.802A15.98 15.98 0 0027.321 46.1l-13.26 26.509 1.607 1.607 2.525-2.527a1.786 1.786 0 112.525 2.525l-2.525 2.527 5.052 5.052 2.526-2.525a1.786 1.786 0 012.525 2.525l-2.526 2.525 1.607 1.607L53.9 72.679a15.98 15.98 0 008.534-11.04l5.802-27.353-18.649 18.651a7.143 7.143 0 01-1.082 8.66z"/><path d="M40.929 54.02a3.58 3.58 0 105.051 5.075 3.58 3.58 0 00-5.051-5.075zM98.214 69.643H96.22a71.632 71.632 0 00-15.684-39.557 8.916 8.916 0 00-12.679-12.229 71.375 71.375 0 00-37.5-14.086V1.786c0-.987-.8-1.786-1.786-1.786H21.43c-.987 0-1.786.8-1.786 1.786v7.143c0 .986.8 1.785 1.786 1.785h7.142c.987 0 1.786-.8 1.786-1.785v-1.57a67.8 67.8 0 0135.123 13.19 8.864 8.864 0 00-.562 7.731l.571-.12a5.302 5.302 0 016.41 5.667 8.857 8.857 0 006.046-1.254 68.048 68.048 0 0114.694 37.07h-1.568c-.986 0-1.785.8-1.785 1.786v7.142c0 .987.8 1.786 1.785 1.786h7.143c.987 0 1.786-.8 1.786-1.786V71.43c0-.987-.8-1.786-1.786-1.786z"/></g></g></svg>