<svg viewBox="0 0 94 30" xmlns="http://www.w3.org/2000/svg" class="icon icon--template-engine" fill="currentColor" width="200"><defs><filter id="template-engine-a"><feColorMatrix in="SourceGraphic" values="0 0 0 0 1.000000 0 0 0 0 1.000000 0 0 0 0 1.000000 0 0 0 1.000000 0"/></filter></defs><g transform="translate(-3 -35)" filter="url(#template-engine-a)" fill="none" fill-rule="evenodd"><path d="M.837.837h98.326v98.326H.837z"/><path d="M33.661 36.69c-2.86.936-5.98 2.704-9.725 5.513-5.045 3.9-8.061 5.305-11.702 5.357-3.848.104-5.356-1.145-5.252-4.369.104-2.548-.729-2.496-2.08.104-3.59 7.073 4.784 17.162 16.642 20.023 9.36 2.184 22.155-.884 26.627-6.397.728-.936 1.56-1.716 1.769-1.716.208 0 1.092.78 1.872 1.664 5.045 5.669 17.37 8.633 26.732 6.449 12.741-3.069 20.958-14.094 15.862-21.22-1.144-1.663-2.289-2.027-1.456-.467.832 1.612.624 3.016-.677 4.524-1.092 1.249-1.612 1.405-4.368 1.405-3.64-.052-6.605-1.405-11.65-5.253-6.345-4.837-10.09-6.345-15.654-6.345-4.109 0-6.293.832-8.685 3.328l-1.82 1.873-1.717-1.82c-.936-.989-2.548-2.133-3.588-2.6-2.236-.937-8.425-.989-11.13-.053z" fill="#000" fill-rule="nonzero" stroke="#000" stroke-width=".5"/></g></svg>