<svg xmlns="http://www.w3.org/2000/svg" viewBox="0 0 200 200" class="icon icon--template-engine" fill="currentColor" width="200" height="200"><path fill="none" d="M-1-1h202v202H-1z"/><g><g stroke="null"><g transform="matrix(.52778 0 0 .52778 -1800.5 -1801.537)"><path fill="none" d="M3399.948 3401.912h402v402h-402z"/></g><g transform="matrix(.52778 0 0 .52778 -1800.5 -1801.537)"><path d="M3537.348 3551.102c-11.134 3.644-23.28 10.527-37.856 21.459-19.637 15.183-31.379 20.649-45.55 20.851-14.98.405-20.85-4.453-20.446-17.005.405-9.92-2.834-9.717-8.098.405-13.968 27.532 18.625 66.806 64.781 77.94 36.44 8.502 86.24-3.442 103.65-24.9 2.834-3.644 6.073-6.68 6.883-6.68.81 0 4.251 3.036 7.288 6.477 19.637 22.066 67.615 33.605 104.054 25.103 49.598-11.944 81.584-54.862 61.745-82.596-4.454-6.478-8.908-7.895-5.669-1.822 3.24 6.276 2.43 11.742-2.631 17.612-4.252 4.859-6.276 5.466-17.005 5.466-14.171-.202-25.71-5.466-45.347-20.446-24.698-18.827-39.274-24.698-60.935-24.698-15.993 0-24.495 3.24-33.807 12.956l-7.086 7.288-6.68-7.085c-3.644-3.847-9.92-8.3-13.969-10.122-8.705-3.644-32.795-3.847-43.322-.203z" stroke-width=".20244"/></g></g></g></svg>