<svg xmlns="http://www.w3.org/2000/svg" viewBox="0 0 200 200" class="icon icon--terminal" fill="currentColor" width="200" height="200"><path fill="none" id="canvas_background" d="M-1-1h202v202H-1z"/><g><style></style><g stroke="null" id="svg_90"><rect x="1347.232" y="1370.439" transform="matrix(.7436 0 0 .7436 -996.98 -996.889)" id="svg_88" rx="5" height="209.342" width="256"/><path id="svg_89" fill="#FFF" d="M25.82 38.358c-.636-.637-1.405-.955-2.304-.955s-1.67.321-2.313.964c-.633.633-.955 1.404-.955 2.303s.322 1.671.955 2.304L31.2 52.97l-9.987 9.986a3.197 3.197 0 00-.973 2.313c.01.9.33 1.67.964 2.303a3.219 3.219 0 002.304.964 3.16 3.16 0 002.322-.964l11.106-11.114c2.33-2.323 2.33-4.654 0-6.986L25.819 38.358zm43.533 24.616a3.18 3.18 0 00-2.33-.964v-.004H45.58v.004a3.16 3.16 0 00-2.322.964 3.16 3.16 0 00-.964 2.322c0 .909.321 1.689.964 2.331a3.16 3.16 0 002.322.964v-.004h21.44v.004c.909 0 1.688-.321 2.332-.964a3.18 3.18 0 00.963-2.33 3.16 3.16 0 00-.963-2.323h0z"/></g></g></svg>