<svg xmlns="http://www.w3.org/2000/svg" viewBox="0 0 200 200" class="icon icon--twitter" fill="currentColor" width="200" height="200"><path fill="none" id="canvas_background" d="M-1-1h202v202H-1z"/><g><style></style><g stroke="null" id="svg_113" transform="matrix(.38024 0 0 .38024 -2145.72 -2145.157)"><g id="svg_95"><g stroke="null" id="svg_96"><path stroke="null" id="svg_97" d="M6162.13 5739.488c-19.04 8.352-39.328 13.888-60.48 16.576 21.76-12.992 38.368-33.408 46.176-58.016-20.288 12.096-42.688 20.64-66.56 25.408-19.264-20.512-46.72-33.216-76.672-33.216-58.112 0-104.896 47.168-104.896 104.992 0 8.32.704 16.32 2.432 23.936-87.264-4.256-164.48-46.08-216.352-109.792-9.056 15.712-14.368 33.696-14.368 53.056 0 36.352 18.72 68.576 46.624 87.232-16.864-.32-33.408-5.216-47.424-12.928v1.152c0 51.008 36.384 93.376 84.096 103.136-8.544 2.336-17.856 3.456-27.52 3.456-6.72 0-13.504-.384-19.872-1.792 13.6 41.568 52.192 72.128 98.08 73.12-35.712 27.936-81.056 44.768-130.144 44.768-8.608 0-16.864-.384-25.12-1.44 46.496 29.984 101.6 47.104 161.024 47.104 193.152 0 298.752-160 298.752-298.688 0-4.64-.16-9.12-.384-13.568 20.832-14.784 38.336-33.248 52.608-54.496z"/></g></g></g></g></svg>