<svg viewBox="0 0 100 82" xmlns="http://www.w3.org/2000/svg" class="icon icon--twitter" fill="currentColor" width="200"><defs><filter id="a"><feColorMatrix in="SourceGraphic" values="0 0 0 0 1.000000 0 0 0 0 1.000000 0 0 0 0 1.000000 0 0 0 1.000000 0"/></filter></defs><g filter="url(#a)" fill="none" fill-rule="evenodd"><path d="M100 9.619c-3.719 1.631-7.681 2.712-11.813 3.237 4.25-2.537 7.494-6.525 9.02-11.331-3.963 2.363-8.338 4.031-13 4.963A20.544 20.544 0 0069.23 0c-11.35 0-20.487 9.213-20.487 20.506 0 1.625.137 3.188.475 4.675-17.044-.831-32.125-9-42.257-21.444C5.194 6.808 4.156 10.32 4.156 14.1c0 7.1 3.657 13.394 9.107 17.038-3.294-.063-6.526-1.02-9.263-2.526v.226C4 38.8 11.106 47.075 20.425 48.98c-1.669.456-3.488.675-5.375.675-1.313 0-2.638-.075-3.881-.35 2.656 8.119 10.194 14.088 19.156 14.282A41.193 41.193 0 014.906 72.33c-1.681 0-3.293-.075-4.906-.281 9.081 5.856 19.844 9.2 31.45 9.2C69.175 81.25 89.8 50 89.8 22.913c0-.907-.031-1.782-.075-2.65 4.069-2.888 7.488-6.494 10.275-10.644z" fill="#000" fill-rule="nonzero"/></g></svg>