<svg xmlns="http://www.w3.org/2000/svg" stroke="null" vector-effect="non-scaling-stroke" viewBox="0 0 200 200" class="icon icon--wrench" fill="currentColor" width="200" height="200"><path stroke="null" fill="none" id="canvas_background" d="M-1-1h202v202H-1z"/><g><style></style><style></style><style></style><style></style><style></style><g stroke="null" id="svg_153"><g transform="matrix(1.99143 0 0 1.99143 -348.073 -348.073)" fill-rule="evenodd" fill="none" id="svg_147"><g stroke="null" fill-rule="nonzero" fill="#000" id="svg_148"><g stroke="null" transform="matrix(1 0 0 -1 350.43 449.288)" id="svg_149"><path id="svg_151" d="M-142.65 273.37c-4.301-1.087-9.25-4.565-15.36-10.725-3.515-3.587-3.685-3.804-3.992-5.724-.649-3.696-3.072-6.269-6.45-6.848-1.57-.254-2.083-.58-3.858-2.428-2.286-2.391-3.14-4.058-2.832-5.58.136-.615 1.433-2.282 3.378-4.311 3.004-3.116 3.277-3.297 4.642-3.297 1.331 0 1.638.217 4.096 2.753 2.252 2.32 2.73 3.008 2.9 4.276.683 4.456 4.54 7.536 8.26 6.594.649-.181 3.857-3.406 10-10.036l9.044-9.783 3.311 3.55 3.345 3.552-8.806 9.058c-4.812 4.963-9.078 9.492-9.42 10.108-1.604 2.536-.307 6.74 3.038 9.928 4.13 3.913 8.532 5.217 12.526 3.804l1.98-.725.716.834.682.797-1.16.942c-2.457 1.993-8.498 3.877-12.253 3.804-.99 0-2.696-.253-3.788-.543z"/><path id="svg_150" d="M-97.463 272.464c-4.471-.906-8.498-4.203-10.546-8.623-1.229-2.609-1.263-2.862-1.263-6.522 0-2.101.068-4.203.17-4.638.137-.688-3.242-4.456-21.126-23.442l-21.262-22.608-1.23.362c-.682.217-2.661.29-4.368.217-2.764-.108-3.413-.29-5.665-1.485-5.495-2.862-8.942-9.348-8.26-15.616l.205-2.102 4.335 4.566 4.334 4.601 4.403-.906c2.423-.507 4.505-1.05 4.607-1.195.137-.181.649-2.392 1.16-5l.922-4.674-4.334-4.602-4.3-4.565 1.842-.217c6.007-.761 12.116 2.862 14.88 8.768 1.23 2.609 1.264 2.862 1.264 6.522 0 2.101-.069 4.202-.17 4.637-.137.689 3.207 4.42 21.125 23.442l21.263 22.609 1.229-.362c.682-.218 2.662-.29 4.368-.218 2.765.109 3.413.29 5.666 1.486 5.529 2.898 8.942 9.42 8.225 15.76l-.205 1.957-4.3-4.565-4.334-4.601-4.403.978c-2.457.543-4.54 1.087-4.71 1.232-.137.145-.648 2.355-1.092 4.927l-.853 4.674 4.3 4.565 4.3 4.566-1.638.253c-1.911.254-2.56.254-4.54-.181z"/><path id="Path" d="M-118.487 219.964l-4.71-5 17.167-18.623c21.229-23.007 19.932-21.667 20.888-21.667 1.024 0 9.488 8.913 9.488 10 .034.652-7.202 8.37-29.045 30.942l-9.044 9.384-4.744-5.036z"/></g></g></g></g></g></svg>