<svg class="icon icon-design-system" fill="currentColor" xmlns="http://www.w3.org/2000/svg" viewBox="0 0 77.23 100"><defs/><path class="cls-1" d="M28.22 87.18a5.84 5.84 0 002.26 3.58 6.12 6.12 0 011.34 1.44 1.94 1.94 0 01.45 1.22 1 1 0 00.55 1 4.73 4.73 0 001 .61 2.58 2.58 0 011.41 1.38 22 22 0 001.07 2 1.81 1.81 0 01.26.78.65.65 0 01-.56.81 8.6 8.6 0 01-3.82-.53c-.07-.15-.27-.23-.62-.24a2.42 2.42 0 01-1.79-1.68 1.59 1.59 0 01.12-1.21c.25-.5.18-.61-.36-.62-1.27 0-1.49-.29-1.88-1.7a16.21 16.21 0 00-3.22-6.2c-.31-.36-.63-.72-.95-1.07a2.74 2.74 0 01.14-4.28c.48-.13.65-.55.88-.92l1.78-1.94a5.2 5.2 0 00.51-.65c.4-.61.31-.88-.31-1.22a6.58 6.58 0 01-2.56-2.67 10.79 10.79 0 01-1.38-5.59 2.51 2.51 0 000-1.09 23.39 23.39 0 01.27-3 7.58 7.58 0 00-2.28 2.87c-.15 0-.17-.1-.19-.21A3.85 3.85 0 0121 66.6a6.39 6.39 0 00-1 1.45c-.1.16-.13.39-.36.45s-.12-.17-.07-.27.16-.39.18-.61a8.1 8.1 0 00-2.15 4.27c-.1 0-.15-.08-.24-.07l-.16.18a14.89 14.89 0 00-1.09 3.24c-.05.18 0 .41-.23.52-.07 0-.09-.15-.15-.16s.14 0 .16.11a11.15 11.15 0 01-.37 1.64c-.3 0-.06-.31-.18-.43s.17-.25 0-.45a23.63 23.63 0 01-1.79 2.95 5.41 5.41 0 01-1.06 1.48l-.34.16a1.83 1.83 0 01-.48.25A15.05 15.05 0 017.31 84c-.42 0-.17-.33-.28-.48a9.61 9.61 0 011.62-1.23l.14-.11c-.08 0-.14.09-.22.14a14.7 14.7 0 01-1.88 1 .65.65 0 01-.47.09c-.32-.28-.62.09-.92 0l-1.52.23c-.15 0-.3.1-.41-.08s-.17-.11-.28-.08-.36.16-.55.06-.27.14-.42.1a3.42 3.42 0 01-1.15 0H.79c0-.26.22-.11.35-.12h.26c.19-.07.4 0 .59-.07h.2c.1-.08 0-.13 0-.18a4.71 4.71 0 00-.84 0 1.38 1.38 0 01-1.17-.57.19.19 0 01.24-.12 1.07 1.07 0 001.32-.43c.1-.19.34.06.44-.14a16.42 16.42 0 002.25-1.33c.06 0 .19-.08.09-.2s-.44-.07-.65-.14-.2-.28-.19-.55a1.47 1.47 0 001.87 0A8 8 0 007 78.41l.18-.26a3.92 3.92 0 01.56-.89 1.27 1.27 0 00.26-.41v-.32c1.12-1.2 1.47-2.81 2.26-4.18 0-.06.06-.13 0-.18s-.09 0-.13 0l-.29.25c-.12 0-.16 0-.14-.13 2.08-2.26 4.14-4.51 7-5.84a27.51 27.51 0 008.37-5.76c.21 0 .25-.18.34-.32.73-1.11 1.11-2.43 2.08-3.4a6.17 6.17 0 011.92-1.34c3.77-1.59 6.52-4.4 9.07-7.47a22.78 22.78 0 003.32-5 4.63 4.63 0 00-.24-4 7.55 7.55 0 01-1.44 3 8.72 8.72 0 00-.12-3.89 2 2 0 00-.29.86 20.88 20.88 0 010 2.74v.38c-.3-.19-.1-.46-.12-.69v-2.1a8.79 8.79 0 00-1.07 2.15.31.31 0 01-.2-.07 4.08 4.08 0 00-.92 1.37c-.12 0-.2.13-.33.13-.38 0-.59.32-.83.55a1.08 1.08 0 01-.83.41c1.46-.9 1.52-2.38 1.69-3.83a.35.35 0 000-.3.48.48 0 00-.11.09l-.68 1.19c-.11 0-.18 0-.12-.13a.7.7 0 01.12-.53c0-.13 0-.13-.11-.12a5 5 0 01-1 1c-.09 0-.18 0-.11-.14a1.72 1.72 0 01.34-.64c.11 0 .06-.06 0-.1.06-.32.12-.64.17-1 0-.15 0-.25-.19-.19a.14.14 0 01-.12-.2 13.23 13.23 0 00.44-3.07c.05-.18.08-.38.13-.56s.2-.33-.1-.41c-.1 0-.08-.14 0-.22l.11-.36a6.88 6.88 0 00-1.25.8c-.15.08-.22 0-.2-.13l.23-.22a1 1 0 01.31-.28h.08s-.08 0-.13.06a.76.76 0 01-.38.16 19.22 19.22 0 00-2.6 1.68q-.2 0-.15-.15c.05-.2.39-.2.33-.48 0-.08-.15-.1-.19-.2v-.07a22.53 22.53 0 002.66-2.86c0-.16.11-.3.1-.47a.5.5 0 010-.21.63.63 0 01.22-.29 2.16 2.16 0 00.53-.47 10.49 10.49 0 002.05-3.12l.2-.44a1.5 1.5 0 00-.72.68.32.32 0 01-.2.25l-.25.21c-.1 0-.19-.16-.29 0a1.41 1.41 0 00-.29.18.52.52 0 01-.31.14h-.09c-.17 0-.24.15-.38.18s-.22.15-.37.13-.33-.05-.49 0c-.59.15-1.18.3-1.78.43-.14 0-.35.17-.42-.05s.19-.16.3-.23.5-.17.7-.36c.68 0 .68 0 .69-.53l.25-.35c0-.1-.07-.19 0-.29.21-.29.77-.17.76-.69a.08.08 0 010-.13c.21-.49.8-.67 1-1.17 0-.07-.14-.1-.09-.21.23-.57.83-.87 1-1.45 0-.13.19-.23.16-.45l-.65.31c-.13 0-.25 0-.29.14l-1.26.82a1 1 0 01-.66.17c-.07-.23.18-.16.22-.26-.15.14-.37 0-.55.12a7.4 7.4 0 01-1.89.12.24.24 0 01.29-.13c.2-.07.42 0 .61-.08a6.13 6.13 0 001.54-.91c.12-.23.39-.31.55-.5a2.27 2.27 0 01.31-.31.78.78 0 00.25-.26c1-.43 1.31-1.32 1.84-2.26l-.76.49c-.09.08-.17.18-.31.1l-.33.12c-.27-.06-.45.19-.7.22a.83.83 0 01-.21.06c-.3.11-.6-.08-.89 0a6.25 6.25 0 01-1.36-.04.7.7 0 00-.55 0c-.31 0-.64.2-.9-.1.46-.26 1-.13 1.48-.34a4.11 4.11 0 001.57-.87c.16-.46.65-.35 1-.56.07-.05.23-.09.12-.22s-.14 0-.21 0a5.47 5.47 0 01-1.4 0c.17-.3.44-.08.66-.14s.4 0 .59-.09a4.8 4.8 0 002.68-1.52h-.37a2 2 0 00-1 0 1.77 1.77 0 01-1.2-.55c.05-.11.12-.17.25-.12a2.44 2.44 0 001.67-.25 7.77 7.77 0 01-3.45-1.4c.59-.06.86.3 1.23.4A5.92 5.92 0 0038.4 16a16.3 16.3 0 002.39-1.13c.21-.12.32-.23.23-.51-.13-.44-.17-.9-.28-1.34 0-.13-.12-.23 0-.35a.35.35 0 01.41-.06 5.45 5.45 0 01.66.39 2.11 2.11 0 002 .49 2.53 2.53 0 011.47-.06c.35.09.52-.07.63-.36s.22-.54.32-.81a1.8 1.8 0 01.45-.75c.13-.12.25-.31.46-.23s.17.28.19.43 0 .58 0 .87c-.1.11 0 .24-.06.36s.09 0 0 0 .11-.05 0 0c.14.35.26.74.77.46.2-.07.1.21.23.22a1.84 1.84 0 001.58-.62 33.79 33.79 0 004.35-5.5c.14-.21.3-.4.46-.6.29 0 .35.2.24.39s-.08.6-.43.82c-.2.12 0 .59 0 .89l-2.38 4.86a2.48 2.48 0 00-.36.81l.65.06c.19.16.51-.15.65.19l-.88.06c0 .25.48.18.46.49 0 .07-.11 0-.14.06s.1 0 .14-.06h.2c.14.25.51.54-.13.63-.26 0-.46-.2-.78-.19a5.53 5.53 0 001.35.87 1.23 1.23 0 00.63.07.17.17 0 01.14 0l.3-.1c.11 0 .23-.08.25.11a1.7 1.7 0 01-1 .36c-.1.17-.43-.15-.44.2.36.3.78.18 1.19.13 0 .29-.28.14-.33.35a49.83 49.83 0 015.41 3.49c0 .1-.1.19-.24.15.08.1.17 0 .25 0a2.92 2.92 0 011.68 2 12 12 0 01-.09 2.62c-.13 1.14-.8 1.5-2 1.87-.32 0-.64-.12-1-.14s-.61-.44-.65-.95a.49.49 0 01-.71.15 1.84 1.84 0 00-1.58-.41 8.54 8.54 0 01-3.34 0c-.43-.1-.73.3-1.29.33l1.93.99c3.43 2 5.27 5.12 6.52 8.72a2.29 2.29 0 001.63 2.32 17.26 17.26 0 011.89 1.21 2.61 2.61 0 011.26 2.3c0 .64.09 1.28.12 1.92 0 .29.08.42.41.41a23.78 23.78 0 007.38-1.31 2.68 2.68 0 012.37-.18c-.08.49.2.58.59.53A.79.79 0 0175 44l.24.13a.76.76 0 00.34.3c.06.28 0 .57 0 .85.14-.13.09-.45.4-.4a1.67 1.67 0 01.5 1.34 17.89 17.89 0 00.35 5c0 .07 0 0 0 0a1.49 1.49 0 000 .21c0-.06 0-.12.07-.16a19.31 19.31 0 01.29 4.92 2 2 0 01-.45 1.11 28.78 28.78 0 00-2 3.23 6.61 6.61 0 01-2 2.26c-1 .64-1.5.45-1.79-.68a9.28 9.28 0 01-.15-3.82 1.8 1.8 0 011.2-1.21c1-.49 1-.49.75-1.5a.64.64 0 000-.54 1.36 1.36 0 01.4-.81 2 2 0 00.48-1.52 20 20 0 00-.44-3.08 1.23 1.23 0 00-.36-1c-.72-.94-1-1-2.12-.53-.48.2-.93.48-1.4.73-.11 0-.18 0-.21.13a12.56 12.56 0 01-2.42 1.37 27.74 27.74 0 01-4.87 2 3 3 0 01-.43.06 1.08 1.08 0 00-.48 0c-.2 0-.12.13-.13.06s.2 0 .28.06a3 3 0 01-1.43-.12 9.27 9.27 0 002.95 3.35A25.24 25.24 0 0065 57.08a1.9 1.9 0 011.13 1.79 4.44 4.44 0 00.65 2.56v1a1.61 1.61 0 01-.34.79 15 15 0 00-2.5 6.27 4.07 4.07 0 01-2.06 3c-1.62.92-3.2 1.92-4.91 2.69a2.66 2.66 0 01-1 .31c-.49 0-.81-.15-.86-.68a2.55 2.55 0 000-1.1 2.06 2.06 0 01.28-1.31 6.89 6.89 0 012.69-2.53 1.06 1.06 0 00.66 0 1.4 1.4 0 01.67.15c.21.09.24 0 .3-.17a1.24 1.24 0 000-.87 2.18 2.18 0 01.69-1.77 6.48 6.48 0 002-4.79A3.6 3.6 0 0060.17 59a13.7 13.7 0 00-3.32-.89c-.54-.1-1.12-.49-1.58-.28s-.69.77-1 1.17a2.5 2.5 0 01-.24.22c-.21 0-.28.18-.33.36a20.76 20.76 0 01-5.56 4.25 19.44 19.44 0 01-6.18 2.2c-.15 0-.3 0-.2.25 1 2.19.6 4.45.41 6.72A9.63 9.63 0 0139 79.16a2.44 2.44 0 00-.59 1.26 5.5 5.5 0 00-.36 1.82c.07.61.8.89 1.24 1.31 1.39 1.3 2.8 2.58 4.21 3.87a.46.46 0 010 .72c.22 0 .32-.27.55-.27a7.91 7.91 0 011.18 1.06 1.17 1.17 0 01.36.61A1.85 1.85 0 0046.75 91a7 7 0 011.8 1.59c.41.51.89 1 1.33 1.47a2.77 2.77 0 01.6.91c.21.57 0 1-.56 1.15a7.61 7.61 0 01-4.92-.33 2.16 2.16 0 01-1.36-2.07c0-.74-.21-1-1-1.08a2.3 2.3 0 01-1.93-1.48 16.1 16.1 0 00-6.91-7 4.55 4.55 0 01-.8-.56 1.65 1.65 0 01-.56-2.23c0-.08.06-.16.13-.39l-.68.6a.31.31 0 00-.2.2 12 12 0 01-2.17 2c-1.1.83-1.77 1.78-1.37 3.22a.33.33 0 000 .19.81.81 0 010 .16s0-.14.07-.17z"/><path class="cls-2" d="M74.45 74.73a2.28 2.28 0 00-1.63 1.35 6.46 6.46 0 00-.67 2.36A3.2 3.2 0 0172 79c-.37-1.75-.42-3.67-2.58-4.4 2.17-.71 2.2-2.62 2.61-4.37.08.44.14.89.22 1.33a5 5 0 00.81 2 2.11 2.11 0 001.48 1c.11.13-.01.14-.09.17z"/><path class="cls-1" d="M25.88 28.48a2.22 2.22 0 00-1.47 1.36 18.86 18.86 0 00-.6 2c0 .07.06.19.1.29s-.08.19-.21.11a7 7 0 00-.36-1.88 2.63 2.63 0 00-1.93-2c1.57-.51 2-1.72 2.17-3.05l.12-.8c.29 0 .07.32.2.43a4.67 4.67 0 001.26 2.95 1.67 1.67 0 00.83.36c.08.15.01.18-.11.23zM47.8 1.94a4.49 4.49 0 00.4 1.61A2.16 2.16 0 0049.74 5c-1.57.47-1.74 1.78-1.94 3.09-.21.06-.11-.16-.19-.21a5.84 5.84 0 00-.42-1.59A2.13 2.13 0 0045.68 5a2.65 2.65 0 001.81-2.4c0-.17.08-.35.12-.52s.07-.2.19-.14zM65.23 18.25a2 2 0 001.4-1.4 7.36 7.36 0 00.37-1.47c.2-.06.11.16.19.22a3.76 3.76 0 001.32 2.54 1 1 0 00.24.1.15.15 0 010 .21 2.23 2.23 0 00-1.17 1.28 4.51 4.51 0 00-.39 1.48c0 .07-.07.17-.19.11V21c-.1-.14 0-.34-.09-.48a7 7 0 00-.51-1.24 1.72 1.72 0 00-1.12-.87c-.12-.03-.12-.09-.05-.16z"/><path class="cls-3" d="M26.1 41.89c.27 0 .14.22.15.3a4.21 4.21 0 00.8 2.13 1.26 1.26 0 00.82.58c0 .1.29 0 .21.21a1.78 1.78 0 00-1.31 1 7.89 7.89 0 00-.62 2.16 6.49 6.49 0 00-.91-2.65c0-.19.2-.23.22-.4-.79 0-.88-.1-.68-.48A3.76 3.76 0 0026 42.47c.12-.18 0-.39.1-.58zM15.23 88a2.26 2.26 0 00-1.31-2.17c.92-.26 1.12-1.07 1.3-1.88a.12.12 0 01.2 0 2.24 2.24 0 001.29 1.91c-1 .38-1.19 1.25-1.3 2.15-.06-.01-.12-.01-.18-.01z"/><path class="cls-4" d="M69.09 68.57a1.94 1.94 0 001.13 1.36 1.91 1.91 0 00-1.16 1.73c-.08.06 0 .27-.18.21-.12-.81-.24-1.61-1.3-1.94.86-.18 1-.85 1.27-1.47.09.01.15.1.24.11z"/><path class="cls-5" d="M64.24 83.65c-.09-.69-.24-1.35-1-1.63v-.07c0-.07 0 0 0 0a2.23 2.23 0 001-1.43c.13-.07-.08-.34.2-.33.17.65.24 1.36 1 1.66.07 0 .19.07.1.2-.86.29-.94 1-1.08 1.77-.15.03-.18-.08-.22-.17z"/><path class="cls-6" d="M54.43 9c-.26-.29.1-.76-.36-1 .26 0 .62-.06.56-.17-.19-.35.53-.63 0-.93a15.65 15.65 0 011.22-1.68c.09-.11.18-.29.35-.19s.05.29 0 .42a23.39 23.39 0 01-1.1 2.24 2.77 2.77 0 00-.55 1.08.26.26 0 01-.12.23z"/><path class="cls-7" d="M23.89 40.18a1.45 1.45 0 00.83 1.22 1.36 1.36 0 00-.82 1.27.23.23 0 01-.1.15c-.21-.25-.17-.61-.34-.89a1.21 1.21 0 00-.64-.52A1.58 1.58 0 0023.7 40c.23-.11.12.11.19.18z"/><path class="cls-6" d="M64.69 15.92c-.2-.51-.37-1-.91-1.2.53-.34.61-.45.87-1.27.38.38.32 1.07 1 1.23-.59.23-.65.77-.96 1.24z"/><path class="cls-8" d="M66.34 30.11c.18.49.29 1 .93 1.28-.72.24-.76.87-1 1.46-.2-.6-.26-1.2-.94-1.45a1.82 1.82 0 00.86-1.07c.17 0 .02-.2.15-.22z"/><path class="cls-9" d="M45.51.49c.19.33.36.69.83.82-.73.28-.82.89-1 1.54-.21-.61-.25-1.26-1-1.52a1.73 1.73 0 00.93-1.18c.15.07.09.28.24.34z"/><path class="cls-10" d="M27.78 12.48a2.41 2.41 0 00.6 1.08c.05 0 .18.19.07.26-.49.3-.54.83-.72 1.42-.2-.67-.3-1.28-1-1.56.6-.17.69-.67.89-1.09.2.12.05-.16.16-.11z"/><path class="cls-11" d="M36.56 7.26c-.2-.42-.29-.92-.89-1.09a1.45 1.45 0 00.8-1c0-.09 0-.18.16-.18s.14.09.17.18a1.36 1.36 0 00.79 1c-.56.21-.69.69-.88 1.12-.07 0-.07-.12-.08-.19a.2.2 0 01-.07.16z"/><path class="cls-12" d="M6.19 83.39a23.92 23.92 0 002.39-1.16c.12 0 .15 0 .13.12a17.77 17.77 0 01-1.65 1.24 2.29 2.29 0 01-1.66.84c0-.22.59-.38.07-.66a.65.65 0 01.72-.38z"/><path class="cls-13" d="M18 89.12a1.17 1.17 0 00-.74.73c-.05.12-.05.32-.24.31s-.12-.19-.17-.29a1.18 1.18 0 00-.74-.74c.67-.26.75-.84 1-1.46.09.62.17 1.19.89 1.45z"/><path class="cls-14" d="M35.83 36c-.06.81-.15 1.62-.17 2.44 0 .34-.37.53-.29.88a2.27 2.27 0 01-.29.4 1 1 0 01-.27.32l-.11-.12c-.11-.16 0-.29.06-.43s.15-.43.18-.66a1.37 1.37 0 00.1-.57.17.17 0 010-.1c.15-.2.09-.44.13-.67s.12-.56.17-.85a2 2 0 010-.24c.07-.18.06-.38.12-.57a.3.3 0 01.25-.22c.22.1.14.26.12.39z"/><path class="cls-15" d="M74.59 78.72c-.27-.39-.25-1-.87-1.13a1.38 1.38 0 00.77-1.28c.29 0 .05.27.2.32a1.1 1.1 0 00.66.93 1.19 1.19 0 00-.67 1c-.02.08-.02.14-.09.16z"/><path class="cls-16" d="M49.38 72.32l.11.07c.09.11-.25.25 0 .37.13 0 .41.28 0 .47h.08a.13.13 0 010 .19 2.19 2.19 0 00-.35 1c-.21.09-.11-.17-.21-.2a1.32 1.32 0 00-.8-1.21 1.56 1.56 0 00.78-.82c.21.13.31.06.39.13zM19.17 54.67a.93.93 0 00-.45.69c-.3 0-.22-.49-.56-.42a1.58 1.58 0 00-.32-.27c-.45-.24-.07-.25.08-.31s.32-.24.36-.45l.26-.91c.22.52.19 1.07.63 1.39a.28.28 0 010 .28z"/><path class="cls-17" d="M67 76.22a1.42 1.42 0 00.76 1.34 1.66 1.66 0 00-.6.54c-.14 0-.23.19-.39.08s-.29-.5-.64-.59a1.18 1.18 0 00.69-.94c.09-.11-.15-.39.18-.43z"/><path class="cls-18" d="M19.72 68.47a4.24 4.24 0 011.63-2.21 10.58 10.58 0 00-1 1.74 4.35 4.35 0 01-.35 1c-.06.11-.09.26-.25.27l-.27-.13c-.1-.3.06-.49.24-.67z"/><path class="cls-9" d="M15.34 77l.18.43a6.87 6.87 0 01-1.84 3.17 12.54 12.54 0 001.66-3.6z"/><path class="cls-18" d="M54 16.89h-.11a1.14 1.14 0 01-.66 0 4.46 4.46 0 01-1.71-1.15c.5-.12.79.23 1.16.26a1.8 1.8 0 011.09.76z"/><path class="cls-19" d="M56.72 27.09c.23 0 .47 0 .59-.26 0-.12.18-.12.28 0a.25.25 0 01.09.33c-.1.26.2.7.44.68a1.87 1.87 0 01.93.24 2.18 2.18 0 01-2.33-.99z"/><path class="cls-20" d="M28 48a1 1 0 010-1.3c.08-.05 0-.29.2-.22 0 .37.43.65.41.87s-.41.5-.41.88c-.2.03-.12-.23-.2-.23z"/><path class="cls-11" d="M37.89 7.47v.32c.48.54.21 1-.11 1.53-.18-.26-.18-.63-.51-.8-.13-.06 0-.13.07-.18a.71.71 0 00.31-.55c.19-.05-.06-.36.24-.32z"/><path class="cls-21" d="M69.18 20a.92.92 0 00.46.6 1.37 1.37 0 00-.47.6c-.08.06 0 .27-.18.22a1.23 1.23 0 00-.53-.82 1.07 1.07 0 00.54-.9c.27-.03 0 .3.18.3z"/><path class="cls-22" d="M67.5 32.82a1.37 1.37 0 00.57.89 1.16 1.16 0 00-.56.89c-.2-.3-.22-.65-.51-.81-.06 0-.14-.08 0-.14.27-.15.26-.52.5-.83z"/><path class="cls-16" d="M49.59 8c0-.33-.42-.54-.39-.74s.38-.44.4-.77q.09-.12.18 0c0 .34.46.59.4.74s-.37.42-.41.72c-.05.11-.11.11-.18.05zM5.4 84.43a9.58 9.58 0 001.66-.84c.2.08 0 .4.25.43a7.06 7.06 0 01-1.62.56c-.13.03-.3.12-.29-.15z"/><path class="cls-6" d="M75 44a3.94 3.94 0 01-.68.08c-.69 0-.69 0-.39-.68A1.73 1.73 0 0175 44z"/><path class="cls-2" d="M24.78 44.79a.29.29 0 00.37.34c.25-.06.49-.15.57.15s-.31.14-.4.32a.5.5 0 01-.08.07 2 2 0 00-1.24-.58z"/><path class="cls-23" d="M19.72 68.47l-.23.66a12.35 12.35 0 01-.55 1.3.16.16 0 01-.11-.09 8 8 0 01.77-2.11c.01.09.02.19.12.24z"/><path class="cls-24" d="M53.75 16.8c-.46-.12-.68-.58-1.09-.76.17 0 .46 0 .12-.29-.1-.07-.05-.16 0-.24a2.39 2.39 0 01.97 1.29z"/><path class="cls-25" d="M6.19 83.39l-.72.38-.75.23c-.17-.17 0-.19.11-.25s.38-.09.48-.29c.27-.17.55-.46.88-.07z"/><path class="cls-26" d="M17.42 71.64c.19 0 0 .23.21.25l-.34 2.2c-.12.06-.15 0-.2-.11l.22-1.74c.1-.19-.06-.43.11-.6z"/><path class="cls-6" d="M76 44.89c-.29.14-.16.51-.42.77a1.29 1.29 0 010-1.22 1.21 1.21 0 01.42.45z"/><path class="cls-27" d="M33.72 28.83c.09.18.35.33.11.57s-.54.09-.8 0z"/><path class="cls-28" d="M35.73 35.66l-.15.21a.31.31 0 01-.13.06.21.21 0 01-.13-.07c-.06-.4.23-.67.38-1 .09.18.69.14.25.56-.2-.03-.09.21-.22.24z"/><path class="cls-29" d="M3.42 83.47c0 .24.21.19.36.22L2 84.25c.16-.35.44-.33.6-.48a.93.93 0 01.82-.3z"/><path class="cls-30" d="M49.7 73.47a.42.42 0 01-.06-.36c0-.16-.1-.24-.19-.29-.36-.2-.05-.3 0-.43a2.21 2.21 0 00.74.78 1.12 1.12 0 00-.49.3z"/><path class="cls-31" d="M44.07 87.87c-.18.41-.58.29-.91.38a.65.65 0 00.37-.83z"/><path class="cls-32" d="M33.9 24.28c-.33 0-.59.3-.94.27 0-.14 0-.22.16-.27l1.14-.42c.07 0 .13.06.14.15-.08.26-.32.21-.5.27z"/><path class="cls-33" d="M7.82 77.27a2.61 2.61 0 01-.66.88c0-.16-.11-.2-.25-.22a.27.27 0 01.14-.25c.23-.17.36-.47.67-.56.07.02.14.05.1.15z"/><path class="cls-34" d="M18.16 54.94c.11 0 .21-.44.33 0a1.92 1.92 0 00.23.42.43.43 0 01-.22.4z"/><path class="cls-35" d="M31.72 36.39l.15.15-1.16 1.07a2.94 2.94 0 011.01-1.22z"/><path class="cls-36" d="M39.68 41.87v-2.74a8.13 8.13 0 010 2.74z"/><path class="cls-37" d="M38.32 42a3.07 3.07 0 01-.56 1.13l-.13-.06.6-1.29c.09.08.05.22.09.22z"/><path class="cls-38" d="M24.45 81.53c-.23.36-.11 1.06-.88.92a5.48 5.48 0 01.88-.92z"/><path class="cls-39" d="M36.13 41l.12.13a1 1 0 01-.65.91 5.06 5.06 0 01.53-1.04z"/><path class="cls-40" d="M47.61 1.51a3.7 3.7 0 01.07-1.26 2.42 2.42 0 01.13 1.16c-.06.05-.1.14-.2.1z"/><path class="cls-41" d="M33 24.55a3.43 3.43 0 01-1.45.23 2.06 2.06 0 011.45-.22z"/><path class="cls-42" d="M19.92 69a3.49 3.49 0 01.45-1l.11.25-.42.89c-.13.02-.18-.03-.14-.14z"/><path class="cls-43" d="M12 81.59a2.63 2.63 0 01-.92.85c.15-.46.54-.62.7-.94a.07.07 0 01.09-.06.2.2 0 01.13.15z"/><path class="cls-44" d="M34.7 27.37v.13c-.48.07-.8.53-1.32.53.44-.28.78-.7 1.32-.66z"/><path class="cls-45" d="M12 81.59l-.12-.09c-.13-.26.15-.34.22-.51s.23-.1.36 0a1 1 0 01-.46.6z"/><path class="cls-1" d="M54.55 8.77c.07-.42.08-.86.55-1.08a4.4 4.4 0 01-.55 1.08z"/><path class="cls-46" d="M53 14.92c-.18-.2-.47 0-.65-.19l1.21-.12c.05 0 .11.05.13.12a1.13 1.13 0 01-.69.19z"/><path class="cls-47" d="M33.83 35.88c-.26.2-.43.58-.93.52l.79-.66c.12-.03.17.02.14.14z"/><path class="cls-48" d="M33.83 35.88l-.14-.14a3 3 0 01.67-.56.2.2 0 00.2.13z"/><path class="cls-49" d="M36.14 28.82c.15-.12.22 0 .31.1-.2.21-.26.58-.67.52s0-.05 0-.08a.34.34 0 01.09-.33c.13-.03.19-.12.27-.21z"/><path class="cls-50" d="M34.93 21.87a.9.9 0 00.49-.21c.16-.12.22 0 .28.11a1.1 1.1 0 01-.62.35c-.21.02-.22-.12-.15-.25z"/><path class="cls-51" d="M9.7 72.33l.14.13a2.36 2.36 0 01-.58.64.15.15 0 01-.13-.1 2.27 2.27 0 01.57-.67z"/><path class="cls-52" d="M18.7 71a1.14 1.14 0 01-.3 1 1.16 1.16 0 01.25-1z"/><path class="cls-53" d="M64.24 83.65c.07.06.09.17.21.13v1a1.72 1.72 0 01-.21-1.13z"/><path class="cls-54" d="M31.51 99.21c0-.11.07-.26.2-.15a1.25 1.25 0 00.68.17c0 .17-.17.15-.26.22a1.28 1.28 0 01-.62-.24z"/><path class="cls-55" d="M33.82 20.65a4.16 4.16 0 01-1.82-.11h1.56c.12-.02.25-.11.26.11z"/><path class="cls-56" d="M3.42 83.47a2.63 2.63 0 01-.78.3l-.1-.18.72-.27c.19-.08.23-.02.16.15z"/><path class="cls-57" d="M66.76 62.42a1.08 1.08 0 010-1 1.11 1.11 0 010 1z"/><path class="cls-58" d="M34.81 37.52a1.93 1.93 0 01-.27 1 1.27 1.27 0 01.18-1s.06-.04.09 0z"/><path class="cls-59" d="M33.94 25.61a1.33 1.33 0 01-1.2.32l1.09-.41a.48.48 0 01.11.09z"/><path class="cls-60" d="M9.13 73l.13.11a2.18 2.18 0 01-.55.66.16.16 0 01-.1-.11 1.86 1.86 0 01.52-.66z"/><path class="cls-51" d="M33.39 28a.19.19 0 010 .08 1.16 1.16 0 01-1 .25 2.82 2.82 0 011-.33z"/><path class="cls-61" d="M23.8 42.82l.1-.15v.71c0 .24 0 .28-.21.21a.17.17 0 01-.05-.28.6.6 0 00.16-.49z"/><path class="cls-62" d="M33 22.67a2 2 0 01-1.25 0l.77-.1c.13.09.34-.06.48.1z"/><path class="cls-19" d="M72.81 48.65a.71.71 0 01.36 1z"/><path class="cls-26" d="M34.81 37.52h-.09a1.06 1.06 0 01.21-.77.09.09 0 01.13 0 .38.38 0 01.13.26.32.32 0 010 .14 1.56 1.56 0 01-.23.28z"/><path class="cls-63" d="M23.8 24.18a3.11 3.11 0 01-.09-1 2.3 2.3 0 01.19 1.29c-.17-.07-.18-.16-.1-.29z"/><path class="cls-64" d="M1.32 83.25a1 1 0 011 0c-.08.14-.25 0-.35.11a1.32 1.32 0 01-.65-.11z"/><path class="cls-65" d="M23.7 32.22l.21-.11a2.27 2.27 0 01-.16 1.14c-.16-.36.16-.71-.05-1.03z"/><path class="cls-66" d="M49.14 74.32c.1 0 .06.22.21.2v.83a1.51 1.51 0 01-.21-1.03z"/><path class="cls-67" d="M35.31 30a1.83 1.83 0 01-.78.71 1.23 1.23 0 01.78-.71z"/><path class="cls-68" d="M33.49 23.4a2.3 2.3 0 01-1 .19 1.85 1.85 0 01.84-.3c.14-.05.17.01.16.11z"/><path class="cls-55" d="M59.73 21.76c-.21 0-.42 0-.63-.08s-.24.11-.25-.08.13-.14.24-.1.2 0 .3-.07.25.19.34.33z"/><path class="cls-69" d="M33.9 24.28l.5-.3c0-.1.13-.13.23-.16s.16.1.16.21c-.24.08-.37.34-.64.36z"/><path class="cls-70" d="M34.93 21.87a.23.23 0 00.15.25 1.53 1.53 0 01-.93.26v-.05c0-.08 0-.12.1-.15a.86.86 0 01.55-.18z"/><path class="cls-71" d="M2.18 82s.25 0 0 .11a1.27 1.27 0 01-.48 0c-.16 0-.34 0-.4-.24a.07.07 0 01.11 0z"/><path class="cls-72" d="M18.7 71h-.05a.77.77 0 01.18-.68l.11.09c0 .26.06.5-.24.59z"/><path class="cls-73" d="M4.71 84a1.4 1.4 0 01-.84.29c.24-.23.47-.45.84-.29z"/><path class="cls-74" d="M67 15.16v-.76c.14-.08.16 0 .2.11v.77c-.12.04-.15-.06-.2-.12z"/><path class="cls-75" d="M5.73 78.44c.14-.27.43-.29.66-.4a.09.09 0 010 .14c-.18.21-.38.38-.68.27z"/><path class="cls-76" d="M19.92 69l.14.16c0 .1-.07.2-.1.3s-.14.26-.26.19 0-.25.06-.37z"/><path class="cls-77" d="M6.4 78.18V78l.6-.43c.07 0 .08.08 0 .13l-.14.23c-.15.01-.24.26-.46.25z"/><path class="cls-78" d="M7.05 77.7v-.13a2.61 2.61 0 01.78-.7c.17.16 0 .23-.09.3s-.4.44-.69.53z"/><path class="cls-79" d="M34.68 32.35c.13.22 0 .32-.18.43s-.28 0-.26-.13.16-.17.25-.26.11-.09.19-.04z"/><path class="cls-80" d="M33 22.67c-.16-.05-.35 0-.48-.12l.77-.1c.11.08.27 0 .36.11a1.32 1.32 0 01-.65.11z"/><path class="cls-81" d="M37 43a.21.21 0 01.33-.13 1.74 1.74 0 01-.32.56c-.11 0-.17 0-.13-.15z"/><path class="cls-82" d="M37.89 7.47c-.15.06-.09.25-.2.32 0-.27-.09-.56.1-.83.28.14.11.34.1.51z"/><path class="cls-83" d="M36 21.65l.31-.1c0 .34-.31.42-.52.58a.12.12 0 010-.18z"/><path class="cls-75" d="M32.08 28.46l-.79.06c.25-.19.51-.31.79-.06z"/><path class="cls-84" d="M66.73 78.18c.14 0 .21-.3.39-.08l-.17.63a.76.76 0 01-.22-.55z"/><path class="cls-85" d="M34 30a.52.52 0 01.44-.34.12.12 0 01.14.18 1.36 1.36 0 01-.57.3.09.09 0 010-.09z"/><path class="cls-66" d="M47.8 9a.87.87 0 01-.07.56c-.22-.26-.1-.52-.12-.76.18-.09.12.1.19.2z"/><path class="cls-47" d="M33.57 19.91H35a2.31 2.31 0 01-1.43 0z"/><path class="cls-86" d="M34.7 22.86a1.46 1.46 0 01-.76.34.06.06 0 010-.07 2.07 2.07 0 01.66-.34.19.19 0 01.1.07z"/><path class="cls-87" d="M35 36.75h-.11a1 1 0 01.22-.66c.1 0 .14 0 .18.1a.66.66 0 01-.06.39c-.01.09-.04.2-.23.17z"/><path class="cls-88" d="M33.64 22.56c-.12 0-.26 0-.36-.11a2.64 2.64 0 01.88-.12v.05c-.16.19-.34.15-.52.18z"/><path class="cls-89" d="M34.62 29.86v-.18a.17.17 0 01.16-.21c.11 0 .14-.26.31-.1a.27.27 0 01.1.11z"/><path class="cls-90" d="M35.28 37.56c-.06.21.09.5-.24.61-.19-.14.06-.27 0-.4s0-.29.12-.39.16.07.12.18z"/><path class="cls-91" d="M67.19 21.64v.67c-.1.05 0 .29-.21.21v-.77c.07-.05.1-.15.21-.11z"/><path class="cls-41" d="M39.53 41.56c.1.22-.06.48.12.69 0 .12.07.31-.1.31s-.1-.19-.1-.3.06-.47.08-.7z"/><path class="cls-92" d="M35.37 31.34a.72.72 0 01-.45.55.24.24 0 01-.1-.21.81.81 0 01.55-.34z"/><path class="cls-93" d="M.42 82.58l-.24.12c-.2-.13-.25-.28 0-.53z"/><path class="cls-94" d="M1.45 81.91h-.11c-.21-.18-.29-.38-.11-.75z"/><path class="cls-45" d="M35 38.84a1.34 1.34 0 01-.23.66h-.1a2.15 2.15 0 01.21-.79c.12.01.12.08.12.13z"/><path class="cls-95" d="M35.8 22v.18c-.17.16-.31.35-.57.38v-.09c0-.03 0 0 0 0z"/><path class="cls-96" d="M36.14 18.12a.91.91 0 011 0 1.85 1.85 0 01-1 0z"/><path class="cls-97" d="M67.19 14.51L67 14.4a1.06 1.06 0 01.08-.56c.2.23.1.46.11.67z"/><path class="cls-98" d="M31.08 21.89c.27.21.6 0 .9.1a2.16 2.16 0 01-.94.11c-.07 0-.15 0-.13-.11s.09-.09.17-.1z"/><path class="cls-99" d="M34.8 22l-.54.16-.36-.1c.3-.06.59-.22.9-.06z"/><path class="cls-100" d="M33.1 33.3c.23-.08.33-.38.65-.34a.65.65 0 01-.65.34z"/><path class="cls-101" d="M69.06 72.09a1 1 0 01-.07.65c-.19-.16-.12-.36-.13-.53s.14-.15.2-.12z"/><path class="cls-102" d="M49.38 72.32c-.09 0-.19.12-.26 0s0-.43.18-.59c.14.17.03.39.08.59z"/><path class="cls-103" d="M74.69 76.63c-.11-.08 0-.27-.2-.32a.73.73 0 010-.48.94.94 0 01.2.8z"/><path class="cls-104" d="M47.61 1.51l.2-.1v.53l-.19.11z"/><path class="cls-105" d="M55.09 73.65a1.32 1.32 0 010 1.1 2.91 2.91 0 010-1.1z"/><path class="cls-106" d="M34.82 31.68a.2.2 0 01.1.21.4.4 0 00-.23.26.18.18 0 01-.18-.08v-.06c-.02-.22.14-.28.31-.33z"/><path class="cls-107" d="M8.61 73.65l.1.11a1.18 1.18 0 01-.39.49c-.09-.34.15-.44.29-.6z"/><path class="cls-108" d="M36.89 43.32l.13.15a1 1 0 01-.32.46.17.17 0 01-.13-.13z"/><path class="cls-109" d="M36.57 43.8l.13.13a1 1 0 01-.42.44c-.01-.3.19-.37.29-.57z"/><path class="cls-110" d="M1 83.69h1.12a1.74 1.74 0 01-1.12 0z"/><path class="cls-111" d="M67 76.22l-.18.43a1.38 1.38 0 01.18-.88z"/><path class="cls-11" d="M34.79 24l-.19-.17a.09.09 0 010-.08v-.05s.2-.16.33-.21.13 0 .12.11z"/><path class="cls-112" d="M48.38 13.61c-.21.08-.13-.17-.23-.22l.46-.4c.12.32-.32.35-.23.62z"/><path class="cls-36" d="M35.6 26l.09.21c-.26-.14-.34.16-.53.2s-.14 0-.12-.11c.18-.12.28-.38.56-.3z"/><path class="cls-113" d="M22.49 68.37a1.3 1.3 0 010 1.09z"/><path class="cls-114" d="M33.94 25.61c-.07 0-.1 0-.11-.09s-.16-.09-.23-.13l.68-.22c-.06.22-.32.18-.35.36z"/><path class="cls-115" d="M15.23 83.48a.93.93 0 010-.56.52.52 0 01.13.55.13.13 0 01-.13.01z"/><path class="cls-116" d="M12.13 81c0 .22-.19.32-.22.51h-.1l-.14-.15c.09-.21.33-.27.46-.36z"/><path class="cls-117" d="M15.23 88h.18v.54c-.13.1-.14 0-.19-.1z"/><path class="cls-14" d="M35.17 37.41l-.12.36c0-.12 0-.27-.12-.36s0-.34.22-.34a.26.26 0 01.02.34z"/><path class="cls-118" d="M38.32 42l-.09-.22v-.27c.09 0 .16 0 .2.07z"/><path class="cls-119" d="M69.09 68.57c-.19.2-.2 0-.24-.11v-.31c.12-.06.15 0 .19.11z"/><path class="cls-120" d="M47.61 7.88l.19.21v.44c-.11 0-.16 0-.18-.11z"/><path class="cls-121" d="M35.19 17.45l-.25.12a.23.23 0 010-.39c.12-.06.16.18.25.27z"/><path class="cls-122" d="M53.68 14.73l-.13-.12.47-.2c.06 0 .09 0 .07.08a.67.67 0 01-.41.24z"/><path class="cls-123" d="M74.59 78.72l.09-.14a1.62 1.62 0 01-.14.83c-.16-.27.01-.47.05-.69z"/><path class="cls-34" d="M18.28 53.91c0 .28.18.64-.36.45z"/><path class="cls-124" d="M15.22 88.4l.19.1a.49.49 0 01-.07.43c-.2-.16-.12-.36-.12-.53z"/><path class="cls-125" d="M32.06 28.91a.82.82 0 01.7-.1 1.44 1.44 0 01-.7.22L32 29s.05-.09.06-.09z"/><path class="cls-75" d="M35 26.29l.12.11a1 1 0 01-.57.32c.12-.28.33-.33.45-.43z"/><path class="cls-126" d="M28.2 46.45c-.14 0-.1.18-.2.22a.62.62 0 01.16-.59.44.44 0 01.04.37z"/><path class="cls-127" d="M28 48c.1 0 0 .23.2.23v.41A.62.62 0 0128 48z"/><path class="cls-63" d="M67 22.52l.21-.21c0 .22-.08.45-.13.71-.14-.19-.08-.34-.08-.5z"/><path class="cls-128" d="M59.72 68.92a.77.77 0 010 .87 2.83 2.83 0 010-.87z"/><path class="cls-129" d="M58.72 69.81c-.18.17-.44.07-.65.17s0-.11 0-.17a.89.89 0 01.65 0z"/><path class="cls-130" d="M68.88 67.73a.46.46 0 010-.38.56.56 0 01.15.59c-.14.06-.09-.15-.15-.21z"/><path class="cls-131" d="M23.8 24.18l.1.25V25l-.2-.43c-.01-.17-.06-.31.1-.39z"/><path class="cls-132" d="M67.19 21.64l-.2.11v-.43l.19-.11z"/><path class="cls-133" d="M33.4 28.6c-.18.11-.34.24-.61.13a.7.7 0 01.49-.23s.11.03.12.1z"/><path class="cls-134" d="M45.51.49c-.22 0-.19-.2-.24-.34V0h.11a3.84 3.84 0 01.13.49z"/><path class="cls-135" d="M33.94 23.1a.17.17 0 010 .1c-.11.16-.29.16-.45.2l-.13-.11a1 1 0 01.58-.19z"/><path class="cls-136" d="M35.78 29.44c.06.3-.09.38-.37.34a.56.56 0 01.39-.33z"/><path class="cls-21" d="M34.35 32.21l-.45.15c.18-.29.34-.38.58-.35.07.13-.02.17-.13.2z"/><path class="cls-137" d="M31.74 36c-.08.1-.17.11-.32 0a.84.84 0 01.42-.43c.16.27-.05.34-.1.43z"/><path class="cls-138" d="M35 38.84l-.12-.13c0-.15 0-.32.13-.44.26.19-.01.38-.01.57z"/><path class="cls-139" d="M34.59 38.87s0 .07-.13.06-.09-.09-.08-.16 0-.19.13-.19.09.09.08.29z"/><path class="cls-140" d="M15.23 83.48h.18v.43h-.2z"/><path class="cls-141" d="M33.52 41.13a.77.77 0 01.58-.3c-.1.28-.28.29-.58.3z"/><path class="cls-142" d="M35.25 36.14h-.1c0-.13.09-.17.17-.23h.14c.11.15.12.28-.08.37s-.11-.07-.13-.14z"/><path class="cls-143" d="M28.08 45.11c0-.14-.17-.11-.21-.21s.21 0 .32 0 .2.05.14.16-.16.07-.25.05z"/><path class="cls-97" d="M17.42 71.64a1.13 1.13 0 01-.11.6L17.2 72c.02-.15.05-.3.22-.36z"/><path class="cls-144" d="M69.06 72.09l-.2.12v-.34l.18-.21z"/><path class="cls-145" d="M10.13 72.21a.52.52 0 01.44-.33l-.31.47z"/><path class="cls-146" d="M33.82 20.65l-.26-.11c.21 0 .48-.3.55.15z"/><path class="cls-147" d="M34.15 40.82a.63.63 0 01.46-.42c-.09.3-.21.4-.46.42z"/><path class="cls-148" d="M33.71 30.34a.49.49 0 01-.52.1.59.59 0 01.39-.21c.12-.05.14.01.13.11z"/><path class="cls-37" d="M17.09 74l.2.11v.33a.35.35 0 01-.2-.44z"/><path class="cls-32" d="M33.71 30.34l-.13-.11A.75.75 0 0134 30v.14a.42.42 0 01-.29.2z"/><path class="cls-149" d="M47.62 8.42l.18.11V9l-.19-.2z"/><path class="cls-150" d="M7.71 77.17l.09-.3h.15c.16.2 0 .31-.13.42z"/><path class="cls-68" d="M5.73 78.44c-.07.23-.25.13-.45.2.12-.27.27-.26.45-.2z"/><path class="cls-151" d="M53.12 17.46c-.12-.05-.28-.12 0-.2a1.29 1.29 0 01.48 0c-.15.15-.41-.02-.48.2z"/><path class="cls-152" d="M3.87 80.34a.8.8 0 01.65.14.55.55 0 01-.65-.14z"/><path class="cls-153" d="M25.88 28.48l.11-.21c.12 0 .31-.07.27.12s-.26.1-.38.09z"/><path class="cls-154" d="M33.94 28.19c.05.09.16.18 0 .29h-.26a.2.2 0 01-.11-.11z"/><path class="cls-155" d="M19.17 54.67c-.09-.09-.05-.19 0-.28s.25 0 .26.11-.18.1-.26.17z"/><path class="cls-156" d="M23.89 40.18L23.7 40a.28.28 0 01.06-.3.48.48 0 01.13.48z"/><path class="cls-157" d="M61.06 52.41l-.36-.06c.23-.06.46-.14.66 0z"/><path class="cls-73" d="M34.7 39.5h.1l-.1.43c-.34-.14-.06-.28 0-.43z"/><path class="cls-95" d="M35.24 22.38v.13c0 .16-.2.2-.34.24s-.12 0-.09-.1z"/><path class="cls-158" d="M34.81 40.05c0-.18.12-.25.25-.32a.09.09 0 01.15 0c-.14.1-.1.41-.4.32z"/><path class="cls-139" d="M68.88 67.73l.18.21v.32l-.19-.11z"/><path class="cls-151" d="M54.53 16.9l-.25-.11.18-.1c.09-.05.22-.17.28 0s-.07.18-.21.21z"/><path class="cls-159" d="M69.18 20l-.18-.3v-.29a.63.63 0 01.18.59z"/><path class="cls-160" d="M35.16 29.48l-.1-.11c.14 0 .2-.31.41-.14z"/><path class="cls-161" d="M49.78 8.3c0 .11.08.29-.11.28s-.08-.17-.08-.27a.14.14 0 01.19-.01z"/><path class="cls-162" d="M49.78 8.3h-.19V8h.19z"/><path class="cls-163" d="M35.93 29c0 .14-.08.22-.14.33l-.23-.14a.33.33 0 01.24-.2c.04.01.09.01.13.01z"/><path class="cls-164" d="M32.06 28.91V29c-.13 0-.25.16-.39 0 .09-.13.26-.06.39-.09z"/><path class="cls-165" d="M65.23 18.25v.19c-.12 0-.3.09-.29-.11s.18-.11.29-.08z"/><path class="cls-166" d="M34.2 27c0 .13-.12.14-.19.16s-.16-.07-.13-.12a.48.48 0 01.22-.13s.07.01.1.09z"/><path class="cls-167" d="M35 23.63l-.12-.11a.57.57 0 01.34-.2c.02.14.04.31-.22.31z"/><path class="cls-106" d="M64.44 80.15l-.2.33c0-.15 0-.31.06-.46s.06-.11.1 0 .03.07.04.13z"/><path class="cls-168" d="M49.78 6.47h-.18v-.33c.07-.08.13-.08.19 0z"/><path class="cls-169" d="M63.24 81.91V82c-.1 0-.22 0-.28-.07a.14.14 0 01.06-.11.14.14 0 01.22.09z"/><path class="cls-170" d="M36.93 40c0-.12.1-.26.13-.24s.06.3 0 .45z"/><path class="cls-171" d="M33.6 28.37l.11.11-.31.12-.12-.1z"/><path class="cls-172" d="M69 21.43l.18-.22a.72.72 0 01-.12.47.23.23 0 01-.06-.25z"/><path class="cls-173" d="M37.69 43.38c0 .1-.07.2-.17.21s-.11-.07-.09-.15.07-.18.18-.16.06.07.08.1z"/><path class="cls-125" d="M54.09 14.49l-.09-.08a.35.35 0 01.38-.24.34.34 0 01-.29.32z"/><path class="cls-174" d="M32.7 36.92l-.17.12s-.09-.08-.08-.1a.2.2 0 01.18-.17c.06 0 .09.05.07.15z"/><path class="cls-39" d="M36.14 40.37c0-.07.09-.19.19-.11a.27.27 0 01.1.23c0 .11-.12 0-.18 0s-.02-.13-.11-.12z"/><path class="cls-175" d="M34.47 34.86l.34-.21c.1-.06.12 0 .12.08s-.18.22-.34.23z"/><path class="cls-94" d="M68.75 18.45v-.21c.1 0 .28 0 .26.13s-.16.08-.26.08z"/><path class="cls-176" d="M35.21 39.73h-.15c0-.23.16-.3.31-.4.06.18-.03.29-.16.4z"/><path class="cls-125" d="M32.29 33.84a.63.63 0 01-.47.18.45.45 0 01.47-.23z"/><path class="cls-97" d="M49.78 6.15h-.19c0-.11 0-.27.08-.28s.11.13.11.28z"/><path class="cls-177" d="M34.35 32.21c0-.09.18-.08.13-.21l.21.15v.2h-.19z"/><path class="cls-84" d="M25.45 60.41c0 .19-.05.41-.34.32.09-.13.15-.3.34-.32z"/><path class="cls-105" d="M53.67 59.61c0-.22 0-.43.33-.36z"/><path class="cls-35" d="M66.88 20.55c.09 0 .22-.1.17.11s0 .25-.08.37a.8.8 0 01-.09-.48z"/><path class="cls-178" d="M74.45 74.73l.11-.18h.27c-.01 0-.23.21-.38.18z"/><path class="cls-174" d="M31.93 30.07a.38.38 0 01-.43 0c.15-.15.27-.21.43 0z"/><path class="cls-179" d="M34.75 29.47l-.16.21h-.11l-.25-.11c.16-.1.32-.22.52-.1z"/><path class="cls-180" d="M2 83.33l.35-.11c.06 0 .12.06.08.14a.16.16 0 01-.21.07z"/><path class="cls-181" d="M28.22 87.18l-.06.3c-.09-.21-.1-.36 0-.49z"/><path class="cls-110" d="M1.14 83.54c-.11.07-.27 0-.35.12-.11 0-.11-.11-.06-.15a.4.4 0 01.41.03z"/><path class="cls-98" d="M32.06 22a.38.38 0 01.55 0z"/><path class="cls-182" d="M36.56 7.26s0-.15.09-.14 0 .09.06.14a.27.27 0 01-.08.28c-.09-.07-.08-.18-.07-.28z"/><path class="cls-110" d="M2 83.47a.62.62 0 01-.59.07z"/><path class="cls-183" d="M34.59 23.73v.13c0 .11-.12.11-.2.12l-.13-.11z"/><path class="cls-184" d="M35.85 24.54c0-.27.11-.25.29-.14a.37.37 0 01-.29.14z"/><path class="cls-185" d="M32.61 25.3c-.18.17-.4.09-.61.08a1.39 1.39 0 01.61-.08z"/><path class="cls-186" d="M36.7 28.71a.39.39 0 01.2-.25c0 .08.1.16 0 .25s-.12.03-.2 0z"/><path class="cls-187" d="M66.34 30.11c-.09.05.12.29-.14.22a1.51 1.51 0 010-.3s.07 0 .1-.06z"/><path class="cls-132" d="M32.61 32.92c0-.19.19-.15.28-.2s0 .11 0 .13a.31.31 0 01-.28.07z"/><path class="cls-188" d="M32.29 33.84v-.05c0-.2.2-.1.34-.3-.06.33-.22.3-.34.35z"/><path class="cls-189" d="M31.74 36l.14-.35a.26.26 0 01.17.23z"/><path class="cls-47" d="M34.82 19.68c-.18.17-.39.1-.59.09a1.31 1.31 0 01.59-.09z"/><path class="cls-190" d="M35.39 40.49c.06 0 .14-.1.16 0a.22.22 0 01-.13.24l-.06-.15a.1.1 0 01.03-.09z"/><path class="cls-191" d="M34.82 22.65l.09.1a.2.2 0 01-.21.11l-.1-.1a.23.23 0 01.22-.11z"/><path class="cls-192" d="M35 41.23l.11.14c-.05.13-.14.25-.25.12s.14-.18.14-.26z"/><path class="cls-193" d="M26.1 41.89c0 .2.08.41-.09.58a1.16 1.16 0 01.09-.58z"/><path class="cls-6" d="M75.59 44.45a.29.29 0 01-.34-.3.76.76 0 01.34.3z"/><path class="cls-68" d="M69.08 49c-.06 0-.11-.11 0-.17s.19-.05.26 0z"/><path class="cls-184" d="M76.91 51.28v.41c-.09-.23-.1-.38 0-.51a.09.09 0 010 .1z"/><path class="cls-194" d="M67 15.16c.1 0 .14.07.2.12v.32l-.2-.22z"/><path class="cls-102" d="M72.73 55a.37.37 0 010 .54.68.68 0 010-.54z"/><path class="cls-195" d="M47.38 12.93a.25.25 0 010 .1c0 .06-.09 0-.09 0s0-.28.1-.38z"/><path class="cls-196" d="M27.78 12.48c-.05.07 0 .2-.08.24l-.06-.13c0-.09 0-.23.07-.26s.07.08.07.15z"/><path class="cls-197" d="M31.73 81.78c0-.07-.06-.15 0-.2s.15 0 .23 0-.11.19-.23.2z"/><path class="cls-198" d="M65.53 82l-.1-.2c.11 0 .24 0 .28.09s-.09.11-.18.11z"/><path class="cls-199" d="M42.33 41a1.13 1.13 0 010 1z"/><path class="cls-9" d="M15.89 75.75c-.16 0-.08.3-.3.26-.09-.22.09-.4.08-.62.17.09.18.23.21.37z"/><path class="cls-200" d="M8.71 82.35l-.13-.12.56-.41a.67.67 0 01-.43.53z"/><path class="cls-201" d="M35.73 35.66a.58.58 0 01.15-.37l.07.14-.12.58z"/><path class="cls-202" d="M34.93 34.73l-.12-.08a.86.86 0 01.61-.22z"/><path class="cls-24" d="M52.57 15.47a.46.46 0 01-.35.2c.1-.22.1-.22.35-.2z"/><path class="cls-151" d="M53.21 16.93h.66a.54.54 0 01-.66 0z"/><path class="cls-203" d="M35.93 29h-.13c.08-.12.17-.23.34-.21.01.21-.07.21-.21.21z"/><path class="cls-204" d="M35.17 37.41v-.34c.07-.15 0-.34.1-.48a.2.2 0 01.23 0 3.77 3.77 0 01-.2.93z"/><path class="cls-205" d="M35.48 36.63h-.21c-.07 0-.07-.08-.1-.12l.08-.4.13.06a.34.34 0 01.11.25z"/><path class="cls-206" d="M35.49 36.45a.27.27 0 01-.11-.25c.12-.09.1-.21.08-.33h.12a.7.7 0 01-.09.58z"/><path class="cls-207" d="M35.17 36.54l.1.12c0 .14 0 .32-.12.43 0-.12-.18-.2-.11-.34s.09-.14.13-.21z"/></svg>
