<svg class="icon icon--javascript" xmlns="http://www.w3.org/2000/svg" viewBox="0 0 1648 1169.7"><path d="M0 954.9l191.3-115.8c36.9 65.4 70.5 120.8 151 120.8 77.2 0 125.9-30.2 125.9-147.7V13.4h234.9v802.1c0 243.3-142.6 354.1-350.7 354.1-187.9.1-297-97.3-352.4-214.7m830.8-25.2l191.3-110.8c50.4 82.2 115.8 142.6 231.6 142.6 97.4 0 159.4-48.7 159.4-115.8 0-80.5-63.8-109.1-171.2-156.1l-58.7-25.2c-169.5-72.1-281.9-162.8-281.9-354.1 0-176.2 134.2-310.5 344-310.5 149.4 0 256.8 52 333.9 188l-182.9 117.5c-40.3-72.2-83.9-100.7-151-100.7-68.8 0-112.4 43.6-112.4 100.7 0 70.5 43.6 99 144.3 142.7l58.7 25.2c199.7 85.6 312.1 172.9 312.1 369.2 0 211.5-166.1 327.2-389.3 327.2-218.2.1-359.1-104-427.9-239.9" fill="currentColor"/></svg>
