<svg class="icon icon-nodejs" fill="currentColor" version="1.1" id="Layer_1" xmlns="http://www.w3.org/2000/svg" xmlns:xlink="http://www.w3.org/1999/xlink" x="0" y="0" viewBox="0 0 100 100" xml:space="preserve"><path d="M53.8 100c-.3 0-.6-.1-.9-.2l-2.8-1.6c-.4-.2-.2-.3-.1-.4.5-.2.7-.2 1.2-.6h.2l2.1 1.3h.3l8.3-4.8c.1 0 .1-.1.1-.2V84c0-.1 0-.2-.1-.2L53.9 79h-.3l-8.3 4.8c-.1 0-.1.1-.1.2v9.5c0 .1.1.2.1.2l2.3 1.3c1.2.6 2-.1 2-.8v-9.4c0-.1.1-.2.2-.2h1c.1 0 .2.1.2.2v9.4c0 1.6-.9 2.6-2.4 2.6-.5 0-.9 0-1.9-.5L44.6 95c-.5-.3-.9-.9-.9-1.5V84c0-.6.3-1.2.9-1.5l8.3-4.8c.5-.3 1.2-.3 1.7 0l8.3 4.8c.5.3.9.9.9 1.5v9.5c0 .6-.3 1.2-.9 1.5l-8.3 4.8c-.2.1-.5.2-.8.2z"/><path d="M56.3 93.4c-3.6 0-4.4-1.7-4.4-3 0-.1.1-.2.2-.2h1.1c.1 0 .2.1.2.2.2 1.1.6 1.6 2.8 1.6 1.7 0 2.5-.4 2.5-1.3 0-.5-.2-.9-2.9-1.2-2.3-.2-3.7-.7-3.7-2.5 0-1.7 1.4-2.7 3.8-2.7 2.6 0 4 .9 4.1 2.9 0 .1 0 .1-.1.2 0 0-.1.1-.2.1h-1.1c-.1 0-.2-.1-.2-.2-.3-1.1-.9-1.5-2.6-1.5-1.9 0-2.1.7-2.1 1.2 0 .6.3.8 2.8 1.1 2.5.3 3.7.8 3.7 2.6.2 1.7-1.3 2.7-3.9 2.7zm11.9-10c0 .9-.7 1.6-1.6 1.6-.9 0-1.6-.7-1.6-1.6 0-.9.7-1.6 1.6-1.6.9 0 1.6.7 1.6 1.6zm-2.9 0c0 .7.6 1.3 1.3 1.3.7 0 1.3-.6 1.3-1.3 0-.7-.6-1.3-1.3-1.3-.7 0-1.3.6-1.3 1.3zm.7-.9h.6c.2 0 .6 0 .6.5 0 .3-.2.4-.3.4.2 0 .3.2.3.4 0 .1 0 .4.1.5h-.4c0-.1-.1-.5-.1-.6 0-.1-.1-.2-.2-.2h-.3v.7H66v-1.7zm.4.8h.3c.2 0 .3-.2.3-.3 0-.2-.2-.2-.3-.2h-.3v.5z"/><path class="st0" d="M28.2 62.7c0-.4-.2-.7-.5-.9l-8.8-5c-.1-.1-.3-.1-.5-.1h-.1c-.2 0-.3.1-.5.1l-8.8 5c-.3.2-.5.5-.5.9v13.6c0 .2.1.4.3.5.2.1.4.1.5 0l5.2-3c.3-.2.5-.5.5-.9v-6.3c0-.4.2-.7.5-.9l2.2-1.3c.2-.1.3-.1.5-.1s.4 0 .5.1l2.2 1.3c.3.2.5.5.5.9v6.3c0 .4.2.7.5.9l5.2 3c.2.1.4.1.5 0 .2-.1.3-.3.3-.5l.3-13.6zm42.1-18.6c-.2-.1-.4-.1-.5 0-.2.1-.3.3-.3.5V58c0 .1-.1.3-.2.3-.1.1-.3.1-.4 0L66.8 57c-.3-.2-.7-.2-1.1 0L57 62.1c-.3.2-.5.5-.5.9v10.1c0 .4.2.7.5.9l8.8 5.1c.3.2.7.2 1.1 0l8.8-5.1c.3-.2.5-.5.5-.9V47.9c0-.4-.2-.7-.5-.9l-5.4-2.9zm-.8 25.7c0 .1-.1.2-.1.2l-3 1.7h-.3l-3-1.7c-.1 0-.1-.1-.1-.2v-3.5c0-.1.1-.2.1-.2l3-1.7h.3l3 1.7c.1 0 .1.1.1.2v3.5zm30-3.6c.3-.2.5-.5.5-.9v-2.5c0-.4-.2-.7-.5-.9l-8.7-5.1c-.3-.2-.7-.2-1.1 0L81 61.9c-.3.2-.5.5-.5.9V73c0 .4.2.7.5.9l8.7 5c.3.2.7.2 1 0L96 76c.2-.1.3-.3.3-.5s-.1-.4-.3-.5l-8.8-5.1c-.2-.1-.3-.3-.3-.5v-3.2c0-.2.1-.4.3-.5l2.7-1.6c.2-.1.4-.1.5 0l2.7 1.6c.2.1.3.3.3.5v2.5c0 .2.1.4.3.5.2.1.4.1.5 0l5.3-3z"/><path class="st0" d="M90.1 65.7h.2l1.7 1c.1 0 .1.1.1.2v1.9c0 .1 0 .1-.1.2l-1.7 1h-.2l-1.7-1c-.1 0-.1-.1-.1-.2v-1.9c0-.1 0-.1.1-.2l1.7-1z"/><path id="XMLID_67_" class="st0" d="M41.8 56.9c.3-.2.7-.2 1 0l8.7 5c.3.2.5.5.5.9v10c0 .4-.2.7-.5.9l-8.7 5c-.3.2-.7.2-1 0l-8.7-5c-.3-.2-.5-.5-.5-.9v-10c0-.4.2-.7.5-.9l8.7-5z"/><defs><path id="XMLID_64_" d="M42.8 56.9c-.3-.2-.7-.2-1 0l-8.7 5c-.3.2-.5.5-.5.9v10c0 .4.2.7.5.9l8.7 5c.3.2.7.2 1 0l8.7-5c.3-.2.5-.5.5-.9v-10c0-.4-.2-.7-.5-.9l-8.7-5z"/></defs><use xlink:href="#XMLID_64_" overflow="visible" fill-rule="evenodd" clip-rule="evenodd"/><clipPath id="XMLID_6_"><use xlink:href="#XMLID_64_" overflow="visible"/></clipPath><g class="st1"><path d="M41.8 56.9l-8.7 5c-.3.2-.5.5-.5.9v10c0 .2.1.5.2.7l9.8-16.7c-.3 0-.6 0-.8.1zm.8 22c.1 0 .1-.1.2-.1l8.7-5c.3-.2.5-.5.5-.9v-10c0-.3-.1-.5-.2-.7l-9.2 16.7z"/><path d="M51.5 61.9l-8.6-5c-.1-.1-.2-.1-.3-.1l-9.8 16.7.3.3 8.7 5c.3.1.6.2.8.1l9.1-16.7c0-.1-.1-.2-.2-.3z" opacity=".66"/></g><g class="st1"><path d="M33.2 61.9c-.4.2-.6.6-.6 1v10c0 .4.2.7.5.9l8.7 5c.2.1.5.2.8.1l-9.4-17zm18.8 1c0-.4-.2-.7-.5-.9l-8.6-5c-.1 0-.2-.1-.2-.1l9.4 16v-10z"/><path d="M42.8 78.8l8.7-5c.3-.2.5-.5.5-.9l-9.4-16c-.3-.1-.6 0-.8.1l-8.6 5 9.4 17c0-.1.1-.1.2-.2z"/></g></svg>
